<?xml version="1.0" encoding="UTF-8" standalone="no"?>
<!DOCTYPE svg PUBLIC "-//W3C//DTD SVG 1.1//EN" "http://www.w3.org/Graphics/SVG/1.1/DTD/svg11.dtd">
<!-- Created with Vectornator (http://vectornator.io/) -->
<svg height="100%" stroke-miterlimit="10" style="fill-rule:nonzero;clip-rule:evenodd;stroke-linecap:round;stroke-linejoin:round;" version="1.1" viewBox="0 0 432 324" width="100%" xml:space="preserve" xmlns="http://www.w3.org/2000/svg" xmlns:xlink="http://www.w3.org/1999/xlink">
<defs/>
<path d="M0 0L432 0L432 324L0 324L0 0Z" fill="#ffffff" fill-rule="nonzero" opacity="1" stroke="none"/>
<clipPath id="ArtboardFrame">
<rect height="324" width="432" x="0" y="0"/>
</clipPath>
<g clip-path="url(#ArtboardFrame)" id="Layer-1">
<g opacity="1">
<path d="M-20.5713-0.794863C-20.5713 155.125-20.5713 155.125-20.5713 311.044C-19.6635 311.11-21.0805 305.852-20.985 306.503C-20.4018 310.474-21.1313 320.239-21.1313 324.235C204.034 324.315 207.249 323.813 432.414 323.892C432.414 161.549 432.414 161.549 432.414-0.794863C205.921-0.794863 205.921-0.794863-20.5713-0.794863Z" fill="#fbfdfc" fill-rule="nonzero" opacity="1" stroke="none"/>
<path d="M186.77 63.3403C159.272 75.8339 139.77 95.7536 115.514 111.401C107.172 116.782 98.977 122.281 90.7289 127.738C89.9714 128.24 83.4433 132.211 83.2049 132.656C82.5359 133.902 83.4262 136.727 83.4262 138.207C83.4262 143.6 83.6475 148.993 83.6475 154.386C83.6475 158.714 83.1983 162.357 83.6475 166.758C83.6627 166.907 83.8816 167.07 84.0901 167.075C88.0708 167.177 92.0566 167.066 96.0399 167.075C119.202 167.128 142.364 167.075 165.526 167.075C206.981 167.075 248.437 167.287 289.892 167.234C290.101 167.234 290.326 167.066 290.335 166.917C290.497 163.956 291.362 160.967 290.777 158.034C290.748 157.886 290.543 157.719 290.335 157.717C281.927 157.613 273.516 157.767 265.107 157.717C257.37 157.671 249.294 157.845 241.429 157.717C240.761 157.706 240.082 157.684 239.437 157.558C239.236 157.519 238.998 157.391 238.995 157.241C238.85 151.267 238.922 145.292 238.995 139.317C239.063 133.705 228.778 133.766 223.283 133.766C219.602 133.766 214.278 136.727 214.21 139.317C214.068 144.763 213.989 150.209 213.989 155.655C213.989 155.943 214.554 157.687 213.767 157.717C198.449 158.295 182.488 157.558 167.075 157.558C164.344 157.558 161.616 157.767 158.887 157.717C158.678 157.713 158.448 157.549 158.444 157.4C158.299 150.58 158.444 143.759 158.444 136.938C158.444 133.079 158.373 129.219 158.444 125.359C158.448 125.141 158.53 124.92 158.666 124.725C159.636 123.334 165.354 120.089 166.853 119.015C171.321 115.812 175.869 112.552 180.352 109.339C189.682 102.651 199.393 96.2652 209.12 89.8292C211.881 88.0027 214.697 86.2138 217.308 84.2776C217.411 84.2016 217.4 84.043 217.308 83.9604C214.538 81.4788 209.59 78.0515 206.022 76.3468C205.335 76.0182 202.67 78.5911 202.039 79.0433C199.273 81.0262 196.444 82.9643 193.63 84.9121C182.356 92.714 171.05 100.469 159.772 108.229C157.401 109.86 155.075 111.524 152.691 113.146C149.716 115.169 146.789 117.279 143.618 119.173C142.827 119.645 140.244 120.192 139.856 119.173C139.162 117.35 141.708 116.832 143.175 115.842C147.497 112.927 152.024 109.975 156.231 106.96C168.04 98.4958 180.332 90.2229 192.745 82.2156C196.043 80.0878 199.199 77.8513 202.482 75.7124C202.537 75.6763 204.485 74.8357 204.252 74.602C199.895 70.2303 193.058 60.4832 186.77 63.3403Z" fill="#0a7bc5" fill-rule="nonzero" opacity="1" stroke="none"/>
<path d="M183.229 43.8305C174.361 44.2044 170.217 48.3542 163.755 52.713C157.234 57.1124 150.369 61.3565 144.06 65.8782C142.067 67.3067 139.92 68.6205 137.864 70.0022C136.972 70.6018 130.567 74.3669 130.561 74.4434C130.422 76.3971 130.521 78.3562 130.561 80.3122C130.595 81.9519 130.783 83.5894 130.783 85.2293C130.783 85.9714 130.272 86.9252 131.004 87.45C138.221 82.2773 145.937 77.4568 153.355 72.3814C160.15 67.7323 166.999 63.1211 173.935 58.5818C176.315 57.0243 180.027 53.9608 183.45 53.3475C193.741 51.5034 200.061 58.5715 206.686 63.0231C218.273 70.8094 230.081 78.5604 242.093 86.0224C259.871 97.0665 277.194 108.57 294.539 119.966C296.625 121.336 299.17 122.651 301.178 124.09C304.799 126.686 309.429 131.051 314.234 127.263C315.906 125.944 315.173 122.86 315.119 121.711C314.977 118.646 302.982 112.369 300.071 110.449C297.997 109.081 295.961 107.684 293.875 106.325C292.252 105.268 290.63 104.21 289.007 103.153C267.93 89.419 246.34 76.1034 225.496 62.23C218.989 57.8992 212.888 53.2499 206.022 49.2235C204.077 48.0827 201.127 45.6349 198.498 45.2581C194.359 44.6647 190.163 43.8305 183.229 43.8305Z" fill="#7babc6" fill-rule="nonzero" opacity="1" stroke="none"/>
<path d="M111.973 65.5609C109.706 65.4537 105.802 67.0873 105.777 69.0505C105.704 74.7607 105.682 80.4713 105.555 86.181C105.515 88.0177 106.244 88.5453 104.892 89.3533C96.1753 94.5597 87.959 100.3 79.6642 105.849C73.1868 110.183 66.2052 114.228 59.9692 118.697C55.0685 122.21 58.3798 129.007 65.2802 129.007C68.6876 129.007 73.0319 124.963 74.7958 123.773C79.7129 120.456 84.5987 117.18 89.6224 113.939C100.108 107.175 110.627 100.454 121.046 93.636C121.623 93.2582 131.217 87.3338 131.225 87.2913C132.008 83.3646 131.141 78.3752 131.004 74.4434C130.849 69.9941 132.611 69.1986 127.906 66.0368C124.855 63.9866 115.989 65.7509 111.973 65.5609Z" fill="#07074a" fill-rule="nonzero" opacity="1" stroke="none"/>
<path d="M134.766 192.612C130.519 195.656 127.306 199.636 123.701 203.081C121.094 205.573 118.899 208.027 116.399 210.536C114.001 212.942 110.147 215.652 109.317 218.625C108.399 221.918 114.175 222.571 117.063 220.846C124.124 216.628 128.763 209.073 134.102 203.716C135.896 201.915 142.608 197.668 141.626 196.261C142.95 195.312 144.793 193.725 146.273 192.93C146.942 192.57 147.254 193.178 148.265 192.454C143.665 189.157 138.9 186.059 134.323 182.778C132.109 181.191 130.501 178.723 127.463 178.178C123.352 177.442 120.603 179.298 120.603 182.144C120.603 182.666 121.269 183.091 121.71 183.413C125.253 186.002 128.754 188.62 132.332 191.185C133.563 192.068 133.7 192.103 134.766 192.612Z" fill="#0c4392" fill-rule="nonzero" opacity="1" stroke="none"/>
<path d="M148.044 192.295C147.111 192.813 146.909 192.309 146.273 192.612C144.679 193.374 142.434 195.093 141.184 196.102C140.55 196.613 144.304 198.799 144.503 198.957C145.378 199.651 146.236 200.358 147.158 201.019C154.851 206.533 162.712 212.009 170.394 217.515C172.914 219.322 177.08 222.287 179.91 224.653C180.79 225.389 182.405 227.401 183.893 227.508C186.935 227.726 193.862 225.615 190.753 222.75C186.894 219.193 181.903 216.089 177.475 212.915C174.052 210.462 170.271 208.228 166.853 205.778C160.665 201.342 154.87 196.752 148.486 192.454C148.366 192.373 148.174 192.223 148.044 192.295Z" fill="#0a7bc5" fill-rule="nonzero" opacity="1" stroke="none"/>
<path d="M203.809 74.7607C201.754 75.4971 200.394 76.9641 198.72 78.0916C195.651 80.1578 192.374 82.1638 189.425 84.2776C178.109 92.389 165.798 99.7855 154.461 107.911C150.863 110.49 146.996 112.945 143.396 115.525C141.997 116.528 138.378 117.243 139.413 119.173C141.308 122.704 150.742 114.701 152.469 113.463C154.793 111.797 157.18 110.177 159.551 108.546C163.389 105.904 167.218 103.255 171.058 100.615C175.877 97.3021 180.648 93.954 185.442 90.6223C192.023 86.0479 199.844 81.8034 205.58 76.6641C204.145 75.464 203.948 75.9897 204.473 75.2365C204.141 74.9986 204.141 74.9986 203.809 74.7607Z" fill="#daeef0" fill-rule="nonzero" opacity="1" stroke="none"/>
<path d="M197.171 104.422C195.954 104.435 193.674 104.185 193.63 105.056C193.417 109.283 193.486 113.517 193.63 117.746C193.635 117.895 193.864 118.059 194.072 118.063C199.824 118.166 205.584 118.216 211.333 118.063C211.646 118.055 211.986 117.811 211.997 117.587C212.21 113.307 212.141 109.021 211.997 104.739C211.992 104.59 211.763 104.426 211.555 104.422C206.762 104.319 201.965 104.369 197.171 104.422Z" fill="#28a4df" fill-rule="nonzero" opacity="1" stroke="none"/>
<path d="M243.863 104.422C242.711 104.447 242.329 104.54 242.314 105.374C242.243 109.498 242.021 113.622 242.093 117.746C242.095 117.895 242.327 118.059 242.535 118.063C248.14 118.166 253.752 118.215 259.354 118.063C259.666 118.054 260.006 117.811 260.018 117.587C260.231 113.36 260.161 109.126 260.018 104.898C259.981 103.835 257.074 104.595 255.592 104.58C251.682 104.541 247.772 104.337 243.863 104.422Z" fill="#28a4df" fill-rule="nonzero" opacity="1" stroke="none"/>
<path d="M145.831 191.185C146.052 191.026 146.052 191.026 146.273 190.868C147.164 191.187 151.504 186.433 152.248 185.633C155.784 181.831 167.785 173.91 160.879 169.454C156.895 166.884 152.238 173.326 150.699 175.165C148.232 178.112 145.237 181.173 142.29 183.889C141.51 184.607 139.634 185.747 139.634 186.744C139.634 187.679 141.35 188.157 142.29 188.806C143.455 189.61 144.65 190.392 145.831 191.185Z" fill="#12bcf2" fill-rule="nonzero" opacity="1" stroke="none"/>
<path d="M289.671 216.563C286.695 216.747 286.078 220.857 289.228 221.798C292.473 222.767 293.084 218.403 291.884 217.198C290.796 216.106 291.003 216.481 289.671 216.563Z" fill="#fbfdfc" fill-rule="nonzero" opacity="1" stroke="none"/>
</g>
<g fill="#737a76" opacity="1" stroke="none">
<path d="M77.208 228.996L77.208 232.632L82.7574 232.632L82.7574 228.996C82.7574 228.476 82.8743 228.087 83.1081 227.827C83.3418 227.567 83.6491 227.438 84.0301 227.438C84.4168 227.438 84.7299 227.566 84.9694 227.823C85.2089 228.08 85.3287 228.471 85.3287 228.996L85.3287 238.995C85.3287 239.52 85.2075 239.913 84.9651 240.173C84.7227 240.432 84.411 240.562 84.0301 240.562C83.6434 240.562 83.3346 240.431 83.1037 240.168C82.8729 239.906 82.7574 239.515 82.7574 238.995L82.7574 234.727L77.208 234.727L77.208 238.995C77.208 239.52 77.0868 239.913 76.8444 240.173C76.602 240.432 76.2903 240.562 75.9094 240.562C75.5227 240.562 75.2139 240.431 74.983 240.168C74.7522 239.906 74.6367 239.515 74.6367 238.995L74.6367 228.996C74.6367 228.476 74.7507 228.087 74.9787 227.827C75.2067 227.567 75.5169 227.438 75.9094 227.438C76.2961 227.438 76.6092 227.566 76.8487 227.823C77.0882 228.08 77.208 228.471 77.208 228.996Z"/>
<path d="M96.7739 235.757C96.7739 236.462 96.6642 237.111 96.4449 237.705C96.2256 238.3 95.9081 238.811 95.4926 239.238C95.077 239.665 94.5807 239.992 94.0035 240.22C93.4263 240.448 92.777 240.562 92.0556 240.562C91.3399 240.562 90.6963 240.447 90.1249 240.216C89.5535 239.985 89.0586 239.655 88.6402 239.225C88.2217 238.795 87.9043 238.287 87.6879 237.701C87.4714 237.115 87.3632 236.467 87.3632 235.757C87.3632 235.042 87.4729 234.387 87.6922 233.792C87.9115 233.198 88.2261 232.69 88.6359 232.268C89.0456 231.847 89.542 231.522 90.1249 231.294C90.7079 231.066 91.3514 230.952 92.0556 230.952C92.7712 230.952 93.4206 231.068 94.0035 231.299C94.5864 231.53 95.0857 231.859 95.5012 232.286C95.9168 232.713 96.2328 233.221 96.4492 233.809C96.6657 234.398 96.7739 235.047 96.7739 235.757ZM94.4017 235.757C94.4017 234.793 94.1896 234.043 93.7654 233.506C93.3412 232.97 92.7712 232.701 92.0556 232.701C91.5938 232.701 91.1869 232.821 90.8349 233.061C90.4828 233.3 90.2115 233.654 90.0211 234.121C89.8306 234.589 89.7354 235.134 89.7354 235.757C89.7354 236.375 89.8291 236.915 90.0167 237.376C90.2043 237.838 90.4727 238.192 90.8219 238.437C91.1711 238.682 91.5823 238.805 92.0556 238.805C92.7712 238.805 93.3412 238.535 93.7654 237.995C94.1896 237.456 94.4017 236.71 94.4017 235.757Z"/>
<path d="M106.496 235.931L106.496 239.073C106.496 239.57 106.384 239.942 106.159 240.19C105.933 240.438 105.636 240.562 105.267 240.562C104.909 240.562 104.619 240.438 104.397 240.19C104.175 239.942 104.063 239.57 104.063 239.073L104.063 235.307C104.063 234.713 104.043 234.251 104.003 233.922C103.962 233.593 103.853 233.323 103.674 233.113C103.495 232.902 103.212 232.797 102.825 232.797C102.052 232.797 101.543 233.062 101.297 233.593C101.052 234.124 100.929 234.886 100.929 235.879L100.929 239.073C100.929 239.564 100.818 239.935 100.596 240.186C100.374 240.437 100.081 240.562 99.7174 240.562C99.3596 240.562 99.0667 240.437 98.8387 240.186C98.6107 239.935 98.4967 239.564 98.4967 239.073L98.4967 232.312C98.4967 231.867 98.5992 231.53 98.8041 231.299C99.0089 231.068 99.2788 230.952 99.6135 230.952C99.9367 230.952 100.207 231.061 100.423 231.277C100.639 231.494 100.748 231.792 100.748 232.173L100.748 232.398C101.157 231.908 101.596 231.547 102.064 231.316C102.531 231.085 103.051 230.97 103.622 230.97C104.216 230.97 104.727 231.088 105.154 231.325C105.581 231.561 105.933 231.919 106.211 232.398C106.609 231.913 107.036 231.554 107.492 231.32C107.948 231.087 108.453 230.97 109.007 230.97C109.653 230.97 110.21 231.097 110.678 231.351C111.145 231.605 111.494 231.968 111.725 232.442C111.927 232.869 112.028 233.541 112.028 234.459L112.028 239.073C112.028 239.57 111.916 239.942 111.691 240.19C111.466 240.438 111.168 240.562 110.799 240.562C110.441 240.562 110.148 240.437 109.92 240.186C109.692 239.935 109.578 239.564 109.578 239.073L109.578 235.099C109.578 234.591 109.557 234.185 109.513 233.879C109.47 233.573 109.353 233.316 109.163 233.108C108.972 232.9 108.684 232.797 108.297 232.797C107.985 232.797 107.69 232.889 107.41 233.074C107.13 233.258 106.912 233.506 106.756 233.818C106.583 234.216 106.496 234.92 106.496 235.931Z"/>
<path d="M120.92 236.337L116.296 236.337C116.302 236.874 116.41 237.347 116.621 237.757C116.832 238.167 117.112 238.476 117.461 238.684C117.81 238.891 118.195 238.995 118.617 238.995C118.899 238.995 119.158 238.962 119.392 238.896C119.625 238.829 119.852 238.725 120.071 238.584C120.29 238.443 120.492 238.291 120.677 238.13C120.862 237.968 121.101 237.749 121.396 237.472C121.517 237.368 121.69 237.316 121.915 237.316C122.158 237.316 122.354 237.382 122.504 237.515C122.654 237.648 122.729 237.835 122.729 238.078C122.729 238.291 122.645 238.541 122.478 238.826C122.311 239.112 122.058 239.386 121.72 239.649C121.383 239.912 120.959 240.129 120.448 240.303C119.937 240.476 119.35 240.562 118.686 240.562C117.168 240.562 115.988 240.129 115.145 239.264C114.302 238.398 113.881 237.223 113.881 235.74C113.881 235.042 113.985 234.394 114.193 233.796C114.4 233.199 114.704 232.687 115.102 232.26C115.5 231.833 115.991 231.505 116.574 231.277C117.156 231.049 117.803 230.935 118.513 230.935C119.436 230.935 120.228 231.13 120.889 231.52C121.55 231.909 122.045 232.413 122.374 233.03C122.703 233.648 122.868 234.277 122.868 234.918C122.868 235.512 122.697 235.897 122.357 236.073C122.016 236.249 121.537 236.337 120.92 236.337ZM116.296 234.996L120.582 234.996C120.524 234.187 120.306 233.583 119.928 233.182C119.55 232.781 119.052 232.58 118.435 232.58C117.846 232.58 117.363 232.784 116.985 233.19C116.607 233.597 116.377 234.199 116.296 234.996Z"/>
<path d="M132.91 234.918L132.01 234.918L132.01 238.995C132.01 239.532 131.891 239.927 131.655 240.181C131.418 240.435 131.109 240.562 130.728 240.562C130.319 240.562 130.001 240.43 129.776 240.164C129.551 239.899 129.439 239.509 129.439 238.995L129.439 229.23C129.439 228.676 129.563 228.274 129.811 228.026C130.059 227.778 130.46 227.654 131.014 227.654L135.196 227.654C135.773 227.654 136.266 227.678 136.676 227.728C137.086 227.777 137.455 227.876 137.784 228.026C138.183 228.194 138.535 228.433 138.841 228.745C139.146 229.056 139.379 229.419 139.537 229.831C139.696 230.244 139.776 230.681 139.776 231.143C139.776 232.089 139.509 232.846 138.975 233.411C138.441 233.977 137.631 234.378 136.546 234.615C137.002 234.857 137.438 235.215 137.854 235.688C138.269 236.161 138.64 236.665 138.966 237.199C139.292 237.733 139.546 238.215 139.728 238.645C139.91 239.075 140.001 239.37 140.001 239.532C140.001 239.699 139.947 239.865 139.84 240.03C139.734 240.194 139.588 240.324 139.403 240.419C139.219 240.515 139.005 240.562 138.763 240.562C138.474 240.562 138.232 240.494 138.035 240.359C137.839 240.223 137.67 240.051 137.529 239.844C137.388 239.636 137.196 239.33 136.953 238.926L135.923 237.212C135.554 236.583 135.223 236.104 134.932 235.775C134.64 235.446 134.344 235.221 134.044 235.099C133.744 234.978 133.366 234.918 132.91 234.918ZM134.382 229.585L132.01 229.585L132.01 233.074L134.313 233.074C134.93 233.074 135.45 233.02 135.871 232.913C136.292 232.807 136.614 232.625 136.836 232.368C137.059 232.111 137.17 231.758 137.17 231.307C137.17 230.955 137.08 230.645 136.901 230.377C136.722 230.108 136.474 229.908 136.157 229.775C135.857 229.648 135.265 229.585 134.382 229.585Z"/>
<path d="M148.199 236.337L143.576 236.337C143.582 236.874 143.69 237.347 143.901 237.757C144.111 238.167 144.391 238.476 144.741 238.684C145.09 238.891 145.475 238.995 145.896 238.995C146.179 238.995 146.437 238.962 146.671 238.896C146.905 238.829 147.132 238.725 147.351 238.584C147.57 238.443 147.772 238.291 147.957 238.13C148.142 237.968 148.381 237.749 148.675 237.472C148.797 237.368 148.97 237.316 149.195 237.316C149.437 237.316 149.634 237.382 149.784 237.515C149.934 237.648 150.009 237.835 150.009 238.078C150.009 238.291 149.925 238.541 149.758 238.826C149.59 239.112 149.338 239.386 149 239.649C148.662 239.912 148.238 240.129 147.727 240.303C147.217 240.476 146.629 240.562 145.966 240.562C144.448 240.562 143.267 240.129 142.425 239.264C141.582 238.398 141.161 237.223 141.161 235.74C141.161 235.042 141.265 234.394 141.472 233.796C141.68 233.199 141.983 232.687 142.381 232.26C142.78 231.833 143.27 231.505 143.853 231.277C144.436 231.049 145.083 230.935 145.792 230.935C146.716 230.935 147.508 231.13 148.169 231.52C148.83 231.909 149.325 232.413 149.654 233.03C149.983 233.648 150.147 234.277 150.147 234.918C150.147 235.512 149.977 235.897 149.636 236.073C149.296 236.249 148.817 236.337 148.199 236.337ZM143.576 234.996L147.862 234.996C147.804 234.187 147.586 233.583 147.208 233.182C146.83 232.781 146.332 232.58 145.715 232.58C145.126 232.58 144.642 232.784 144.264 233.19C143.886 233.597 143.657 234.199 143.576 234.996Z"/>
<path d="M154.086 232.277L154.086 232.563C154.531 232.014 154.992 231.612 155.472 231.355C155.951 231.098 156.493 230.97 157.099 230.97C157.826 230.97 158.496 231.157 159.108 231.533C159.719 231.908 160.203 232.456 160.558 233.177C160.913 233.899 161.09 234.753 161.09 235.74C161.09 236.467 160.988 237.135 160.783 237.744C160.578 238.353 160.297 238.864 159.939 239.277C159.581 239.689 159.158 240.007 158.67 240.229C158.183 240.451 157.659 240.562 157.099 240.562C156.424 240.562 155.857 240.427 155.398 240.155C154.939 239.884 154.502 239.486 154.086 238.961L154.086 242.51C154.086 243.549 153.708 244.069 152.952 244.069C152.508 244.069 152.213 243.934 152.069 243.666C151.925 243.398 151.853 243.007 151.853 242.493L151.853 232.294C151.853 231.844 151.951 231.508 152.147 231.286C152.343 231.064 152.612 230.952 152.952 230.952C153.287 230.952 153.56 231.066 153.77 231.294C153.981 231.522 154.086 231.85 154.086 232.277ZM158.718 235.714C158.718 235.091 158.623 234.555 158.432 234.108C158.242 233.661 157.978 233.317 157.64 233.078C157.303 232.838 156.929 232.719 156.519 232.719C155.867 232.719 155.317 232.975 154.87 233.489C154.423 234.003 154.199 234.759 154.199 235.757C154.199 236.698 154.421 237.43 154.866 237.952C155.31 238.474 155.861 238.736 156.519 238.736C156.912 238.736 157.275 238.622 157.61 238.394C157.945 238.166 158.213 237.824 158.415 237.368C158.617 236.912 158.718 236.36 158.718 235.714Z"/>
<path d="M168.96 239.229C168.388 239.673 167.836 240.007 167.302 240.229C166.768 240.451 166.169 240.562 165.506 240.562C164.9 240.562 164.367 240.442 163.908 240.203C163.449 239.963 163.096 239.639 162.848 239.229C162.6 238.819 162.475 238.375 162.475 237.896C162.475 237.249 162.68 236.698 163.09 236.242C163.5 235.786 164.063 235.48 164.778 235.324C164.928 235.29 165.301 235.212 165.895 235.091C166.49 234.97 166.999 234.858 167.423 234.757C167.847 234.656 168.308 234.534 168.804 234.389C168.775 233.766 168.65 233.309 168.427 233.017C168.205 232.726 167.745 232.58 167.047 232.58C166.446 232.58 165.995 232.664 165.692 232.831C165.389 232.999 165.129 233.25 164.913 233.584C164.696 233.919 164.543 234.14 164.454 234.247C164.364 234.353 164.172 234.407 163.878 234.407C163.612 234.407 163.383 234.322 163.19 234.151C162.996 233.981 162.9 233.763 162.9 233.498C162.9 233.082 163.047 232.678 163.341 232.286C163.636 231.893 164.094 231.57 164.718 231.316C165.341 231.062 166.117 230.935 167.047 230.935C168.085 230.935 168.902 231.058 169.497 231.303C170.091 231.548 170.511 231.937 170.756 232.468C171.002 232.999 171.124 233.703 171.124 234.58C171.124 235.134 171.123 235.604 171.12 235.991C171.117 236.378 171.113 236.808 171.107 237.281C171.107 237.725 171.181 238.189 171.328 238.671C171.475 239.153 171.548 239.463 171.548 239.601C171.548 239.844 171.434 240.064 171.207 240.264C170.979 240.463 170.72 240.562 170.432 240.562C170.189 240.562 169.95 240.448 169.713 240.22C169.476 239.992 169.225 239.662 168.96 239.229ZM168.804 235.809C168.458 235.936 167.954 236.07 167.293 236.212C166.632 236.353 166.175 236.457 165.921 236.524C165.667 236.59 165.425 236.72 165.194 236.913C164.963 237.106 164.848 237.376 164.848 237.723C164.848 238.08 164.983 238.385 165.254 238.636C165.526 238.887 165.881 239.013 166.319 239.013C166.787 239.013 167.218 238.91 167.614 238.705C168.009 238.5 168.299 238.236 168.484 237.913C168.697 237.555 168.804 236.967 168.804 236.147L168.804 235.809Z"/>
<path d="M175.886 232.294L175.886 239.125C175.886 239.598 175.773 239.956 175.548 240.199C175.323 240.441 175.037 240.562 174.691 240.562C174.345 240.562 174.063 240.438 173.847 240.19C173.631 239.942 173.522 239.587 173.522 239.125L173.522 232.364C173.522 231.896 173.631 231.544 173.847 231.307C174.063 231.071 174.345 230.952 174.691 230.952C175.037 230.952 175.323 231.071 175.548 231.307C175.773 231.544 175.886 231.873 175.886 232.294ZM174.717 229.853C174.388 229.853 174.107 229.752 173.873 229.55C173.639 229.348 173.522 229.062 173.522 228.693C173.522 228.358 173.642 228.083 173.882 227.866C174.121 227.65 174.4 227.541 174.717 227.541C175.023 227.541 175.294 227.64 175.531 227.836C175.768 228.032 175.886 228.318 175.886 228.693C175.886 229.056 175.77 229.341 175.54 229.546C175.309 229.751 175.035 229.853 174.717 229.853Z"/>
<path d="M180.673 237.151L180.673 239.125C180.673 239.604 180.561 239.963 180.336 240.203C180.111 240.442 179.825 240.562 179.479 240.562C179.138 240.562 178.858 240.441 178.639 240.199C178.42 239.956 178.31 239.598 178.31 239.125L178.31 232.545C178.31 231.483 178.694 230.952 179.461 230.952C179.854 230.952 180.137 231.077 180.31 231.325C180.483 231.573 180.578 231.939 180.596 232.424C180.878 231.939 181.168 231.573 181.466 231.325C181.763 231.077 182.16 230.952 182.656 230.952C183.152 230.952 183.634 231.077 184.102 231.325C184.569 231.573 184.803 231.902 184.803 232.312C184.803 232.6 184.704 232.838 184.504 233.026C184.305 233.214 184.09 233.307 183.859 233.307C183.773 233.307 183.564 233.254 183.232 233.147C182.9 233.04 182.607 232.987 182.353 232.987C182.007 232.987 181.724 233.078 181.505 233.26C181.285 233.441 181.115 233.711 180.994 234.069C180.873 234.427 180.789 234.853 180.743 235.346C180.697 235.84 180.673 236.441 180.673 237.151Z"/>
<path d="M196.499 239.229C195.928 239.673 195.375 240.007 194.841 240.229C194.308 240.451 193.709 240.562 193.045 240.562C192.439 240.562 191.907 240.442 191.448 240.203C190.989 239.963 190.635 239.639 190.387 239.229C190.139 238.819 190.015 238.375 190.015 237.896C190.015 237.249 190.22 236.698 190.63 236.242C191.039 235.786 191.602 235.48 192.318 235.324C192.468 235.29 192.84 235.212 193.435 235.091C194.029 234.97 194.538 234.858 194.963 234.757C195.387 234.656 195.847 234.534 196.343 234.389C196.315 233.766 196.189 233.309 195.967 233.017C195.745 232.726 195.284 232.58 194.586 232.58C193.986 232.58 193.534 232.664 193.231 232.831C192.928 232.999 192.668 233.25 192.452 233.584C192.236 233.919 192.083 234.14 191.993 234.247C191.904 234.353 191.712 234.407 191.417 234.407C191.152 234.407 190.922 234.322 190.729 234.151C190.536 233.981 190.439 233.763 190.439 233.498C190.439 233.082 190.586 232.678 190.881 232.286C191.175 231.893 191.634 231.57 192.257 231.316C192.88 231.062 193.657 230.935 194.586 230.935C195.625 230.935 196.442 231.058 197.036 231.303C197.631 231.548 198.05 231.937 198.296 232.468C198.541 232.999 198.664 233.703 198.664 234.58C198.664 235.134 198.662 235.604 198.659 235.991C198.656 236.378 198.652 236.808 198.646 237.281C198.646 237.725 198.72 238.189 198.867 238.671C199.014 239.153 199.088 239.463 199.088 239.601C199.088 239.844 198.974 240.064 198.746 240.264C198.518 240.463 198.26 240.562 197.971 240.562C197.729 240.562 197.489 240.448 197.253 240.22C197.016 239.992 196.765 239.662 196.499 239.229ZM196.343 235.809C195.997 235.936 195.494 236.07 194.833 236.212C194.172 236.353 193.714 236.457 193.461 236.524C193.207 236.59 192.964 236.72 192.733 236.913C192.502 237.106 192.387 237.376 192.387 237.723C192.387 238.08 192.523 238.385 192.794 238.636C193.065 238.887 193.42 239.013 193.859 239.013C194.326 239.013 194.758 238.91 195.153 238.705C195.548 238.5 195.838 238.236 196.023 237.913C196.237 237.555 196.343 236.967 196.343 236.147L196.343 235.809Z"/>
<path d="M203.209 232.26L203.209 232.545C203.624 231.997 204.079 231.595 204.572 231.338C205.066 231.081 205.633 230.952 206.274 230.952C206.897 230.952 207.454 231.088 207.944 231.359C208.435 231.631 208.802 232.014 209.044 232.511C209.2 232.799 209.301 233.111 209.347 233.446C209.393 233.781 209.416 234.208 209.416 234.727L209.416 239.125C209.416 239.598 209.308 239.956 209.092 240.199C208.875 240.441 208.594 240.562 208.248 240.562C207.895 240.562 207.61 240.438 207.39 240.19C207.171 239.942 207.061 239.587 207.061 239.125L207.061 235.186C207.061 234.407 206.953 233.811 206.737 233.398C206.52 232.986 206.089 232.779 205.442 232.779C205.021 232.779 204.637 232.905 204.291 233.156C203.945 233.407 203.691 233.752 203.529 234.19C203.414 234.542 203.356 235.2 203.356 236.164L203.356 239.125C203.356 239.604 203.245 239.963 203.023 240.203C202.801 240.442 202.513 240.562 202.161 240.562C201.821 240.562 201.541 240.438 201.322 240.19C201.102 239.942 200.993 239.587 200.993 239.125L200.993 232.294C200.993 231.844 201.091 231.508 201.287 231.286C201.483 231.064 201.752 230.952 202.092 230.952C202.3 230.952 202.487 231.002 202.655 231.1C202.822 231.198 202.956 231.345 203.057 231.541C203.158 231.737 203.209 231.977 203.209 232.26Z"/>
<path d="M218.247 239.212L218.247 238.978C217.929 239.342 217.616 239.637 217.308 239.865C216.999 240.093 216.664 240.266 216.303 240.385C215.943 240.503 215.549 240.562 215.122 240.562C214.556 240.562 214.032 240.442 213.55 240.203C213.068 239.963 212.651 239.621 212.299 239.177C211.947 238.733 211.68 238.21 211.498 237.61C211.317 237.01 211.226 236.36 211.226 235.662C211.226 234.185 211.586 233.033 212.308 232.208C213.029 231.382 213.979 230.97 215.156 230.97C215.837 230.97 216.411 231.087 216.879 231.32C217.347 231.554 217.802 231.913 218.247 232.398L218.247 228.909C218.247 228.424 218.344 228.058 218.537 227.81C218.73 227.562 219.006 227.438 219.364 227.438C219.722 227.438 219.997 227.552 220.19 227.779C220.384 228.007 220.481 228.344 220.481 228.788L220.481 239.212C220.481 239.662 220.377 240 220.169 240.225C219.961 240.45 219.693 240.562 219.364 240.562C219.04 240.562 218.774 240.445 218.563 240.212C218.352 239.978 218.247 239.645 218.247 239.212ZM213.598 235.74C213.598 236.381 213.697 236.926 213.897 237.376C214.096 237.826 214.368 238.166 214.715 238.394C215.061 238.622 215.439 238.736 215.849 238.736C216.264 238.736 216.644 238.627 216.987 238.411C217.331 238.194 217.605 237.863 217.81 237.415C218.015 236.968 218.117 236.41 218.117 235.74C218.117 235.111 218.015 234.57 217.81 234.117C217.605 233.664 217.328 233.317 216.979 233.078C216.629 232.838 216.247 232.719 215.831 232.719C215.399 232.719 215.012 232.841 214.671 233.087C214.331 233.332 214.067 233.684 213.879 234.143C213.692 234.602 213.598 235.134 213.598 235.74Z"/>
<path d="M227.554 238.995L227.554 228.996C227.554 228.476 227.672 228.087 227.909 227.827C228.145 227.567 228.451 227.438 228.826 227.438C229.213 227.438 229.526 227.566 229.766 227.823C230.005 228.08 230.125 228.471 230.125 228.996L230.125 238.995C230.125 239.52 230.005 239.913 229.766 240.173C229.526 240.432 229.213 240.562 228.826 240.562C228.457 240.562 228.152 240.431 227.913 240.168C227.673 239.906 227.554 239.515 227.554 238.995Z"/>
<path d="M240.696 235.931L240.696 239.073C240.696 239.57 240.583 239.942 240.358 240.19C240.133 240.438 239.836 240.562 239.466 240.562C239.109 240.562 238.818 240.438 238.596 240.19C238.374 239.942 238.263 239.57 238.263 239.073L238.263 235.307C238.263 234.713 238.243 234.251 238.202 233.922C238.162 233.593 238.052 233.323 237.873 233.113C237.694 232.902 237.412 232.797 237.025 232.797C236.252 232.797 235.742 233.062 235.497 233.593C235.252 234.124 235.129 234.886 235.129 235.879L235.129 239.073C235.129 239.564 235.018 239.935 234.796 240.186C234.573 240.437 234.281 240.562 233.917 240.562C233.559 240.562 233.266 240.437 233.038 240.186C232.81 239.935 232.696 239.564 232.696 239.073L232.696 232.312C232.696 231.867 232.799 231.53 233.004 231.299C233.208 231.068 233.478 230.952 233.813 230.952C234.136 230.952 234.406 231.061 234.622 231.277C234.839 231.494 234.947 231.792 234.947 232.173L234.947 232.398C235.357 231.908 235.796 231.547 236.263 231.316C236.731 231.085 237.25 230.97 237.821 230.97C238.416 230.97 238.927 231.088 239.354 231.325C239.781 231.561 240.133 231.919 240.41 232.398C240.808 231.913 241.235 231.554 241.691 231.32C242.147 231.087 242.652 230.97 243.206 230.97C243.853 230.97 244.41 231.097 244.877 231.351C245.345 231.605 245.694 231.968 245.925 232.442C246.127 232.869 246.228 233.541 246.228 234.459L246.228 239.073C246.228 239.57 246.115 239.942 245.89 240.19C245.665 240.438 245.368 240.562 244.998 240.562C244.641 240.562 244.348 240.437 244.12 240.186C243.892 239.935 243.778 239.564 243.778 239.073L243.778 235.099C243.778 234.591 243.756 234.185 243.713 233.879C243.67 233.573 243.553 233.316 243.362 233.108C243.172 232.9 242.883 232.797 242.496 232.797C242.185 232.797 241.889 232.889 241.609 233.074C241.329 233.258 241.111 233.506 240.955 233.818C240.782 234.216 240.696 234.92 240.696 235.931Z"/>
<path d="M250.704 232.277L250.704 232.563C251.148 232.014 251.61 231.612 252.089 231.355C252.568 231.098 253.111 230.97 253.717 230.97C254.444 230.97 255.113 231.157 255.725 231.533C256.337 231.908 256.82 232.456 257.175 233.177C257.53 233.899 257.708 234.753 257.708 235.74C257.708 236.467 257.605 237.135 257.4 237.744C257.195 238.353 256.914 238.864 256.556 239.277C256.198 239.689 255.776 240.007 255.288 240.229C254.8 240.451 254.276 240.562 253.717 240.562C253.041 240.562 252.474 240.427 252.015 240.155C251.557 239.884 251.119 239.486 250.704 238.961L250.704 242.51C250.704 243.549 250.326 244.069 249.57 244.069C249.125 244.069 248.831 243.934 248.687 243.666C248.542 243.398 248.47 243.007 248.47 242.493L248.47 232.294C248.47 231.844 248.568 231.508 248.764 231.286C248.961 231.064 249.229 230.952 249.57 230.952C249.904 230.952 250.177 231.066 250.388 231.294C250.598 231.522 250.704 231.85 250.704 232.277ZM255.335 235.714C255.335 235.091 255.24 234.555 255.05 234.108C254.859 233.661 254.595 233.317 254.258 233.078C253.92 232.838 253.546 232.719 253.136 232.719C252.484 232.719 251.935 232.975 251.487 233.489C251.04 234.003 250.816 234.759 250.816 235.757C250.816 236.698 251.039 237.43 251.483 237.952C251.927 238.474 252.479 238.736 253.136 238.736C253.529 238.736 253.893 238.622 254.227 238.394C254.562 238.166 254.83 237.824 255.032 237.368C255.234 236.912 255.335 236.36 255.335 235.714Z"/>
<path d="M261.95 237.151L261.95 239.125C261.95 239.604 261.837 239.963 261.612 240.203C261.387 240.442 261.101 240.562 260.755 240.562C260.415 240.562 260.135 240.441 259.915 240.199C259.696 239.956 259.586 239.598 259.586 239.125L259.586 232.545C259.586 231.483 259.97 230.952 260.738 230.952C261.13 230.952 261.413 231.077 261.586 231.325C261.759 231.573 261.855 231.939 261.872 232.424C262.155 231.939 262.445 231.573 262.742 231.325C263.039 231.077 263.436 230.952 263.932 230.952C264.429 230.952 264.911 231.077 265.378 231.325C265.846 231.573 266.079 231.902 266.079 232.312C266.079 232.6 265.98 232.838 265.781 233.026C265.582 233.214 265.367 233.307 265.136 233.307C265.049 233.307 264.84 233.254 264.508 233.147C264.176 233.04 263.883 232.987 263.629 232.987C263.283 232.987 263 233.078 262.781 233.26C262.562 233.441 262.391 233.711 262.27 234.069C262.149 234.427 262.065 234.853 262.019 235.346C261.973 235.84 261.95 236.441 261.95 237.151Z"/>
<path d="M275.542 235.757C275.542 236.462 275.432 237.111 275.213 237.705C274.994 238.3 274.676 238.811 274.261 239.238C273.845 239.665 273.349 239.992 272.772 240.22C272.194 240.448 271.545 240.562 270.824 240.562C270.108 240.562 269.464 240.447 268.893 240.216C268.322 239.985 267.827 239.655 267.408 239.225C266.99 238.795 266.672 238.287 266.456 237.701C266.24 237.115 266.131 236.467 266.131 235.757C266.131 235.042 266.241 234.387 266.46 233.792C266.68 233.198 266.994 232.69 267.404 232.268C267.814 231.847 268.31 231.522 268.893 231.294C269.476 231.066 270.12 230.952 270.824 230.952C271.539 230.952 272.189 231.068 272.772 231.299C273.355 231.53 273.854 231.859 274.269 232.286C274.685 232.713 275.001 233.221 275.217 233.809C275.434 234.398 275.542 235.047 275.542 235.757ZM273.17 235.757C273.17 234.793 272.958 234.043 272.534 233.506C272.109 232.97 271.539 232.701 270.824 232.701C270.362 232.701 269.955 232.821 269.603 233.061C269.251 233.3 268.98 233.654 268.789 234.121C268.599 234.589 268.504 235.134 268.504 235.757C268.504 236.375 268.597 236.915 268.785 237.376C268.972 237.838 269.241 238.192 269.59 238.437C269.939 238.682 270.35 238.805 270.824 238.805C271.539 238.805 272.109 238.535 272.534 237.995C272.958 237.456 273.17 236.71 273.17 235.757Z"/>
<path d="M278.841 232.424L280.754 237.792L282.814 232.19C282.976 231.74 283.135 231.421 283.29 231.234C283.446 231.046 283.683 230.952 284 230.952C284.301 230.952 284.556 231.053 284.767 231.255C284.977 231.457 285.083 231.691 285.083 231.957C285.083 232.061 285.064 232.182 285.026 232.32C284.989 232.459 284.945 232.589 284.896 232.71C284.847 232.831 284.791 232.97 284.728 233.125L282.459 238.753C282.396 238.914 282.314 239.119 282.213 239.368C282.112 239.616 281.999 239.828 281.875 240.004C281.751 240.18 281.598 240.317 281.416 240.415C281.234 240.513 281.014 240.562 280.754 240.562C280.419 240.562 280.152 240.486 279.953 240.333C279.754 240.18 279.607 240.013 279.511 239.831C279.416 239.649 279.256 239.29 279.031 238.753L276.78 233.186C276.728 233.048 276.675 232.909 276.62 232.771C276.565 232.632 276.519 232.491 276.481 232.346C276.444 232.202 276.425 232.078 276.425 231.974C276.425 231.812 276.474 231.652 276.572 231.494C276.67 231.335 276.806 231.205 276.979 231.104C277.152 231.003 277.34 230.952 277.542 230.952C277.934 230.952 278.204 231.065 278.351 231.29C278.499 231.515 278.662 231.893 278.841 232.424Z"/>
<path d="M293.143 236.337L288.52 236.337C288.525 236.874 288.634 237.347 288.844 237.757C289.055 238.167 289.335 238.476 289.684 238.684C290.033 238.891 290.418 238.995 290.84 238.995C291.123 238.995 291.381 238.962 291.615 238.896C291.848 238.829 292.075 238.725 292.294 238.584C292.514 238.443 292.716 238.291 292.9 238.13C293.085 237.968 293.324 237.749 293.619 237.472C293.74 237.368 293.913 237.316 294.138 237.316C294.381 237.316 294.577 237.382 294.727 237.515C294.877 237.648 294.952 237.835 294.952 238.078C294.952 238.291 294.868 238.541 294.701 238.826C294.534 239.112 294.281 239.386 293.943 239.649C293.606 239.912 293.182 240.129 292.671 240.303C292.16 240.476 291.573 240.562 290.909 240.562C289.391 240.562 288.211 240.129 287.368 239.264C286.525 238.398 286.104 237.223 286.104 235.74C286.104 235.042 286.208 234.394 286.416 233.796C286.624 233.199 286.927 232.687 287.325 232.26C287.723 231.833 288.214 231.505 288.797 231.277C289.38 231.049 290.026 230.935 290.736 230.935C291.659 230.935 292.452 231.13 293.112 231.52C293.773 231.909 294.268 232.413 294.597 233.03C294.926 233.648 295.091 234.277 295.091 234.918C295.091 235.512 294.92 235.897 294.58 236.073C294.239 236.249 293.76 236.337 293.143 236.337ZM288.52 234.996L292.805 234.996C292.747 234.187 292.529 233.583 292.151 233.182C291.773 232.781 291.276 232.58 290.658 232.58C290.069 232.58 289.586 232.784 289.208 233.19C288.83 233.597 288.6 234.199 288.52 234.996Z"/>
<path d="M304.943 235.931L304.943 239.073C304.943 239.57 304.83 239.942 304.605 240.19C304.38 240.438 304.083 240.562 303.713 240.562C303.356 240.562 303.066 240.438 302.843 240.19C302.621 239.942 302.51 239.57 302.51 239.073L302.51 235.307C302.51 234.713 302.49 234.251 302.449 233.922C302.409 233.593 302.299 233.323 302.12 233.113C301.942 232.902 301.659 232.797 301.272 232.797C300.499 232.797 299.989 233.062 299.744 233.593C299.499 234.124 299.376 234.886 299.376 235.879L299.376 239.073C299.376 239.564 299.265 239.935 299.043 240.186C298.821 240.437 298.528 240.562 298.164 240.562C297.806 240.562 297.513 240.437 297.285 240.186C297.057 239.935 296.943 239.564 296.943 239.073L296.943 232.312C296.943 231.867 297.046 231.53 297.251 231.299C297.456 231.068 297.725 230.952 298.06 230.952C298.383 230.952 298.653 231.061 298.87 231.277C299.086 231.494 299.194 231.792 299.194 232.173L299.194 232.398C299.604 231.908 300.043 231.547 300.51 231.316C300.978 231.085 301.497 230.97 302.069 230.97C302.663 230.97 303.174 231.088 303.601 231.325C304.028 231.561 304.38 231.919 304.657 232.398C305.055 231.913 305.482 231.554 305.938 231.32C306.394 231.087 306.899 230.97 307.453 230.97C308.1 230.97 308.657 231.097 309.124 231.351C309.592 231.605 309.941 231.968 310.172 232.442C310.374 232.869 310.475 233.541 310.475 234.459L310.475 239.073C310.475 239.57 310.362 239.942 310.137 240.19C309.912 240.438 309.615 240.562 309.246 240.562C308.888 240.562 308.595 240.437 308.367 240.186C308.139 239.935 308.025 239.564 308.025 239.073L308.025 235.099C308.025 234.591 308.003 234.185 307.96 233.879C307.917 233.573 307.8 233.316 307.609 233.108C307.419 232.9 307.13 232.797 306.744 232.797C306.432 232.797 306.136 232.889 305.856 233.074C305.576 233.258 305.358 233.506 305.203 233.818C305.029 234.216 304.943 234.92 304.943 235.931Z"/>
<path d="M319.366 236.337L314.743 236.337C314.749 236.874 314.857 237.347 315.068 237.757C315.278 238.167 315.558 238.476 315.908 238.684C316.257 238.891 316.642 238.995 317.063 238.995C317.346 238.995 317.604 238.962 317.838 238.896C318.072 238.829 318.298 238.725 318.518 238.584C318.737 238.443 318.939 238.291 319.124 238.13C319.308 237.968 319.548 237.749 319.842 237.472C319.964 237.368 320.137 237.316 320.362 237.316C320.604 237.316 320.8 237.382 320.95 237.515C321.101 237.648 321.176 237.835 321.176 238.078C321.176 238.291 321.092 238.541 320.925 238.826C320.757 239.112 320.505 239.386 320.167 239.649C319.829 239.912 319.405 240.129 318.894 240.303C318.384 240.476 317.796 240.562 317.133 240.562C315.615 240.562 314.434 240.129 313.592 239.264C312.749 238.398 312.328 237.223 312.328 235.74C312.328 235.042 312.432 234.394 312.639 233.796C312.847 233.199 313.15 232.687 313.548 232.26C313.947 231.833 314.437 231.505 315.02 231.277C315.603 231.049 316.249 230.935 316.959 230.935C317.883 230.935 318.675 231.13 319.336 231.52C319.997 231.909 320.492 232.413 320.821 233.03C321.15 233.648 321.314 234.277 321.314 234.918C321.314 235.512 321.144 235.897 320.803 236.073C320.463 236.249 319.984 236.337 319.366 236.337ZM314.743 234.996L319.029 234.996C318.971 234.187 318.753 233.583 318.375 233.182C317.997 232.781 317.499 232.58 316.881 232.58C316.293 232.58 315.809 232.784 315.431 233.19C315.053 233.597 314.824 234.199 314.743 234.996Z"/>
<path d="M325.452 232.26L325.452 232.545C325.868 231.997 326.322 231.595 326.816 231.338C327.309 231.081 327.876 230.952 328.517 230.952C329.14 230.952 329.697 231.088 330.188 231.359C330.679 231.631 331.045 232.014 331.288 232.511C331.443 232.799 331.544 233.111 331.591 233.446C331.637 233.781 331.66 234.208 331.66 234.727L331.66 239.125C331.66 239.598 331.552 239.956 331.335 240.199C331.119 240.441 330.837 240.562 330.491 240.562C330.139 240.562 329.853 240.438 329.634 240.19C329.415 239.942 329.305 239.587 329.305 239.125L329.305 235.186C329.305 234.407 329.197 233.811 328.98 233.398C328.764 232.986 328.332 232.779 327.686 232.779C327.265 232.779 326.881 232.905 326.535 233.156C326.188 233.407 325.934 233.752 325.773 234.19C325.657 234.542 325.6 235.2 325.6 236.164L325.6 239.125C325.6 239.604 325.488 239.963 325.266 240.203C325.044 240.442 324.757 240.562 324.405 240.562C324.064 240.562 323.784 240.438 323.565 240.19C323.346 239.942 323.236 239.587 323.236 239.125L323.236 232.294C323.236 231.844 323.334 231.508 323.53 231.286C323.727 231.064 323.995 230.952 324.336 230.952C324.543 230.952 324.731 231.002 324.898 231.1C325.066 231.198 325.2 231.345 325.301 231.541C325.402 231.737 325.452 231.977 325.452 232.26Z"/>
<path d="M334.144 231.16L334.404 231.16L334.404 229.74C334.404 229.359 334.414 229.061 334.434 228.844C334.455 228.628 334.511 228.442 334.603 228.286C334.696 228.124 334.828 227.993 335.002 227.892C335.175 227.791 335.368 227.741 335.582 227.741C335.882 227.741 336.153 227.853 336.395 228.078C336.557 228.228 336.659 228.411 336.703 228.628C336.746 228.844 336.768 229.152 336.768 229.55L336.768 231.16L337.633 231.16C337.968 231.16 338.224 231.24 338.4 231.398C338.576 231.557 338.664 231.76 338.664 232.009C338.664 232.326 338.538 232.548 338.287 232.675C338.036 232.802 337.677 232.866 337.209 232.866L336.768 232.866L336.768 237.212C336.768 237.581 336.781 237.865 336.807 238.065C336.833 238.264 336.902 238.425 337.014 238.549C337.127 238.673 337.31 238.736 337.564 238.736C337.703 238.736 337.89 238.711 338.127 238.662C338.364 238.613 338.548 238.588 338.681 238.588C338.871 238.588 339.043 238.665 339.196 238.818C339.349 238.971 339.426 239.16 339.426 239.385C339.426 239.766 339.218 240.057 338.802 240.259C338.387 240.461 337.789 240.562 337.01 240.562C336.271 240.562 335.711 240.438 335.331 240.19C334.95 239.942 334.7 239.598 334.582 239.16C334.463 238.721 334.404 238.135 334.404 237.402L334.404 232.866L334.093 232.866C333.752 232.866 333.492 232.785 333.313 232.623C333.134 232.462 333.045 232.257 333.045 232.009C333.045 231.76 333.139 231.557 333.326 231.398C333.514 231.24 333.787 231.16 334.144 231.16Z"/>
</g>
<g fill="#737a76" opacity="1" stroke="none">
<path d="M94.4893 259.35L94.4893 261.781C94.4893 262.105 94.4576 262.363 94.3942 262.556C94.3307 262.749 94.2139 262.924 94.0436 263.08C93.8734 263.235 93.6556 263.385 93.3902 263.53C92.6229 263.945 91.8844 264.248 91.1747 264.438C90.4651 264.629 89.6919 264.724 88.8553 264.724C87.8803 264.724 86.9918 264.574 86.1898 264.274C85.3878 263.974 84.7041 263.538 84.1387 262.967C83.5733 262.396 83.1391 261.704 82.8362 260.89C82.5333 260.076 82.3818 259.168 82.3818 258.164C82.3818 257.177 82.529 256.274 82.8232 255.455C83.1175 254.636 83.5502 253.941 84.1214 253.369C84.6926 252.798 85.3878 252.361 86.2071 252.058C87.0264 251.755 87.9553 251.604 88.9938 251.604C89.8477 251.604 90.6035 251.718 91.2613 251.946C91.919 252.174 92.4527 252.461 92.8623 252.807C93.272 253.153 93.5806 253.519 93.7883 253.906C93.996 254.292 94.0999 254.636 94.0999 254.936C94.0999 255.259 93.9802 255.534 93.7407 255.762C93.5013 255.99 93.2143 256.104 92.8796 256.104C92.695 256.104 92.5176 256.061 92.3474 255.974C92.1772 255.888 92.0344 255.767 91.919 255.611C91.6017 255.115 91.3334 254.74 91.1141 254.486C90.8949 254.232 90.5992 254.018 90.2271 253.845C89.8549 253.672 89.3804 253.586 88.8034 253.586C88.2091 253.586 87.6783 253.688 87.211 253.893C86.7437 254.098 86.3441 254.395 86.0124 254.784C85.6806 255.174 85.4268 255.651 85.2508 256.217C85.0748 256.782 84.9868 257.408 84.9868 258.095C84.9868 259.583 85.3287 260.728 86.0124 261.53C86.6961 262.332 87.6495 262.733 88.8726 262.733C89.4669 262.733 90.0251 262.655 90.5473 262.5C91.0694 262.344 91.5988 262.122 92.1354 261.833L92.1354 259.774L90.1448 259.774C89.666 259.774 89.3039 259.701 89.0587 259.557C88.8135 259.413 88.6909 259.168 88.6909 258.822C88.6909 258.539 88.7933 258.305 88.9981 258.121C89.203 257.936 89.4813 257.844 89.8333 257.844L92.7498 257.844C93.1075 257.844 93.4104 257.875 93.6585 257.939C93.9066 258.002 94.1071 258.144 94.26 258.363C94.4129 258.582 94.4893 258.911 94.4893 259.35Z"/>
<path d="M103.369 260.501L98.7473 260.501C98.7531 261.037 98.8613 261.51 99.0719 261.92C99.2824 262.33 99.5623 262.638 99.9113 262.846C100.26 263.054 100.646 263.157 101.067 263.157C101.349 263.157 101.608 263.124 101.841 263.058C102.075 262.992 102.301 262.888 102.521 262.746C102.74 262.605 102.942 262.454 103.126 262.292C103.311 262.13 103.551 261.911 103.845 261.634C103.966 261.53 104.139 261.479 104.364 261.479C104.606 261.479 104.803 261.545 104.953 261.678C105.103 261.81 105.178 261.998 105.178 262.24C105.178 262.454 105.094 262.703 104.927 262.989C104.759 263.274 104.507 263.548 104.169 263.811C103.832 264.073 103.408 264.291 102.897 264.464C102.386 264.637 101.799 264.724 101.136 264.724C99.6185 264.724 98.4386 264.291 97.5963 263.426C96.7539 262.56 96.3327 261.386 96.3327 259.903C96.3327 259.205 96.4366 258.558 96.6443 257.96C96.852 257.363 97.1549 256.851 97.553 256.424C97.9511 255.997 98.4415 255.67 99.0243 255.442C99.607 255.214 100.253 255.1 100.963 255.1C101.886 255.1 102.678 255.295 103.338 255.684C103.999 256.074 104.494 256.577 104.823 257.195C105.152 257.812 105.316 258.441 105.316 259.081C105.316 259.676 105.146 260.061 104.805 260.237C104.465 260.413 103.986 260.501 103.369 260.501ZM98.7473 259.159L103.031 259.159C102.974 258.351 102.756 257.747 102.378 257.346C102 256.945 101.502 256.745 100.885 256.745C100.296 256.745 99.8132 256.948 99.4353 257.355C99.0574 257.761 98.8281 258.363 98.7473 259.159Z"/>
<path d="M109.453 256.424L109.453 256.71C109.868 256.162 110.323 255.759 110.816 255.503C111.309 255.246 111.876 255.118 112.516 255.118C113.14 255.118 113.696 255.253 114.187 255.524C114.677 255.795 115.044 256.179 115.286 256.675C115.442 256.964 115.543 257.275 115.589 257.61C115.635 257.945 115.658 258.372 115.658 258.891L115.658 263.287C115.658 263.76 115.55 264.118 115.333 264.36C115.117 264.603 114.836 264.724 114.49 264.724C114.138 264.724 113.852 264.6 113.633 264.352C113.414 264.104 113.304 263.749 113.304 263.287L113.304 259.35C113.304 258.571 113.196 257.975 112.979 257.562C112.763 257.15 112.332 256.944 111.686 256.944C111.264 256.944 110.881 257.069 110.535 257.32C110.188 257.571 109.935 257.916 109.773 258.354C109.658 258.706 109.6 259.364 109.6 260.327L109.6 263.287C109.6 263.766 109.489 264.125 109.267 264.365C109.045 264.604 108.758 264.724 108.406 264.724C108.065 264.724 107.785 264.6 107.566 264.352C107.347 264.104 107.237 263.749 107.237 263.287L107.237 256.459C107.237 256.009 107.335 255.673 107.532 255.451C107.728 255.229 107.996 255.118 108.336 255.118C108.544 255.118 108.732 255.167 108.899 255.265C109.066 255.363 109.2 255.51 109.301 255.706C109.402 255.902 109.453 256.142 109.453 256.424Z"/>
<path d="M124.607 260.501L119.985 260.501C119.991 261.037 120.099 261.51 120.31 261.92C120.52 262.33 120.8 262.638 121.149 262.846C121.498 263.054 121.883 263.157 122.305 263.157C122.587 263.157 122.845 263.124 123.079 263.058C123.313 262.992 123.539 262.888 123.759 262.746C123.978 262.605 124.18 262.454 124.364 262.292C124.549 262.13 124.788 261.911 125.083 261.634C125.204 261.53 125.377 261.479 125.602 261.479C125.844 261.479 126.04 261.545 126.19 261.678C126.34 261.81 126.415 261.998 126.415 262.24C126.415 262.454 126.332 262.703 126.164 262.989C125.997 263.274 125.745 263.548 125.407 263.811C125.07 264.073 124.646 264.291 124.135 264.464C123.624 264.637 123.037 264.724 122.374 264.724C120.856 264.724 119.677 264.291 118.834 263.426C117.992 262.56 117.571 261.386 117.571 259.903C117.571 259.205 117.674 258.558 117.882 257.96C118.09 257.363 118.393 256.851 118.791 256.424C119.189 255.997 119.679 255.67 120.262 255.442C120.845 255.214 121.491 255.1 122.201 255.1C123.124 255.1 123.916 255.295 124.576 255.684C125.237 256.074 125.732 256.577 126.061 257.195C126.389 257.812 126.554 258.441 126.554 259.081C126.554 259.676 126.384 260.061 126.043 260.237C125.703 260.413 125.224 260.501 124.607 260.501ZM119.985 259.159L124.269 259.159C124.211 258.351 123.994 257.747 123.616 257.346C123.238 256.945 122.74 256.745 122.123 256.745C121.534 256.745 121.051 256.948 120.673 257.355C120.295 257.761 120.066 258.363 119.985 259.159Z"/>
<path d="M130.89 261.314L130.89 263.287C130.89 263.766 130.777 264.125 130.552 264.365C130.327 264.604 130.042 264.724 129.695 264.724C129.355 264.724 129.075 264.603 128.856 264.36C128.637 264.118 128.527 263.76 128.527 263.287L128.527 256.71C128.527 255.648 128.911 255.118 129.678 255.118C130.07 255.118 130.353 255.242 130.526 255.49C130.699 255.738 130.795 256.104 130.812 256.589C131.095 256.104 131.384 255.738 131.682 255.49C131.979 255.242 132.375 255.118 132.872 255.118C133.368 255.118 133.85 255.242 134.317 255.49C134.784 255.738 135.018 256.067 135.018 256.476C135.018 256.765 134.918 257.003 134.719 257.19C134.52 257.378 134.305 257.472 134.075 257.472C133.988 257.472 133.779 257.418 133.447 257.311C133.115 257.205 132.823 257.151 132.569 257.151C132.223 257.151 131.94 257.242 131.721 257.424C131.501 257.606 131.331 257.875 131.21 258.233C131.089 258.591 131.005 259.016 130.959 259.51C130.913 260.003 130.89 260.604 130.89 261.314Z"/>
<path d="M141.838 263.391C141.266 263.835 140.714 264.169 140.18 264.391C139.647 264.613 139.048 264.724 138.384 264.724C137.779 264.724 137.246 264.604 136.788 264.365C136.329 264.125 135.976 263.801 135.728 263.391C135.479 262.981 135.355 262.537 135.355 262.058C135.355 261.412 135.56 260.861 135.97 260.405C136.38 259.95 136.942 259.644 137.657 259.488C137.807 259.453 138.18 259.375 138.774 259.254C139.368 259.133 139.877 259.022 140.301 258.921C140.725 258.82 141.186 258.698 141.682 258.553C141.653 257.93 141.527 257.473 141.305 257.182C141.083 256.89 140.623 256.745 139.925 256.745C139.325 256.745 138.873 256.828 138.571 256.996C138.268 257.163 138.008 257.414 137.792 257.748C137.575 258.083 137.422 258.304 137.333 258.411C137.244 258.517 137.052 258.571 136.757 258.571C136.492 258.571 136.263 258.486 136.069 258.315C135.876 258.145 135.779 257.927 135.779 257.662C135.779 257.246 135.927 256.843 136.221 256.45C136.515 256.058 136.974 255.735 137.597 255.481C138.22 255.227 138.996 255.1 139.925 255.1C140.963 255.1 141.78 255.223 142.374 255.468C142.968 255.713 143.388 256.101 143.633 256.632C143.879 257.163 144.001 257.867 144.001 258.744C144.001 259.298 144 259.768 143.997 260.154C143.994 260.541 143.99 260.971 143.984 261.444C143.984 261.888 144.057 262.351 144.205 262.833C144.352 263.315 144.425 263.625 144.425 263.763C144.425 264.006 144.311 264.226 144.083 264.425C143.855 264.624 143.597 264.724 143.309 264.724C143.066 264.724 142.827 264.61 142.59 264.382C142.354 264.154 142.103 263.824 141.838 263.391ZM141.682 259.973C141.336 260.1 140.832 260.234 140.172 260.375C139.511 260.516 139.054 260.62 138.8 260.687C138.546 260.753 138.304 260.883 138.073 261.076C137.842 261.269 137.727 261.539 137.727 261.885C137.727 262.243 137.862 262.547 138.133 262.798C138.405 263.049 138.759 263.175 139.198 263.175C139.665 263.175 140.097 263.072 140.492 262.868C140.887 262.663 141.177 262.399 141.362 262.076C141.575 261.718 141.682 261.129 141.682 260.31L141.682 259.973Z"/>
<path d="M146.398 263.287L146.398 253.04C146.398 252.567 146.504 252.21 146.714 251.967C146.925 251.725 147.209 251.604 147.567 251.604C147.924 251.604 148.213 251.724 148.432 251.963C148.651 252.202 148.761 252.562 148.761 253.04L148.761 263.287C148.761 263.766 148.65 264.125 148.428 264.365C148.206 264.604 147.919 264.724 147.567 264.724C147.221 264.724 146.939 264.6 146.723 264.352C146.507 264.104 146.398 263.749 146.398 263.287Z"/>
<path d="M158.385 253.162L158.385 256.796L163.932 256.796L163.932 253.162C163.932 252.642 164.049 252.253 164.283 251.993C164.516 251.734 164.824 251.604 165.204 251.604C165.591 251.604 165.904 251.732 166.143 251.989C166.383 252.246 166.503 252.637 166.503 253.162L166.503 263.157C166.503 263.682 166.381 264.075 166.139 264.334C165.897 264.594 165.585 264.724 165.204 264.724C164.818 264.724 164.509 264.593 164.278 264.33C164.048 264.068 163.932 263.677 163.932 263.157L163.932 258.891L158.385 258.891L158.385 263.157C158.385 263.682 158.264 264.075 158.021 264.334C157.779 264.594 157.467 264.724 157.087 264.724C156.7 264.724 156.391 264.593 156.161 264.33C155.93 264.068 155.814 263.677 155.814 263.157L155.814 253.162C155.814 252.642 155.928 252.253 156.156 251.993C156.384 251.734 156.694 251.604 157.087 251.604C157.473 251.604 157.786 251.732 158.026 251.989C158.265 252.246 158.385 252.637 158.385 253.162Z"/>
<path d="M175.07 263.391C174.499 263.835 173.947 264.169 173.413 264.391C172.879 264.613 172.281 264.724 171.617 264.724C171.012 264.724 170.479 264.604 170.021 264.365C169.562 264.125 169.209 263.801 168.96 263.391C168.712 262.981 168.588 262.537 168.588 262.058C168.588 261.412 168.793 260.861 169.203 260.405C169.612 259.95 170.175 259.644 170.89 259.488C171.04 259.453 171.413 259.375 172.007 259.254C172.601 259.133 173.11 259.022 173.534 258.921C173.958 258.82 174.418 258.698 174.915 258.553C174.886 257.93 174.76 257.473 174.538 257.182C174.316 256.89 173.856 256.745 173.158 256.745C172.558 256.745 172.106 256.828 171.803 256.996C171.501 257.163 171.241 257.414 171.025 257.748C170.808 258.083 170.655 258.304 170.566 258.411C170.476 258.517 170.285 258.571 169.99 258.571C169.725 258.571 169.496 258.486 169.302 258.315C169.109 258.145 169.012 257.927 169.012 257.662C169.012 257.246 169.159 256.843 169.454 256.45C169.748 256.058 170.207 255.735 170.83 255.481C171.453 255.227 172.229 255.1 173.158 255.1C174.196 255.1 175.013 255.223 175.607 255.468C176.201 255.713 176.621 256.101 176.866 256.632C177.111 257.163 177.234 257.867 177.234 258.744C177.234 259.298 177.233 259.768 177.23 260.154C177.227 260.541 177.223 260.971 177.217 261.444C177.217 261.888 177.29 262.351 177.437 262.833C177.585 263.315 177.658 263.625 177.658 263.763C177.658 264.006 177.544 264.226 177.316 264.425C177.088 264.624 176.83 264.724 176.542 264.724C176.299 264.724 176.06 264.61 175.823 264.382C175.587 264.154 175.336 263.824 175.07 263.391ZM174.915 259.973C174.568 260.1 174.065 260.234 173.404 260.375C172.744 260.516 172.287 260.62 172.033 260.687C171.779 260.753 171.537 260.883 171.306 261.076C171.075 261.269 170.96 261.539 170.96 261.885C170.96 262.243 171.095 262.547 171.366 262.798C171.638 263.049 171.992 263.175 172.431 263.175C172.898 263.175 173.329 263.072 173.725 262.868C174.12 262.663 174.41 262.399 174.594 262.076C174.808 261.718 174.915 261.129 174.915 260.31L174.915 259.973Z"/>
<path d="M181.778 256.424L181.778 256.71C182.193 256.162 182.647 255.759 183.141 255.503C183.634 255.246 184.201 255.118 184.841 255.118C185.464 255.118 186.021 255.253 186.512 255.524C187.002 255.795 187.368 256.179 187.611 256.675C187.766 256.964 187.867 257.275 187.914 257.61C187.96 257.945 187.983 258.372 187.983 258.891L187.983 263.287C187.983 263.76 187.875 264.118 187.658 264.36C187.442 264.603 187.161 264.724 186.814 264.724C186.463 264.724 186.177 264.6 185.958 264.352C185.738 264.104 185.629 263.749 185.629 263.287L185.629 259.35C185.629 258.571 185.521 257.975 185.304 257.562C185.088 257.15 184.657 256.944 184.01 256.944C183.589 256.944 183.206 257.069 182.859 257.32C182.513 257.571 182.259 257.916 182.098 258.354C181.982 258.706 181.925 259.364 181.925 260.327L181.925 263.287C181.925 263.766 181.814 264.125 181.592 264.365C181.369 264.604 181.082 264.724 180.73 264.724C180.39 264.724 180.11 264.6 179.891 264.352C179.672 264.104 179.562 263.749 179.562 263.287L179.562 256.459C179.562 256.009 179.66 255.673 179.856 255.451C180.052 255.229 180.321 255.118 180.661 255.118C180.869 255.118 181.056 255.167 181.224 255.265C181.391 255.363 181.525 255.51 181.626 255.706C181.727 255.902 181.778 256.142 181.778 256.424Z"/>
<path d="M196.81 263.374L196.81 263.14C196.493 263.504 196.18 263.799 195.871 264.027C195.563 264.255 195.228 264.428 194.867 264.546C194.507 264.665 194.113 264.724 193.686 264.724C193.121 264.724 192.597 264.604 192.115 264.365C191.634 264.125 191.217 263.783 190.865 263.339C190.513 262.895 190.246 262.373 190.064 261.773C189.882 261.173 189.792 260.524 189.792 259.826C189.792 258.348 190.152 257.197 190.873 256.372C191.595 255.547 192.544 255.135 193.721 255.135C194.401 255.135 194.976 255.252 195.443 255.485C195.91 255.719 196.366 256.078 196.81 256.563L196.81 253.075C196.81 252.59 196.907 252.224 197.1 251.976C197.293 251.728 197.569 251.604 197.927 251.604C198.284 251.604 198.56 251.718 198.753 251.946C198.946 252.174 199.043 252.51 199.043 252.954L199.043 263.374C199.043 263.824 198.939 264.161 198.732 264.386C198.524 264.611 198.256 264.724 197.927 264.724C197.604 264.724 197.337 264.607 197.126 264.373C196.916 264.14 196.81 263.807 196.81 263.374ZM192.163 259.903C192.163 260.544 192.262 261.089 192.461 261.539C192.661 261.989 192.933 262.328 193.279 262.556C193.625 262.784 194.003 262.898 194.413 262.898C194.828 262.898 195.208 262.79 195.551 262.573C195.894 262.357 196.168 262.025 196.373 261.578C196.578 261.131 196.68 260.573 196.68 259.903C196.68 259.275 196.578 258.734 196.373 258.281C196.168 257.828 195.891 257.482 195.542 257.242C195.193 257.003 194.811 256.883 194.396 256.883C193.963 256.883 193.576 257.006 193.236 257.251C192.896 257.496 192.632 257.848 192.444 258.307C192.257 258.765 192.163 259.298 192.163 259.903Z"/>
<path d="M203.595 265.018L203.812 264.49L200.904 257.169C200.725 256.747 200.636 256.442 200.636 256.251C200.636 256.049 200.687 255.862 200.791 255.689C200.895 255.516 201.038 255.377 201.22 255.273C201.401 255.169 201.59 255.118 201.787 255.118C202.127 255.118 202.384 255.226 202.557 255.442C202.73 255.658 202.883 255.969 203.015 256.372L205.015 262.188L206.91 256.779C207.06 256.341 207.196 255.997 207.317 255.749C207.438 255.501 207.566 255.334 207.702 255.247C207.837 255.161 208.029 255.118 208.277 255.118C208.456 255.118 208.628 255.165 208.792 255.26C208.957 255.356 209.084 255.484 209.173 255.645C209.263 255.807 209.307 255.977 209.307 256.156C209.284 256.266 209.247 256.421 209.195 256.623C209.143 256.825 209.079 257.03 209.004 257.238L205.923 265.304C205.658 266.013 205.398 266.57 205.144 266.974C204.891 267.378 204.555 267.688 204.136 267.904C203.718 268.121 203.154 268.229 202.444 268.229C201.752 268.229 201.233 268.154 200.887 268.004C200.54 267.854 200.367 267.58 200.367 267.182C200.367 266.911 200.449 266.701 200.614 266.554C200.778 266.407 201.022 266.334 201.345 266.334C201.472 266.334 201.596 266.351 201.717 266.386C201.867 266.42 201.997 266.437 202.107 266.437C202.378 266.437 202.591 266.397 202.747 266.316C202.903 266.236 203.043 266.096 203.167 265.897C203.291 265.698 203.434 265.405 203.595 265.018Z"/>
<path d="M218.879 260.094L218.879 263.235C218.879 263.732 218.766 264.104 218.541 264.352C218.316 264.6 218.019 264.724 217.65 264.724C217.292 264.724 217.002 264.6 216.78 264.352C216.558 264.104 216.447 263.732 216.447 263.235L216.447 259.471C216.447 258.876 216.427 258.415 216.387 258.086C216.346 257.757 216.237 257.487 216.058 257.277C215.879 257.066 215.596 256.961 215.21 256.961C214.436 256.961 213.927 257.226 213.682 257.757C213.437 258.288 213.314 259.049 213.314 260.042L213.314 263.235C213.314 263.726 213.203 264.096 212.981 264.347C212.759 264.598 212.466 264.724 212.103 264.724C211.745 264.724 211.452 264.598 211.224 264.347C210.996 264.096 210.882 263.726 210.882 263.235L210.882 256.476C210.882 256.032 210.985 255.694 211.19 255.464C211.394 255.233 211.664 255.118 211.999 255.118C212.322 255.118 212.592 255.226 212.808 255.442C213.024 255.658 213.132 255.957 213.132 256.338L213.132 256.563C213.542 256.072 213.981 255.712 214.448 255.481C214.915 255.25 215.435 255.135 216.006 255.135C216.6 255.135 217.111 255.253 217.538 255.49C217.965 255.726 218.316 256.084 218.593 256.563C218.992 256.078 219.418 255.719 219.874 255.485C220.33 255.252 220.835 255.135 221.389 255.135C222.035 255.135 222.592 255.262 223.059 255.516C223.526 255.769 223.875 256.133 224.106 256.606C224.308 257.033 224.409 257.705 224.409 258.623L224.409 263.235C224.409 263.732 224.297 264.104 224.072 264.352C223.847 264.6 223.549 264.724 223.18 264.724C222.823 264.724 222.53 264.598 222.302 264.347C222.074 264.096 221.96 263.726 221.96 263.235L221.96 259.263C221.96 258.755 221.938 258.348 221.895 258.043C221.852 257.737 221.735 257.48 221.545 257.272C221.354 257.065 221.066 256.961 220.679 256.961C220.368 256.961 220.072 257.053 219.792 257.238C219.512 257.422 219.294 257.671 219.139 257.982C218.966 258.38 218.879 259.084 218.879 260.094Z"/>
<path d="M232.674 263.391C232.103 263.835 231.55 264.169 231.017 264.391C230.483 264.613 229.885 264.724 229.221 264.724C228.615 264.724 228.083 264.604 227.624 264.365C227.166 264.125 226.812 263.801 226.564 263.391C226.316 262.981 226.192 262.537 226.192 262.058C226.192 261.412 226.397 260.861 226.806 260.405C227.216 259.95 227.779 259.644 228.494 259.488C228.644 259.453 229.016 259.375 229.61 259.254C230.205 259.133 230.714 259.022 231.138 258.921C231.562 258.82 232.022 258.698 232.518 258.553C232.489 257.93 232.364 257.473 232.142 257.182C231.92 256.89 231.46 256.745 230.761 256.745C230.161 256.745 229.71 256.828 229.407 256.996C229.104 257.163 228.845 257.414 228.628 257.748C228.412 258.083 228.259 258.304 228.17 258.411C228.08 258.517 227.888 258.571 227.594 258.571C227.329 258.571 227.099 258.486 226.906 258.315C226.713 258.145 226.616 257.927 226.616 257.662C226.616 257.246 226.763 256.843 227.057 256.45C227.352 256.058 227.81 255.735 228.433 255.481C229.057 255.227 229.833 255.1 230.761 255.1C231.8 255.1 232.616 255.223 233.211 255.468C233.805 255.713 234.225 256.101 234.47 256.632C234.715 257.163 234.838 257.867 234.838 258.744C234.838 259.298 234.836 259.768 234.833 260.154C234.831 260.541 234.826 260.971 234.82 261.444C234.82 261.888 234.894 262.351 235.041 262.833C235.188 263.315 235.262 263.625 235.262 263.763C235.262 264.006 235.148 264.226 234.92 264.425C234.692 264.624 234.434 264.724 234.145 264.724C233.903 264.724 233.664 264.61 233.427 264.382C233.19 264.154 232.94 263.824 232.674 263.391ZM232.518 259.973C232.172 260.1 231.669 260.234 231.008 260.375C230.348 260.516 229.89 260.62 229.636 260.687C229.383 260.753 229.14 260.883 228.909 261.076C228.679 261.269 228.563 261.539 228.563 261.885C228.563 262.243 228.699 262.547 228.97 262.798C229.241 263.049 229.596 263.175 230.035 263.175C230.502 263.175 230.933 263.072 231.328 262.868C231.724 262.663 232.013 262.399 232.198 262.076C232.412 261.718 232.518 261.129 232.518 260.31L232.518 259.973Z"/>
<path d="M239.381 256.424L239.381 256.71C239.797 256.162 240.251 255.759 240.744 255.503C241.238 255.246 241.805 255.118 242.445 255.118C243.068 255.118 243.625 255.253 244.115 255.524C244.606 255.795 244.972 256.179 245.214 256.675C245.37 256.964 245.471 257.275 245.517 257.61C245.563 257.945 245.586 258.372 245.586 258.891L245.586 263.287C245.586 263.76 245.478 264.118 245.262 264.36C245.046 264.603 244.764 264.724 244.418 264.724C244.066 264.724 243.781 264.6 243.561 264.352C243.342 264.104 243.232 263.749 243.232 263.287L243.232 259.35C243.232 258.571 243.124 257.975 242.908 257.562C242.692 257.15 242.26 256.944 241.614 256.944C241.193 256.944 240.809 257.069 240.463 257.32C240.117 257.571 239.863 257.916 239.701 258.354C239.586 258.706 239.528 259.364 239.528 260.327L239.528 263.287C239.528 263.766 239.417 264.125 239.195 264.365C238.973 264.604 238.686 264.724 238.334 264.724C237.994 264.724 237.714 264.6 237.495 264.352C237.275 264.104 237.166 263.749 237.166 263.287L237.166 256.459C237.166 256.009 237.264 255.673 237.46 255.451C237.656 255.229 237.924 255.118 238.265 255.118C238.473 255.118 238.66 255.167 238.827 255.265C238.995 255.363 239.129 255.51 239.23 255.706C239.331 255.902 239.381 256.142 239.381 256.424Z"/>
<path d="M262.177 260.7C262.177 261.467 261.979 262.156 261.584 262.768C261.189 263.38 260.611 263.858 259.849 264.205C259.087 264.551 258.184 264.724 257.14 264.724C255.888 264.724 254.855 264.487 254.042 264.014C253.465 263.674 252.996 263.219 252.635 262.651C252.275 262.083 252.095 261.53 252.095 260.994C252.095 260.682 252.203 260.415 252.419 260.193C252.635 259.971 252.911 259.86 253.246 259.86C253.517 259.86 253.746 259.947 253.934 260.12C254.121 260.293 254.281 260.55 254.414 260.89C254.576 261.294 254.75 261.631 254.938 261.903C255.125 262.174 255.389 262.397 255.729 262.573C256.07 262.749 256.517 262.837 257.071 262.837C257.832 262.837 258.451 262.66 258.927 262.305C259.403 261.95 259.641 261.507 259.641 260.977C259.641 260.555 259.513 260.214 259.256 259.951C258.999 259.688 258.668 259.488 258.261 259.35C257.854 259.211 257.31 259.064 256.629 258.908C255.718 258.695 254.955 258.445 254.34 258.16C253.726 257.874 253.238 257.484 252.878 256.991C252.517 256.498 252.337 255.885 252.337 255.152C252.337 254.454 252.527 253.834 252.908 253.291C253.289 252.749 253.84 252.332 254.561 252.041C255.282 251.75 256.13 251.604 257.105 251.604C257.884 251.604 258.558 251.7 259.126 251.894C259.695 252.087 260.166 252.344 260.541 252.664C260.916 252.984 261.19 253.32 261.363 253.672C261.537 254.024 261.623 254.367 261.623 254.702C261.623 255.008 261.515 255.283 261.299 255.529C261.082 255.774 260.812 255.896 260.489 255.896C260.195 255.896 259.972 255.823 259.819 255.676C259.666 255.529 259.5 255.288 259.321 254.953C259.09 254.474 258.813 254.101 258.49 253.832C258.167 253.564 257.648 253.43 256.932 253.43C256.269 253.43 255.734 253.576 255.327 253.867C254.92 254.158 254.717 254.509 254.717 254.918C254.717 255.172 254.786 255.392 254.925 255.576C255.063 255.761 255.253 255.919 255.496 256.052C255.738 256.185 255.983 256.289 256.231 256.364C256.479 256.439 256.889 256.548 257.46 256.693C258.176 256.86 258.823 257.045 259.403 257.246C259.983 257.448 260.476 257.694 260.883 257.982C261.29 258.271 261.607 258.636 261.835 259.077C262.063 259.518 262.177 260.059 262.177 260.7Z"/>
<path d="M270.788 260.501L266.167 260.501C266.172 261.037 266.281 261.51 266.491 261.92C266.702 262.33 266.982 262.638 267.331 262.846C267.68 263.054 268.065 263.157 268.486 263.157C268.769 263.157 269.027 263.124 269.261 263.058C269.494 262.992 269.721 262.888 269.94 262.746C270.159 262.605 270.361 262.454 270.546 262.292C270.73 262.13 270.97 261.911 271.264 261.634C271.385 261.53 271.558 261.479 271.783 261.479C272.026 261.479 272.222 261.545 272.372 261.678C272.522 261.81 272.597 261.998 272.597 262.24C272.597 262.454 272.513 262.703 272.346 262.989C272.179 263.274 271.926 263.548 271.589 263.811C271.251 264.073 270.827 264.291 270.316 264.464C269.806 264.637 269.219 264.724 268.555 264.724C267.038 264.724 265.858 264.291 265.016 263.426C264.173 262.56 263.752 261.386 263.752 259.903C263.752 259.205 263.856 258.558 264.064 257.96C264.271 257.363 264.574 256.851 264.972 256.424C265.37 255.997 265.861 255.67 266.444 255.442C267.026 255.214 267.672 255.1 268.382 255.1C269.305 255.1 270.097 255.295 270.758 255.684C271.418 256.074 271.913 256.577 272.242 257.195C272.571 257.812 272.735 258.441 272.735 259.081C272.735 259.676 272.565 260.061 272.225 260.237C271.884 260.413 271.405 260.501 270.788 260.501ZM266.167 259.159L270.451 259.159C270.393 258.351 270.175 257.747 269.797 257.346C269.419 256.945 268.922 256.745 268.304 256.745C267.716 256.745 267.233 256.948 266.855 257.355C266.477 257.761 266.247 258.363 266.167 259.159Z"/>
<path d="M277.071 261.314L277.071 263.287C277.071 263.766 276.959 264.125 276.734 264.365C276.509 264.604 276.223 264.724 275.877 264.724C275.536 264.724 275.257 264.603 275.037 264.36C274.818 264.118 274.709 263.76 274.709 263.287L274.709 256.71C274.709 255.648 275.092 255.118 275.86 255.118C276.252 255.118 276.535 255.242 276.708 255.49C276.881 255.738 276.976 256.104 276.993 256.589C277.276 256.104 277.566 255.738 277.863 255.49C278.16 255.242 278.557 255.118 279.053 255.118C279.549 255.118 280.031 255.242 280.498 255.49C280.966 255.738 281.199 256.067 281.199 256.476C281.199 256.765 281.1 257.003 280.901 257.19C280.702 257.378 280.487 257.472 280.256 257.472C280.169 257.472 279.96 257.418 279.629 257.311C279.297 257.205 279.004 257.151 278.75 257.151C278.404 257.151 278.121 257.242 277.902 257.424C277.683 257.606 277.513 257.875 277.391 258.233C277.27 258.591 277.187 259.016 277.14 259.51C277.094 260.003 277.071 260.604 277.071 261.314Z"/>
<path d="M283.925 256.589L285.838 261.954L287.898 256.355C288.059 255.905 288.218 255.586 288.374 255.399C288.53 255.211 288.766 255.118 289.083 255.118C289.383 255.118 289.639 255.218 289.849 255.42C290.06 255.622 290.165 255.856 290.165 256.121C290.165 256.225 290.147 256.346 290.109 256.485C290.072 256.623 290.028 256.753 289.979 256.874C289.93 256.996 289.874 257.134 289.81 257.29L287.543 262.915C287.48 263.077 287.397 263.281 287.296 263.53C287.195 263.778 287.083 263.99 286.959 264.166C286.835 264.342 286.682 264.479 286.5 264.577C286.318 264.675 286.098 264.724 285.838 264.724C285.503 264.724 285.237 264.647 285.038 264.495C284.838 264.342 284.691 264.174 284.596 263.993C284.501 263.811 284.341 263.452 284.116 262.915L281.866 257.35C281.814 257.212 281.76 257.073 281.706 256.935C281.651 256.796 281.605 256.655 281.567 256.511C281.53 256.367 281.511 256.243 281.511 256.139C281.511 255.977 281.56 255.817 281.658 255.658C281.756 255.5 281.892 255.37 282.065 255.269C282.238 255.168 282.425 255.118 282.627 255.118C283.02 255.118 283.289 255.23 283.436 255.455C283.584 255.68 283.747 256.058 283.925 256.589Z"/>
<path d="M294.224 256.459L294.224 263.287C294.224 263.76 294.112 264.118 293.887 264.36C293.662 264.603 293.376 264.724 293.03 264.724C292.684 264.724 292.402 264.6 292.186 264.352C291.97 264.104 291.862 263.749 291.862 263.287L291.862 256.528C291.862 256.061 291.97 255.709 292.186 255.472C292.402 255.236 292.684 255.118 293.03 255.118C293.376 255.118 293.662 255.236 293.887 255.472C294.112 255.709 294.224 256.038 294.224 256.459ZM293.056 254.018C292.727 254.018 292.446 253.917 292.212 253.716C291.978 253.514 291.862 253.228 291.862 252.859C291.862 252.524 291.981 252.249 292.221 252.032C292.46 251.816 292.739 251.708 293.056 251.708C293.362 251.708 293.633 251.806 293.869 252.002C294.106 252.198 294.224 252.484 294.224 252.859C294.224 253.222 294.109 253.506 293.878 253.711C293.647 253.916 293.373 254.018 293.056 254.018Z"/>
<path d="M305.137 261.799C305.137 262.093 305.049 262.407 304.873 262.742C304.697 263.077 304.429 263.395 304.069 263.698C303.708 264.001 303.254 264.245 302.706 264.43C302.157 264.614 301.54 264.707 300.853 264.707C299.394 264.707 298.254 264.281 297.435 263.43C296.616 262.579 296.206 261.438 296.206 260.007C296.206 259.038 296.394 258.181 296.769 257.437C297.144 256.693 297.686 256.117 298.396 255.71C299.105 255.304 299.953 255.1 300.94 255.1C301.552 255.1 302.113 255.19 302.623 255.368C303.134 255.547 303.567 255.778 303.921 256.061C304.276 256.344 304.547 256.645 304.735 256.965C304.922 257.285 305.016 257.584 305.016 257.861C305.016 258.144 304.911 258.383 304.7 258.579C304.49 258.775 304.234 258.874 303.934 258.874C303.738 258.874 303.575 258.823 303.445 258.722C303.316 258.621 303.17 258.458 303.008 258.233C302.72 257.795 302.418 257.466 302.104 257.246C301.79 257.027 301.39 256.918 300.905 256.918C300.207 256.918 299.645 257.19 299.218 257.735C298.791 258.281 298.577 259.026 298.577 259.973C298.577 260.417 298.632 260.825 298.742 261.197C298.851 261.569 299.01 261.887 299.218 262.149C299.425 262.412 299.676 262.611 299.971 262.746C300.265 262.882 300.588 262.95 300.94 262.95C301.413 262.95 301.818 262.84 302.156 262.621C302.493 262.402 302.792 262.067 303.052 261.617C303.196 261.352 303.352 261.144 303.519 260.994C303.686 260.844 303.891 260.769 304.133 260.769C304.422 260.769 304.661 260.878 304.852 261.098C305.042 261.317 305.137 261.551 305.137 261.799Z"/>
<path d="M313.792 260.501L309.17 260.501C309.176 261.037 309.284 261.51 309.495 261.92C309.705 262.33 309.985 262.638 310.334 262.846C310.683 263.054 311.069 263.157 311.49 263.157C311.772 263.157 312.031 263.124 312.264 263.058C312.498 262.992 312.724 262.888 312.944 262.746C313.163 262.605 313.365 262.454 313.549 262.292C313.734 262.13 313.974 261.911 314.268 261.634C314.389 261.53 314.562 261.479 314.787 261.479C315.029 261.479 315.226 261.545 315.376 261.678C315.526 261.81 315.601 261.998 315.601 262.24C315.601 262.454 315.517 262.703 315.35 262.989C315.182 263.274 314.93 263.548 314.592 263.811C314.255 264.073 313.831 264.291 313.32 264.464C312.81 264.637 312.222 264.724 311.559 264.724C310.042 264.724 308.862 264.291 308.019 263.426C307.177 262.56 306.756 261.386 306.756 259.903C306.756 259.205 306.86 258.558 307.067 257.96C307.275 257.363 307.578 256.851 307.976 256.424C308.374 255.997 308.865 255.67 309.447 255.442C310.03 255.214 310.676 255.1 311.386 255.1C312.309 255.1 313.101 255.295 313.761 255.684C314.422 256.074 314.917 256.577 315.246 257.195C315.575 257.812 315.739 258.441 315.739 259.081C315.739 259.676 315.569 260.061 315.228 260.237C314.888 260.413 314.409 260.501 313.792 260.501ZM309.17 259.159L313.454 259.159C313.397 258.351 313.179 257.747 312.801 257.346C312.423 256.945 311.925 256.745 311.308 256.745C310.719 256.745 310.236 256.948 309.858 257.355C309.48 257.761 309.251 258.363 309.17 259.159Z"/>
<path d="M325.337 261.634C325.337 262.286 325.178 262.844 324.861 263.309C324.543 263.773 324.075 264.125 323.454 264.365C322.834 264.604 322.08 264.724 321.191 264.724C320.343 264.724 319.616 264.594 319.01 264.334C318.405 264.075 317.957 263.75 317.669 263.361C317.38 262.971 317.236 262.58 317.236 262.188C317.236 261.929 317.329 261.706 317.513 261.522C317.698 261.337 317.931 261.245 318.214 261.245C318.462 261.245 318.653 261.305 318.785 261.427C318.918 261.548 319.045 261.718 319.166 261.937C319.408 262.358 319.698 262.673 320.036 262.881C320.373 263.088 320.834 263.192 321.416 263.192C321.889 263.192 322.277 263.087 322.58 262.876C322.883 262.666 323.035 262.425 323.035 262.154C323.035 261.738 322.877 261.435 322.563 261.245C322.249 261.054 321.731 260.873 321.01 260.7C320.196 260.498 319.534 260.286 319.023 260.064C318.513 259.841 318.105 259.549 317.799 259.185C317.493 258.822 317.34 258.374 317.34 257.844C317.34 257.371 317.481 256.923 317.764 256.502C318.047 256.081 318.464 255.745 319.015 255.494C319.566 255.243 320.231 255.118 321.01 255.118C321.621 255.118 322.171 255.181 322.658 255.308C323.146 255.435 323.553 255.605 323.878 255.819C324.204 256.032 324.453 256.269 324.623 256.528C324.793 256.788 324.878 257.042 324.878 257.29C324.878 257.561 324.787 257.783 324.605 257.956C324.424 258.129 324.166 258.216 323.831 258.216C323.589 258.216 323.382 258.147 323.212 258.008C323.042 257.87 322.847 257.662 322.628 257.385C322.449 257.154 322.238 256.97 321.996 256.831C321.754 256.693 321.425 256.623 321.01 256.623C320.583 256.623 320.228 256.714 319.945 256.896C319.662 257.078 319.521 257.304 319.521 257.575C319.521 257.823 319.625 258.027 319.833 258.186C320.04 258.344 320.32 258.475 320.672 258.579C321.024 258.683 321.509 258.81 322.126 258.96C322.859 259.139 323.457 259.352 323.922 259.6C324.386 259.849 324.738 260.141 324.978 260.479C325.217 260.816 325.337 261.202 325.337 261.634Z"/>
</g>
<g fill="#122358" opacity="1" stroke="none">
<path d="M84.5904 178.787L92.8924 191.349L92.8924 178.671C92.8924 177.847 93.0693 177.229 93.4231 176.817C93.7769 176.405 94.2543 176.199 94.8553 176.199C95.4756 176.199 95.9651 176.405 96.3238 176.817C96.6824 177.229 96.8617 177.847 96.8617 178.671L96.8617 195.435C96.8617 197.306 96.0863 198.241 94.5354 198.241C94.1477 198.241 93.7987 198.185 93.4886 198.074C93.1784 197.962 92.8876 197.785 92.6162 197.543C92.3448 197.301 92.0928 197.017 91.8601 196.692C91.6275 196.368 91.3949 196.036 91.1623 195.697L83.0638 183.28L83.0638 195.769C83.0638 196.583 82.8748 197.199 82.4967 197.616C82.1187 198.033 81.6341 198.241 81.0428 198.241C80.4321 198.241 79.9426 198.03 79.5743 197.608C79.206 197.187 79.0218 196.574 79.0218 195.769L79.0218 179.325C79.0218 178.627 79.0993 178.08 79.2544 177.682C79.4386 177.246 79.7439 176.89 80.1704 176.613C80.5969 176.337 81.0573 176.199 81.5517 176.199C81.9394 176.199 82.2714 176.262 82.5476 176.388C82.8239 176.514 83.0662 176.684 83.2746 176.897C83.483 177.11 83.6962 177.386 83.9143 177.726C84.1324 178.065 84.3578 178.419 84.5904 178.787Z"/>
<path d="M115.632 179.892L105.905 179.892L105.905 185.126L114.862 185.126C115.521 185.126 116.013 185.274 116.337 185.57C116.662 185.865 116.824 186.256 116.824 186.74C116.824 187.225 116.664 187.62 116.345 187.925C116.025 188.231 115.53 188.383 114.862 188.383L105.905 188.383L105.905 194.446L115.967 194.446C116.645 194.446 117.156 194.604 117.5 194.919C117.845 195.234 118.017 195.653 118.017 196.176C118.017 196.68 117.845 197.09 117.5 197.405C117.156 197.72 116.645 197.877 115.967 197.877L104.233 197.877C103.293 197.877 102.617 197.669 102.205 197.252C101.793 196.835 101.587 196.162 101.587 195.231L101.587 179.209C101.587 178.588 101.679 178.082 101.863 177.689C102.047 177.297 102.336 177.011 102.728 176.832C103.121 176.652 103.623 176.563 104.233 176.563L115.632 176.563C116.32 176.563 116.832 176.715 117.166 177.021C117.5 177.326 117.668 177.726 117.668 178.22C117.668 178.724 117.5 179.129 117.166 179.434C116.832 179.739 116.32 179.892 115.632 179.892Z"/>
</g>
<g fill="#122358" opacity="1" stroke="none">
<path d="M178.618 194.621L178.618 193.985C178.024 194.736 177.401 195.365 176.747 195.874C176.093 196.383 175.379 196.761 174.604 197.009C173.829 197.257 172.945 197.382 171.952 197.382C170.753 197.382 169.679 197.133 168.728 196.637C167.778 196.14 167.042 195.456 166.522 194.584C165.904 193.531 165.595 192.018 165.595 190.044L165.595 180.218C165.595 179.225 165.819 178.483 166.267 177.993C166.715 177.503 167.309 177.257 168.047 177.257C168.798 177.257 169.403 177.506 169.863 178.002C170.324 178.499 170.554 179.237 170.554 180.218L170.554 188.155C170.554 189.305 170.65 190.271 170.844 191.052C171.038 191.833 171.386 192.444 171.889 192.886C172.391 193.328 173.072 193.549 173.932 193.549C174.767 193.549 175.554 193.301 176.293 192.805C177.032 192.308 177.57 191.66 177.909 190.861C178.188 190.159 178.327 188.621 178.327 186.248L178.327 180.218C178.327 179.237 178.557 178.499 179.017 178.002C179.477 177.506 180.077 177.257 180.815 177.257C181.554 177.257 182.147 177.503 182.595 177.993C183.043 178.483 183.267 179.225 183.267 180.218L183.267 194.584C183.267 195.529 183.052 196.237 182.623 196.709C182.193 197.182 181.639 197.418 180.961 197.418C180.283 197.418 179.723 197.173 179.281 196.682C178.839 196.192 178.618 195.505 178.618 194.621Z"/>
<path d="M204.172 190.934C204.172 192.302 203.839 193.474 203.173 194.448C202.507 195.423 201.524 196.162 200.222 196.664C198.92 197.167 197.337 197.418 195.473 197.418C193.693 197.418 192.167 197.145 190.896 196.601C189.624 196.056 188.686 195.375 188.08 194.557C187.475 193.74 187.172 192.92 187.172 192.096C187.172 191.551 187.366 191.085 187.753 190.698C188.141 190.31 188.631 190.117 189.225 190.117C189.745 190.117 190.145 190.244 190.423 190.498C190.702 190.752 190.968 191.109 191.222 191.57C191.731 192.453 192.339 193.113 193.048 193.549C193.756 193.985 194.722 194.203 195.945 194.203C196.938 194.203 197.752 193.982 198.388 193.54C199.023 193.098 199.341 192.593 199.341 192.024C199.341 191.152 199.011 190.516 198.351 190.117C197.691 189.717 196.605 189.336 195.091 188.972C193.384 188.548 191.994 188.103 190.923 187.637C189.851 187.171 188.995 186.557 188.353 185.794C187.711 185.031 187.39 184.093 187.39 182.979C187.39 181.986 187.687 181.047 188.28 180.163C188.873 179.28 189.748 178.574 190.905 178.048C192.061 177.521 193.456 177.257 195.091 177.257C196.375 177.257 197.528 177.391 198.551 177.657C199.574 177.923 200.428 178.281 201.112 178.729C201.796 179.177 202.317 179.673 202.674 180.218C203.031 180.763 203.21 181.296 203.21 181.816C203.21 182.385 203.019 182.852 202.638 183.215C202.256 183.578 201.714 183.76 201.012 183.76C200.504 183.76 200.071 183.614 199.713 183.324C199.356 183.033 198.948 182.597 198.487 182.016C198.112 181.532 197.67 181.144 197.162 180.854C196.653 180.563 195.963 180.418 195.091 180.418C194.195 180.418 193.45 180.608 192.857 180.99C192.264 181.371 191.967 181.847 191.967 182.416C191.967 182.936 192.185 183.363 192.621 183.696C193.057 184.029 193.644 184.305 194.383 184.522C195.121 184.74 196.138 185.007 197.434 185.322C198.972 185.697 200.228 186.145 201.203 186.666C202.177 187.186 202.916 187.801 203.419 188.509C203.921 189.217 204.172 190.026 204.172 190.934Z"/>
</g>
<g fill="#000120" opacity="1" stroke="none">
<path d="M160.29 282.886C160.891 282.886 161.367 282.765 161.717 282.525C162.067 282.284 162.242 281.85 162.242 281.223C162.242 280.549 161.997 280.089 161.508 279.844C161.246 279.716 160.896 279.651 160.458 279.651L157.326 279.651L157.326 282.886L160.29 282.886ZM156.044 278.549L160.425 278.549C161.147 278.549 161.742 278.655 162.21 278.865C163.099 279.269 163.544 280.014 163.544 281.101C163.544 281.668 163.427 282.132 163.193 282.493C162.959 282.853 162.631 283.143 162.21 283.362C162.58 283.513 162.858 283.71 163.044 283.955C163.231 284.2 163.335 284.597 163.357 285.147L163.402 286.416C163.415 286.777 163.445 287.046 163.492 287.222C163.57 287.522 163.707 287.716 163.905 287.802L163.905 288.014L162.333 288.014C162.29 287.933 162.255 287.827 162.229 287.698C162.204 287.57 162.182 287.32 162.165 286.951L162.088 285.373C162.058 284.754 161.828 284.34 161.398 284.129C161.153 284.013 160.769 283.955 160.245 283.955L157.326 283.955L157.326 288.014L156.044 288.014L156.044 278.549Z"/>
<path d="M169.504 278.292C171.175 278.292 172.412 278.829 173.215 279.902C173.842 280.74 174.155 281.812 174.155 283.117C174.155 284.531 173.797 285.705 173.079 286.642C172.238 287.741 171.037 288.291 169.478 288.291C168.022 288.291 166.877 287.81 166.044 286.848C165.301 285.92 164.929 284.748 164.929 283.33C164.929 282.05 165.247 280.955 165.883 280.044C166.699 278.876 167.906 278.292 169.504 278.292ZM169.632 287.144C170.762 287.144 171.579 286.74 172.084 285.93C172.589 285.12 172.841 284.189 172.841 283.137C172.841 282.024 172.55 281.129 171.968 280.45C171.386 279.771 170.59 279.432 169.581 279.432C168.602 279.432 167.803 279.768 167.184 280.44C166.566 281.113 166.256 282.104 166.256 283.414C166.256 284.462 166.522 285.346 167.052 286.065C167.583 286.785 168.443 287.144 169.632 287.144Z"/>
<path d="M179.671 278.292C180.869 278.292 181.799 278.607 182.461 279.239C183.122 279.87 183.489 280.588 183.562 281.391L182.312 281.391C182.171 280.781 181.888 280.298 181.465 279.941C181.042 279.585 180.448 279.406 179.684 279.406C178.751 279.406 177.999 279.734 177.425 280.389C176.852 281.044 176.565 282.048 176.565 283.401C176.565 284.509 176.824 285.408 177.342 286.097C177.859 286.787 178.631 287.132 179.658 287.132C180.603 287.132 181.322 286.769 181.816 286.043C182.078 285.66 182.274 285.158 182.403 284.535L183.652 284.535C183.541 285.531 183.171 286.367 182.544 287.041C181.793 287.853 180.779 288.259 179.503 288.259C178.404 288.259 177.48 287.926 176.733 287.26C175.749 286.38 175.257 285.02 175.257 283.182C175.257 281.786 175.627 280.641 176.365 279.748C177.164 278.777 178.266 278.292 179.671 278.292Z"/>
<path d="M184.4 284.4L185.901 284.4L186.507 282.183L185.012 282.183L185.212 281.436L186.706 281.436L187.473 278.549L188.433 278.549L187.654 281.436L189.078 281.436L189.87 278.549L190.817 278.549L190.038 281.436L191.532 281.436L191.333 282.183L189.838 282.183L189.226 284.4L190.727 284.4L190.527 285.147L189.045 285.147L188.253 288.014L187.306 288.014L188.085 285.147L186.648 285.147L185.882 288.014L184.922 288.014L185.701 285.147L184.207 285.147L184.4 284.4ZM188.266 284.4L188.878 282.183L187.454 282.183L186.861 284.4L188.266 284.4Z"/>
<path d="M198.639 288.265C197.548 288.265 196.757 287.966 196.265 287.367C195.773 286.767 195.527 286.038 195.527 285.179L196.738 285.179C196.79 285.776 196.901 286.21 197.073 286.481C197.374 286.966 197.917 287.209 198.703 287.209C199.313 287.209 199.803 287.046 200.172 286.719C200.542 286.393 200.726 285.972 200.726 285.456C200.726 284.821 200.532 284.376 200.143 284.123C199.755 283.869 199.215 283.742 198.523 283.742C198.446 283.742 198.367 283.744 198.288 283.746C198.208 283.748 198.128 283.751 198.046 283.755L198.046 282.731C198.166 282.744 198.267 282.752 198.349 282.757C198.431 282.761 198.519 282.763 198.613 282.763C199.047 282.763 199.404 282.694 199.683 282.557C200.172 282.316 200.417 281.887 200.417 281.268C200.417 280.809 200.254 280.454 199.928 280.205C199.601 279.956 199.221 279.832 198.787 279.832C198.014 279.832 197.479 280.089 197.183 280.605C197.02 280.888 196.927 281.292 196.906 281.816L195.759 281.816C195.759 281.129 195.896 280.545 196.171 280.064C196.644 279.204 197.475 278.775 198.665 278.775C199.605 278.775 200.333 278.984 200.849 279.403C201.364 279.822 201.622 280.429 201.622 281.223C201.622 281.79 201.47 282.25 201.165 282.602C200.976 282.821 200.731 282.993 200.43 283.117C200.915 283.251 201.295 283.507 201.567 283.887C201.84 284.268 201.976 284.733 201.976 285.282C201.976 286.163 201.686 286.88 201.107 287.434C200.527 287.988 199.704 288.265 198.639 288.265Z"/>
<path d="M206.912 284.748L206.912 280.566L203.954 284.748L206.912 284.748ZM206.931 288.014L206.931 285.759L202.885 285.759L202.885 284.625L207.112 278.762L208.091 278.762L208.091 284.748L209.45 284.748L209.45 285.759L208.091 285.759L208.091 288.014L206.931 288.014Z"/>
<path d="M214.25 284.748L214.25 280.566L211.293 284.748L214.25 284.748ZM214.27 288.014L214.27 285.759L210.224 285.759L210.224 284.625L214.45 278.762L215.429 278.762L215.429 284.748L216.789 284.748L216.789 285.759L215.429 285.759L215.429 288.014L214.27 288.014Z"/>
<path d="M217.639 288.014C217.682 287.22 217.847 286.528 218.132 285.94C218.418 285.351 218.975 284.816 219.804 284.335L221.041 283.62C221.595 283.298 221.984 283.023 222.208 282.795C222.56 282.439 222.736 282.031 222.736 281.571C222.736 281.034 222.575 280.608 222.253 280.292C221.93 279.977 221.501 279.819 220.964 279.819C220.169 279.819 219.62 280.119 219.315 280.721C219.151 281.043 219.061 281.49 219.044 282.061L217.865 282.061C217.878 281.258 218.026 280.603 218.309 280.096C218.812 279.202 219.699 278.756 220.97 278.756C222.027 278.756 222.799 279.041 223.287 279.612C223.774 280.184 224.018 280.819 224.018 281.52C224.018 282.258 223.758 282.89 223.238 283.414C222.938 283.719 222.399 284.088 221.621 284.522L220.739 285.012C220.318 285.244 219.987 285.465 219.746 285.675C219.317 286.049 219.046 286.464 218.934 286.919L223.973 286.919L223.973 288.014L217.639 288.014Z"/>
<path d="M228.154 282.654C228.666 282.654 229.065 282.511 229.353 282.225C229.641 281.939 229.785 281.599 229.785 281.204C229.785 280.86 229.647 280.545 229.372 280.257C229.097 279.969 228.678 279.825 228.116 279.825C227.557 279.825 227.154 279.969 226.904 280.257C226.655 280.545 226.531 280.882 226.531 281.268C226.531 281.702 226.692 282.042 227.014 282.286C227.336 282.531 227.716 282.654 228.154 282.654ZM228.225 287.222C228.762 287.222 229.208 287.077 229.562 286.787C229.917 286.497 230.094 286.064 230.094 285.489C230.094 284.891 229.911 284.438 229.546 284.129C229.181 283.82 228.713 283.665 228.142 283.665C227.587 283.665 227.135 283.823 226.785 284.139C226.435 284.454 226.26 284.891 226.26 285.45C226.26 285.931 226.42 286.347 226.74 286.697C227.06 287.047 227.555 287.222 228.225 287.222ZM226.576 283.098C226.254 282.961 226.002 282.8 225.822 282.615C225.483 282.271 225.313 281.825 225.313 281.275C225.313 280.588 225.562 279.997 226.06 279.503C226.559 279.009 227.265 278.762 228.18 278.762C229.065 278.762 229.759 278.995 230.261 279.461C230.764 279.927 231.015 280.472 231.015 281.094C231.015 281.67 230.869 282.136 230.577 282.493C230.414 282.694 230.16 282.892 229.817 283.085C230.199 283.261 230.5 283.463 230.719 283.691C231.127 284.12 231.331 284.679 231.331 285.366C231.331 286.178 231.058 286.866 230.513 287.431C229.967 287.996 229.196 288.278 228.2 288.278C227.302 288.278 226.543 288.035 225.922 287.547C225.301 287.06 224.991 286.352 224.991 285.424C224.991 284.879 225.124 284.407 225.39 284.01C225.657 283.613 226.052 283.309 226.576 283.098Z"/>
<path d="M235.493 282.654C236.004 282.654 236.404 282.511 236.691 282.225C236.979 281.939 237.123 281.599 237.123 281.204C237.123 280.86 236.986 280.545 236.711 280.257C236.436 279.969 236.017 279.825 235.454 279.825C234.896 279.825 234.492 279.969 234.243 280.257C233.994 280.545 233.869 280.882 233.869 281.268C233.869 281.702 234.03 282.042 234.353 282.286C234.675 282.531 235.055 282.654 235.493 282.654ZM235.564 287.222C236.101 287.222 236.546 287.077 236.901 286.787C237.255 286.497 237.432 286.064 237.432 285.489C237.432 284.891 237.25 284.438 236.885 284.129C236.52 283.82 236.051 283.665 235.48 283.665C234.926 283.665 234.474 283.823 234.124 284.139C233.774 284.454 233.599 284.891 233.599 285.45C233.599 285.931 233.759 286.347 234.079 286.697C234.399 287.047 234.894 287.222 235.564 287.222ZM233.914 283.098C233.592 282.961 233.341 282.8 233.161 282.615C232.821 282.271 232.652 281.825 232.652 281.275C232.652 280.588 232.901 279.997 233.399 279.503C233.897 279.009 234.604 278.762 235.519 278.762C236.404 278.762 237.097 278.995 237.6 279.461C238.102 279.927 238.354 280.472 238.354 281.094C238.354 281.67 238.208 282.136 237.916 282.493C237.752 282.694 237.499 282.892 237.155 283.085C237.538 283.261 237.838 283.463 238.057 283.691C238.465 284.12 238.669 284.679 238.669 285.366C238.669 286.178 238.397 286.866 237.851 287.431C237.306 287.996 236.535 288.278 235.538 288.278C234.64 288.278 233.881 288.035 233.261 287.547C232.64 287.06 232.33 286.352 232.33 285.424C232.33 284.879 232.463 284.407 232.729 284.01C232.995 283.613 233.39 283.309 233.914 283.098Z"/>
</g>
</g>
</svg>
