<?xml version="1.0" encoding="UTF-8" standalone="no"?>
<!DOCTYPE svg PUBLIC "-//W3C//DTD SVG 1.1//EN" "http://www.w3.org/Graphics/SVG/1.1/DTD/svg11.dtd">
<!-- Created with Vectornator (http://vectornator.io/) -->
<svg height="100%" stroke-miterlimit="10" style="fill-rule:nonzero;clip-rule:evenodd;stroke-linecap:round;stroke-linejoin:round;" version="1.1" viewBox="0 0 432 324" width="100%" xml:space="preserve" xmlns="http://www.w3.org/2000/svg" xmlns:xlink="http://www.w3.org/1999/xlink">
<defs/>
<path d="M0 0L432 0L432 324L0 324L0 0Z" fill="#ffffff" fill-rule="nonzero" opacity="1" stroke="none"/>
<clipPath id="ArtboardFrame">
<rect height="324" width="432" x="0" y="0"/>
</clipPath>
<g clip-path="url(#ArtboardFrame)" id="Layer-1">
<g opacity="1">
<path d="M-5.57135-0.794863C-5.57135 155.125-5.57135 155.125-5.57135 311.044C-4.66346 311.11-6.08051 305.852-5.98499 306.503C-5.40184 310.474-6.13132 320.239-6.13132 324.235C219.034 324.315 222.249 323.813 447.414 323.892C447.414 161.549 447.414 161.549 447.414-0.794863C220.921-0.794863 220.921-0.794863-5.57135-0.794863Z" fill="#fbfdfc" fill-rule="nonzero" opacity="1" stroke="none"/>
<path d="M201.77 63.3403C174.272 75.8339 154.77 95.7536 130.514 111.401C122.172 116.782 113.977 122.281 105.729 127.738C104.971 128.24 98.4433 132.211 98.2049 132.656C97.5359 133.902 98.4262 136.727 98.4262 138.207C98.4262 143.6 98.6475 148.993 98.6475 154.386C98.6475 158.714 98.1983 162.357 98.6475 166.758C98.6627 166.907 98.8816 167.07 99.0901 167.075C103.071 167.177 107.057 167.066 111.04 167.075C134.202 167.128 157.364 167.075 180.526 167.075C221.981 167.075 263.437 167.287 304.892 167.234C305.101 167.234 305.326 167.066 305.335 166.917C305.497 163.956 306.362 160.967 305.777 158.034C305.748 157.886 305.543 157.719 305.335 157.717C296.927 157.613 288.516 157.767 280.107 157.717C272.37 157.671 264.294 157.845 256.429 157.717C255.761 157.706 255.082 157.684 254.437 157.558C254.236 157.519 253.998 157.391 253.995 157.241C253.85 151.267 253.922 145.292 253.995 139.317C254.063 133.705 243.778 133.766 238.283 133.766C234.602 133.766 229.278 136.727 229.21 139.317C229.068 144.763 228.989 150.209 228.989 155.655C228.989 155.943 229.554 157.687 228.767 157.717C213.449 158.295 197.488 157.558 182.075 157.558C179.344 157.558 176.616 157.767 173.887 157.717C173.678 157.713 173.448 157.549 173.444 157.4C173.299 150.58 173.444 143.759 173.444 136.938C173.444 133.079 173.373 129.219 173.444 125.359C173.448 125.141 173.53 124.92 173.666 124.725C174.636 123.334 180.354 120.089 181.853 119.015C186.321 115.812 190.869 112.552 195.352 109.339C204.682 102.651 214.393 96.2652 224.12 89.8292C226.881 88.0027 229.697 86.2138 232.308 84.2776C232.411 84.2016 232.4 84.043 232.308 83.9604C229.538 81.4788 224.59 78.0515 221.022 76.3468C220.335 76.0182 217.67 78.5911 217.039 79.0433C214.273 81.0262 211.444 82.9643 208.63 84.9121C197.356 92.714 186.05 100.469 174.772 108.229C172.401 109.86 170.075 111.524 167.691 113.146C164.716 115.169 161.789 117.279 158.618 119.173C157.827 119.645 155.244 120.192 154.856 119.173C154.162 117.35 156.708 116.832 158.175 115.842C162.497 112.927 167.024 109.975 171.231 106.96C183.04 98.4958 195.332 90.2229 207.745 82.2156C211.043 80.0878 214.199 77.8513 217.482 75.7124C217.537 75.6763 219.485 74.8357 219.252 74.602C214.895 70.2303 208.058 60.4832 201.77 63.3403Z" fill="#0a7bc5" fill-rule="nonzero" opacity="1" stroke="none"/>
<path d="M198.229 43.8305C189.361 44.2044 185.217 48.3542 178.755 52.713C172.234 57.1124 165.369 61.3565 159.06 65.8782C157.067 67.3067 154.92 68.6205 152.864 70.0022C151.972 70.6018 145.567 74.3669 145.561 74.4434C145.422 76.3971 145.521 78.3562 145.561 80.3122C145.595 81.9519 145.783 83.5894 145.783 85.2293C145.783 85.9714 145.272 86.9252 146.004 87.45C153.221 82.2773 160.937 77.4568 168.355 72.3814C175.15 67.7323 181.999 63.1211 188.935 58.5818C191.315 57.0243 195.027 53.9608 198.45 53.3475C208.741 51.5034 215.061 58.5715 221.686 63.0231C233.273 70.8094 245.081 78.5604 257.093 86.0224C274.871 97.0665 292.194 108.57 309.539 119.966C311.625 121.336 314.17 122.651 316.178 124.09C319.799 126.686 324.429 131.051 329.234 127.263C330.906 125.944 330.173 122.86 330.119 121.711C329.977 118.646 317.982 112.369 315.071 110.449C312.997 109.081 310.961 107.684 308.875 106.325C307.252 105.268 305.63 104.21 304.007 103.153C282.93 89.419 261.34 76.1034 240.496 62.23C233.989 57.8992 227.888 53.2499 221.022 49.2235C219.077 48.0827 216.127 45.6349 213.498 45.2581C209.359 44.6647 205.163 43.8305 198.229 43.8305Z" fill="#7babc6" fill-rule="nonzero" opacity="1" stroke="none"/>
<path d="M126.973 65.5609C124.706 65.4537 120.802 67.0873 120.777 69.0505C120.704 74.7607 120.682 80.4713 120.555 86.181C120.515 88.0177 121.244 88.5453 119.892 89.3533C111.175 94.5597 102.959 100.3 94.6642 105.849C88.1868 110.183 81.2052 114.228 74.9692 118.697C70.0685 122.21 73.3798 129.007 80.2802 129.007C83.6876 129.007 88.0319 124.963 89.7958 123.773C94.7129 120.456 99.5987 117.18 104.622 113.939C115.108 107.175 125.627 100.454 136.046 93.636C136.623 93.2582 146.217 87.3338 146.225 87.2913C147.008 83.3646 146.141 78.3752 146.004 74.4434C145.849 69.9941 147.611 69.1986 142.906 66.0368C139.855 63.9866 130.989 65.7509 126.973 65.5609Z" fill="#07074a" fill-rule="nonzero" opacity="1" stroke="none"/>
<path d="M149.766 192.612C145.519 195.656 142.306 199.636 138.701 203.081C136.094 205.573 133.899 208.027 131.399 210.536C129.001 212.942 125.147 215.652 124.317 218.625C123.399 221.918 129.175 222.571 132.063 220.846C139.124 216.628 143.763 209.073 149.102 203.716C150.896 201.915 157.608 197.668 156.626 196.261C157.95 195.312 159.793 193.725 161.273 192.93C161.942 192.57 162.254 193.178 163.265 192.454C158.665 189.157 153.9 186.059 149.323 182.778C147.109 181.191 145.501 178.723 142.463 178.178C138.352 177.442 135.603 179.298 135.603 182.144C135.603 182.666 136.269 183.091 136.71 183.413C140.253 186.002 143.754 188.62 147.332 191.185C148.563 192.068 148.7 192.103 149.766 192.612Z" fill="#0c4392" fill-rule="nonzero" opacity="1" stroke="none"/>
<path d="M163.044 192.295C162.111 192.813 161.909 192.309 161.273 192.612C159.679 193.374 157.434 195.093 156.184 196.102C155.55 196.613 159.304 198.799 159.503 198.957C160.378 199.651 161.236 200.358 162.158 201.019C169.851 206.533 177.712 212.009 185.394 217.515C187.914 219.322 192.08 222.287 194.91 224.653C195.79 225.389 197.405 227.401 198.893 227.508C201.935 227.726 208.862 225.615 205.753 222.75C201.894 219.193 196.903 216.089 192.475 212.915C189.052 210.462 185.271 208.228 181.853 205.778C175.665 201.342 169.87 196.752 163.486 192.454C163.366 192.373 163.174 192.223 163.044 192.295Z" fill="#0a7bc5" fill-rule="nonzero" opacity="1" stroke="none"/>
<path d="M218.809 74.7607C216.754 75.4971 215.394 76.9641 213.72 78.0916C210.651 80.1578 207.374 82.1638 204.425 84.2776C193.109 92.389 180.798 99.7855 169.461 107.911C165.863 110.49 161.996 112.945 158.396 115.525C156.997 116.528 153.378 117.243 154.413 119.173C156.308 122.704 165.742 114.701 167.469 113.463C169.793 111.797 172.18 110.177 174.551 108.546C178.389 105.904 182.218 103.255 186.058 100.615C190.877 97.3021 195.648 93.954 200.442 90.6223C207.023 86.0479 214.844 81.8034 220.58 76.6641C219.145 75.464 218.948 75.9897 219.473 75.2365C219.141 74.9986 219.141 74.9986 218.809 74.7607Z" fill="#daeef0" fill-rule="nonzero" opacity="1" stroke="none"/>
<path d="M212.171 104.422C210.954 104.435 208.674 104.185 208.63 105.056C208.417 109.283 208.486 113.517 208.63 117.746C208.635 117.895 208.864 118.059 209.072 118.063C214.824 118.166 220.584 118.216 226.333 118.063C226.646 118.055 226.986 117.811 226.997 117.587C227.21 113.307 227.141 109.021 226.997 104.739C226.992 104.59 226.763 104.426 226.555 104.422C221.762 104.319 216.965 104.369 212.171 104.422Z" fill="#28a4df" fill-rule="nonzero" opacity="1" stroke="none"/>
<path d="M258.863 104.422C257.711 104.447 257.329 104.54 257.314 105.374C257.243 109.498 257.021 113.622 257.093 117.746C257.095 117.895 257.327 118.059 257.535 118.063C263.14 118.166 268.752 118.215 274.354 118.063C274.666 118.054 275.006 117.811 275.018 117.587C275.231 113.36 275.161 109.126 275.018 104.898C274.981 103.835 272.074 104.595 270.592 104.58C266.682 104.541 262.772 104.337 258.863 104.422Z" fill="#28a4df" fill-rule="nonzero" opacity="1" stroke="none"/>
<path d="M160.831 191.185C161.052 191.026 161.052 191.026 161.273 190.868C162.164 191.187 166.504 186.433 167.248 185.633C170.784 181.831 182.785 173.91 175.879 169.454C171.895 166.884 167.238 173.326 165.699 175.165C163.232 178.112 160.237 181.173 157.29 183.889C156.51 184.607 154.634 185.747 154.634 186.744C154.634 187.679 156.35 188.157 157.29 188.806C158.455 189.61 159.65 190.392 160.831 191.185Z" fill="#12bcf2" fill-rule="nonzero" opacity="1" stroke="none"/>
<path d="M304.671 216.563C301.695 216.747 301.078 220.857 304.228 221.798C307.473 222.767 308.084 218.403 306.884 217.198C305.796 216.106 306.003 216.481 304.671 216.563Z" fill="#fbfdfc" fill-rule="nonzero" opacity="1" stroke="none"/>
</g>
<g fill="#737a76" opacity="1" stroke="none">
<path d="M92.208 228.996L92.208 232.632L97.7574 232.632L97.7574 228.996C97.7574 228.476 97.8743 228.087 98.1081 227.827C98.3418 227.567 98.6491 227.438 99.0301 227.438C99.4168 227.438 99.7299 227.566 99.9694 227.823C100.209 228.08 100.329 228.471 100.329 228.996L100.329 238.995C100.329 239.52 100.207 239.913 99.9651 240.173C99.7227 240.432 99.411 240.562 99.0301 240.562C98.6434 240.562 98.3346 240.431 98.1037 240.168C97.8729 239.906 97.7574 239.515 97.7574 238.995L97.7574 234.727L92.208 234.727L92.208 238.995C92.208 239.52 92.0868 239.913 91.8444 240.173C91.602 240.432 91.2903 240.562 90.9094 240.562C90.5227 240.562 90.2139 240.431 89.983 240.168C89.7522 239.906 89.6367 239.515 89.6367 238.995L89.6367 228.996C89.6367 228.476 89.7507 228.087 89.9787 227.827C90.2067 227.567 90.5169 227.438 90.9094 227.438C91.2961 227.438 91.6092 227.566 91.8487 227.823C92.0882 228.08 92.208 228.471 92.208 228.996Z"/>
<path d="M111.774 235.757C111.774 236.462 111.664 237.111 111.445 237.705C111.226 238.3 110.908 238.811 110.493 239.238C110.077 239.665 109.581 239.992 109.003 240.22C108.426 240.448 107.777 240.562 107.056 240.562C106.34 240.562 105.696 240.447 105.125 240.216C104.554 239.985 104.059 239.655 103.64 239.225C103.222 238.795 102.904 238.287 102.688 237.701C102.471 237.115 102.363 236.467 102.363 235.757C102.363 235.042 102.473 234.387 102.692 233.792C102.912 233.198 103.226 232.69 103.636 232.268C104.046 231.847 104.542 231.522 105.125 231.294C105.708 231.066 106.351 230.952 107.056 230.952C107.771 230.952 108.421 231.068 109.003 231.299C109.586 231.53 110.086 231.859 110.501 232.286C110.917 232.713 111.233 233.221 111.449 233.809C111.666 234.398 111.774 235.047 111.774 235.757ZM109.402 235.757C109.402 234.793 109.19 234.043 108.765 233.506C108.341 232.97 107.771 232.701 107.056 232.701C106.594 232.701 106.187 232.821 105.835 233.061C105.483 233.3 105.212 233.654 105.021 234.121C104.831 234.589 104.735 235.134 104.735 235.757C104.735 236.375 104.829 236.915 105.017 237.376C105.204 237.838 105.473 238.192 105.822 238.437C106.171 238.682 106.582 238.805 107.056 238.805C107.771 238.805 108.341 238.535 108.765 237.995C109.19 237.456 109.402 236.71 109.402 235.757Z"/>
<path d="M121.496 235.931L121.496 239.073C121.496 239.57 121.384 239.942 121.159 240.19C120.933 240.438 120.636 240.562 120.267 240.562C119.909 240.562 119.619 240.438 119.397 240.19C119.175 239.942 119.063 239.57 119.063 239.073L119.063 235.307C119.063 234.713 119.043 234.251 119.003 233.922C118.962 233.593 118.853 233.323 118.674 233.113C118.495 232.902 118.212 232.797 117.825 232.797C117.052 232.797 116.543 233.062 116.297 233.593C116.052 234.124 115.929 234.886 115.929 235.879L115.929 239.073C115.929 239.564 115.818 239.935 115.596 240.186C115.374 240.437 115.081 240.562 114.717 240.562C114.36 240.562 114.067 240.437 113.839 240.186C113.611 239.935 113.497 239.564 113.497 239.073L113.497 232.312C113.497 231.867 113.599 231.53 113.804 231.299C114.009 231.068 114.279 230.952 114.614 230.952C114.937 230.952 115.207 231.061 115.423 231.277C115.639 231.494 115.748 231.792 115.748 232.173L115.748 232.398C116.157 231.908 116.596 231.547 117.064 231.316C117.531 231.085 118.051 230.97 118.622 230.97C119.216 230.97 119.727 231.088 120.154 231.325C120.581 231.561 120.933 231.919 121.211 232.398C121.609 231.913 122.036 231.554 122.492 231.32C122.948 231.087 123.453 230.97 124.007 230.97C124.653 230.97 125.21 231.097 125.678 231.351C126.145 231.605 126.494 231.968 126.725 232.442C126.927 232.869 127.028 233.541 127.028 234.459L127.028 239.073C127.028 239.57 126.916 239.942 126.691 240.19C126.466 240.438 126.168 240.562 125.799 240.562C125.441 240.562 125.148 240.437 124.92 240.186C124.692 239.935 124.578 239.564 124.578 239.073L124.578 235.099C124.578 234.591 124.557 234.185 124.513 233.879C124.47 233.573 124.353 233.316 124.163 233.108C123.972 232.9 123.684 232.797 123.297 232.797C122.985 232.797 122.69 232.889 122.41 233.074C122.13 233.258 121.912 233.506 121.756 233.818C121.583 234.216 121.496 234.92 121.496 235.931Z"/>
<path d="M135.92 236.337L131.296 236.337C131.302 236.874 131.41 237.347 131.621 237.757C131.832 238.167 132.112 238.476 132.461 238.684C132.81 238.891 133.195 238.995 133.617 238.995C133.899 238.995 134.158 238.962 134.392 238.896C134.625 238.829 134.852 238.725 135.071 238.584C135.29 238.443 135.492 238.291 135.677 238.13C135.862 237.968 136.101 237.749 136.396 237.472C136.517 237.368 136.69 237.316 136.915 237.316C137.158 237.316 137.354 237.382 137.504 237.515C137.654 237.648 137.729 237.835 137.729 238.078C137.729 238.291 137.645 238.541 137.478 238.826C137.311 239.112 137.058 239.386 136.72 239.649C136.383 239.912 135.959 240.129 135.448 240.303C134.937 240.476 134.35 240.562 133.686 240.562C132.168 240.562 130.988 240.129 130.145 239.264C129.302 238.398 128.881 237.223 128.881 235.74C128.881 235.042 128.985 234.394 129.193 233.796C129.4 233.199 129.704 232.687 130.102 232.26C130.5 231.833 130.991 231.505 131.574 231.277C132.156 231.049 132.803 230.935 133.513 230.935C134.436 230.935 135.228 231.13 135.889 231.52C136.55 231.909 137.045 232.413 137.374 233.03C137.703 233.648 137.868 234.277 137.868 234.918C137.868 235.512 137.697 235.897 137.357 236.073C137.016 236.249 136.537 236.337 135.92 236.337ZM131.296 234.996L135.582 234.996C135.524 234.187 135.306 233.583 134.928 233.182C134.55 232.781 134.052 232.58 133.435 232.58C132.846 232.58 132.363 232.784 131.985 233.19C131.607 233.597 131.377 234.199 131.296 234.996Z"/>
<path d="M147.91 234.918L147.01 234.918L147.01 238.995C147.01 239.532 146.891 239.927 146.655 240.181C146.418 240.435 146.109 240.562 145.728 240.562C145.319 240.562 145.001 240.43 144.776 240.164C144.551 239.899 144.439 239.509 144.439 238.995L144.439 229.23C144.439 228.676 144.563 228.274 144.811 228.026C145.059 227.778 145.46 227.654 146.014 227.654L150.196 227.654C150.773 227.654 151.266 227.678 151.676 227.728C152.086 227.777 152.455 227.876 152.784 228.026C153.183 228.194 153.535 228.433 153.841 228.745C154.146 229.056 154.379 229.419 154.537 229.831C154.696 230.244 154.776 230.681 154.776 231.143C154.776 232.089 154.509 232.846 153.975 233.411C153.441 233.977 152.631 234.378 151.546 234.615C152.002 234.857 152.438 235.215 152.854 235.688C153.269 236.161 153.64 236.665 153.966 237.199C154.292 237.733 154.546 238.215 154.728 238.645C154.91 239.075 155.001 239.37 155.001 239.532C155.001 239.699 154.947 239.865 154.84 240.03C154.734 240.194 154.588 240.324 154.403 240.419C154.219 240.515 154.005 240.562 153.763 240.562C153.474 240.562 153.232 240.494 153.035 240.359C152.839 240.223 152.67 240.051 152.529 239.844C152.388 239.636 152.196 239.33 151.953 238.926L150.923 237.212C150.554 236.583 150.223 236.104 149.932 235.775C149.64 235.446 149.344 235.221 149.044 235.099C148.744 234.978 148.366 234.918 147.91 234.918ZM149.382 229.585L147.01 229.585L147.01 233.074L149.313 233.074C149.93 233.074 150.45 233.02 150.871 232.913C151.292 232.807 151.614 232.625 151.836 232.368C152.059 232.111 152.17 231.758 152.17 231.307C152.17 230.955 152.08 230.645 151.901 230.377C151.722 230.108 151.474 229.908 151.157 229.775C150.857 229.648 150.265 229.585 149.382 229.585Z"/>
<path d="M163.199 236.337L158.576 236.337C158.582 236.874 158.69 237.347 158.901 237.757C159.111 238.167 159.391 238.476 159.741 238.684C160.09 238.891 160.475 238.995 160.896 238.995C161.179 238.995 161.437 238.962 161.671 238.896C161.905 238.829 162.132 238.725 162.351 238.584C162.57 238.443 162.772 238.291 162.957 238.13C163.142 237.968 163.381 237.749 163.675 237.472C163.797 237.368 163.97 237.316 164.195 237.316C164.437 237.316 164.634 237.382 164.784 237.515C164.934 237.648 165.009 237.835 165.009 238.078C165.009 238.291 164.925 238.541 164.758 238.826C164.59 239.112 164.338 239.386 164 239.649C163.662 239.912 163.238 240.129 162.727 240.303C162.217 240.476 161.629 240.562 160.966 240.562C159.448 240.562 158.267 240.129 157.425 239.264C156.582 238.398 156.161 237.223 156.161 235.74C156.161 235.042 156.265 234.394 156.472 233.796C156.68 233.199 156.983 232.687 157.381 232.26C157.78 231.833 158.27 231.505 158.853 231.277C159.436 231.049 160.083 230.935 160.792 230.935C161.716 230.935 162.508 231.13 163.169 231.52C163.83 231.909 164.325 232.413 164.654 233.03C164.983 233.648 165.147 234.277 165.147 234.918C165.147 235.512 164.977 235.897 164.636 236.073C164.296 236.249 163.817 236.337 163.199 236.337ZM158.576 234.996L162.862 234.996C162.804 234.187 162.586 233.583 162.208 233.182C161.83 232.781 161.332 232.58 160.715 232.58C160.126 232.58 159.642 232.784 159.264 233.19C158.886 233.597 158.657 234.199 158.576 234.996Z"/>
<path d="M169.086 232.277L169.086 232.563C169.531 232.014 169.992 231.612 170.472 231.355C170.951 231.098 171.493 230.97 172.099 230.97C172.826 230.97 173.496 231.157 174.108 231.533C174.719 231.908 175.203 232.456 175.558 233.177C175.913 233.899 176.09 234.753 176.09 235.74C176.09 236.467 175.988 237.135 175.783 237.744C175.578 238.353 175.297 238.864 174.939 239.277C174.581 239.689 174.158 240.007 173.67 240.229C173.183 240.451 172.659 240.562 172.099 240.562C171.424 240.562 170.857 240.427 170.398 240.155C169.939 239.884 169.502 239.486 169.086 238.961L169.086 242.51C169.086 243.549 168.708 244.069 167.952 244.069C167.508 244.069 167.213 243.934 167.069 243.666C166.925 243.398 166.853 243.007 166.853 242.493L166.853 232.294C166.853 231.844 166.951 231.508 167.147 231.286C167.343 231.064 167.612 230.952 167.952 230.952C168.287 230.952 168.56 231.066 168.77 231.294C168.981 231.522 169.086 231.85 169.086 232.277ZM173.718 235.714C173.718 235.091 173.623 234.555 173.432 234.108C173.242 233.661 172.978 233.317 172.64 233.078C172.303 232.838 171.929 232.719 171.519 232.719C170.867 232.719 170.317 232.975 169.87 233.489C169.423 234.003 169.199 234.759 169.199 235.757C169.199 236.698 169.421 237.43 169.866 237.952C170.31 238.474 170.861 238.736 171.519 238.736C171.912 238.736 172.275 238.622 172.61 238.394C172.945 238.166 173.213 237.824 173.415 237.368C173.617 236.912 173.718 236.36 173.718 235.714Z"/>
<path d="M183.96 239.229C183.388 239.673 182.836 240.007 182.302 240.229C181.768 240.451 181.169 240.562 180.506 240.562C179.9 240.562 179.367 240.442 178.908 240.203C178.449 239.963 178.096 239.639 177.848 239.229C177.6 238.819 177.475 238.375 177.475 237.896C177.475 237.249 177.68 236.698 178.09 236.242C178.5 235.786 179.063 235.48 179.778 235.324C179.928 235.29 180.301 235.212 180.895 235.091C181.49 234.97 181.999 234.858 182.423 234.757C182.847 234.656 183.308 234.534 183.804 234.389C183.775 233.766 183.65 233.309 183.427 233.017C183.205 232.726 182.745 232.58 182.047 232.58C181.446 232.58 180.995 232.664 180.692 232.831C180.389 232.999 180.129 233.25 179.913 233.584C179.696 233.919 179.543 234.14 179.454 234.247C179.364 234.353 179.172 234.407 178.878 234.407C178.612 234.407 178.383 234.322 178.19 234.151C177.996 233.981 177.9 233.763 177.9 233.498C177.9 233.082 178.047 232.678 178.341 232.286C178.636 231.893 179.094 231.57 179.718 231.316C180.341 231.062 181.117 230.935 182.047 230.935C183.085 230.935 183.902 231.058 184.497 231.303C185.091 231.548 185.511 231.937 185.756 232.468C186.002 232.999 186.124 233.703 186.124 234.58C186.124 235.134 186.123 235.604 186.12 235.991C186.117 236.378 186.113 236.808 186.107 237.281C186.107 237.725 186.181 238.189 186.328 238.671C186.475 239.153 186.548 239.463 186.548 239.601C186.548 239.844 186.434 240.064 186.207 240.264C185.979 240.463 185.72 240.562 185.432 240.562C185.189 240.562 184.95 240.448 184.713 240.22C184.476 239.992 184.225 239.662 183.96 239.229ZM183.804 235.809C183.458 235.936 182.954 236.07 182.293 236.212C181.632 236.353 181.175 236.457 180.921 236.524C180.667 236.59 180.425 236.72 180.194 236.913C179.963 237.106 179.848 237.376 179.848 237.723C179.848 238.08 179.983 238.385 180.254 238.636C180.526 238.887 180.881 239.013 181.319 239.013C181.787 239.013 182.218 238.91 182.614 238.705C183.009 238.5 183.299 238.236 183.484 237.913C183.697 237.555 183.804 236.967 183.804 236.147L183.804 235.809Z"/>
<path d="M190.886 232.294L190.886 239.125C190.886 239.598 190.773 239.956 190.548 240.199C190.323 240.441 190.037 240.562 189.691 240.562C189.345 240.562 189.063 240.438 188.847 240.19C188.631 239.942 188.522 239.587 188.522 239.125L188.522 232.364C188.522 231.896 188.631 231.544 188.847 231.307C189.063 231.071 189.345 230.952 189.691 230.952C190.037 230.952 190.323 231.071 190.548 231.307C190.773 231.544 190.886 231.873 190.886 232.294ZM189.717 229.853C189.388 229.853 189.107 229.752 188.873 229.55C188.639 229.348 188.522 229.062 188.522 228.693C188.522 228.358 188.642 228.083 188.882 227.866C189.121 227.65 189.4 227.541 189.717 227.541C190.023 227.541 190.294 227.64 190.531 227.836C190.768 228.032 190.886 228.318 190.886 228.693C190.886 229.056 190.77 229.341 190.54 229.546C190.309 229.751 190.035 229.853 189.717 229.853Z"/>
<path d="M195.673 237.151L195.673 239.125C195.673 239.604 195.561 239.963 195.336 240.203C195.111 240.442 194.825 240.562 194.479 240.562C194.138 240.562 193.858 240.441 193.639 240.199C193.42 239.956 193.31 239.598 193.31 239.125L193.31 232.545C193.31 231.483 193.694 230.952 194.461 230.952C194.854 230.952 195.137 231.077 195.31 231.325C195.483 231.573 195.578 231.939 195.596 232.424C195.878 231.939 196.168 231.573 196.466 231.325C196.763 231.077 197.16 230.952 197.656 230.952C198.152 230.952 198.634 231.077 199.102 231.325C199.569 231.573 199.803 231.902 199.803 232.312C199.803 232.6 199.704 232.838 199.504 233.026C199.305 233.214 199.09 233.307 198.859 233.307C198.773 233.307 198.564 233.254 198.232 233.147C197.9 233.04 197.607 232.987 197.353 232.987C197.007 232.987 196.724 233.078 196.505 233.26C196.285 233.441 196.115 233.711 195.994 234.069C195.873 234.427 195.789 234.853 195.743 235.346C195.697 235.84 195.673 236.441 195.673 237.151Z"/>
<path d="M211.499 239.229C210.928 239.673 210.375 240.007 209.841 240.229C209.308 240.451 208.709 240.562 208.045 240.562C207.439 240.562 206.907 240.442 206.448 240.203C205.989 239.963 205.635 239.639 205.387 239.229C205.139 238.819 205.015 238.375 205.015 237.896C205.015 237.249 205.22 236.698 205.63 236.242C206.039 235.786 206.602 235.48 207.318 235.324C207.468 235.29 207.84 235.212 208.435 235.091C209.029 234.97 209.538 234.858 209.963 234.757C210.387 234.656 210.847 234.534 211.343 234.389C211.315 233.766 211.189 233.309 210.967 233.017C210.745 232.726 210.284 232.58 209.586 232.58C208.986 232.58 208.534 232.664 208.231 232.831C207.928 232.999 207.668 233.25 207.452 233.584C207.236 233.919 207.083 234.14 206.993 234.247C206.904 234.353 206.712 234.407 206.417 234.407C206.152 234.407 205.922 234.322 205.729 234.151C205.536 233.981 205.439 233.763 205.439 233.498C205.439 233.082 205.586 232.678 205.881 232.286C206.175 231.893 206.634 231.57 207.257 231.316C207.88 231.062 208.657 230.935 209.586 230.935C210.625 230.935 211.442 231.058 212.036 231.303C212.631 231.548 213.05 231.937 213.296 232.468C213.541 232.999 213.664 233.703 213.664 234.58C213.664 235.134 213.662 235.604 213.659 235.991C213.656 236.378 213.652 236.808 213.646 237.281C213.646 237.725 213.72 238.189 213.867 238.671C214.014 239.153 214.088 239.463 214.088 239.601C214.088 239.844 213.974 240.064 213.746 240.264C213.518 240.463 213.26 240.562 212.971 240.562C212.729 240.562 212.489 240.448 212.253 240.22C212.016 239.992 211.765 239.662 211.499 239.229ZM211.343 235.809C210.997 235.936 210.494 236.07 209.833 236.212C209.172 236.353 208.714 236.457 208.461 236.524C208.207 236.59 207.964 236.72 207.733 236.913C207.502 237.106 207.387 237.376 207.387 237.723C207.387 238.08 207.523 238.385 207.794 238.636C208.065 238.887 208.42 239.013 208.859 239.013C209.326 239.013 209.758 238.91 210.153 238.705C210.548 238.5 210.838 238.236 211.023 237.913C211.237 237.555 211.343 236.967 211.343 236.147L211.343 235.809Z"/>
<path d="M218.209 232.26L218.209 232.545C218.624 231.997 219.079 231.595 219.572 231.338C220.066 231.081 220.633 230.952 221.274 230.952C221.897 230.952 222.454 231.088 222.944 231.359C223.435 231.631 223.802 232.014 224.044 232.511C224.2 232.799 224.301 233.111 224.347 233.446C224.393 233.781 224.416 234.208 224.416 234.727L224.416 239.125C224.416 239.598 224.308 239.956 224.092 240.199C223.875 240.441 223.594 240.562 223.248 240.562C222.895 240.562 222.61 240.438 222.39 240.19C222.171 239.942 222.061 239.587 222.061 239.125L222.061 235.186C222.061 234.407 221.953 233.811 221.737 233.398C221.52 232.986 221.089 232.779 220.442 232.779C220.021 232.779 219.637 232.905 219.291 233.156C218.945 233.407 218.691 233.752 218.529 234.19C218.414 234.542 218.356 235.2 218.356 236.164L218.356 239.125C218.356 239.604 218.245 239.963 218.023 240.203C217.801 240.442 217.513 240.562 217.161 240.562C216.821 240.562 216.541 240.438 216.322 240.19C216.102 239.942 215.993 239.587 215.993 239.125L215.993 232.294C215.993 231.844 216.091 231.508 216.287 231.286C216.483 231.064 216.752 230.952 217.092 230.952C217.3 230.952 217.487 231.002 217.655 231.1C217.822 231.198 217.956 231.345 218.057 231.541C218.158 231.737 218.209 231.977 218.209 232.26Z"/>
<path d="M233.247 239.212L233.247 238.978C232.929 239.342 232.616 239.637 232.308 239.865C231.999 240.093 231.664 240.266 231.303 240.385C230.943 240.503 230.549 240.562 230.122 240.562C229.556 240.562 229.032 240.442 228.55 240.203C228.068 239.963 227.651 239.621 227.299 239.177C226.947 238.733 226.68 238.21 226.498 237.61C226.317 237.01 226.226 236.36 226.226 235.662C226.226 234.185 226.586 233.033 227.308 232.208C228.029 231.382 228.979 230.97 230.156 230.97C230.837 230.97 231.411 231.087 231.879 231.32C232.347 231.554 232.802 231.913 233.247 232.398L233.247 228.909C233.247 228.424 233.344 228.058 233.537 227.81C233.73 227.562 234.006 227.438 234.364 227.438C234.722 227.438 234.997 227.552 235.19 227.779C235.384 228.007 235.481 228.344 235.481 228.788L235.481 239.212C235.481 239.662 235.377 240 235.169 240.225C234.961 240.45 234.693 240.562 234.364 240.562C234.04 240.562 233.774 240.445 233.563 240.212C233.352 239.978 233.247 239.645 233.247 239.212ZM228.598 235.74C228.598 236.381 228.697 236.926 228.897 237.376C229.096 237.826 229.368 238.166 229.715 238.394C230.061 238.622 230.439 238.736 230.849 238.736C231.264 238.736 231.644 238.627 231.987 238.411C232.331 238.194 232.605 237.863 232.81 237.415C233.015 236.968 233.117 236.41 233.117 235.74C233.117 235.111 233.015 234.57 232.81 234.117C232.605 233.664 232.328 233.317 231.979 233.078C231.629 232.838 231.247 232.719 230.831 232.719C230.399 232.719 230.012 232.841 229.671 233.087C229.331 233.332 229.067 233.684 228.879 234.143C228.692 234.602 228.598 235.134 228.598 235.74Z"/>
<path d="M242.554 238.995L242.554 228.996C242.554 228.476 242.672 228.087 242.909 227.827C243.145 227.567 243.451 227.438 243.826 227.438C244.213 227.438 244.526 227.566 244.766 227.823C245.005 228.08 245.125 228.471 245.125 228.996L245.125 238.995C245.125 239.52 245.005 239.913 244.766 240.173C244.526 240.432 244.213 240.562 243.826 240.562C243.457 240.562 243.152 240.431 242.913 240.168C242.673 239.906 242.554 239.515 242.554 238.995Z"/>
<path d="M255.696 235.931L255.696 239.073C255.696 239.57 255.583 239.942 255.358 240.19C255.133 240.438 254.836 240.562 254.466 240.562C254.109 240.562 253.818 240.438 253.596 240.19C253.374 239.942 253.263 239.57 253.263 239.073L253.263 235.307C253.263 234.713 253.243 234.251 253.202 233.922C253.162 233.593 253.052 233.323 252.873 233.113C252.694 232.902 252.412 232.797 252.025 232.797C251.252 232.797 250.742 233.062 250.497 233.593C250.252 234.124 250.129 234.886 250.129 235.879L250.129 239.073C250.129 239.564 250.018 239.935 249.796 240.186C249.573 240.437 249.281 240.562 248.917 240.562C248.559 240.562 248.266 240.437 248.038 240.186C247.81 239.935 247.696 239.564 247.696 239.073L247.696 232.312C247.696 231.867 247.799 231.53 248.004 231.299C248.208 231.068 248.478 230.952 248.813 230.952C249.136 230.952 249.406 231.061 249.622 231.277C249.839 231.494 249.947 231.792 249.947 232.173L249.947 232.398C250.357 231.908 250.796 231.547 251.263 231.316C251.731 231.085 252.25 230.97 252.821 230.97C253.416 230.97 253.927 231.088 254.354 231.325C254.781 231.561 255.133 231.919 255.41 232.398C255.808 231.913 256.235 231.554 256.691 231.32C257.147 231.087 257.652 230.97 258.206 230.97C258.853 230.97 259.41 231.097 259.877 231.351C260.345 231.605 260.694 231.968 260.925 232.442C261.127 232.869 261.228 233.541 261.228 234.459L261.228 239.073C261.228 239.57 261.115 239.942 260.89 240.19C260.665 240.438 260.368 240.562 259.998 240.562C259.641 240.562 259.348 240.437 259.12 240.186C258.892 239.935 258.778 239.564 258.778 239.073L258.778 235.099C258.778 234.591 258.756 234.185 258.713 233.879C258.67 233.573 258.553 233.316 258.362 233.108C258.172 232.9 257.883 232.797 257.496 232.797C257.185 232.797 256.889 232.889 256.609 233.074C256.329 233.258 256.111 233.506 255.955 233.818C255.782 234.216 255.696 234.92 255.696 235.931Z"/>
<path d="M265.704 232.277L265.704 232.563C266.148 232.014 266.61 231.612 267.089 231.355C267.568 231.098 268.111 230.97 268.717 230.97C269.444 230.97 270.113 231.157 270.725 231.533C271.337 231.908 271.82 232.456 272.175 233.177C272.53 233.899 272.708 234.753 272.708 235.74C272.708 236.467 272.605 237.135 272.4 237.744C272.195 238.353 271.914 238.864 271.556 239.277C271.198 239.689 270.776 240.007 270.288 240.229C269.8 240.451 269.276 240.562 268.717 240.562C268.041 240.562 267.474 240.427 267.015 240.155C266.557 239.884 266.119 239.486 265.704 238.961L265.704 242.51C265.704 243.549 265.326 244.069 264.57 244.069C264.125 244.069 263.831 243.934 263.687 243.666C263.542 243.398 263.47 243.007 263.47 242.493L263.47 232.294C263.47 231.844 263.568 231.508 263.764 231.286C263.961 231.064 264.229 230.952 264.57 230.952C264.904 230.952 265.177 231.066 265.388 231.294C265.598 231.522 265.704 231.85 265.704 232.277ZM270.335 235.714C270.335 235.091 270.24 234.555 270.05 234.108C269.859 233.661 269.595 233.317 269.258 233.078C268.92 232.838 268.546 232.719 268.136 232.719C267.484 232.719 266.935 232.975 266.487 233.489C266.04 234.003 265.816 234.759 265.816 235.757C265.816 236.698 266.039 237.43 266.483 237.952C266.927 238.474 267.479 238.736 268.136 238.736C268.529 238.736 268.893 238.622 269.227 238.394C269.562 238.166 269.83 237.824 270.032 237.368C270.234 236.912 270.335 236.36 270.335 235.714Z"/>
<path d="M276.95 237.151L276.95 239.125C276.95 239.604 276.837 239.963 276.612 240.203C276.387 240.442 276.101 240.562 275.755 240.562C275.415 240.562 275.135 240.441 274.915 240.199C274.696 239.956 274.586 239.598 274.586 239.125L274.586 232.545C274.586 231.483 274.97 230.952 275.738 230.952C276.13 230.952 276.413 231.077 276.586 231.325C276.759 231.573 276.855 231.939 276.872 232.424C277.155 231.939 277.445 231.573 277.742 231.325C278.039 231.077 278.436 230.952 278.932 230.952C279.429 230.952 279.911 231.077 280.378 231.325C280.846 231.573 281.079 231.902 281.079 232.312C281.079 232.6 280.98 232.838 280.781 233.026C280.582 233.214 280.367 233.307 280.136 233.307C280.049 233.307 279.84 233.254 279.508 233.147C279.176 233.04 278.883 232.987 278.629 232.987C278.283 232.987 278 233.078 277.781 233.26C277.562 233.441 277.391 233.711 277.27 234.069C277.149 234.427 277.065 234.853 277.019 235.346C276.973 235.84 276.95 236.441 276.95 237.151Z"/>
<path d="M290.542 235.757C290.542 236.462 290.432 237.111 290.213 237.705C289.994 238.3 289.676 238.811 289.261 239.238C288.845 239.665 288.349 239.992 287.772 240.22C287.194 240.448 286.545 240.562 285.824 240.562C285.108 240.562 284.464 240.447 283.893 240.216C283.322 239.985 282.827 239.655 282.408 239.225C281.99 238.795 281.672 238.287 281.456 237.701C281.24 237.115 281.131 236.467 281.131 235.757C281.131 235.042 281.241 234.387 281.46 233.792C281.68 233.198 281.994 232.69 282.404 232.268C282.814 231.847 283.31 231.522 283.893 231.294C284.476 231.066 285.12 230.952 285.824 230.952C286.539 230.952 287.189 231.068 287.772 231.299C288.355 231.53 288.854 231.859 289.269 232.286C289.685 232.713 290.001 233.221 290.217 233.809C290.434 234.398 290.542 235.047 290.542 235.757ZM288.17 235.757C288.17 234.793 287.958 234.043 287.534 233.506C287.109 232.97 286.539 232.701 285.824 232.701C285.362 232.701 284.955 232.821 284.603 233.061C284.251 233.3 283.98 233.654 283.789 234.121C283.599 234.589 283.504 235.134 283.504 235.757C283.504 236.375 283.597 236.915 283.785 237.376C283.972 237.838 284.241 238.192 284.59 238.437C284.939 238.682 285.35 238.805 285.824 238.805C286.539 238.805 287.109 238.535 287.534 237.995C287.958 237.456 288.17 236.71 288.17 235.757Z"/>
<path d="M293.841 232.424L295.754 237.792L297.814 232.19C297.976 231.74 298.135 231.421 298.29 231.234C298.446 231.046 298.683 230.952 299 230.952C299.301 230.952 299.556 231.053 299.767 231.255C299.977 231.457 300.083 231.691 300.083 231.957C300.083 232.061 300.064 232.182 300.026 232.32C299.989 232.459 299.945 232.589 299.896 232.71C299.847 232.831 299.791 232.97 299.728 233.125L297.459 238.753C297.396 238.914 297.314 239.119 297.213 239.368C297.112 239.616 296.999 239.828 296.875 240.004C296.751 240.18 296.598 240.317 296.416 240.415C296.234 240.513 296.014 240.562 295.754 240.562C295.419 240.562 295.152 240.486 294.953 240.333C294.754 240.18 294.607 240.013 294.511 239.831C294.416 239.649 294.256 239.29 294.031 238.753L291.78 233.186C291.728 233.048 291.675 232.909 291.62 232.771C291.565 232.632 291.519 232.491 291.481 232.346C291.444 232.202 291.425 232.078 291.425 231.974C291.425 231.812 291.474 231.652 291.572 231.494C291.67 231.335 291.806 231.205 291.979 231.104C292.152 231.003 292.34 230.952 292.542 230.952C292.934 230.952 293.204 231.065 293.351 231.29C293.499 231.515 293.662 231.893 293.841 232.424Z"/>
<path d="M308.143 236.337L303.52 236.337C303.525 236.874 303.634 237.347 303.844 237.757C304.055 238.167 304.335 238.476 304.684 238.684C305.033 238.891 305.418 238.995 305.84 238.995C306.123 238.995 306.381 238.962 306.615 238.896C306.848 238.829 307.075 238.725 307.294 238.584C307.514 238.443 307.716 238.291 307.9 238.13C308.085 237.968 308.324 237.749 308.619 237.472C308.74 237.368 308.913 237.316 309.138 237.316C309.381 237.316 309.577 237.382 309.727 237.515C309.877 237.648 309.952 237.835 309.952 238.078C309.952 238.291 309.868 238.541 309.701 238.826C309.534 239.112 309.281 239.386 308.943 239.649C308.606 239.912 308.182 240.129 307.671 240.303C307.16 240.476 306.573 240.562 305.909 240.562C304.391 240.562 303.211 240.129 302.368 239.264C301.525 238.398 301.104 237.223 301.104 235.74C301.104 235.042 301.208 234.394 301.416 233.796C301.624 233.199 301.927 232.687 302.325 232.26C302.723 231.833 303.214 231.505 303.797 231.277C304.38 231.049 305.026 230.935 305.736 230.935C306.659 230.935 307.452 231.13 308.112 231.52C308.773 231.909 309.268 232.413 309.597 233.03C309.926 233.648 310.091 234.277 310.091 234.918C310.091 235.512 309.92 235.897 309.58 236.073C309.239 236.249 308.76 236.337 308.143 236.337ZM303.52 234.996L307.805 234.996C307.747 234.187 307.529 233.583 307.151 233.182C306.773 232.781 306.276 232.58 305.658 232.58C305.069 232.58 304.586 232.784 304.208 233.19C303.83 233.597 303.6 234.199 303.52 234.996Z"/>
<path d="M319.943 235.931L319.943 239.073C319.943 239.57 319.83 239.942 319.605 240.19C319.38 240.438 319.083 240.562 318.713 240.562C318.356 240.562 318.066 240.438 317.843 240.19C317.621 239.942 317.51 239.57 317.51 239.073L317.51 235.307C317.51 234.713 317.49 234.251 317.449 233.922C317.409 233.593 317.299 233.323 317.12 233.113C316.942 232.902 316.659 232.797 316.272 232.797C315.499 232.797 314.989 233.062 314.744 233.593C314.499 234.124 314.376 234.886 314.376 235.879L314.376 239.073C314.376 239.564 314.265 239.935 314.043 240.186C313.821 240.437 313.528 240.562 313.164 240.562C312.806 240.562 312.513 240.437 312.285 240.186C312.057 239.935 311.943 239.564 311.943 239.073L311.943 232.312C311.943 231.867 312.046 231.53 312.251 231.299C312.456 231.068 312.725 230.952 313.06 230.952C313.383 230.952 313.653 231.061 313.87 231.277C314.086 231.494 314.194 231.792 314.194 232.173L314.194 232.398C314.604 231.908 315.043 231.547 315.51 231.316C315.978 231.085 316.497 230.97 317.069 230.97C317.663 230.97 318.174 231.088 318.601 231.325C319.028 231.561 319.38 231.919 319.657 232.398C320.055 231.913 320.482 231.554 320.938 231.32C321.394 231.087 321.899 230.97 322.453 230.97C323.1 230.97 323.657 231.097 324.124 231.351C324.592 231.605 324.941 231.968 325.172 232.442C325.374 232.869 325.475 233.541 325.475 234.459L325.475 239.073C325.475 239.57 325.362 239.942 325.137 240.19C324.912 240.438 324.615 240.562 324.246 240.562C323.888 240.562 323.595 240.437 323.367 240.186C323.139 239.935 323.025 239.564 323.025 239.073L323.025 235.099C323.025 234.591 323.003 234.185 322.96 233.879C322.917 233.573 322.8 233.316 322.609 233.108C322.419 232.9 322.13 232.797 321.744 232.797C321.432 232.797 321.136 232.889 320.856 233.074C320.576 233.258 320.358 233.506 320.203 233.818C320.029 234.216 319.943 234.92 319.943 235.931Z"/>
<path d="M334.366 236.337L329.743 236.337C329.749 236.874 329.857 237.347 330.068 237.757C330.278 238.167 330.558 238.476 330.908 238.684C331.257 238.891 331.642 238.995 332.063 238.995C332.346 238.995 332.604 238.962 332.838 238.896C333.072 238.829 333.298 238.725 333.518 238.584C333.737 238.443 333.939 238.291 334.124 238.13C334.308 237.968 334.548 237.749 334.842 237.472C334.964 237.368 335.137 237.316 335.362 237.316C335.604 237.316 335.8 237.382 335.95 237.515C336.101 237.648 336.176 237.835 336.176 238.078C336.176 238.291 336.092 238.541 335.925 238.826C335.757 239.112 335.505 239.386 335.167 239.649C334.829 239.912 334.405 240.129 333.894 240.303C333.384 240.476 332.796 240.562 332.133 240.562C330.615 240.562 329.434 240.129 328.592 239.264C327.749 238.398 327.328 237.223 327.328 235.74C327.328 235.042 327.432 234.394 327.639 233.796C327.847 233.199 328.15 232.687 328.548 232.26C328.947 231.833 329.437 231.505 330.02 231.277C330.603 231.049 331.249 230.935 331.959 230.935C332.883 230.935 333.675 231.13 334.336 231.52C334.997 231.909 335.492 232.413 335.821 233.03C336.15 233.648 336.314 234.277 336.314 234.918C336.314 235.512 336.144 235.897 335.803 236.073C335.463 236.249 334.984 236.337 334.366 236.337ZM329.743 234.996L334.029 234.996C333.971 234.187 333.753 233.583 333.375 233.182C332.997 232.781 332.499 232.58 331.881 232.58C331.293 232.58 330.809 232.784 330.431 233.19C330.053 233.597 329.824 234.199 329.743 234.996Z"/>
<path d="M340.452 232.26L340.452 232.545C340.868 231.997 341.322 231.595 341.816 231.338C342.309 231.081 342.876 230.952 343.517 230.952C344.14 230.952 344.697 231.088 345.188 231.359C345.679 231.631 346.045 232.014 346.288 232.511C346.443 232.799 346.544 233.111 346.591 233.446C346.637 233.781 346.66 234.208 346.66 234.727L346.66 239.125C346.66 239.598 346.552 239.956 346.335 240.199C346.119 240.441 345.837 240.562 345.491 240.562C345.139 240.562 344.853 240.438 344.634 240.19C344.415 239.942 344.305 239.587 344.305 239.125L344.305 235.186C344.305 234.407 344.197 233.811 343.98 233.398C343.764 232.986 343.332 232.779 342.686 232.779C342.265 232.779 341.881 232.905 341.535 233.156C341.188 233.407 340.934 233.752 340.773 234.19C340.657 234.542 340.6 235.2 340.6 236.164L340.6 239.125C340.6 239.604 340.488 239.963 340.266 240.203C340.044 240.442 339.757 240.562 339.405 240.562C339.064 240.562 338.784 240.438 338.565 240.19C338.346 239.942 338.236 239.587 338.236 239.125L338.236 232.294C338.236 231.844 338.334 231.508 338.53 231.286C338.727 231.064 338.995 230.952 339.336 230.952C339.543 230.952 339.731 231.002 339.898 231.1C340.066 231.198 340.2 231.345 340.301 231.541C340.402 231.737 340.452 231.977 340.452 232.26Z"/>
<path d="M349.144 231.16L349.404 231.16L349.404 229.74C349.404 229.359 349.414 229.061 349.434 228.844C349.455 228.628 349.511 228.442 349.603 228.286C349.696 228.124 349.828 227.993 350.002 227.892C350.175 227.791 350.368 227.741 350.582 227.741C350.882 227.741 351.153 227.853 351.395 228.078C351.557 228.228 351.659 228.411 351.703 228.628C351.746 228.844 351.768 229.152 351.768 229.55L351.768 231.16L352.633 231.16C352.968 231.16 353.224 231.24 353.4 231.398C353.576 231.557 353.664 231.76 353.664 232.009C353.664 232.326 353.538 232.548 353.287 232.675C353.036 232.802 352.677 232.866 352.209 232.866L351.768 232.866L351.768 237.212C351.768 237.581 351.781 237.865 351.807 238.065C351.833 238.264 351.902 238.425 352.014 238.549C352.127 238.673 352.31 238.736 352.564 238.736C352.703 238.736 352.89 238.711 353.127 238.662C353.364 238.613 353.548 238.588 353.681 238.588C353.871 238.588 354.043 238.665 354.196 238.818C354.349 238.971 354.426 239.16 354.426 239.385C354.426 239.766 354.218 240.057 353.802 240.259C353.387 240.461 352.789 240.562 352.01 240.562C351.271 240.562 350.711 240.438 350.331 240.19C349.95 239.942 349.7 239.598 349.582 239.16C349.463 238.721 349.404 238.135 349.404 237.402L349.404 232.866L349.093 232.866C348.752 232.866 348.492 232.785 348.313 232.623C348.134 232.462 348.045 232.257 348.045 232.009C348.045 231.76 348.139 231.557 348.326 231.398C348.514 231.24 348.787 231.16 349.144 231.16Z"/>
</g>
<g fill="#737a76" opacity="1" stroke="none">
<path d="M109.489 259.35L109.489 261.781C109.489 262.105 109.458 262.363 109.394 262.556C109.331 262.749 109.214 262.924 109.044 263.08C108.873 263.235 108.656 263.385 108.39 263.53C107.623 263.945 106.884 264.248 106.175 264.438C105.465 264.629 104.692 264.724 103.855 264.724C102.88 264.724 101.992 264.574 101.19 264.274C100.388 263.974 99.7041 263.538 99.1387 262.967C98.5733 262.396 98.1391 261.704 97.8362 260.89C97.5333 260.076 97.3818 259.168 97.3818 258.164C97.3818 257.177 97.529 256.274 97.8232 255.455C98.1175 254.636 98.5502 253.941 99.1214 253.369C99.6926 252.798 100.388 252.361 101.207 252.058C102.026 251.755 102.955 251.604 103.994 251.604C104.848 251.604 105.604 251.718 106.261 251.946C106.919 252.174 107.453 252.461 107.862 252.807C108.272 253.153 108.581 253.519 108.788 253.906C108.996 254.292 109.1 254.636 109.1 254.936C109.1 255.259 108.98 255.534 108.741 255.762C108.501 255.99 108.214 256.104 107.88 256.104C107.695 256.104 107.518 256.061 107.347 255.974C107.177 255.888 107.034 255.767 106.919 255.611C106.602 255.115 106.333 254.74 106.114 254.486C105.895 254.232 105.599 254.018 105.227 253.845C104.855 253.672 104.38 253.586 103.803 253.586C103.209 253.586 102.678 253.688 102.211 253.893C101.744 254.098 101.344 254.395 101.012 254.784C100.681 255.174 100.427 255.651 100.251 256.217C100.075 256.782 99.9868 257.408 99.9868 258.095C99.9868 259.583 100.329 260.728 101.012 261.53C101.696 262.332 102.649 262.733 103.873 262.733C104.467 262.733 105.025 262.655 105.547 262.5C106.069 262.344 106.599 262.122 107.135 261.833L107.135 259.774L105.145 259.774C104.666 259.774 104.304 259.701 104.059 259.557C103.814 259.413 103.691 259.168 103.691 258.822C103.691 258.539 103.793 258.305 103.998 258.121C104.203 257.936 104.481 257.844 104.833 257.844L107.75 257.844C108.108 257.844 108.41 257.875 108.659 257.939C108.907 258.002 109.107 258.144 109.26 258.363C109.413 258.582 109.489 258.911 109.489 259.35Z"/>
<path d="M118.369 260.501L113.747 260.501C113.753 261.037 113.861 261.51 114.072 261.92C114.282 262.33 114.562 262.638 114.911 262.846C115.26 263.054 115.646 263.157 116.067 263.157C116.349 263.157 116.608 263.124 116.841 263.058C117.075 262.992 117.301 262.888 117.521 262.746C117.74 262.605 117.942 262.454 118.126 262.292C118.311 262.13 118.551 261.911 118.845 261.634C118.966 261.53 119.139 261.479 119.364 261.479C119.606 261.479 119.803 261.545 119.953 261.678C120.103 261.81 120.178 261.998 120.178 262.24C120.178 262.454 120.094 262.703 119.927 262.989C119.759 263.274 119.507 263.548 119.169 263.811C118.832 264.073 118.408 264.291 117.897 264.464C117.386 264.637 116.799 264.724 116.136 264.724C114.619 264.724 113.439 264.291 112.596 263.426C111.754 262.56 111.333 261.386 111.333 259.903C111.333 259.205 111.437 258.558 111.644 257.96C111.852 257.363 112.155 256.851 112.553 256.424C112.951 255.997 113.442 255.67 114.024 255.442C114.607 255.214 115.253 255.1 115.963 255.1C116.886 255.1 117.678 255.295 118.338 255.684C118.999 256.074 119.494 256.577 119.823 257.195C120.152 257.812 120.316 258.441 120.316 259.081C120.316 259.676 120.146 260.061 119.805 260.237C119.465 260.413 118.986 260.501 118.369 260.501ZM113.747 259.159L118.031 259.159C117.974 258.351 117.756 257.747 117.378 257.346C117 256.945 116.502 256.745 115.885 256.745C115.296 256.745 114.813 256.948 114.435 257.355C114.057 257.761 113.828 258.363 113.747 259.159Z"/>
<path d="M124.453 256.424L124.453 256.71C124.868 256.162 125.323 255.759 125.816 255.503C126.309 255.246 126.876 255.118 127.516 255.118C128.14 255.118 128.696 255.253 129.187 255.524C129.677 255.795 130.044 256.179 130.286 256.675C130.442 256.964 130.543 257.275 130.589 257.61C130.635 257.945 130.658 258.372 130.658 258.891L130.658 263.287C130.658 263.76 130.55 264.118 130.333 264.36C130.117 264.603 129.836 264.724 129.49 264.724C129.138 264.724 128.852 264.6 128.633 264.352C128.414 264.104 128.304 263.749 128.304 263.287L128.304 259.35C128.304 258.571 128.196 257.975 127.979 257.562C127.763 257.15 127.332 256.944 126.686 256.944C126.264 256.944 125.881 257.069 125.535 257.32C125.188 257.571 124.935 257.916 124.773 258.354C124.658 258.706 124.6 259.364 124.6 260.327L124.6 263.287C124.6 263.766 124.489 264.125 124.267 264.365C124.045 264.604 123.758 264.724 123.406 264.724C123.065 264.724 122.785 264.6 122.566 264.352C122.347 264.104 122.237 263.749 122.237 263.287L122.237 256.459C122.237 256.009 122.335 255.673 122.532 255.451C122.728 255.229 122.996 255.118 123.336 255.118C123.544 255.118 123.732 255.167 123.899 255.265C124.066 255.363 124.2 255.51 124.301 255.706C124.402 255.902 124.453 256.142 124.453 256.424Z"/>
<path d="M139.607 260.501L134.985 260.501C134.991 261.037 135.099 261.51 135.31 261.92C135.52 262.33 135.8 262.638 136.149 262.846C136.498 263.054 136.883 263.157 137.305 263.157C137.587 263.157 137.845 263.124 138.079 263.058C138.313 262.992 138.539 262.888 138.759 262.746C138.978 262.605 139.18 262.454 139.364 262.292C139.549 262.13 139.788 261.911 140.083 261.634C140.204 261.53 140.377 261.479 140.602 261.479C140.844 261.479 141.04 261.545 141.19 261.678C141.34 261.81 141.415 261.998 141.415 262.24C141.415 262.454 141.332 262.703 141.164 262.989C140.997 263.274 140.745 263.548 140.407 263.811C140.07 264.073 139.646 264.291 139.135 264.464C138.624 264.637 138.037 264.724 137.374 264.724C135.856 264.724 134.677 264.291 133.834 263.426C132.992 262.56 132.571 261.386 132.571 259.903C132.571 259.205 132.674 258.558 132.882 257.96C133.09 257.363 133.393 256.851 133.791 256.424C134.189 255.997 134.679 255.67 135.262 255.442C135.845 255.214 136.491 255.1 137.201 255.1C138.124 255.1 138.916 255.295 139.576 255.684C140.237 256.074 140.732 256.577 141.061 257.195C141.389 257.812 141.554 258.441 141.554 259.081C141.554 259.676 141.384 260.061 141.043 260.237C140.703 260.413 140.224 260.501 139.607 260.501ZM134.985 259.159L139.269 259.159C139.211 258.351 138.994 257.747 138.616 257.346C138.238 256.945 137.74 256.745 137.123 256.745C136.534 256.745 136.051 256.948 135.673 257.355C135.295 257.761 135.066 258.363 134.985 259.159Z"/>
<path d="M145.89 261.314L145.89 263.287C145.89 263.766 145.777 264.125 145.552 264.365C145.327 264.604 145.042 264.724 144.695 264.724C144.355 264.724 144.075 264.603 143.856 264.36C143.637 264.118 143.527 263.76 143.527 263.287L143.527 256.71C143.527 255.648 143.911 255.118 144.678 255.118C145.07 255.118 145.353 255.242 145.526 255.49C145.699 255.738 145.795 256.104 145.812 256.589C146.095 256.104 146.384 255.738 146.682 255.49C146.979 255.242 147.375 255.118 147.872 255.118C148.368 255.118 148.85 255.242 149.317 255.49C149.784 255.738 150.018 256.067 150.018 256.476C150.018 256.765 149.918 257.003 149.719 257.19C149.52 257.378 149.305 257.472 149.075 257.472C148.988 257.472 148.779 257.418 148.447 257.311C148.115 257.205 147.823 257.151 147.569 257.151C147.223 257.151 146.94 257.242 146.721 257.424C146.501 257.606 146.331 257.875 146.21 258.233C146.089 258.591 146.005 259.016 145.959 259.51C145.913 260.003 145.89 260.604 145.89 261.314Z"/>
<path d="M156.838 263.391C156.266 263.835 155.714 264.169 155.18 264.391C154.647 264.613 154.048 264.724 153.384 264.724C152.779 264.724 152.246 264.604 151.788 264.365C151.329 264.125 150.976 263.801 150.728 263.391C150.479 262.981 150.355 262.537 150.355 262.058C150.355 261.412 150.56 260.861 150.97 260.405C151.38 259.95 151.942 259.644 152.657 259.488C152.807 259.453 153.18 259.375 153.774 259.254C154.368 259.133 154.877 259.022 155.301 258.921C155.725 258.82 156.186 258.698 156.682 258.553C156.653 257.93 156.527 257.473 156.305 257.182C156.083 256.89 155.623 256.745 154.925 256.745C154.325 256.745 153.873 256.828 153.571 256.996C153.268 257.163 153.008 257.414 152.792 257.748C152.575 258.083 152.422 258.304 152.333 258.411C152.244 258.517 152.052 258.571 151.757 258.571C151.492 258.571 151.263 258.486 151.069 258.315C150.876 258.145 150.779 257.927 150.779 257.662C150.779 257.246 150.927 256.843 151.221 256.45C151.515 256.058 151.974 255.735 152.597 255.481C153.22 255.227 153.996 255.1 154.925 255.1C155.963 255.1 156.78 255.223 157.374 255.468C157.968 255.713 158.388 256.101 158.633 256.632C158.879 257.163 159.001 257.867 159.001 258.744C159.001 259.298 159 259.768 158.997 260.154C158.994 260.541 158.99 260.971 158.984 261.444C158.984 261.888 159.057 262.351 159.205 262.833C159.352 263.315 159.425 263.625 159.425 263.763C159.425 264.006 159.311 264.226 159.083 264.425C158.855 264.624 158.597 264.724 158.309 264.724C158.066 264.724 157.827 264.61 157.59 264.382C157.354 264.154 157.103 263.824 156.838 263.391ZM156.682 259.973C156.336 260.1 155.832 260.234 155.172 260.375C154.511 260.516 154.054 260.62 153.8 260.687C153.546 260.753 153.304 260.883 153.073 261.076C152.842 261.269 152.727 261.539 152.727 261.885C152.727 262.243 152.862 262.547 153.133 262.798C153.405 263.049 153.759 263.175 154.198 263.175C154.665 263.175 155.097 263.072 155.492 262.868C155.887 262.663 156.177 262.399 156.362 262.076C156.575 261.718 156.682 261.129 156.682 260.31L156.682 259.973Z"/>
<path d="M161.398 263.287L161.398 253.04C161.398 252.567 161.504 252.21 161.714 251.967C161.925 251.725 162.209 251.604 162.567 251.604C162.924 251.604 163.213 251.724 163.432 251.963C163.651 252.202 163.761 252.562 163.761 253.04L163.761 263.287C163.761 263.766 163.65 264.125 163.428 264.365C163.206 264.604 162.919 264.724 162.567 264.724C162.221 264.724 161.939 264.6 161.723 264.352C161.507 264.104 161.398 263.749 161.398 263.287Z"/>
<path d="M173.385 253.162L173.385 256.796L178.932 256.796L178.932 253.162C178.932 252.642 179.049 252.253 179.283 251.993C179.516 251.734 179.824 251.604 180.204 251.604C180.591 251.604 180.904 251.732 181.143 251.989C181.383 252.246 181.503 252.637 181.503 253.162L181.503 263.157C181.503 263.682 181.381 264.075 181.139 264.334C180.897 264.594 180.585 264.724 180.204 264.724C179.818 264.724 179.509 264.593 179.278 264.33C179.048 264.068 178.932 263.677 178.932 263.157L178.932 258.891L173.385 258.891L173.385 263.157C173.385 263.682 173.264 264.075 173.021 264.334C172.779 264.594 172.467 264.724 172.087 264.724C171.7 264.724 171.391 264.593 171.161 264.33C170.93 264.068 170.814 263.677 170.814 263.157L170.814 253.162C170.814 252.642 170.928 252.253 171.156 251.993C171.384 251.734 171.694 251.604 172.087 251.604C172.473 251.604 172.786 251.732 173.026 251.989C173.265 252.246 173.385 252.637 173.385 253.162Z"/>
<path d="M190.07 263.391C189.499 263.835 188.947 264.169 188.413 264.391C187.879 264.613 187.281 264.724 186.617 264.724C186.012 264.724 185.479 264.604 185.021 264.365C184.562 264.125 184.209 263.801 183.96 263.391C183.712 262.981 183.588 262.537 183.588 262.058C183.588 261.412 183.793 260.861 184.203 260.405C184.612 259.95 185.175 259.644 185.89 259.488C186.04 259.453 186.413 259.375 187.007 259.254C187.601 259.133 188.11 259.022 188.534 258.921C188.958 258.82 189.418 258.698 189.915 258.553C189.886 257.93 189.76 257.473 189.538 257.182C189.316 256.89 188.856 256.745 188.158 256.745C187.558 256.745 187.106 256.828 186.803 256.996C186.501 257.163 186.241 257.414 186.025 257.748C185.808 258.083 185.655 258.304 185.566 258.411C185.476 258.517 185.285 258.571 184.99 258.571C184.725 258.571 184.496 258.486 184.302 258.315C184.109 258.145 184.012 257.927 184.012 257.662C184.012 257.246 184.159 256.843 184.454 256.45C184.748 256.058 185.207 255.735 185.83 255.481C186.453 255.227 187.229 255.1 188.158 255.1C189.196 255.1 190.013 255.223 190.607 255.468C191.201 255.713 191.621 256.101 191.866 256.632C192.111 257.163 192.234 257.867 192.234 258.744C192.234 259.298 192.233 259.768 192.23 260.154C192.227 260.541 192.223 260.971 192.217 261.444C192.217 261.888 192.29 262.351 192.437 262.833C192.585 263.315 192.658 263.625 192.658 263.763C192.658 264.006 192.544 264.226 192.316 264.425C192.088 264.624 191.83 264.724 191.542 264.724C191.299 264.724 191.06 264.61 190.823 264.382C190.587 264.154 190.336 263.824 190.07 263.391ZM189.915 259.973C189.568 260.1 189.065 260.234 188.404 260.375C187.744 260.516 187.287 260.62 187.033 260.687C186.779 260.753 186.537 260.883 186.306 261.076C186.075 261.269 185.96 261.539 185.96 261.885C185.96 262.243 186.095 262.547 186.366 262.798C186.638 263.049 186.992 263.175 187.431 263.175C187.898 263.175 188.329 263.072 188.725 262.868C189.12 262.663 189.41 262.399 189.594 262.076C189.808 261.718 189.915 261.129 189.915 260.31L189.915 259.973Z"/>
<path d="M196.778 256.424L196.778 256.71C197.193 256.162 197.647 255.759 198.141 255.503C198.634 255.246 199.201 255.118 199.841 255.118C200.464 255.118 201.021 255.253 201.512 255.524C202.002 255.795 202.368 256.179 202.611 256.675C202.766 256.964 202.867 257.275 202.914 257.61C202.96 257.945 202.983 258.372 202.983 258.891L202.983 263.287C202.983 263.76 202.875 264.118 202.658 264.36C202.442 264.603 202.161 264.724 201.814 264.724C201.463 264.724 201.177 264.6 200.958 264.352C200.738 264.104 200.629 263.749 200.629 263.287L200.629 259.35C200.629 258.571 200.521 257.975 200.304 257.562C200.088 257.15 199.657 256.944 199.01 256.944C198.589 256.944 198.206 257.069 197.859 257.32C197.513 257.571 197.259 257.916 197.098 258.354C196.982 258.706 196.925 259.364 196.925 260.327L196.925 263.287C196.925 263.766 196.814 264.125 196.592 264.365C196.369 264.604 196.082 264.724 195.73 264.724C195.39 264.724 195.11 264.6 194.891 264.352C194.672 264.104 194.562 263.749 194.562 263.287L194.562 256.459C194.562 256.009 194.66 255.673 194.856 255.451C195.052 255.229 195.321 255.118 195.661 255.118C195.869 255.118 196.056 255.167 196.224 255.265C196.391 255.363 196.525 255.51 196.626 255.706C196.727 255.902 196.778 256.142 196.778 256.424Z"/>
<path d="M211.81 263.374L211.81 263.14C211.493 263.504 211.18 263.799 210.871 264.027C210.563 264.255 210.228 264.428 209.867 264.546C209.507 264.665 209.113 264.724 208.686 264.724C208.121 264.724 207.597 264.604 207.115 264.365C206.634 264.125 206.217 263.783 205.865 263.339C205.513 262.895 205.246 262.373 205.064 261.773C204.882 261.173 204.792 260.524 204.792 259.826C204.792 258.348 205.152 257.197 205.873 256.372C206.595 255.547 207.544 255.135 208.721 255.135C209.401 255.135 209.976 255.252 210.443 255.485C210.91 255.719 211.366 256.078 211.81 256.563L211.81 253.075C211.81 252.59 211.907 252.224 212.1 251.976C212.293 251.728 212.569 251.604 212.927 251.604C213.284 251.604 213.56 251.718 213.753 251.946C213.946 252.174 214.043 252.51 214.043 252.954L214.043 263.374C214.043 263.824 213.939 264.161 213.732 264.386C213.524 264.611 213.256 264.724 212.927 264.724C212.604 264.724 212.337 264.607 212.126 264.373C211.916 264.14 211.81 263.807 211.81 263.374ZM207.163 259.903C207.163 260.544 207.262 261.089 207.461 261.539C207.661 261.989 207.933 262.328 208.279 262.556C208.625 262.784 209.003 262.898 209.413 262.898C209.828 262.898 210.208 262.79 210.551 262.573C210.894 262.357 211.168 262.025 211.373 261.578C211.578 261.131 211.68 260.573 211.68 259.903C211.68 259.275 211.578 258.734 211.373 258.281C211.168 257.828 210.891 257.482 210.542 257.242C210.193 257.003 209.811 256.883 209.396 256.883C208.963 256.883 208.576 257.006 208.236 257.251C207.896 257.496 207.632 257.848 207.444 258.307C207.257 258.765 207.163 259.298 207.163 259.903Z"/>
<path d="M218.595 265.018L218.812 264.49L215.904 257.169C215.725 256.747 215.636 256.442 215.636 256.251C215.636 256.049 215.687 255.862 215.791 255.689C215.895 255.516 216.038 255.377 216.22 255.273C216.401 255.169 216.59 255.118 216.787 255.118C217.127 255.118 217.384 255.226 217.557 255.442C217.73 255.658 217.883 255.969 218.015 256.372L220.015 262.188L221.91 256.779C222.06 256.341 222.196 255.997 222.317 255.749C222.438 255.501 222.566 255.334 222.702 255.247C222.837 255.161 223.029 255.118 223.277 255.118C223.456 255.118 223.628 255.165 223.792 255.26C223.957 255.356 224.084 255.484 224.173 255.645C224.263 255.807 224.307 255.977 224.307 256.156C224.284 256.266 224.247 256.421 224.195 256.623C224.143 256.825 224.079 257.03 224.004 257.238L220.923 265.304C220.658 266.013 220.398 266.57 220.144 266.974C219.891 267.378 219.555 267.688 219.136 267.904C218.718 268.121 218.154 268.229 217.444 268.229C216.752 268.229 216.233 268.154 215.887 268.004C215.54 267.854 215.367 267.58 215.367 267.182C215.367 266.911 215.449 266.701 215.614 266.554C215.778 266.407 216.022 266.334 216.345 266.334C216.472 266.334 216.596 266.351 216.717 266.386C216.867 266.42 216.997 266.437 217.107 266.437C217.378 266.437 217.591 266.397 217.747 266.316C217.903 266.236 218.043 266.096 218.167 265.897C218.291 265.698 218.434 265.405 218.595 265.018Z"/>
<path d="M233.879 260.094L233.879 263.235C233.879 263.732 233.766 264.104 233.541 264.352C233.316 264.6 233.019 264.724 232.65 264.724C232.292 264.724 232.002 264.6 231.78 264.352C231.558 264.104 231.447 263.732 231.447 263.235L231.447 259.471C231.447 258.876 231.427 258.415 231.387 258.086C231.346 257.757 231.237 257.487 231.058 257.277C230.879 257.066 230.596 256.961 230.21 256.961C229.436 256.961 228.927 257.226 228.682 257.757C228.437 258.288 228.314 259.049 228.314 260.042L228.314 263.235C228.314 263.726 228.203 264.096 227.981 264.347C227.759 264.598 227.466 264.724 227.103 264.724C226.745 264.724 226.452 264.598 226.224 264.347C225.996 264.096 225.882 263.726 225.882 263.235L225.882 256.476C225.882 256.032 225.985 255.694 226.19 255.464C226.394 255.233 226.664 255.118 226.999 255.118C227.322 255.118 227.592 255.226 227.808 255.442C228.024 255.658 228.132 255.957 228.132 256.338L228.132 256.563C228.542 256.072 228.981 255.712 229.448 255.481C229.915 255.25 230.435 255.135 231.006 255.135C231.6 255.135 232.111 255.253 232.538 255.49C232.965 255.726 233.316 256.084 233.593 256.563C233.992 256.078 234.418 255.719 234.874 255.485C235.33 255.252 235.835 255.135 236.389 255.135C237.035 255.135 237.592 255.262 238.059 255.516C238.526 255.769 238.875 256.133 239.106 256.606C239.308 257.033 239.409 257.705 239.409 258.623L239.409 263.235C239.409 263.732 239.297 264.104 239.072 264.352C238.847 264.6 238.549 264.724 238.18 264.724C237.823 264.724 237.53 264.598 237.302 264.347C237.074 264.096 236.96 263.726 236.96 263.235L236.96 259.263C236.96 258.755 236.938 258.348 236.895 258.043C236.852 257.737 236.735 257.48 236.545 257.272C236.354 257.065 236.066 256.961 235.679 256.961C235.368 256.961 235.072 257.053 234.792 257.238C234.512 257.422 234.294 257.671 234.139 257.982C233.966 258.38 233.879 259.084 233.879 260.094Z"/>
<path d="M247.674 263.391C247.103 263.835 246.55 264.169 246.017 264.391C245.483 264.613 244.885 264.724 244.221 264.724C243.615 264.724 243.083 264.604 242.624 264.365C242.166 264.125 241.812 263.801 241.564 263.391C241.316 262.981 241.192 262.537 241.192 262.058C241.192 261.412 241.397 260.861 241.806 260.405C242.216 259.95 242.779 259.644 243.494 259.488C243.644 259.453 244.016 259.375 244.61 259.254C245.205 259.133 245.714 259.022 246.138 258.921C246.562 258.82 247.022 258.698 247.518 258.553C247.489 257.93 247.364 257.473 247.142 257.182C246.92 256.89 246.46 256.745 245.761 256.745C245.161 256.745 244.71 256.828 244.407 256.996C244.104 257.163 243.845 257.414 243.628 257.748C243.412 258.083 243.259 258.304 243.17 258.411C243.08 258.517 242.888 258.571 242.594 258.571C242.329 258.571 242.099 258.486 241.906 258.315C241.713 258.145 241.616 257.927 241.616 257.662C241.616 257.246 241.763 256.843 242.057 256.45C242.352 256.058 242.81 255.735 243.433 255.481C244.057 255.227 244.833 255.1 245.761 255.1C246.8 255.1 247.616 255.223 248.211 255.468C248.805 255.713 249.225 256.101 249.47 256.632C249.715 257.163 249.838 257.867 249.838 258.744C249.838 259.298 249.836 259.768 249.833 260.154C249.831 260.541 249.826 260.971 249.82 261.444C249.82 261.888 249.894 262.351 250.041 262.833C250.188 263.315 250.262 263.625 250.262 263.763C250.262 264.006 250.148 264.226 249.92 264.425C249.692 264.624 249.434 264.724 249.145 264.724C248.903 264.724 248.664 264.61 248.427 264.382C248.19 264.154 247.94 263.824 247.674 263.391ZM247.518 259.973C247.172 260.1 246.669 260.234 246.008 260.375C245.348 260.516 244.89 260.62 244.636 260.687C244.383 260.753 244.14 260.883 243.909 261.076C243.679 261.269 243.563 261.539 243.563 261.885C243.563 262.243 243.699 262.547 243.97 262.798C244.241 263.049 244.596 263.175 245.035 263.175C245.502 263.175 245.933 263.072 246.328 262.868C246.724 262.663 247.013 262.399 247.198 262.076C247.412 261.718 247.518 261.129 247.518 260.31L247.518 259.973Z"/>
<path d="M254.381 256.424L254.381 256.71C254.797 256.162 255.251 255.759 255.744 255.503C256.238 255.246 256.805 255.118 257.445 255.118C258.068 255.118 258.625 255.253 259.115 255.524C259.606 255.795 259.972 256.179 260.214 256.675C260.37 256.964 260.471 257.275 260.517 257.61C260.563 257.945 260.586 258.372 260.586 258.891L260.586 263.287C260.586 263.76 260.478 264.118 260.262 264.36C260.046 264.603 259.764 264.724 259.418 264.724C259.066 264.724 258.781 264.6 258.561 264.352C258.342 264.104 258.232 263.749 258.232 263.287L258.232 259.35C258.232 258.571 258.124 257.975 257.908 257.562C257.692 257.15 257.26 256.944 256.614 256.944C256.193 256.944 255.809 257.069 255.463 257.32C255.117 257.571 254.863 257.916 254.701 258.354C254.586 258.706 254.528 259.364 254.528 260.327L254.528 263.287C254.528 263.766 254.417 264.125 254.195 264.365C253.973 264.604 253.686 264.724 253.334 264.724C252.994 264.724 252.714 264.6 252.495 264.352C252.275 264.104 252.166 263.749 252.166 263.287L252.166 256.459C252.166 256.009 252.264 255.673 252.46 255.451C252.656 255.229 252.924 255.118 253.265 255.118C253.473 255.118 253.66 255.167 253.827 255.265C253.995 255.363 254.129 255.51 254.23 255.706C254.331 255.902 254.381 256.142 254.381 256.424Z"/>
<path d="M277.177 260.7C277.177 261.467 276.979 262.156 276.584 262.768C276.189 263.38 275.611 263.858 274.849 264.205C274.087 264.551 273.184 264.724 272.14 264.724C270.888 264.724 269.855 264.487 269.042 264.014C268.465 263.674 267.996 263.219 267.635 262.651C267.275 262.083 267.095 261.53 267.095 260.994C267.095 260.682 267.203 260.415 267.419 260.193C267.635 259.971 267.911 259.86 268.246 259.86C268.517 259.86 268.746 259.947 268.934 260.12C269.121 260.293 269.281 260.55 269.414 260.89C269.576 261.294 269.75 261.631 269.938 261.903C270.125 262.174 270.389 262.397 270.729 262.573C271.07 262.749 271.517 262.837 272.071 262.837C272.832 262.837 273.451 262.66 273.927 262.305C274.403 261.95 274.641 261.507 274.641 260.977C274.641 260.555 274.513 260.214 274.256 259.951C273.999 259.688 273.668 259.488 273.261 259.35C272.854 259.211 272.31 259.064 271.629 258.908C270.718 258.695 269.955 258.445 269.34 258.16C268.726 257.874 268.238 257.484 267.878 256.991C267.517 256.498 267.337 255.885 267.337 255.152C267.337 254.454 267.527 253.834 267.908 253.291C268.289 252.749 268.84 252.332 269.561 252.041C270.282 251.75 271.13 251.604 272.105 251.604C272.884 251.604 273.558 251.7 274.126 251.894C274.695 252.087 275.166 252.344 275.541 252.664C275.916 252.984 276.19 253.32 276.363 253.672C276.537 254.024 276.623 254.367 276.623 254.702C276.623 255.008 276.515 255.283 276.299 255.529C276.082 255.774 275.812 255.896 275.489 255.896C275.195 255.896 274.972 255.823 274.819 255.676C274.666 255.529 274.5 255.288 274.321 254.953C274.09 254.474 273.813 254.101 273.49 253.832C273.167 253.564 272.648 253.43 271.932 253.43C271.269 253.43 270.734 253.576 270.327 253.867C269.92 254.158 269.717 254.509 269.717 254.918C269.717 255.172 269.786 255.392 269.925 255.576C270.063 255.761 270.253 255.919 270.496 256.052C270.738 256.185 270.983 256.289 271.231 256.364C271.479 256.439 271.889 256.548 272.46 256.693C273.176 256.86 273.823 257.045 274.403 257.246C274.983 257.448 275.476 257.694 275.883 257.982C276.29 258.271 276.607 258.636 276.835 259.077C277.063 259.518 277.177 260.059 277.177 260.7Z"/>
<path d="M285.788 260.501L281.167 260.501C281.172 261.037 281.281 261.51 281.491 261.92C281.702 262.33 281.982 262.638 282.331 262.846C282.68 263.054 283.065 263.157 283.486 263.157C283.769 263.157 284.027 263.124 284.261 263.058C284.494 262.992 284.721 262.888 284.94 262.746C285.159 262.605 285.361 262.454 285.546 262.292C285.73 262.13 285.97 261.911 286.264 261.634C286.385 261.53 286.558 261.479 286.783 261.479C287.026 261.479 287.222 261.545 287.372 261.678C287.522 261.81 287.597 261.998 287.597 262.24C287.597 262.454 287.513 262.703 287.346 262.989C287.179 263.274 286.926 263.548 286.589 263.811C286.251 264.073 285.827 264.291 285.316 264.464C284.806 264.637 284.219 264.724 283.555 264.724C282.038 264.724 280.858 264.291 280.016 263.426C279.173 262.56 278.752 261.386 278.752 259.903C278.752 259.205 278.856 258.558 279.064 257.96C279.271 257.363 279.574 256.851 279.972 256.424C280.37 255.997 280.861 255.67 281.444 255.442C282.026 255.214 282.672 255.1 283.382 255.1C284.305 255.1 285.097 255.295 285.758 255.684C286.418 256.074 286.913 256.577 287.242 257.195C287.571 257.812 287.735 258.441 287.735 259.081C287.735 259.676 287.565 260.061 287.225 260.237C286.884 260.413 286.405 260.501 285.788 260.501ZM281.167 259.159L285.451 259.159C285.393 258.351 285.175 257.747 284.797 257.346C284.419 256.945 283.922 256.745 283.304 256.745C282.716 256.745 282.233 256.948 281.855 257.355C281.477 257.761 281.247 258.363 281.167 259.159Z"/>
<path d="M292.071 261.314L292.071 263.287C292.071 263.766 291.959 264.125 291.734 264.365C291.509 264.604 291.223 264.724 290.877 264.724C290.536 264.724 290.257 264.603 290.037 264.36C289.818 264.118 289.709 263.76 289.709 263.287L289.709 256.71C289.709 255.648 290.092 255.118 290.86 255.118C291.252 255.118 291.535 255.242 291.708 255.49C291.881 255.738 291.976 256.104 291.993 256.589C292.276 256.104 292.566 255.738 292.863 255.49C293.16 255.242 293.557 255.118 294.053 255.118C294.549 255.118 295.031 255.242 295.498 255.49C295.966 255.738 296.199 256.067 296.199 256.476C296.199 256.765 296.1 257.003 295.901 257.19C295.702 257.378 295.487 257.472 295.256 257.472C295.169 257.472 294.96 257.418 294.629 257.311C294.297 257.205 294.004 257.151 293.75 257.151C293.404 257.151 293.121 257.242 292.902 257.424C292.683 257.606 292.513 257.875 292.391 258.233C292.27 258.591 292.187 259.016 292.14 259.51C292.094 260.003 292.071 260.604 292.071 261.314Z"/>
<path d="M298.925 256.589L300.838 261.954L302.898 256.355C303.059 255.905 303.218 255.586 303.374 255.399C303.53 255.211 303.766 255.118 304.083 255.118C304.383 255.118 304.639 255.218 304.849 255.42C305.06 255.622 305.165 255.856 305.165 256.121C305.165 256.225 305.147 256.346 305.109 256.485C305.072 256.623 305.028 256.753 304.979 256.874C304.93 256.996 304.874 257.134 304.81 257.29L302.543 262.915C302.48 263.077 302.397 263.281 302.296 263.53C302.195 263.778 302.083 263.99 301.959 264.166C301.835 264.342 301.682 264.479 301.5 264.577C301.318 264.675 301.098 264.724 300.838 264.724C300.503 264.724 300.237 264.647 300.038 264.495C299.838 264.342 299.691 264.174 299.596 263.993C299.501 263.811 299.341 263.452 299.116 262.915L296.866 257.35C296.814 257.212 296.76 257.073 296.706 256.935C296.651 256.796 296.605 256.655 296.567 256.511C296.53 256.367 296.511 256.243 296.511 256.139C296.511 255.977 296.56 255.817 296.658 255.658C296.756 255.5 296.892 255.37 297.065 255.269C297.238 255.168 297.425 255.118 297.627 255.118C298.02 255.118 298.289 255.23 298.436 255.455C298.584 255.68 298.747 256.058 298.925 256.589Z"/>
<path d="M309.224 256.459L309.224 263.287C309.224 263.76 309.112 264.118 308.887 264.36C308.662 264.603 308.376 264.724 308.03 264.724C307.684 264.724 307.402 264.6 307.186 264.352C306.97 264.104 306.862 263.749 306.862 263.287L306.862 256.528C306.862 256.061 306.97 255.709 307.186 255.472C307.402 255.236 307.684 255.118 308.03 255.118C308.376 255.118 308.662 255.236 308.887 255.472C309.112 255.709 309.224 256.038 309.224 256.459ZM308.056 254.018C307.727 254.018 307.446 253.917 307.212 253.716C306.978 253.514 306.862 253.228 306.862 252.859C306.862 252.524 306.981 252.249 307.221 252.032C307.46 251.816 307.739 251.708 308.056 251.708C308.362 251.708 308.633 251.806 308.869 252.002C309.106 252.198 309.224 252.484 309.224 252.859C309.224 253.222 309.109 253.506 308.878 253.711C308.647 253.916 308.373 254.018 308.056 254.018Z"/>
<path d="M320.137 261.799C320.137 262.093 320.049 262.407 319.873 262.742C319.697 263.077 319.429 263.395 319.069 263.698C318.708 264.001 318.254 264.245 317.706 264.43C317.157 264.614 316.54 264.707 315.853 264.707C314.394 264.707 313.254 264.281 312.435 263.43C311.616 262.579 311.206 261.438 311.206 260.007C311.206 259.038 311.394 258.181 311.769 257.437C312.144 256.693 312.686 256.117 313.396 255.71C314.105 255.304 314.953 255.1 315.94 255.1C316.552 255.1 317.113 255.19 317.623 255.368C318.134 255.547 318.567 255.778 318.921 256.061C319.276 256.344 319.547 256.645 319.735 256.965C319.922 257.285 320.016 257.584 320.016 257.861C320.016 258.144 319.911 258.383 319.7 258.579C319.49 258.775 319.234 258.874 318.934 258.874C318.738 258.874 318.575 258.823 318.445 258.722C318.316 258.621 318.17 258.458 318.008 258.233C317.72 257.795 317.418 257.466 317.104 257.246C316.79 257.027 316.39 256.918 315.905 256.918C315.207 256.918 314.645 257.19 314.218 257.735C313.791 258.281 313.577 259.026 313.577 259.973C313.577 260.417 313.632 260.825 313.742 261.197C313.851 261.569 314.01 261.887 314.218 262.149C314.425 262.412 314.676 262.611 314.971 262.746C315.265 262.882 315.588 262.95 315.94 262.95C316.413 262.95 316.818 262.84 317.156 262.621C317.493 262.402 317.792 262.067 318.052 261.617C318.196 261.352 318.352 261.144 318.519 260.994C318.686 260.844 318.891 260.769 319.133 260.769C319.422 260.769 319.661 260.878 319.852 261.098C320.042 261.317 320.137 261.551 320.137 261.799Z"/>
<path d="M328.792 260.501L324.17 260.501C324.176 261.037 324.284 261.51 324.495 261.92C324.705 262.33 324.985 262.638 325.334 262.846C325.683 263.054 326.069 263.157 326.49 263.157C326.772 263.157 327.031 263.124 327.264 263.058C327.498 262.992 327.724 262.888 327.944 262.746C328.163 262.605 328.365 262.454 328.549 262.292C328.734 262.13 328.974 261.911 329.268 261.634C329.389 261.53 329.562 261.479 329.787 261.479C330.029 261.479 330.226 261.545 330.376 261.678C330.526 261.81 330.601 261.998 330.601 262.24C330.601 262.454 330.517 262.703 330.35 262.989C330.182 263.274 329.93 263.548 329.592 263.811C329.255 264.073 328.831 264.291 328.32 264.464C327.81 264.637 327.222 264.724 326.559 264.724C325.042 264.724 323.862 264.291 323.019 263.426C322.177 262.56 321.756 261.386 321.756 259.903C321.756 259.205 321.86 258.558 322.067 257.96C322.275 257.363 322.578 256.851 322.976 256.424C323.374 255.997 323.865 255.67 324.447 255.442C325.03 255.214 325.676 255.1 326.386 255.1C327.309 255.1 328.101 255.295 328.761 255.684C329.422 256.074 329.917 256.577 330.246 257.195C330.575 257.812 330.739 258.441 330.739 259.081C330.739 259.676 330.569 260.061 330.228 260.237C329.888 260.413 329.409 260.501 328.792 260.501ZM324.17 259.159L328.454 259.159C328.397 258.351 328.179 257.747 327.801 257.346C327.423 256.945 326.925 256.745 326.308 256.745C325.719 256.745 325.236 256.948 324.858 257.355C324.48 257.761 324.251 258.363 324.17 259.159Z"/>
<path d="M340.337 261.634C340.337 262.286 340.178 262.844 339.861 263.309C339.543 263.773 339.075 264.125 338.454 264.365C337.834 264.604 337.08 264.724 336.191 264.724C335.343 264.724 334.616 264.594 334.01 264.334C333.405 264.075 332.957 263.75 332.669 263.361C332.38 262.971 332.236 262.58 332.236 262.188C332.236 261.929 332.329 261.706 332.513 261.522C332.698 261.337 332.931 261.245 333.214 261.245C333.462 261.245 333.653 261.305 333.785 261.427C333.918 261.548 334.045 261.718 334.166 261.937C334.408 262.358 334.698 262.673 335.036 262.881C335.373 263.088 335.834 263.192 336.416 263.192C336.889 263.192 337.277 263.087 337.58 262.876C337.883 262.666 338.035 262.425 338.035 262.154C338.035 261.738 337.877 261.435 337.563 261.245C337.249 261.054 336.731 260.873 336.01 260.7C335.196 260.498 334.534 260.286 334.023 260.064C333.513 259.841 333.105 259.549 332.799 259.185C332.493 258.822 332.34 258.374 332.34 257.844C332.34 257.371 332.481 256.923 332.764 256.502C333.047 256.081 333.464 255.745 334.015 255.494C334.566 255.243 335.231 255.118 336.01 255.118C336.621 255.118 337.171 255.181 337.658 255.308C338.146 255.435 338.553 255.605 338.878 255.819C339.204 256.032 339.453 256.269 339.623 256.528C339.793 256.788 339.878 257.042 339.878 257.29C339.878 257.561 339.787 257.783 339.605 257.956C339.424 258.129 339.166 258.216 338.831 258.216C338.589 258.216 338.382 258.147 338.212 258.008C338.042 257.87 337.847 257.662 337.628 257.385C337.449 257.154 337.238 256.97 336.996 256.831C336.754 256.693 336.425 256.623 336.01 256.623C335.583 256.623 335.228 256.714 334.945 256.896C334.662 257.078 334.521 257.304 334.521 257.575C334.521 257.823 334.625 258.027 334.833 258.186C335.04 258.344 335.32 258.475 335.672 258.579C336.024 258.683 336.509 258.81 337.126 258.96C337.859 259.139 338.457 259.352 338.922 259.6C339.386 259.849 339.738 260.141 339.978 260.479C340.217 260.816 340.337 261.202 340.337 261.634Z"/>
</g>
<g fill="#122358" opacity="1" stroke="none">
<path d="M99.5904 178.787L107.892 191.349L107.892 178.671C107.892 177.847 108.069 177.229 108.423 176.817C108.777 176.405 109.254 176.199 109.855 176.199C110.476 176.199 110.965 176.405 111.324 176.817C111.682 177.229 111.862 177.847 111.862 178.671L111.862 195.435C111.862 197.306 111.086 198.241 109.535 198.241C109.148 198.241 108.799 198.185 108.489 198.074C108.178 197.962 107.888 197.785 107.616 197.543C107.345 197.301 107.093 197.017 106.86 196.692C106.628 196.368 106.395 196.036 106.162 195.697L98.0638 183.28L98.0638 195.769C98.0638 196.583 97.8748 197.199 97.4967 197.616C97.1187 198.033 96.6341 198.241 96.0428 198.241C95.4321 198.241 94.9426 198.03 94.5743 197.608C94.206 197.187 94.0218 196.574 94.0218 195.769L94.0218 179.325C94.0218 178.627 94.0993 178.08 94.2544 177.682C94.4386 177.246 94.7439 176.89 95.1704 176.613C95.5969 176.337 96.0573 176.199 96.5517 176.199C96.9394 176.199 97.2714 176.262 97.5476 176.388C97.8239 176.514 98.0662 176.684 98.2746 176.897C98.483 177.11 98.6962 177.386 98.9143 177.726C99.1324 178.065 99.3578 178.419 99.5904 178.787Z"/>
<path d="M130.632 179.892L120.905 179.892L120.905 185.126L129.862 185.126C130.521 185.126 131.013 185.274 131.337 185.57C131.662 185.865 131.824 186.256 131.824 186.74C131.824 187.225 131.664 187.62 131.345 187.925C131.025 188.231 130.53 188.383 129.862 188.383L120.905 188.383L120.905 194.446L130.967 194.446C131.645 194.446 132.156 194.604 132.5 194.919C132.845 195.234 133.017 195.653 133.017 196.176C133.017 196.68 132.845 197.09 132.5 197.405C132.156 197.72 131.645 197.877 130.967 197.877L119.233 197.877C118.293 197.877 117.617 197.669 117.205 197.252C116.793 196.835 116.587 196.162 116.587 195.231L116.587 179.209C116.587 178.588 116.679 178.082 116.863 177.689C117.047 177.297 117.336 177.011 117.728 176.832C118.121 176.652 118.623 176.563 119.233 176.563L130.632 176.563C131.32 176.563 131.832 176.715 132.166 177.021C132.5 177.326 132.668 177.726 132.668 178.22C132.668 178.724 132.5 179.129 132.166 179.434C131.832 179.739 131.32 179.892 130.632 179.892Z"/>
</g>
<g fill="#122358" opacity="1" stroke="none">
<path d="M193.618 194.621L193.618 193.985C193.024 194.736 192.401 195.365 191.747 195.874C191.093 196.383 190.379 196.761 189.604 197.009C188.829 197.257 187.945 197.382 186.952 197.382C185.753 197.382 184.679 197.133 183.728 196.637C182.778 196.14 182.042 195.456 181.522 194.584C180.904 193.531 180.595 192.018 180.595 190.044L180.595 180.218C180.595 179.225 180.819 178.483 181.267 177.993C181.715 177.503 182.309 177.257 183.047 177.257C183.798 177.257 184.403 177.506 184.863 178.002C185.324 178.499 185.554 179.237 185.554 180.218L185.554 188.155C185.554 189.305 185.65 190.271 185.844 191.052C186.038 191.833 186.386 192.444 186.889 192.886C187.391 193.328 188.072 193.549 188.932 193.549C189.767 193.549 190.554 193.301 191.293 192.805C192.032 192.308 192.57 191.66 192.909 190.861C193.188 190.159 193.327 188.621 193.327 186.248L193.327 180.218C193.327 179.237 193.557 178.499 194.017 178.002C194.477 177.506 195.077 177.257 195.815 177.257C196.554 177.257 197.147 177.503 197.595 177.993C198.043 178.483 198.267 179.225 198.267 180.218L198.267 194.584C198.267 195.529 198.052 196.237 197.623 196.709C197.193 197.182 196.639 197.418 195.961 197.418C195.283 197.418 194.723 197.173 194.281 196.682C193.839 196.192 193.618 195.505 193.618 194.621Z"/>
<path d="M219.172 190.934C219.172 192.302 218.839 193.474 218.173 194.448C217.507 195.423 216.524 196.162 215.222 196.664C213.92 197.167 212.337 197.418 210.473 197.418C208.693 197.418 207.167 197.145 205.896 196.601C204.624 196.056 203.686 195.375 203.08 194.557C202.475 193.74 202.172 192.92 202.172 192.096C202.172 191.551 202.366 191.085 202.753 190.698C203.141 190.31 203.631 190.117 204.225 190.117C204.745 190.117 205.145 190.244 205.423 190.498C205.702 190.752 205.968 191.109 206.222 191.57C206.731 192.453 207.339 193.113 208.048 193.549C208.756 193.985 209.722 194.203 210.945 194.203C211.938 194.203 212.752 193.982 213.388 193.54C214.023 193.098 214.341 192.593 214.341 192.024C214.341 191.152 214.011 190.516 213.351 190.117C212.691 189.717 211.605 189.336 210.091 188.972C208.384 188.548 206.994 188.103 205.923 187.637C204.851 187.171 203.995 186.557 203.353 185.794C202.711 185.031 202.39 184.093 202.39 182.979C202.39 181.986 202.687 181.047 203.28 180.163C203.873 179.28 204.748 178.574 205.905 178.048C207.061 177.521 208.456 177.257 210.091 177.257C211.375 177.257 212.528 177.391 213.551 177.657C214.574 177.923 215.428 178.281 216.112 178.729C216.796 179.177 217.317 179.673 217.674 180.218C218.031 180.763 218.21 181.296 218.21 181.816C218.21 182.385 218.019 182.852 217.638 183.215C217.256 183.578 216.714 183.76 216.012 183.76C215.504 183.76 215.071 183.614 214.713 183.324C214.356 183.033 213.948 182.597 213.487 182.016C213.112 181.532 212.67 181.144 212.162 180.854C211.653 180.563 210.963 180.418 210.091 180.418C209.195 180.418 208.45 180.608 207.857 180.99C207.264 181.371 206.967 181.847 206.967 182.416C206.967 182.936 207.185 183.363 207.621 183.696C208.057 184.029 208.644 184.305 209.383 184.522C210.121 184.74 211.138 185.007 212.434 185.322C213.972 185.697 215.228 186.145 216.203 186.666C217.177 187.186 217.916 187.801 218.419 188.509C218.921 189.217 219.172 190.026 219.172 190.934Z"/>
</g>
<g fill="#000120" opacity="1" stroke="none">
<path d="M175.29 282.886C175.891 282.886 176.367 282.765 176.717 282.525C177.067 282.284 177.242 281.85 177.242 281.223C177.242 280.549 176.997 280.089 176.508 279.844C176.246 279.716 175.896 279.651 175.458 279.651L172.326 279.651L172.326 282.886L175.29 282.886ZM171.044 278.549L175.425 278.549C176.147 278.549 176.742 278.655 177.21 278.865C178.099 279.269 178.544 280.014 178.544 281.101C178.544 281.668 178.427 282.132 178.193 282.493C177.959 282.853 177.631 283.143 177.21 283.362C177.58 283.513 177.858 283.71 178.044 283.955C178.231 284.2 178.335 284.597 178.357 285.147L178.402 286.416C178.415 286.777 178.445 287.046 178.492 287.222C178.57 287.522 178.707 287.716 178.905 287.802L178.905 288.014L177.333 288.014C177.29 287.933 177.255 287.827 177.229 287.698C177.204 287.57 177.182 287.32 177.165 286.951L177.088 285.373C177.058 284.754 176.828 284.34 176.398 284.129C176.153 284.013 175.769 283.955 175.245 283.955L172.326 283.955L172.326 288.014L171.044 288.014L171.044 278.549Z"/>
<path d="M184.504 278.292C186.175 278.292 187.412 278.829 188.215 279.902C188.842 280.74 189.155 281.812 189.155 283.117C189.155 284.531 188.797 285.705 188.079 286.642C187.238 287.741 186.037 288.291 184.478 288.291C183.022 288.291 181.877 287.81 181.044 286.848C180.301 285.92 179.929 284.748 179.929 283.33C179.929 282.05 180.247 280.955 180.883 280.044C181.699 278.876 182.906 278.292 184.504 278.292ZM184.632 287.144C185.762 287.144 186.579 286.74 187.084 285.93C187.589 285.12 187.841 284.189 187.841 283.137C187.841 282.024 187.55 281.129 186.968 280.45C186.386 279.771 185.59 279.432 184.581 279.432C183.602 279.432 182.803 279.768 182.184 280.44C181.566 281.113 181.256 282.104 181.256 283.414C181.256 284.462 181.522 285.346 182.052 286.065C182.583 286.785 183.443 287.144 184.632 287.144Z"/>
<path d="M194.671 278.292C195.869 278.292 196.799 278.607 197.461 279.239C198.122 279.87 198.489 280.588 198.562 281.391L197.312 281.391C197.171 280.781 196.888 280.298 196.465 279.941C196.042 279.585 195.448 279.406 194.684 279.406C193.751 279.406 192.999 279.734 192.425 280.389C191.852 281.044 191.565 282.048 191.565 283.401C191.565 284.509 191.824 285.408 192.342 286.097C192.859 286.787 193.631 287.132 194.658 287.132C195.603 287.132 196.322 286.769 196.816 286.043C197.078 285.66 197.274 285.158 197.403 284.535L198.652 284.535C198.541 285.531 198.171 286.367 197.544 287.041C196.793 287.853 195.779 288.259 194.503 288.259C193.404 288.259 192.48 287.926 191.733 287.26C190.749 286.38 190.257 285.02 190.257 283.182C190.257 281.786 190.627 280.641 191.365 279.748C192.164 278.777 193.266 278.292 194.671 278.292Z"/>
<path d="M199.4 284.4L200.901 284.4L201.507 282.183L200.012 282.183L200.212 281.436L201.706 281.436L202.473 278.549L203.433 278.549L202.654 281.436L204.078 281.436L204.87 278.549L205.817 278.549L205.038 281.436L206.532 281.436L206.333 282.183L204.838 282.183L204.226 284.4L205.727 284.4L205.527 285.147L204.045 285.147L203.253 288.014L202.306 288.014L203.085 285.147L201.648 285.147L200.882 288.014L199.922 288.014L200.701 285.147L199.207 285.147L199.4 284.4ZM203.266 284.4L203.878 282.183L202.454 282.183L201.861 284.4L203.266 284.4Z"/>
<path d="M213.639 288.265C212.548 288.265 211.757 287.966 211.265 287.367C210.773 286.767 210.527 286.038 210.527 285.179L211.738 285.179C211.79 285.776 211.901 286.21 212.073 286.481C212.374 286.966 212.917 287.209 213.703 287.209C214.313 287.209 214.803 287.046 215.172 286.719C215.542 286.393 215.726 285.972 215.726 285.456C215.726 284.821 215.532 284.376 215.143 284.123C214.755 283.869 214.215 283.742 213.523 283.742C213.446 283.742 213.367 283.744 213.288 283.746C213.208 283.748 213.128 283.751 213.046 283.755L213.046 282.731C213.166 282.744 213.267 282.752 213.349 282.757C213.431 282.761 213.519 282.763 213.613 282.763C214.047 282.763 214.404 282.694 214.683 282.557C215.172 282.316 215.417 281.887 215.417 281.268C215.417 280.809 215.254 280.454 214.928 280.205C214.601 279.956 214.221 279.832 213.787 279.832C213.014 279.832 212.479 280.089 212.183 280.605C212.02 280.888 211.927 281.292 211.906 281.816L210.759 281.816C210.759 281.129 210.896 280.545 211.171 280.064C211.644 279.204 212.475 278.775 213.665 278.775C214.605 278.775 215.333 278.984 215.849 279.403C216.364 279.822 216.622 280.429 216.622 281.223C216.622 281.79 216.47 282.25 216.165 282.602C215.976 282.821 215.731 282.993 215.43 283.117C215.915 283.251 216.295 283.507 216.567 283.887C216.84 284.268 216.976 284.733 216.976 285.282C216.976 286.163 216.686 286.88 216.107 287.434C215.527 287.988 214.704 288.265 213.639 288.265Z"/>
<path d="M221.912 284.748L221.912 280.566L218.954 284.748L221.912 284.748ZM221.931 288.014L221.931 285.759L217.885 285.759L217.885 284.625L222.112 278.762L223.091 278.762L223.091 284.748L224.45 284.748L224.45 285.759L223.091 285.759L223.091 288.014L221.931 288.014Z"/>
<path d="M229.25 284.748L229.25 280.566L226.293 284.748L229.25 284.748ZM229.27 288.014L229.27 285.759L225.224 285.759L225.224 284.625L229.45 278.762L230.429 278.762L230.429 284.748L231.789 284.748L231.789 285.759L230.429 285.759L230.429 288.014L229.27 288.014Z"/>
<path d="M232.639 288.014C232.682 287.22 232.847 286.528 233.132 285.94C233.418 285.351 233.975 284.816 234.804 284.335L236.041 283.62C236.595 283.298 236.984 283.023 237.208 282.795C237.56 282.439 237.736 282.031 237.736 281.571C237.736 281.034 237.575 280.608 237.253 280.292C236.93 279.977 236.501 279.819 235.964 279.819C235.169 279.819 234.62 280.119 234.315 280.721C234.151 281.043 234.061 281.49 234.044 282.061L232.865 282.061C232.878 281.258 233.026 280.603 233.309 280.096C233.812 279.202 234.699 278.756 235.97 278.756C237.027 278.756 237.799 279.041 238.287 279.612C238.774 280.184 239.018 280.819 239.018 281.52C239.018 282.258 238.758 282.89 238.238 283.414C237.938 283.719 237.399 284.088 236.621 284.522L235.739 285.012C235.318 285.244 234.987 285.465 234.746 285.675C234.317 286.049 234.046 286.464 233.934 286.919L238.973 286.919L238.973 288.014L232.639 288.014Z"/>
<path d="M243.154 282.654C243.666 282.654 244.065 282.511 244.353 282.225C244.641 281.939 244.785 281.599 244.785 281.204C244.785 280.86 244.647 280.545 244.372 280.257C244.097 279.969 243.678 279.825 243.116 279.825C242.557 279.825 242.154 279.969 241.904 280.257C241.655 280.545 241.531 280.882 241.531 281.268C241.531 281.702 241.692 282.042 242.014 282.286C242.336 282.531 242.716 282.654 243.154 282.654ZM243.225 287.222C243.762 287.222 244.208 287.077 244.562 286.787C244.917 286.497 245.094 286.064 245.094 285.489C245.094 284.891 244.911 284.438 244.546 284.129C244.181 283.82 243.713 283.665 243.142 283.665C242.587 283.665 242.135 283.823 241.785 284.139C241.435 284.454 241.26 284.891 241.26 285.45C241.26 285.931 241.42 286.347 241.74 286.697C242.06 287.047 242.555 287.222 243.225 287.222ZM241.576 283.098C241.254 282.961 241.002 282.8 240.822 282.615C240.483 282.271 240.313 281.825 240.313 281.275C240.313 280.588 240.562 279.997 241.06 279.503C241.559 279.009 242.265 278.762 243.18 278.762C244.065 278.762 244.759 278.995 245.261 279.461C245.764 279.927 246.015 280.472 246.015 281.094C246.015 281.67 245.869 282.136 245.577 282.493C245.414 282.694 245.16 282.892 244.817 283.085C245.199 283.261 245.5 283.463 245.719 283.691C246.127 284.12 246.331 284.679 246.331 285.366C246.331 286.178 246.058 286.866 245.513 287.431C244.967 287.996 244.196 288.278 243.2 288.278C242.302 288.278 241.543 288.035 240.922 287.547C240.301 287.06 239.991 286.352 239.991 285.424C239.991 284.879 240.124 284.407 240.39 284.01C240.657 283.613 241.052 283.309 241.576 283.098Z"/>
<path d="M250.493 282.654C251.004 282.654 251.404 282.511 251.691 282.225C251.979 281.939 252.123 281.599 252.123 281.204C252.123 280.86 251.986 280.545 251.711 280.257C251.436 279.969 251.017 279.825 250.454 279.825C249.896 279.825 249.492 279.969 249.243 280.257C248.994 280.545 248.869 280.882 248.869 281.268C248.869 281.702 249.03 282.042 249.353 282.286C249.675 282.531 250.055 282.654 250.493 282.654ZM250.564 287.222C251.101 287.222 251.546 287.077 251.901 286.787C252.255 286.497 252.432 286.064 252.432 285.489C252.432 284.891 252.25 284.438 251.885 284.129C251.52 283.82 251.051 283.665 250.48 283.665C249.926 283.665 249.474 283.823 249.124 284.139C248.774 284.454 248.599 284.891 248.599 285.45C248.599 285.931 248.759 286.347 249.079 286.697C249.399 287.047 249.894 287.222 250.564 287.222ZM248.914 283.098C248.592 282.961 248.341 282.8 248.161 282.615C247.821 282.271 247.652 281.825 247.652 281.275C247.652 280.588 247.901 279.997 248.399 279.503C248.897 279.009 249.604 278.762 250.519 278.762C251.404 278.762 252.097 278.995 252.6 279.461C253.102 279.927 253.354 280.472 253.354 281.094C253.354 281.67 253.208 282.136 252.916 282.493C252.752 282.694 252.499 282.892 252.155 283.085C252.538 283.261 252.838 283.463 253.057 283.691C253.465 284.12 253.669 284.679 253.669 285.366C253.669 286.178 253.397 286.866 252.851 287.431C252.306 287.996 251.535 288.278 250.538 288.278C249.64 288.278 248.881 288.035 248.261 287.547C247.64 287.06 247.33 286.352 247.33 285.424C247.33 284.879 247.463 284.407 247.729 284.01C247.995 283.613 248.39 283.309 248.914 283.098Z"/>
</g>
</g>
</svg>
