<?xml version="1.0" encoding="UTF-8" standalone="no"?>
<!DOCTYPE svg PUBLIC "-//W3C//DTD SVG 1.1//EN" "http://www.w3.org/Graphics/SVG/1.1/DTD/svg11.dtd">
<!-- Created with Vectornator (http://vectornator.io/) -->
<svg height="100%" stroke-miterlimit="10" style="fill-rule:nonzero;clip-rule:evenodd;stroke-linecap:round;stroke-linejoin:round;" version="1.1" viewBox="0 0 792 612" width="100%" xml:space="preserve" xmlns="http://www.w3.org/2000/svg" xmlns:xlink="http://www.w3.org/1999/xlink">
<defs/>
<g id="Layer-1">
<g opacity="1">
<path d="M34.6831 24.28C34.6831 286.972 34.6831 286.972 34.6831 549.665C36.0889 549.774 33.8947 540.917 34.0426 542.013C34.9456 548.703 33.816 565.155 33.816 571.889C382.475 572.022 387.454 571.177 736.113 571.311C736.113 297.795 736.113 297.795 736.113 24.28C385.398 24.28 385.398 24.28 34.6831 24.28Z" fill="#fbfdfc" fill-rule="nonzero" opacity="1" stroke="none"/>
<path d="M359.968 163.818C317.389 184.867 287.19 218.427 249.631 244.79C236.714 253.856 224.025 263.121 211.253 272.315C210.08 273.16 199.971 279.851 199.602 280.6C198.566 282.7 199.945 287.459 199.945 289.953C199.945 299.039 200.287 308.124 200.287 317.211C200.287 324.502 199.592 330.641 200.287 338.055C200.311 338.306 200.65 338.581 200.973 338.59C207.137 338.761 213.309 338.574 219.477 338.59C255.342 338.678 291.207 338.59 327.073 338.59C391.265 338.59 455.457 338.946 519.649 338.857C519.972 338.856 520.322 338.574 520.334 338.322C520.585 333.335 521.925 328.299 521.02 323.357C520.974 323.108 520.657 322.827 520.334 322.823C507.315 322.648 494.291 322.907 481.271 322.823C469.29 322.746 456.785 323.039 444.606 322.823C443.572 322.804 442.52 322.768 441.522 322.555C441.21 322.489 440.842 322.273 440.837 322.021C440.612 311.957 440.724 301.889 440.837 291.823C440.942 282.367 425.016 282.47 416.508 282.47C410.807 282.47 402.563 287.46 402.458 291.823C402.239 300.997 402.116 310.173 402.116 319.349C402.116 319.834 402.991 322.773 401.773 322.823C378.054 323.796 353.338 322.555 329.471 322.555C325.244 322.555 321.019 322.907 316.793 322.823C316.47 322.816 316.112 322.54 316.107 322.288C315.882 310.798 316.107 299.306 316.107 287.815C316.107 281.312 315.996 274.809 316.107 268.307C316.114 267.939 316.239 267.566 316.45 267.238C317.952 264.895 326.807 259.428 329.129 257.617C336.047 252.222 343.09 246.729 350.031 241.316C364.478 230.049 379.515 219.289 394.577 208.446C398.852 205.369 403.212 202.355 407.256 199.093C407.414 198.965 407.398 198.697 407.256 198.558C402.967 194.377 395.304 188.603 389.78 185.731C388.715 185.177 384.589 189.512 383.612 190.274C379.328 193.615 374.949 196.88 370.591 200.162C353.134 213.306 335.626 226.371 318.163 239.445C314.492 242.194 310.89 244.998 307.198 247.73C302.592 251.138 298.06 254.693 293.149 257.885C291.925 258.68 287.924 259.602 287.324 257.885C286.25 254.813 290.192 253.94 292.464 252.273C299.156 247.361 306.166 242.388 312.681 237.307C330.966 223.048 350 209.109 369.22 195.619C374.328 192.034 379.214 188.266 384.297 184.662C384.383 184.601 387.399 183.185 387.039 182.791C380.293 175.426 369.706 159.004 359.968 163.818Z" fill="#0a7bc5" fill-rule="nonzero" opacity="1" stroke="none"/>
<path d="M354.486 130.948C340.754 131.578 334.336 138.569 324.331 145.913C314.233 153.325 303.603 160.475 293.834 168.094C290.748 170.5 287.424 172.714 284.24 175.042C282.858 176.052 272.94 182.395 272.932 182.524C272.715 185.816 272.87 189.116 272.932 192.412C272.984 195.175 273.275 197.933 273.275 200.696C273.275 201.947 272.484 203.553 273.617 204.438C284.792 195.723 296.74 187.601 308.226 179.05C318.748 171.217 329.353 163.449 340.094 155.801C343.779 153.177 349.528 148.015 354.828 146.982C370.763 143.875 380.55 155.783 390.808 163.283C408.75 176.402 427.034 189.461 445.634 202.032C473.163 220.639 499.987 240.02 526.845 259.221C530.074 261.529 534.016 263.744 537.125 266.169C542.732 270.542 549.901 277.897 557.342 271.514C559.931 269.292 558.795 264.095 558.712 262.16C558.492 256.996 539.919 246.42 535.411 243.187C532.2 240.882 529.046 238.528 525.817 236.239C523.304 234.457 520.791 232.675 518.278 230.894C485.642 207.755 452.211 185.321 419.934 161.947C409.859 154.651 400.411 146.817 389.78 140.034C386.768 138.112 382.2 133.988 378.129 133.353C371.72 132.353 365.223 130.948 354.486 130.948Z" fill="#7babc6" fill-rule="nonzero" opacity="1" stroke="none"/>
<path d="M244.148 167.559C240.639 167.378 234.592 170.131 234.554 173.438C234.442 183.059 234.407 192.68 234.211 202.3C234.148 205.394 235.278 206.283 233.183 207.644C219.686 216.416 206.964 226.088 194.12 235.437C184.09 242.738 173.279 249.552 163.623 257.083C156.034 263.001 161.161 274.453 171.846 274.453C177.123 274.453 183.85 267.639 186.581 265.634C194.195 260.046 201.76 254.526 209.539 249.066C225.776 237.669 242.065 226.347 258.197 214.86C259.091 214.223 273.947 204.242 273.96 204.17C275.172 197.555 273.83 189.148 273.617 182.524C273.377 175.028 276.106 173.688 268.82 168.361C264.096 164.907 250.368 167.879 244.148 167.559Z" fill="#07074a" fill-rule="nonzero" opacity="1" stroke="none"/>
<path d="M279.443 381.614C272.866 386.743 267.891 393.448 262.309 399.252C258.272 403.45 254.873 407.586 251.002 411.812C247.289 415.865 241.321 420.432 240.036 425.441C238.614 430.988 247.558 432.088 252.03 429.182C262.964 422.076 270.147 409.347 278.415 400.321C281.192 397.288 291.585 390.131 290.065 387.761C292.115 386.163 294.969 383.49 297.261 382.149C298.297 381.543 298.78 382.568 300.345 381.347C293.223 375.793 285.844 370.573 278.757 365.046C275.329 362.372 272.839 358.213 268.135 357.296C261.768 356.055 257.512 359.182 257.512 363.977C257.512 364.856 258.543 365.572 259.225 366.115C264.711 370.477 270.133 374.889 275.673 379.209C277.58 380.697 277.792 380.757 279.443 381.614Z" fill="#0c4392" fill-rule="nonzero" opacity="1" stroke="none"/>
<path d="M300.002 381.08C298.559 381.952 298.245 381.103 297.261 381.614C294.793 382.898 291.317 385.794 289.38 387.494C288.399 388.354 294.212 392.038 294.52 392.304C295.875 393.473 297.203 394.664 298.632 395.778C310.543 405.067 322.715 414.293 334.611 423.57C338.514 426.614 344.965 431.61 349.346 435.596C350.709 436.836 353.209 440.227 355.514 440.406C360.225 440.774 370.951 437.217 366.136 432.389C360.16 426.397 352.432 421.167 345.576 415.821C340.276 411.687 334.421 407.923 329.129 403.795C319.547 396.322 310.573 388.589 300.688 381.347C300.501 381.211 300.204 380.958 300.002 381.08Z" fill="#0a7bc5" fill-rule="nonzero" opacity="1" stroke="none"/>
<path d="M386.353 183.059C383.171 184.299 381.065 186.771 378.472 188.671C373.72 192.152 368.647 195.531 364.08 199.093C346.557 212.759 327.494 225.22 309.939 238.911C304.368 243.256 298.381 247.391 292.806 251.738C290.64 253.428 285.035 254.633 286.638 257.885C289.572 263.834 304.181 250.35 306.856 248.264C310.454 245.458 314.15 242.728 317.821 239.98C323.765 235.53 329.693 231.066 335.639 226.618C343.101 221.036 350.49 215.396 357.912 209.782C368.103 202.075 380.212 194.924 389.095 186.266C386.872 184.244 386.568 185.129 387.381 183.86C386.867 183.46 386.867 183.46 386.353 183.059Z" fill="#daeef0" fill-rule="nonzero" opacity="1" stroke="none"/>
<path d="M376.073 233.032C374.19 233.055 370.659 232.632 370.591 234.101C370.261 241.222 370.368 248.355 370.591 255.479C370.599 255.731 370.953 256.008 371.276 256.014C380.183 256.188 389.101 256.271 398.004 256.014C398.488 256 399.014 255.59 399.032 255.212C399.362 248.001 399.255 240.779 399.032 233.566C399.024 233.314 398.669 233.039 398.346 233.032C390.925 232.859 383.497 232.942 376.073 233.032Z" fill="#28a4df" fill-rule="nonzero" opacity="1" stroke="none"/>
<path d="M448.375 233.032C446.591 233.074 445.999 233.231 445.977 234.635C445.867 241.583 445.522 248.531 445.634 255.479C445.638 255.731 445.996 256.007 446.319 256.014C454.997 256.187 463.687 256.271 472.362 256.014C472.846 256 473.372 255.59 473.39 255.212C473.72 248.091 473.612 240.958 473.39 233.833C473.334 232.043 468.832 233.324 466.536 233.299C460.482 233.232 454.427 232.889 448.375 233.032Z" fill="#28a4df" fill-rule="nonzero" opacity="1" stroke="none"/>
<path d="M296.576 379.209C296.918 378.942 296.918 378.942 297.261 378.675C298.64 379.213 305.361 371.204 306.513 369.856C311.989 363.45 330.57 350.104 319.877 342.598C313.708 338.268 306.497 349.121 304.114 352.219C300.294 357.184 295.656 362.342 291.093 366.917C289.885 368.128 286.981 370.048 286.981 371.727C286.981 373.303 289.637 374.108 291.093 375.201C292.897 376.556 294.748 377.873 296.576 379.209Z" fill="#12bcf2" fill-rule="nonzero" opacity="1" stroke="none"/>
<path d="M519.306 421.967C514.699 422.276 513.743 429.201 518.621 430.786C523.646 432.419 524.592 425.065 522.733 423.036C521.048 421.197 521.369 421.829 519.306 421.967Z" fill="#fbfdfc" fill-rule="nonzero" opacity="1" stroke="none"/>
</g>
<g fill="#737a76" opacity="1" stroke="none">
<path d="M189.425 458.494L189.425 464.236L198.189 464.236L198.189 458.494C198.189 457.674 198.374 457.058 198.743 456.648C199.112 456.238 199.597 456.033 200.199 456.033C200.809 456.033 201.304 456.236 201.682 456.641C202.06 457.047 202.25 457.664 202.25 458.494L202.25 474.285C202.25 475.114 202.058 475.734 201.675 476.144C201.292 476.554 200.8 476.76 200.199 476.76C199.588 476.76 199.1 476.552 198.736 476.137C198.371 475.723 198.189 475.105 198.189 474.285L198.189 467.545L189.425 467.545L189.425 474.285C189.425 475.114 189.234 475.734 188.851 476.144C188.468 476.554 187.976 476.76 187.375 476.76C186.764 476.76 186.276 476.552 185.912 476.137C185.547 475.723 185.365 475.105 185.365 474.285L185.365 458.494C185.365 457.674 185.545 457.058 185.905 456.648C186.265 456.238 186.755 456.033 187.375 456.033C187.985 456.033 188.48 456.236 188.858 456.641C189.236 457.047 189.425 457.664 189.425 458.494Z"/>
<path d="M220.324 469.172C220.324 470.284 220.151 471.309 219.804 472.248C219.458 473.187 218.957 473.993 218.3 474.668C217.644 475.342 216.86 475.859 215.949 476.22C215.037 476.58 214.012 476.76 212.873 476.76C211.742 476.76 210.726 476.577 209.824 476.213C208.921 475.848 208.14 475.326 207.479 474.647C206.818 473.968 206.317 473.166 205.975 472.241C205.633 471.316 205.462 470.293 205.462 469.172C205.462 468.041 205.636 467.007 205.982 466.068C206.328 465.129 206.825 464.327 207.472 463.662C208.119 462.997 208.903 462.484 209.824 462.124C210.744 461.764 211.761 461.584 212.873 461.584C214.003 461.584 215.028 461.766 215.949 462.131C216.869 462.495 217.658 463.015 218.314 463.689C218.97 464.364 219.469 465.166 219.811 466.095C220.153 467.025 220.324 468.051 220.324 469.172ZM216.578 469.172C216.578 467.65 216.243 466.465 215.573 465.617C214.903 464.769 214.003 464.345 212.873 464.345C212.143 464.345 211.501 464.535 210.945 464.913C210.389 465.291 209.96 465.849 209.66 466.588C209.359 467.326 209.209 468.187 209.209 469.172C209.209 470.147 209.357 470.999 209.653 471.728C209.949 472.457 210.373 473.016 210.924 473.403C211.476 473.79 212.125 473.984 212.873 473.984C214.003 473.984 214.903 473.558 215.573 472.706C216.243 471.854 216.578 470.676 216.578 469.172Z"/>
<path d="M235.677 469.445L235.677 474.408C235.677 475.192 235.5 475.78 235.144 476.172C234.789 476.564 234.319 476.76 233.736 476.76C233.171 476.76 232.713 476.564 232.362 476.172C232.011 475.78 231.835 475.192 231.835 474.408L231.835 468.461C231.835 467.522 231.804 466.793 231.74 466.273C231.676 465.754 231.503 465.328 231.22 464.995C230.938 464.662 230.491 464.496 229.88 464.496C228.659 464.496 227.855 464.915 227.467 465.754C227.08 466.592 226.886 467.795 226.886 469.363L226.886 474.408C226.886 475.183 226.711 475.768 226.36 476.165C226.009 476.561 225.546 476.76 224.972 476.76C224.407 476.76 223.945 476.561 223.584 476.165C223.224 475.768 223.044 475.183 223.044 474.408L223.044 463.73C223.044 463.028 223.206 462.495 223.53 462.131C223.853 461.766 224.279 461.584 224.808 461.584C225.319 461.584 225.745 461.755 226.086 462.096C226.428 462.438 226.599 462.91 226.599 463.511L226.599 463.867C227.246 463.092 227.939 462.523 228.677 462.158C229.416 461.793 230.236 461.611 231.138 461.611C232.077 461.611 232.884 461.798 233.558 462.172C234.233 462.545 234.789 463.11 235.226 463.867C235.855 463.101 236.529 462.534 237.25 462.165C237.97 461.796 238.767 461.611 239.642 461.611C240.663 461.611 241.542 461.812 242.281 462.213C243.019 462.614 243.57 463.188 243.935 463.935C244.254 464.61 244.414 465.672 244.414 467.121L244.414 474.408C244.414 475.192 244.236 475.78 243.88 476.172C243.525 476.564 243.056 476.76 242.472 476.76C241.907 476.76 241.445 476.561 241.084 476.165C240.724 475.768 240.544 475.183 240.544 474.408L240.544 468.133C240.544 467.331 240.51 466.688 240.442 466.205C240.374 465.722 240.189 465.316 239.888 464.988C239.587 464.66 239.132 464.496 238.521 464.496C238.029 464.496 237.562 464.642 237.12 464.933C236.678 465.225 236.334 465.617 236.087 466.109C235.814 466.738 235.677 467.85 235.677 469.445Z"/>
<path d="M258.455 470.088L251.154 470.088C251.163 470.935 251.334 471.683 251.667 472.33C251.999 472.977 252.441 473.465 252.993 473.793C253.544 474.121 254.153 474.285 254.818 474.285C255.264 474.285 255.672 474.233 256.042 474.128C256.411 474.023 256.768 473.859 257.115 473.636C257.461 473.412 257.78 473.173 258.072 472.918C258.363 472.663 258.742 472.316 259.207 471.879C259.398 471.715 259.671 471.633 260.027 471.633C260.41 471.633 260.72 471.737 260.957 471.947C261.194 472.157 261.312 472.453 261.312 472.836C261.312 473.173 261.18 473.567 260.916 474.018C260.651 474.47 260.252 474.902 259.719 475.317C259.186 475.732 258.516 476.076 257.709 476.349C256.903 476.623 255.975 476.76 254.927 476.76C252.53 476.76 250.666 476.076 249.335 474.709C248.005 473.342 247.339 471.487 247.339 469.144C247.339 468.041 247.503 467.018 247.832 466.075C248.16 465.132 248.638 464.323 249.267 463.648C249.896 462.974 250.671 462.456 251.591 462.096C252.512 461.736 253.533 461.556 254.654 461.556C256.112 461.556 257.363 461.864 258.407 462.479C259.45 463.095 260.232 463.89 260.751 464.865C261.271 465.84 261.531 466.834 261.531 467.845C261.531 468.784 261.262 469.393 260.724 469.671C260.186 469.949 259.43 470.088 258.455 470.088ZM251.154 467.969L257.921 467.969C257.83 466.692 257.486 465.738 256.889 465.104C256.292 464.471 255.506 464.154 254.531 464.154C253.601 464.154 252.838 464.475 252.241 465.118C251.644 465.761 251.281 466.711 251.154 467.969Z"/>
<path d="M277.39 467.845L275.968 467.845L275.968 474.285C275.968 475.133 275.781 475.757 275.408 476.158C275.034 476.559 274.546 476.76 273.945 476.76C273.298 476.76 272.796 476.55 272.441 476.131C272.085 475.711 271.908 475.096 271.908 474.285L271.908 458.863C271.908 457.988 272.104 457.355 272.496 456.963C272.888 456.571 273.521 456.375 274.396 456.375L281 456.375C281.911 456.375 282.69 456.414 283.337 456.491C283.985 456.568 284.568 456.726 285.087 456.963C285.716 457.227 286.272 457.605 286.755 458.097C287.238 458.59 287.605 459.162 287.856 459.813C288.107 460.465 288.232 461.155 288.232 461.885C288.232 463.379 287.81 464.573 286.967 465.467C286.124 466.36 284.846 466.993 283.132 467.367C283.852 467.75 284.541 468.315 285.197 469.062C285.853 469.81 286.439 470.605 286.954 471.448C287.469 472.291 287.87 473.052 288.157 473.731C288.444 474.41 288.587 474.877 288.587 475.133C288.587 475.397 288.503 475.659 288.334 475.919C288.166 476.178 287.936 476.384 287.644 476.534C287.352 476.684 287.015 476.76 286.632 476.76C286.177 476.76 285.794 476.652 285.484 476.438C285.174 476.224 284.907 475.953 284.684 475.625C284.461 475.297 284.158 474.814 283.775 474.176L282.148 471.469C281.565 470.475 281.043 469.719 280.583 469.199C280.122 468.679 279.655 468.324 279.181 468.133C278.707 467.941 278.11 467.845 277.39 467.845ZM279.714 459.424L275.968 459.424L275.968 464.933L279.605 464.933C280.58 464.933 281.401 464.849 282.066 464.68C282.731 464.512 283.239 464.225 283.59 463.819C283.941 463.414 284.117 462.855 284.117 462.144C284.117 461.588 283.975 461.098 283.693 460.675C283.41 460.251 283.018 459.934 282.517 459.724C282.043 459.524 281.109 459.424 279.714 459.424Z"/>
<path d="M301.535 470.088L294.234 470.088C294.243 470.935 294.414 471.683 294.747 472.33C295.079 472.977 295.521 473.465 296.073 473.793C296.624 474.121 297.233 474.285 297.898 474.285C298.345 474.285 298.752 474.233 299.122 474.128C299.491 474.023 299.848 473.859 300.195 473.636C300.541 473.412 300.86 473.173 301.152 472.918C301.444 472.663 301.822 472.316 302.287 471.879C302.478 471.715 302.751 471.633 303.107 471.633C303.49 471.633 303.8 471.737 304.037 471.947C304.274 472.157 304.392 472.453 304.392 472.836C304.392 473.173 304.26 473.567 303.996 474.018C303.731 474.47 303.333 474.902 302.799 475.317C302.266 475.732 301.596 476.076 300.79 476.349C299.983 476.623 299.056 476.76 298.007 476.76C295.61 476.76 293.746 476.076 292.416 474.709C291.085 473.342 290.419 471.487 290.419 469.144C290.419 468.041 290.584 467.018 290.912 466.075C291.24 465.132 291.718 464.323 292.347 463.648C292.976 462.974 293.751 462.456 294.671 462.096C295.592 461.736 296.613 461.556 297.734 461.556C299.192 461.556 300.443 461.864 301.487 462.479C302.53 463.095 303.312 463.89 303.832 464.865C304.351 465.84 304.611 466.834 304.611 467.845C304.611 468.784 304.342 469.393 303.804 469.671C303.266 469.949 302.51 470.088 301.535 470.088ZM294.234 467.969L301.001 467.969C300.91 466.692 300.566 465.738 299.969 465.104C299.372 464.471 298.586 464.154 297.611 464.154C296.681 464.154 295.918 464.475 295.321 465.118C294.724 465.761 294.362 466.711 294.234 467.969Z"/>
<path d="M310.832 463.676L310.832 464.127C311.533 463.261 312.263 462.625 313.019 462.22C313.776 461.814 314.632 461.611 315.589 461.611C316.738 461.611 317.795 461.907 318.761 462.5C319.727 463.092 320.491 463.958 321.051 465.097C321.612 466.237 321.892 467.586 321.892 469.144C321.892 470.293 321.73 471.348 321.407 472.309C321.083 473.271 320.639 474.078 320.074 474.729C319.509 475.381 318.841 475.882 318.071 476.233C317.301 476.584 316.473 476.76 315.589 476.76C314.523 476.76 313.627 476.545 312.903 476.117C312.178 475.689 311.488 475.06 310.832 474.23L310.832 479.836C310.832 481.476 310.235 482.297 309.041 482.297C308.339 482.297 307.874 482.085 307.646 481.661C307.418 481.237 307.304 480.62 307.304 479.808L307.304 463.703C307.304 462.992 307.459 462.461 307.769 462.11C308.079 461.759 308.503 461.584 309.041 461.584C309.569 461.584 310 461.764 310.333 462.124C310.665 462.484 310.832 463.001 310.832 463.676ZM318.146 469.103C318.146 468.119 317.996 467.274 317.695 466.567C317.394 465.861 316.977 465.318 316.444 464.94C315.911 464.562 315.32 464.373 314.673 464.373C313.643 464.373 312.775 464.778 312.069 465.59C311.362 466.401 311.009 467.595 311.009 469.172C311.009 470.657 311.36 471.813 312.062 472.637C312.764 473.462 313.634 473.875 314.673 473.875C315.293 473.875 315.867 473.695 316.396 473.335C316.925 472.975 317.348 472.435 317.667 471.715C317.987 470.995 318.146 470.124 318.146 469.103Z"/>
<path d="M334.32 474.654C333.417 475.356 332.545 475.882 331.702 476.233C330.859 476.584 329.913 476.76 328.865 476.76C327.908 476.76 327.067 476.57 326.342 476.192C325.618 475.814 325.059 475.301 324.667 474.654C324.276 474.007 324.08 473.305 324.08 472.549C324.08 471.528 324.403 470.657 325.05 469.937C325.697 469.217 326.586 468.734 327.716 468.488C327.953 468.433 328.541 468.31 329.48 468.119C330.419 467.928 331.223 467.752 331.893 467.593C332.563 467.433 333.29 467.239 334.074 467.011C334.028 466.027 333.83 465.305 333.479 464.845C333.128 464.384 332.401 464.154 331.298 464.154C330.35 464.154 329.637 464.286 329.159 464.551C328.68 464.815 328.27 465.211 327.928 465.74C327.586 466.269 327.345 466.617 327.204 466.786C327.062 466.955 326.759 467.039 326.294 467.039C325.875 467.039 325.513 466.904 325.208 466.636C324.902 466.367 324.75 466.023 324.75 465.603C324.75 464.947 324.982 464.309 325.447 463.689C325.912 463.069 326.636 462.559 327.621 462.158C328.605 461.757 329.831 461.556 331.298 461.556C332.939 461.556 334.229 461.75 335.167 462.137C336.106 462.525 336.769 463.138 337.157 463.976C337.544 464.815 337.738 465.927 337.738 467.312C337.738 468.187 337.736 468.93 337.731 469.541C337.726 470.151 337.72 470.831 337.71 471.578C337.71 472.28 337.827 473.011 338.059 473.772C338.292 474.533 338.408 475.023 338.408 475.242C338.408 475.625 338.228 475.973 337.868 476.288C337.508 476.602 337.1 476.76 336.644 476.76C336.261 476.76 335.883 476.58 335.509 476.22C335.136 475.859 334.739 475.338 334.32 474.654ZM334.074 469.254C333.527 469.454 332.732 469.666 331.688 469.889C330.644 470.113 329.922 470.277 329.521 470.382C329.12 470.486 328.737 470.692 328.373 470.997C328.008 471.302 327.826 471.728 327.826 472.275C327.826 472.84 328.04 473.321 328.468 473.718C328.897 474.114 329.457 474.312 330.15 474.312C330.888 474.312 331.57 474.15 332.194 473.827C332.818 473.503 333.276 473.086 333.568 472.576C333.905 472.011 334.074 471.081 334.074 469.787L334.074 469.254Z"/>
<path d="M345.257 463.703L345.257 474.49C345.257 475.237 345.08 475.803 344.724 476.185C344.369 476.568 343.917 476.76 343.371 476.76C342.824 476.76 342.379 476.564 342.038 476.172C341.696 475.78 341.525 475.219 341.525 474.49L341.525 463.812C341.525 463.074 341.696 462.518 342.038 462.144C342.379 461.771 342.824 461.584 343.371 461.584C343.917 461.584 344.369 461.771 344.724 462.144C345.08 462.518 345.257 463.038 345.257 463.703ZM343.412 459.847C342.892 459.847 342.448 459.688 342.079 459.369C341.709 459.05 341.525 458.599 341.525 458.015C341.525 457.487 341.714 457.052 342.092 456.71C342.471 456.368 342.91 456.197 343.412 456.197C343.895 456.197 344.323 456.352 344.697 456.662C345.07 456.972 345.257 457.423 345.257 458.015C345.257 458.59 345.075 459.039 344.71 459.362C344.346 459.686 343.913 459.847 343.412 459.847Z"/>
<path d="M352.818 471.373L352.818 474.49C352.818 475.247 352.64 475.814 352.285 476.192C351.929 476.57 351.478 476.76 350.931 476.76C350.393 476.76 349.951 476.568 349.605 476.185C349.259 475.803 349.085 475.237 349.085 474.49L349.085 464.099C349.085 462.422 349.692 461.584 350.904 461.584C351.524 461.584 351.97 461.78 352.244 462.172C352.517 462.564 352.667 463.142 352.695 463.908C353.141 463.142 353.599 462.564 354.069 462.172C354.538 461.78 355.165 461.584 355.949 461.584C356.733 461.584 357.494 461.78 358.232 462.172C358.97 462.564 359.339 463.083 359.339 463.73C359.339 464.186 359.182 464.562 358.868 464.858C358.553 465.154 358.214 465.303 357.849 465.303C357.712 465.303 357.382 465.218 356.858 465.05C356.334 464.881 355.871 464.797 355.47 464.797C354.923 464.797 354.477 464.94 354.13 465.227C353.784 465.514 353.515 465.941 353.324 466.506C353.132 467.071 353 467.743 352.927 468.522C352.854 469.302 352.818 470.252 352.818 471.373Z"/>
<path d="M377.81 474.654C376.908 475.356 376.035 475.882 375.192 476.233C374.349 476.584 373.403 476.76 372.355 476.76C371.398 476.76 370.557 476.57 369.833 476.192C369.108 475.814 368.55 475.301 368.158 474.654C367.766 474.007 367.57 473.305 367.57 472.549C367.57 471.528 367.893 470.657 368.541 469.937C369.188 469.217 370.076 468.734 371.207 468.488C371.444 468.433 372.031 468.31 372.97 468.119C373.909 467.928 374.713 467.752 375.383 467.593C376.053 467.433 376.78 467.239 377.564 467.011C377.518 466.027 377.32 465.305 376.969 464.845C376.618 464.384 375.891 464.154 374.789 464.154C373.841 464.154 373.127 464.286 372.649 464.551C372.17 464.815 371.76 465.211 371.418 465.74C371.077 466.269 370.835 466.617 370.694 466.786C370.553 466.955 370.25 467.039 369.785 467.039C369.365 467.039 369.003 466.904 368.698 466.636C368.392 466.367 368.24 466.023 368.24 465.603C368.24 464.947 368.472 464.309 368.937 463.689C369.402 463.069 370.126 462.559 371.111 462.158C372.095 461.757 373.321 461.556 374.789 461.556C376.429 461.556 377.719 461.75 378.658 462.137C379.597 462.525 380.26 463.138 380.647 463.976C381.034 464.815 381.228 465.927 381.228 467.312C381.228 468.187 381.226 468.93 381.221 469.541C381.217 470.151 381.21 470.831 381.201 471.578C381.201 472.28 381.317 473.011 381.549 473.772C381.782 474.533 381.898 475.023 381.898 475.242C381.898 475.625 381.718 475.973 381.358 476.288C380.998 476.602 380.59 476.76 380.134 476.76C379.751 476.76 379.373 476.58 379 476.22C378.626 475.859 378.229 475.338 377.81 474.654ZM377.564 469.254C377.017 469.454 376.222 469.666 375.178 469.889C374.135 470.113 373.412 470.277 373.011 470.382C372.61 470.486 372.227 470.692 371.863 470.997C371.498 471.302 371.316 471.728 371.316 472.275C371.316 472.84 371.53 473.321 371.959 473.718C372.387 474.114 372.947 474.312 373.64 474.312C374.378 474.312 375.06 474.15 375.684 473.827C376.308 473.503 376.766 473.086 377.058 472.576C377.395 472.011 377.564 471.081 377.564 469.787L377.564 469.254Z"/>
<path d="M388.406 463.648L388.406 464.099C389.062 463.234 389.78 462.598 390.559 462.192C391.338 461.787 392.234 461.584 393.246 461.584C394.23 461.584 395.11 461.798 395.884 462.226C396.659 462.655 397.238 463.261 397.621 464.045C397.867 464.5 398.026 464.993 398.099 465.521C398.172 466.05 398.209 466.724 398.209 467.545L398.209 474.49C398.209 475.237 398.038 475.803 397.696 476.185C397.354 476.568 396.91 476.76 396.363 476.76C395.807 476.76 395.356 476.564 395.009 476.172C394.663 475.78 394.49 475.219 394.49 474.49L394.49 468.269C394.49 467.039 394.319 466.098 393.977 465.446C393.635 464.794 392.954 464.469 391.933 464.469C391.268 464.469 390.662 464.667 390.115 465.063C389.568 465.46 389.167 466.004 388.912 466.697C388.729 467.253 388.638 468.292 388.638 469.814L388.638 474.49C388.638 475.247 388.463 475.814 388.112 476.192C387.761 476.57 387.307 476.76 386.751 476.76C386.214 476.76 385.772 476.564 385.425 476.172C385.079 475.78 384.906 475.219 384.906 474.49L384.906 463.703C384.906 462.992 385.061 462.461 385.371 462.11C385.681 461.759 386.104 461.584 386.642 461.584C386.97 461.584 387.266 461.661 387.531 461.816C387.795 461.971 388.007 462.204 388.167 462.513C388.326 462.823 388.406 463.202 388.406 463.648Z"/>
<path d="M412.154 474.627L412.154 474.258C411.653 474.832 411.158 475.299 410.67 475.659C410.183 476.019 409.654 476.292 409.084 476.479C408.515 476.666 407.893 476.76 407.218 476.76C406.325 476.76 405.498 476.57 404.737 476.192C403.976 475.814 403.317 475.274 402.761 474.572C402.205 473.87 401.784 473.045 401.497 472.097C401.209 471.15 401.066 470.124 401.066 469.021C401.066 466.688 401.636 464.87 402.775 463.566C403.914 462.263 405.414 461.611 407.273 461.611C408.348 461.611 409.255 461.796 409.994 462.165C410.732 462.534 411.452 463.101 412.154 463.867L412.154 458.357C412.154 457.592 412.306 457.013 412.612 456.621C412.917 456.229 413.352 456.033 413.917 456.033C414.483 456.033 414.918 456.213 415.223 456.573C415.528 456.933 415.681 457.464 415.681 458.166L415.681 474.627C415.681 475.338 415.517 475.871 415.189 476.226C414.861 476.582 414.437 476.76 413.917 476.76C413.407 476.76 412.986 476.575 412.653 476.206C412.32 475.837 412.154 475.31 412.154 474.627ZM404.812 469.144C404.812 470.156 404.969 471.017 405.284 471.728C405.598 472.439 406.029 472.975 406.576 473.335C407.123 473.695 407.72 473.875 408.367 473.875C409.023 473.875 409.622 473.704 410.165 473.362C410.707 473.02 411.14 472.496 411.463 471.79C411.787 471.083 411.949 470.202 411.949 469.144C411.949 468.151 411.787 467.296 411.463 466.581C411.14 465.865 410.702 465.318 410.151 464.94C409.599 464.562 408.996 464.373 408.339 464.373C407.656 464.373 407.045 464.567 406.507 464.954C405.97 465.341 405.553 465.897 405.256 466.622C404.96 467.346 404.812 468.187 404.812 469.144Z"/>
<path d="M426.851 474.285L426.851 458.494C426.851 457.674 427.038 457.058 427.412 456.648C427.785 456.238 428.268 456.033 428.861 456.033C429.472 456.033 429.966 456.236 430.344 456.641C430.723 457.047 430.912 457.664 430.912 458.494L430.912 474.285C430.912 475.114 430.723 475.734 430.344 476.144C429.966 476.554 429.472 476.76 428.861 476.76C428.278 476.76 427.797 476.552 427.418 476.137C427.04 475.723 426.851 475.105 426.851 474.285Z"/>
<path d="M447.605 469.445L447.605 474.408C447.605 475.192 447.427 475.78 447.072 476.172C446.716 476.564 446.247 476.76 445.664 476.76C445.098 476.76 444.64 476.564 444.29 476.172C443.939 475.78 443.763 475.192 443.763 474.408L443.763 468.461C443.763 467.522 443.731 466.793 443.667 466.273C443.604 465.754 443.431 465.328 443.148 464.995C442.865 464.662 442.419 464.496 441.808 464.496C440.587 464.496 439.782 464.915 439.395 465.754C439.008 466.592 438.814 467.795 438.814 469.363L438.814 474.408C438.814 475.183 438.639 475.768 438.288 476.165C437.937 476.561 437.474 476.76 436.9 476.76C436.335 476.76 435.872 476.561 435.512 476.165C435.152 475.768 434.972 475.183 434.972 474.408L434.972 463.73C434.972 463.028 435.134 462.495 435.458 462.131C435.781 461.766 436.207 461.584 436.736 461.584C437.246 461.584 437.672 461.755 438.014 462.096C438.356 462.438 438.527 462.91 438.527 463.511L438.527 463.867C439.174 463.092 439.867 462.523 440.605 462.158C441.343 461.793 442.164 461.611 443.066 461.611C444.005 461.611 444.811 461.798 445.486 462.172C446.16 462.545 446.716 463.11 447.154 463.867C447.783 463.101 448.457 462.534 449.177 462.165C449.897 461.796 450.695 461.611 451.57 461.611C452.591 461.611 453.47 461.812 454.209 462.213C454.947 462.614 455.498 463.188 455.863 463.935C456.182 464.61 456.341 465.672 456.341 467.121L456.341 474.408C456.341 475.192 456.164 475.78 455.808 476.172C455.453 476.564 454.983 476.76 454.4 476.76C453.835 476.76 453.372 476.561 453.012 476.165C452.652 475.768 452.472 475.183 452.472 474.408L452.472 468.133C452.472 467.331 452.438 466.688 452.37 466.205C452.301 465.722 452.117 465.316 451.816 464.988C451.515 464.66 451.059 464.496 450.449 464.496C449.957 464.496 449.489 464.642 449.047 464.933C448.605 465.225 448.261 465.617 448.015 466.109C447.742 466.738 447.605 467.85 447.605 469.445Z"/>
<path d="M463.41 463.676L463.41 464.127C464.112 463.261 464.841 462.625 465.597 462.22C466.354 461.814 467.21 461.611 468.167 461.611C469.316 461.611 470.373 461.907 471.339 462.5C472.306 463.092 473.069 463.958 473.629 465.097C474.19 466.237 474.47 467.586 474.47 469.144C474.47 470.293 474.308 471.348 473.985 472.309C473.661 473.271 473.217 474.078 472.652 474.729C472.087 475.381 471.419 475.882 470.649 476.233C469.879 476.584 469.052 476.76 468.167 476.76C467.101 476.76 466.206 476.545 465.481 476.117C464.756 475.689 464.066 475.06 463.41 474.23L463.41 479.836C463.41 481.476 462.813 482.297 461.619 482.297C460.917 482.297 460.452 482.085 460.224 481.661C459.996 481.237 459.882 480.62 459.882 479.808L459.882 463.703C459.882 462.992 460.037 462.461 460.347 462.11C460.657 461.759 461.081 461.584 461.619 461.584C462.147 461.584 462.578 461.764 462.911 462.124C463.243 462.484 463.41 463.001 463.41 463.676ZM470.724 469.103C470.724 468.119 470.574 467.274 470.273 466.567C469.972 465.861 469.555 465.318 469.022 464.94C468.489 464.562 467.899 464.373 467.251 464.373C466.222 464.373 465.353 464.778 464.647 465.59C463.941 466.401 463.587 467.595 463.587 469.172C463.587 470.657 463.938 471.813 464.64 472.637C465.342 473.462 466.212 473.875 467.251 473.875C467.871 473.875 468.445 473.695 468.974 473.335C469.503 472.975 469.927 472.435 470.246 471.715C470.565 470.995 470.724 470.124 470.724 469.103Z"/>
<path d="M481.169 471.373L481.169 474.49C481.169 475.247 480.992 475.814 480.636 476.192C480.281 476.57 479.83 476.76 479.283 476.76C478.745 476.76 478.303 476.568 477.957 476.185C477.61 475.803 477.437 475.237 477.437 474.49L477.437 464.099C477.437 462.422 478.043 461.584 479.255 461.584C479.875 461.584 480.322 461.78 480.595 462.172C480.869 462.564 481.019 463.142 481.046 463.908C481.493 463.142 481.951 462.564 482.42 462.172C482.89 461.78 483.516 461.584 484.3 461.584C485.084 461.584 485.845 461.78 486.584 462.172C487.322 462.564 487.691 463.083 487.691 463.73C487.691 464.186 487.534 464.562 487.219 464.858C486.905 465.154 486.565 465.303 486.201 465.303C486.064 465.303 485.734 465.218 485.209 465.05C484.685 464.881 484.223 464.797 483.822 464.797C483.275 464.797 482.828 464.94 482.482 465.227C482.136 465.514 481.867 465.941 481.675 466.506C481.484 467.071 481.352 467.743 481.279 468.522C481.206 469.302 481.169 470.252 481.169 471.373Z"/>
<path d="M502.634 469.172C502.634 470.284 502.461 471.309 502.115 472.248C501.768 473.187 501.267 473.993 500.611 474.668C499.955 475.342 499.171 475.859 498.259 476.22C497.348 476.58 496.322 476.76 495.183 476.76C494.053 476.76 493.037 476.577 492.134 476.213C491.232 475.848 490.45 475.326 489.79 474.647C489.129 473.968 488.627 473.166 488.286 472.241C487.944 471.316 487.773 470.293 487.773 469.172C487.773 468.041 487.946 467.007 488.292 466.068C488.639 465.129 489.136 464.327 489.783 463.662C490.43 462.997 491.214 462.484 492.134 462.124C493.055 461.764 494.071 461.584 495.183 461.584C496.313 461.584 497.339 461.766 498.259 462.131C499.18 462.495 499.968 463.015 500.625 463.689C501.281 464.364 501.78 465.166 502.122 466.095C502.463 467.025 502.634 468.051 502.634 469.172ZM498.888 469.172C498.888 467.65 498.553 466.465 497.883 465.617C497.213 464.769 496.313 464.345 495.183 464.345C494.454 464.345 493.811 464.535 493.255 464.913C492.699 465.291 492.271 465.849 491.97 466.588C491.669 467.326 491.519 468.187 491.519 469.172C491.519 470.147 491.667 470.999 491.963 471.728C492.26 472.457 492.683 473.016 493.235 473.403C493.786 473.79 494.436 473.984 495.183 473.984C496.313 473.984 497.213 473.558 497.883 472.706C498.553 471.854 498.888 470.676 498.888 469.172Z"/>
<path d="M507.843 463.908L510.865 472.385L514.119 463.539C514.374 462.828 514.625 462.324 514.871 462.028C515.117 461.732 515.49 461.584 515.992 461.584C516.466 461.584 516.869 461.743 517.202 462.062C517.534 462.381 517.701 462.75 517.701 463.17C517.701 463.334 517.671 463.525 517.612 463.744C517.553 463.963 517.484 464.168 517.407 464.359C517.329 464.551 517.24 464.769 517.14 465.015L513.558 473.902C513.458 474.157 513.328 474.481 513.168 474.873C513.009 475.265 512.831 475.6 512.635 475.878C512.439 476.156 512.198 476.372 511.911 476.527C511.624 476.682 511.275 476.76 510.865 476.76C510.336 476.76 509.915 476.639 509.6 476.397C509.286 476.156 509.053 475.891 508.903 475.604C508.752 475.317 508.5 474.75 508.144 473.902L504.589 465.111C504.507 464.892 504.423 464.674 504.336 464.455C504.25 464.236 504.177 464.013 504.118 463.785C504.058 463.557 504.029 463.361 504.029 463.197C504.029 462.942 504.106 462.689 504.261 462.438C504.416 462.188 504.63 461.983 504.904 461.823C505.177 461.664 505.473 461.584 505.792 461.584C506.412 461.584 506.838 461.761 507.071 462.117C507.303 462.472 507.561 463.069 507.843 463.908Z"/>
<path d="M530.429 470.088L523.128 470.088C523.138 470.935 523.308 471.683 523.641 472.33C523.974 472.977 524.416 473.465 524.967 473.793C525.519 474.121 526.127 474.285 526.792 474.285C527.239 474.285 527.647 474.233 528.016 474.128C528.385 474.023 528.743 473.859 529.089 473.636C529.436 473.412 529.755 473.173 530.046 472.918C530.338 472.663 530.716 472.316 531.181 471.879C531.373 471.715 531.646 471.633 532.001 471.633C532.384 471.633 532.694 471.737 532.931 471.947C533.168 472.157 533.287 472.453 533.287 472.836C533.287 473.173 533.154 473.567 532.89 474.018C532.626 474.47 532.227 474.902 531.694 475.317C531.161 475.732 530.491 476.076 529.684 476.349C528.877 476.623 527.95 476.76 526.902 476.76C524.505 476.76 522.641 476.076 521.31 474.709C519.979 473.342 519.314 471.487 519.314 469.144C519.314 468.041 519.478 467.018 519.806 466.075C520.134 465.132 520.613 464.323 521.242 463.648C521.871 462.974 522.645 462.456 523.566 462.096C524.487 461.736 525.507 461.556 526.628 461.556C528.087 461.556 529.338 461.864 530.381 462.479C531.425 463.095 532.207 463.89 532.726 464.865C533.246 465.84 533.505 466.834 533.505 467.845C533.505 468.784 533.237 469.393 532.699 469.671C532.161 469.949 531.404 470.088 530.429 470.088ZM523.128 467.969L529.896 467.969C529.805 466.692 529.461 465.738 528.864 465.104C528.267 464.471 527.481 464.154 526.505 464.154C525.576 464.154 524.812 464.475 524.215 465.118C523.618 465.761 523.256 466.711 523.128 467.969Z"/>
<path d="M549.064 469.445L549.064 474.408C549.064 475.192 548.886 475.78 548.531 476.172C548.175 476.564 547.706 476.76 547.123 476.76C546.557 476.76 546.099 476.564 545.749 476.172C545.398 475.78 545.222 475.192 545.222 474.408L545.222 468.461C545.222 467.522 545.19 466.793 545.126 466.273C545.063 465.754 544.889 465.328 544.607 464.995C544.324 464.662 543.878 464.496 543.267 464.496C542.046 464.496 541.241 464.915 540.854 465.754C540.467 466.592 540.273 467.795 540.273 469.363L540.273 474.408C540.273 475.183 540.098 475.768 539.747 476.165C539.396 476.561 538.933 476.76 538.359 476.76C537.794 476.76 537.331 476.561 536.971 476.165C536.611 475.768 536.431 475.183 536.431 474.408L536.431 463.73C536.431 463.028 536.593 462.495 536.917 462.131C537.24 461.766 537.666 461.584 538.195 461.584C538.705 461.584 539.131 461.755 539.473 462.096C539.815 462.438 539.986 462.91 539.986 463.511L539.986 463.867C540.633 463.092 541.326 462.523 542.064 462.158C542.802 461.793 543.623 461.611 544.525 461.611C545.464 461.611 546.27 461.798 546.945 462.172C547.619 462.545 548.175 463.11 548.613 463.867C549.242 463.101 549.916 462.534 550.636 462.165C551.356 461.796 552.154 461.611 553.029 461.611C554.05 461.611 554.929 461.812 555.667 462.213C556.406 462.614 556.957 463.188 557.322 463.935C557.641 464.61 557.8 465.672 557.8 467.121L557.8 474.408C557.8 475.192 557.623 475.78 557.267 476.172C556.912 476.564 556.442 476.76 555.859 476.76C555.294 476.76 554.831 476.561 554.471 476.165C554.111 475.768 553.931 475.183 553.931 474.408L553.931 468.133C553.931 467.331 553.897 466.688 553.829 466.205C553.76 465.722 553.576 465.316 553.275 464.988C552.974 464.66 552.518 464.496 551.908 464.496C551.416 464.496 550.948 464.642 550.506 464.933C550.064 465.225 549.72 465.617 549.474 466.109C549.201 466.738 549.064 467.85 549.064 469.445Z"/>
<path d="M571.841 470.088L564.541 470.088C564.55 470.935 564.721 471.683 565.053 472.33C565.386 472.977 565.828 473.465 566.379 473.793C566.931 474.121 567.539 474.285 568.205 474.285C568.651 474.285 569.059 474.233 569.428 474.128C569.797 474.023 570.155 473.859 570.501 473.636C570.848 473.412 571.167 473.173 571.459 472.918C571.75 472.663 572.128 472.316 572.593 471.879C572.785 471.715 573.058 471.633 573.414 471.633C573.796 471.633 574.106 471.737 574.343 471.947C574.58 472.157 574.699 472.453 574.699 472.836C574.699 473.173 574.567 473.567 574.302 474.018C574.038 474.47 573.639 474.902 573.106 475.317C572.573 475.732 571.903 476.076 571.096 476.349C570.29 476.623 569.362 476.76 568.314 476.76C565.917 476.76 564.053 476.076 562.722 474.709C561.391 473.342 560.726 471.487 560.726 469.144C560.726 468.041 560.89 467.018 561.218 466.075C561.546 465.132 562.025 464.323 562.654 463.648C563.283 462.974 564.057 462.456 564.978 462.096C565.899 461.736 566.919 461.556 568.041 461.556C569.499 461.556 570.75 461.864 571.793 462.479C572.837 463.095 573.619 463.89 574.138 464.865C574.658 465.84 574.917 466.834 574.917 467.845C574.917 468.784 574.649 469.393 574.111 469.671C573.573 469.949 572.817 470.088 571.841 470.088ZM564.541 467.969L571.308 467.969C571.217 466.692 570.873 465.738 570.276 465.104C569.679 464.471 568.893 464.154 567.917 464.154C566.988 464.154 566.224 464.475 565.627 465.118C565.03 465.761 564.668 466.711 564.541 467.969Z"/>
<path d="M581.453 463.648L581.453 464.099C582.109 463.234 582.827 462.598 583.606 462.192C584.385 461.787 585.281 461.584 586.292 461.584C587.277 461.584 588.156 461.798 588.931 462.226C589.706 462.655 590.285 463.261 590.667 464.045C590.914 464.5 591.073 464.993 591.146 465.521C591.219 466.05 591.255 466.724 591.255 467.545L591.255 474.49C591.255 475.237 591.084 475.803 590.743 476.185C590.401 476.568 589.957 476.76 589.41 476.76C588.854 476.76 588.403 476.564 588.056 476.172C587.71 475.78 587.537 475.219 587.537 474.49L587.537 468.269C587.537 467.039 587.366 466.098 587.024 465.446C586.682 464.794 586.001 464.469 584.98 464.469C584.315 464.469 583.709 464.667 583.162 465.063C582.615 465.46 582.214 466.004 581.959 466.697C581.776 467.253 581.685 468.292 581.685 469.814L581.685 474.49C581.685 475.247 581.51 475.814 581.159 476.192C580.808 476.57 580.354 476.76 579.798 476.76C579.261 476.76 578.819 476.564 578.472 476.172C578.126 475.78 577.953 475.219 577.953 474.49L577.953 463.703C577.953 462.992 578.108 462.461 578.417 462.11C578.727 461.759 579.151 461.584 579.689 461.584C580.017 461.584 580.313 461.661 580.578 461.816C580.842 461.971 581.054 462.204 581.213 462.513C581.373 462.823 581.453 463.202 581.453 463.648Z"/>
<path d="M595.179 461.912L595.589 461.912L595.589 459.67C595.589 459.068 595.605 458.596 595.637 458.255C595.669 457.913 595.758 457.619 595.904 457.373C596.05 457.118 596.259 456.91 596.533 456.751C596.806 456.591 597.112 456.511 597.449 456.511C597.923 456.511 598.351 456.689 598.734 457.045C598.989 457.282 599.151 457.571 599.219 457.913C599.288 458.255 599.322 458.74 599.322 459.369L599.322 461.912L600.689 461.912C601.218 461.912 601.621 462.037 601.899 462.288C602.177 462.539 602.316 462.86 602.316 463.252C602.316 463.753 602.118 464.104 601.721 464.304C601.325 464.505 600.757 464.605 600.019 464.605L599.322 464.605L599.322 471.469C599.322 472.052 599.342 472.501 599.383 472.815C599.424 473.13 599.534 473.385 599.711 473.581C599.889 473.777 600.179 473.875 600.58 473.875C600.798 473.875 601.095 473.836 601.468 473.759C601.842 473.681 602.134 473.642 602.343 473.642C602.644 473.642 602.915 473.763 603.157 474.005C603.398 474.246 603.519 474.545 603.519 474.9C603.519 475.502 603.191 475.962 602.535 476.281C601.878 476.6 600.935 476.76 599.705 476.76C598.538 476.76 597.654 476.564 597.052 476.172C596.451 475.78 596.056 475.237 595.87 474.545C595.683 473.852 595.589 472.927 595.589 471.769L595.589 464.605L595.097 464.605C594.559 464.605 594.149 464.478 593.867 464.222C593.584 463.967 593.443 463.644 593.443 463.252C593.443 462.86 593.591 462.539 593.887 462.288C594.183 462.037 594.614 461.912 595.179 461.912Z"/>
</g>
<g fill="#122358" opacity="1" stroke="none">
<path d="M201.312 370.553L214.695 390.803L214.695 370.365C214.695 369.037 214.98 368.041 215.55 367.377C216.12 366.713 216.89 366.381 217.859 366.381C218.859 366.381 219.648 366.713 220.226 367.377C220.804 368.041 221.093 369.037 221.093 370.365L221.093 397.389C221.093 400.404 219.843 401.912 217.343 401.912C216.718 401.912 216.156 401.822 215.656 401.643C215.156 401.463 214.687 401.178 214.249 400.787C213.812 400.396 213.406 399.939 213.031 399.416C212.656 398.893 212.281 398.357 211.906 397.81L198.851 377.795L198.851 397.928C198.851 399.24 198.546 400.232 197.937 400.904C197.327 401.576 196.546 401.912 195.593 401.912C194.609 401.912 193.82 401.572 193.226 400.893C192.632 400.213 192.335 399.225 192.335 397.928L192.335 371.42C192.335 370.295 192.46 369.412 192.71 368.771C193.007 368.068 193.499 367.494 194.187 367.049C194.874 366.603 195.617 366.381 196.413 366.381C197.038 366.381 197.574 366.482 198.019 366.685C198.464 366.889 198.855 367.162 199.191 367.506C199.527 367.85 199.87 368.295 200.222 368.842C200.574 369.389 200.937 369.959 201.312 370.553Z"/>
<path d="M251.351 372.334L235.671 372.334L235.671 380.771L250.109 380.771C251.171 380.771 251.964 381.01 252.488 381.486C253.011 381.963 253.273 382.592 253.273 383.373C253.273 384.154 253.015 384.791 252.499 385.283C251.984 385.775 251.187 386.021 250.109 386.021L235.671 386.021L235.671 395.795L251.89 395.795C252.984 395.795 253.808 396.049 254.363 396.557C254.917 397.064 255.195 397.74 255.195 398.584C255.195 399.396 254.917 400.057 254.363 400.564C253.808 401.072 252.984 401.326 251.89 401.326L232.976 401.326C231.46 401.326 230.37 400.99 229.706 400.318C229.042 399.646 228.71 398.56 228.71 397.06L228.71 371.232C228.71 370.232 228.859 369.416 229.156 368.783C229.452 368.15 229.917 367.689 230.55 367.4C231.183 367.111 231.992 366.967 232.976 366.967L251.351 366.967C252.46 366.967 253.285 367.213 253.824 367.705C254.363 368.197 254.632 368.842 254.632 369.639C254.632 370.451 254.363 371.103 253.824 371.596C253.285 372.088 252.46 372.334 251.351 372.334Z"/>
</g>
<g fill="#122358" opacity="1" stroke="none">
<path d="M349.233 397.101L349.233 396.075C348.276 397.286 347.271 398.302 346.216 399.122C345.161 399.942 344.009 400.553 342.759 400.953C341.509 401.354 340.083 401.554 338.481 401.554C336.548 401.554 334.814 401.153 333.281 400.353C331.748 399.552 330.562 398.448 329.722 397.042C328.726 395.343 328.228 392.901 328.228 389.718L328.228 373.868C328.228 372.267 328.589 371.07 329.312 370.279C330.034 369.488 330.991 369.093 332.183 369.093C333.394 369.093 334.37 369.493 335.112 370.294C335.855 371.095 336.226 372.286 336.226 373.868L336.226 386.671C336.226 388.526 336.382 390.084 336.694 391.344C337.007 392.604 337.568 393.59 338.379 394.303C339.189 395.016 340.288 395.372 341.675 395.372C343.022 395.372 344.292 394.972 345.483 394.171C346.675 393.37 347.544 392.325 348.091 391.036C348.54 389.903 348.765 387.423 348.765 383.595L348.765 373.868C348.765 372.286 349.136 371.095 349.878 370.294C350.62 369.493 351.587 369.093 352.778 369.093C353.97 369.093 354.927 369.488 355.649 370.279C356.372 371.07 356.733 372.267 356.733 373.868L356.733 397.042C356.733 398.566 356.387 399.708 355.693 400.47C355 401.232 354.106 401.612 353.013 401.612C351.919 401.612 351.016 401.217 350.303 400.426C349.59 399.635 349.233 398.526 349.233 397.101Z"/>
<path d="M390.454 391.153C390.454 393.36 389.917 395.25 388.843 396.822C387.769 398.395 386.182 399.586 384.082 400.397C381.982 401.207 379.429 401.612 376.421 401.612C373.55 401.612 371.089 401.173 369.038 400.294C366.987 399.415 365.474 398.317 364.497 396.998C363.521 395.68 363.032 394.357 363.032 393.028C363.032 392.15 363.345 391.398 363.97 390.773C364.595 390.148 365.386 389.835 366.343 389.835C367.183 389.835 367.827 390.04 368.276 390.45C368.726 390.86 369.155 391.437 369.565 392.179C370.386 393.605 371.367 394.669 372.51 395.372C373.652 396.075 375.21 396.427 377.183 396.427C378.784 396.427 380.098 396.07 381.123 395.358C382.148 394.645 382.661 393.829 382.661 392.911C382.661 391.505 382.129 390.48 381.064 389.835C380 389.191 378.247 388.575 375.806 387.989C373.052 387.306 370.811 386.588 369.082 385.836C367.354 385.084 365.972 384.093 364.937 382.862C363.901 381.632 363.384 380.118 363.384 378.321C363.384 376.72 363.862 375.206 364.819 373.78C365.776 372.355 367.188 371.217 369.053 370.367C370.918 369.518 373.169 369.093 375.806 369.093C377.876 369.093 379.736 369.308 381.387 369.737C383.037 370.167 384.414 370.743 385.518 371.466C386.621 372.189 387.461 372.989 388.037 373.868C388.613 374.747 388.901 375.607 388.901 376.446C388.901 377.364 388.594 378.116 387.979 378.702C387.363 379.288 386.489 379.581 385.356 379.581C384.536 379.581 383.838 379.347 383.262 378.878C382.686 378.409 382.026 377.706 381.284 376.769C380.679 375.987 379.966 375.362 379.146 374.894C378.325 374.425 377.212 374.191 375.806 374.191C374.36 374.191 373.159 374.498 372.202 375.113C371.245 375.729 370.767 376.495 370.767 377.413C370.767 378.253 371.118 378.942 371.821 379.479C372.524 380.016 373.472 380.46 374.663 380.812C375.855 381.163 377.495 381.593 379.585 382.101C382.065 382.706 384.092 383.429 385.664 384.269C387.236 385.109 388.428 386.1 389.238 387.242C390.049 388.385 390.454 389.689 390.454 391.153Z"/>
</g>
<g fill="#000120" opacity="1" stroke="none">
<path d="M200.401 509.615L202.442 509.615L202.442 522.884L210.071 522.884L210.071 524.678L200.401 524.678L200.401 509.615Z"/>
<path d="M211.835 513.748L213.711 513.748L213.711 524.678L211.835 524.678L211.835 513.748ZM211.835 509.615L213.711 509.615L213.711 511.707L211.835 511.707L211.835 509.615Z"/>
<path d="M220.735 513.379C221.972 513.379 222.979 513.679 223.755 514.281C224.531 514.883 224.997 515.918 225.154 517.388L223.36 517.388C223.251 516.711 223.001 516.149 222.611 515.701C222.222 515.253 221.596 515.03 220.735 515.03C219.559 515.03 218.718 515.604 218.213 516.752C217.884 517.497 217.72 518.417 217.72 519.51C217.72 520.611 217.953 521.537 218.418 522.289C218.882 523.041 219.614 523.417 220.612 523.417C221.378 523.417 221.984 523.183 222.432 522.715C222.88 522.247 223.189 521.606 223.36 520.792L225.154 520.792C224.949 522.248 224.437 523.313 223.616 523.986C222.796 524.66 221.747 524.996 220.468 524.996C219.033 524.996 217.888 524.472 217.033 523.422C216.179 522.373 215.752 521.062 215.752 519.49C215.752 517.562 216.22 516.062 217.156 514.989C218.093 513.915 219.286 513.379 220.735 513.379Z"/>
<path d="M231.573 513.45C232.353 513.45 233.108 513.633 233.839 513.999C234.571 514.365 235.128 514.838 235.511 515.419C235.88 515.973 236.126 516.619 236.249 517.357C236.358 517.863 236.413 518.67 236.413 519.777L228.364 519.777C228.398 520.891 228.661 521.785 229.153 522.458C229.646 523.132 230.408 523.468 231.44 523.468C232.404 523.468 233.173 523.151 233.747 522.515C234.075 522.146 234.308 521.718 234.444 521.233L236.259 521.233C236.212 521.636 236.053 522.086 235.783 522.582C235.513 523.077 235.21 523.482 234.875 523.797C234.315 524.343 233.621 524.713 232.794 524.904C232.349 525.013 231.847 525.068 231.286 525.068C229.919 525.068 228.76 524.571 227.81 523.576C226.86 522.582 226.385 521.189 226.385 519.398C226.385 517.634 226.863 516.202 227.82 515.101C228.777 514.001 230.028 513.45 231.573 513.45ZM234.516 518.311C234.441 517.511 234.267 516.872 233.993 516.393C233.487 515.505 232.643 515.06 231.461 515.06C230.613 515.06 229.902 515.366 229.328 515.978C228.754 516.59 228.449 517.367 228.415 518.311L234.516 518.311Z"/>
<path d="M238.679 513.697L240.433 513.697L240.433 515.255C240.952 514.613 241.503 514.151 242.084 513.871C242.665 513.591 243.311 513.45 244.022 513.45C245.58 513.45 246.633 513.994 247.18 515.081C247.481 515.676 247.631 516.527 247.631 517.634L247.631 524.678L245.754 524.678L245.754 517.757C245.754 517.087 245.655 516.547 245.457 516.137C245.129 515.453 244.534 515.112 243.673 515.112C243.235 515.112 242.877 515.156 242.596 515.245C242.09 515.395 241.646 515.696 241.263 516.147C240.956 516.51 240.756 516.884 240.663 517.27C240.571 517.656 240.525 518.208 240.525 518.926L240.525 524.678L238.679 524.678L238.679 513.697Z"/>
<path d="M251.456 521.233C251.51 521.848 251.664 522.32 251.917 522.648C252.382 523.243 253.189 523.54 254.337 523.54C255.021 523.54 255.622 523.392 256.142 523.094C256.661 522.797 256.921 522.337 256.921 521.715C256.921 521.243 256.713 520.885 256.296 520.638C256.029 520.488 255.503 520.314 254.716 520.115L253.25 519.746C252.314 519.514 251.623 519.254 251.179 518.967C250.386 518.468 249.989 517.778 249.989 516.896C249.989 515.857 250.364 515.016 251.112 514.373C251.861 513.731 252.867 513.409 254.132 513.409C255.786 513.409 256.979 513.895 257.711 514.865C258.169 515.481 258.391 516.144 258.377 516.855L256.634 516.855C256.6 516.438 256.453 516.058 256.193 515.717C255.769 515.231 255.034 514.989 253.988 514.989C253.291 514.989 252.763 515.122 252.404 515.388C252.045 515.655 251.866 516.007 251.866 516.445C251.866 516.923 252.102 517.306 252.573 517.593C252.847 517.764 253.25 517.914 253.783 518.044L255.004 518.342C256.33 518.663 257.218 518.974 257.67 519.275C258.387 519.746 258.746 520.488 258.746 521.5C258.746 522.477 258.375 523.322 257.634 524.032C256.892 524.743 255.762 525.099 254.245 525.099C252.611 525.099 251.454 524.728 250.774 523.986C250.094 523.245 249.73 522.327 249.682 521.233L251.456 521.233Z"/>
<path d="M265.432 513.45C266.211 513.45 266.966 513.633 267.698 513.999C268.429 514.365 268.986 514.838 269.369 515.419C269.738 515.973 269.984 516.619 270.108 517.357C270.217 517.863 270.272 518.67 270.272 519.777L262.222 519.777C262.256 520.891 262.52 521.785 263.012 522.458C263.504 523.132 264.266 523.468 265.298 523.468C266.262 523.468 267.031 523.151 267.606 522.515C267.934 522.146 268.166 521.718 268.303 521.233L270.118 521.233C270.07 521.636 269.911 522.086 269.641 522.582C269.371 523.077 269.068 523.482 268.733 523.797C268.173 524.343 267.479 524.713 266.652 524.904C266.208 525.013 265.705 525.068 265.145 525.068C263.777 525.068 262.619 524.571 261.669 523.576C260.718 522.582 260.243 521.189 260.243 519.398C260.243 517.634 260.722 516.202 261.679 515.101C262.636 514.001 263.887 513.45 265.432 513.45ZM268.375 518.311C268.299 517.511 268.125 516.872 267.852 516.393C267.346 515.505 266.502 515.06 265.319 515.06C264.471 515.06 263.76 515.366 263.186 515.978C262.612 516.59 262.308 517.367 262.274 518.311L268.375 518.311Z"/>
<path d="M272.056 517.88L277.203 517.88L277.203 519.777L272.056 519.777L272.056 517.88Z"/>
<path d="M279.387 509.564L281.182 509.564L281.182 515.03C281.585 514.503 282.067 514.102 282.628 513.825C283.188 513.548 283.796 513.409 284.453 513.409C285.82 513.409 286.929 513.879 287.78 514.819C288.631 515.759 289.057 517.145 289.057 518.977C289.057 520.714 288.636 522.156 287.796 523.304C286.955 524.453 285.789 525.027 284.299 525.027C283.465 525.027 282.761 524.825 282.187 524.422C281.845 524.183 281.479 523.8 281.089 523.274L281.089 524.678L279.387 524.678L279.387 509.564ZM284.186 523.397C285.184 523.397 285.931 523 286.427 522.207C286.922 521.414 287.17 520.368 287.17 519.07C287.17 517.914 286.922 516.957 286.427 516.198C285.931 515.44 285.201 515.06 284.237 515.06C283.397 515.06 282.66 515.371 282.028 515.993C281.395 516.615 281.079 517.641 281.079 519.07C281.079 520.102 281.209 520.939 281.469 521.582C281.954 522.792 282.86 523.397 284.186 523.397Z"/>
<path d="M295.568 523.489C296.792 523.489 297.631 523.026 298.085 522.1C298.54 521.173 298.767 520.143 298.767 519.008C298.767 517.983 298.603 517.149 298.275 516.506C297.755 515.494 296.86 514.989 295.588 514.989C294.461 514.989 293.64 515.419 293.128 516.281C292.615 517.142 292.358 518.181 292.358 519.398C292.358 520.567 292.615 521.541 293.128 522.32C293.64 523.099 294.454 523.489 295.568 523.489ZM295.64 513.379C297.055 513.379 298.251 513.85 299.229 514.794C300.206 515.737 300.695 517.125 300.695 518.957C300.695 520.727 300.264 522.19 299.403 523.345C298.542 524.501 297.205 525.078 295.394 525.078C293.883 525.078 292.683 524.567 291.795 523.545C290.906 522.523 290.462 521.151 290.462 519.428C290.462 517.583 290.93 516.113 291.866 515.019C292.803 513.926 294.061 513.379 295.64 513.379Z"/>
<path d="M302.889 513.697L304.643 513.697L304.643 515.255C305.162 514.613 305.713 514.151 306.294 513.871C306.875 513.591 307.521 513.45 308.232 513.45C309.79 513.45 310.843 513.994 311.39 515.081C311.691 515.676 311.841 516.527 311.841 517.634L311.841 524.678L309.964 524.678L309.964 517.757C309.964 517.087 309.865 516.547 309.667 516.137C309.339 515.453 308.744 515.112 307.883 515.112C307.445 515.112 307.087 515.156 306.806 515.245C306.3 515.395 305.856 515.696 305.473 516.147C305.166 516.51 304.966 516.884 304.873 517.27C304.781 517.656 304.735 518.208 304.735 518.926L304.735 524.678L302.889 524.678L302.889 513.697Z"/>
<path d="M315.737 519.316C315.737 520.491 315.987 521.476 316.486 522.269C316.985 523.062 317.785 523.458 318.885 523.458C319.74 523.458 320.442 523.091 320.993 522.356C321.543 521.621 321.818 520.567 321.818 519.193C321.818 517.805 321.534 516.778 320.967 516.111C320.4 515.445 319.699 515.112 318.865 515.112C317.935 515.112 317.181 515.467 316.604 516.178C316.026 516.889 315.737 517.935 315.737 519.316ZM318.516 513.502C319.357 513.502 320.061 513.679 320.629 514.035C320.957 514.24 321.329 514.599 321.746 515.112L321.746 509.564L323.52 509.564L323.52 524.678L321.859 524.678L321.859 523.151C321.428 523.827 320.919 524.316 320.331 524.617C319.743 524.918 319.07 525.068 318.311 525.068C317.088 525.068 316.028 524.554 315.132 523.525C314.237 522.496 313.789 521.127 313.789 519.418C313.789 517.819 314.198 516.433 315.015 515.26C315.831 514.088 316.999 513.502 318.516 513.502Z"/>
<path d="M330.821 513.45C331.6 513.45 332.356 513.633 333.087 513.999C333.818 514.365 334.376 514.838 334.758 515.419C335.128 515.973 335.374 516.619 335.497 517.357C335.606 517.863 335.661 518.67 335.661 519.777L327.611 519.777C327.646 520.891 327.909 521.785 328.401 522.458C328.893 523.132 329.655 523.468 330.688 523.468C331.651 523.468 332.421 523.151 332.995 522.515C333.323 522.146 333.555 521.718 333.692 521.233L335.507 521.233C335.459 521.636 335.3 522.086 335.03 522.582C334.76 523.077 334.458 523.482 334.123 523.797C333.562 524.343 332.868 524.713 332.041 524.904C331.597 525.013 331.094 525.068 330.534 525.068C329.167 525.068 328.008 524.571 327.058 523.576C326.108 522.582 325.632 521.189 325.632 519.398C325.632 517.634 326.111 516.202 327.068 515.101C328.025 514.001 329.276 513.45 330.821 513.45ZM333.764 518.311C333.689 517.511 333.514 516.872 333.241 516.393C332.735 515.505 331.891 515.06 330.708 515.06C329.86 515.06 329.15 515.366 328.575 515.978C328.001 516.59 327.697 517.367 327.663 518.311L333.764 518.311Z"/>
<path d="M339.096 519.316C339.096 520.491 339.345 521.476 339.844 522.269C340.343 523.062 341.143 523.458 342.244 523.458C343.098 523.458 343.801 523.091 344.351 522.356C344.901 521.621 345.176 520.567 345.176 519.193C345.176 517.805 344.893 516.778 344.325 516.111C343.758 515.445 343.057 515.112 342.223 515.112C341.294 515.112 340.54 515.467 339.962 516.178C339.385 516.889 339.096 517.935 339.096 519.316ZM341.875 513.502C342.715 513.502 343.42 513.679 343.987 514.035C344.315 514.24 344.688 514.599 345.105 515.112L345.105 509.564L346.879 509.564L346.879 524.678L345.217 524.678L345.217 523.151C344.787 523.827 344.277 524.316 343.69 524.617C343.102 524.918 342.428 525.068 341.67 525.068C340.446 525.068 339.386 524.554 338.491 523.525C337.595 522.496 337.148 521.127 337.148 519.418C337.148 517.819 337.556 516.433 338.373 515.26C339.19 514.088 340.357 513.502 341.875 513.502Z"/>
<path d="M349.124 517.88L354.272 517.88L354.272 519.777L349.124 519.777L349.124 517.88Z"/>
<path d="M356.599 513.748L358.476 513.748L358.476 524.678L356.599 524.678L356.599 513.748ZM356.599 509.615L358.476 509.615L358.476 511.707L356.599 511.707L356.599 509.615Z"/>
<path d="M361.265 513.697L363.018 513.697L363.018 515.255C363.538 514.613 364.088 514.151 364.669 513.871C365.25 513.591 365.896 513.45 366.607 513.45C368.166 513.45 369.218 513.994 369.765 515.081C370.066 515.676 370.216 516.527 370.216 517.634L370.216 524.678L368.34 524.678L368.34 517.757C368.34 517.087 368.241 516.547 368.043 516.137C367.714 515.453 367.12 515.112 366.258 515.112C365.821 515.112 365.462 515.156 365.182 515.245C364.676 515.395 364.232 515.696 363.849 516.147C363.541 516.51 363.341 516.884 363.249 517.27C363.157 517.656 363.11 518.208 363.11 518.926L363.11 524.678L361.265 524.678L361.265 513.697Z"/>
<path d="M374.041 521.233C374.096 521.848 374.25 522.32 374.503 522.648C374.967 523.243 375.774 523.54 376.922 523.54C377.606 523.54 378.208 523.392 378.727 523.094C379.247 522.797 379.506 522.337 379.506 521.715C379.506 521.243 379.298 520.885 378.881 520.638C378.614 520.488 378.088 520.314 377.302 520.115L375.836 519.746C374.899 519.514 374.209 519.254 373.764 518.967C372.971 518.468 372.575 517.778 372.575 516.896C372.575 515.857 372.949 515.016 373.698 514.373C374.446 513.731 375.453 513.409 376.717 513.409C378.372 513.409 379.565 513.895 380.296 514.865C380.754 515.481 380.976 516.144 380.963 516.855L379.219 516.855C379.185 516.438 379.038 516.058 378.778 515.717C378.355 515.231 377.62 514.989 376.574 514.989C375.877 514.989 375.348 515.122 374.99 515.388C374.631 515.655 374.451 516.007 374.451 516.445C374.451 516.923 374.687 517.306 375.159 517.593C375.432 517.764 375.836 517.914 376.369 518.044L377.589 518.342C378.915 518.663 379.804 518.974 380.255 519.275C380.973 519.746 381.332 520.488 381.332 521.5C381.332 522.477 380.961 523.322 380.219 524.032C379.477 524.743 378.348 525.099 376.83 525.099C375.196 525.099 374.039 524.728 373.359 523.986C372.679 523.245 372.315 522.327 372.267 521.233L374.041 521.233Z"/>
<path d="M385.29 513.697L385.29 520.987C385.29 521.548 385.379 522.006 385.556 522.361C385.884 523.017 386.496 523.345 387.392 523.345C388.677 523.345 389.552 522.771 390.017 521.623C390.27 521.008 390.396 520.163 390.396 519.09L390.396 513.697L392.242 513.697L392.242 524.678L390.499 524.678L390.519 523.058C390.28 523.475 389.983 523.827 389.627 524.114C388.923 524.689 388.068 524.976 387.064 524.976C385.498 524.976 384.432 524.453 383.864 523.407C383.557 522.846 383.403 522.098 383.403 521.161L383.403 513.697L385.29 513.697Z"/>
<path d="M395.174 513.697L396.928 513.697L396.928 515.593C397.071 515.224 397.423 514.775 397.984 514.245C398.545 513.715 399.191 513.45 399.922 513.45C399.956 513.45 400.014 513.454 400.096 513.461C400.178 513.468 400.318 513.481 400.517 513.502L400.517 515.45C400.407 515.429 400.306 515.416 400.214 515.409C400.122 515.402 400.021 515.399 399.912 515.399C398.982 515.399 398.268 515.698 397.769 516.296C397.27 516.894 397.02 517.583 397.02 518.362L397.02 524.678L395.174 524.678L395.174 513.697Z"/>
<path d="M406.69 513.45C407.469 513.45 408.224 513.633 408.956 513.999C409.687 514.365 410.244 514.838 410.627 515.419C410.996 515.973 411.242 516.619 411.365 517.357C411.475 517.863 411.529 518.67 411.529 519.777L403.48 519.777C403.514 520.891 403.777 521.785 404.27 522.458C404.762 523.132 405.524 523.468 406.556 523.468C407.52 523.468 408.289 523.151 408.863 522.515C409.192 522.146 409.424 521.718 409.561 521.233L411.376 521.233C411.328 521.636 411.169 522.086 410.899 522.582C410.629 523.077 410.326 523.482 409.991 523.797C409.431 524.343 408.737 524.713 407.91 524.904C407.465 525.013 406.963 525.068 406.402 525.068C405.035 525.068 403.877 524.571 402.926 523.576C401.976 522.582 401.501 521.189 401.501 519.398C401.501 517.634 401.98 516.202 402.937 515.101C403.894 514.001 405.145 513.45 406.69 513.45ZM409.632 518.311C409.557 517.511 409.383 516.872 409.109 516.393C408.604 515.505 407.759 515.06 406.577 515.06C405.729 515.06 405.018 515.366 404.444 515.978C403.87 516.59 403.566 517.367 403.531 518.311L409.632 518.311Z"/>
<path d="M414.964 519.316C414.964 520.491 415.214 521.476 415.713 522.269C416.212 523.062 417.012 523.458 418.112 523.458C418.967 523.458 419.669 523.091 420.22 522.356C420.77 521.621 421.045 520.567 421.045 519.193C421.045 517.805 420.761 516.778 420.194 516.111C419.627 515.445 418.926 515.112 418.092 515.112C417.162 515.112 416.409 515.467 415.831 516.178C415.253 516.889 414.964 517.935 414.964 519.316ZM417.743 513.502C418.584 513.502 419.288 513.679 419.856 514.035C420.184 514.24 420.556 514.599 420.973 515.112L420.973 509.564L422.747 509.564L422.747 524.678L421.086 524.678L421.086 523.151C420.655 523.827 420.146 524.316 419.558 524.617C418.97 524.918 418.297 525.068 417.538 525.068C416.315 525.068 415.255 524.554 414.359 523.525C413.464 522.496 413.016 521.127 413.016 519.418C413.016 517.819 413.425 516.433 414.242 515.26C415.058 514.088 416.226 513.502 417.743 513.502Z"/>
<path d="M425.916 522.443L428.059 522.443L428.059 524.678L425.916 524.678L425.916 522.443Z"/>
<path d="M444.393 516.516C445.35 516.516 446.107 516.325 446.664 515.942C447.222 515.559 447.5 514.869 447.5 513.871C447.5 512.798 447.11 512.066 446.331 511.676C445.914 511.471 445.357 511.369 444.66 511.369L439.676 511.369L439.676 516.516L444.393 516.516ZM437.636 509.615L444.608 509.615C445.757 509.615 446.704 509.783 447.449 510.118C448.864 510.76 449.571 511.947 449.571 513.676C449.571 514.578 449.385 515.317 449.013 515.891C448.64 516.465 448.119 516.926 447.449 517.275C448.037 517.514 448.479 517.829 448.777 518.218C449.074 518.608 449.24 519.24 449.274 520.115L449.346 522.135C449.366 522.71 449.414 523.137 449.489 523.417C449.612 523.896 449.831 524.203 450.146 524.34L450.146 524.678L447.644 524.678C447.575 524.549 447.521 524.381 447.48 524.176C447.439 523.971 447.404 523.574 447.377 522.987L447.254 520.474C447.206 519.49 446.84 518.83 446.157 518.495C445.767 518.311 445.155 518.218 444.321 518.218L439.676 518.218L439.676 524.678L437.636 524.678L437.636 509.615Z"/>
<path d="M459.056 509.205C461.715 509.205 463.684 510.06 464.963 511.769C465.961 513.102 466.46 514.807 466.46 516.885C466.46 519.135 465.889 521.004 464.747 522.494C463.407 524.244 461.497 525.119 459.015 525.119C456.698 525.119 454.876 524.354 453.55 522.822C452.367 521.346 451.776 519.48 451.776 517.224C451.776 515.187 452.282 513.444 453.294 511.994C454.592 510.135 456.513 509.205 459.056 509.205ZM459.261 523.294C461.059 523.294 462.36 522.65 463.163 521.361C463.966 520.073 464.368 518.591 464.368 516.916C464.368 515.146 463.905 513.72 462.978 512.64C462.052 511.56 460.786 511.02 459.179 511.02C457.621 511.02 456.349 511.555 455.365 512.625C454.38 513.695 453.888 515.272 453.888 517.357C453.888 519.025 454.31 520.432 455.155 521.577C455.999 522.722 457.368 523.294 459.261 523.294Z"/>
<path d="M475.237 509.205C477.144 509.205 478.624 509.708 479.677 510.713C480.73 511.718 481.314 512.859 481.43 514.137L479.441 514.137C479.215 513.167 478.766 512.398 478.093 511.83C477.419 511.263 476.474 510.979 475.257 510.979C473.774 510.979 472.576 511.5 471.663 512.543C470.751 513.585 470.295 515.183 470.295 517.337C470.295 519.1 470.706 520.531 471.53 521.628C472.354 522.725 473.583 523.274 475.216 523.274C476.72 523.274 477.865 522.696 478.651 521.541C479.068 520.932 479.379 520.133 479.585 519.141L481.574 519.141C481.396 520.727 480.808 522.057 479.81 523.13C478.614 524.422 477.001 525.068 474.97 525.068C473.22 525.068 471.751 524.538 470.561 523.479C468.996 522.077 468.213 519.914 468.213 516.988C468.213 514.766 468.801 512.945 469.977 511.523C471.248 509.978 473.002 509.205 475.237 509.205Z"/>
<path d="M482.763 518.926L485.152 518.926L486.116 515.399L483.737 515.399L484.055 514.209L486.434 514.209L487.654 509.615L489.182 509.615L487.942 514.209L490.208 514.209L491.469 509.615L492.976 509.615L491.735 514.209L494.114 514.209L493.796 515.399L491.418 515.399L490.443 518.926L492.833 518.926L492.515 520.115L490.156 520.115L488.895 524.678L487.388 524.678L488.629 520.115L486.342 520.115L485.122 524.678L483.594 524.678L484.835 520.115L482.456 520.115L482.763 518.926ZM488.916 518.926L489.89 515.399L487.624 515.399L486.68 518.926L488.916 518.926Z"/>
<path d="M505.424 525.078C503.688 525.078 502.429 524.602 501.646 523.648C500.863 522.694 500.472 521.534 500.472 520.167L502.4 520.167C502.482 521.117 502.659 521.807 502.933 522.238C503.411 523.01 504.276 523.397 505.527 523.397C506.498 523.397 507.277 523.137 507.865 522.617C508.453 522.098 508.747 521.428 508.747 520.608C508.747 519.596 508.437 518.888 507.819 518.485C507.2 518.082 506.34 517.88 505.24 517.88C505.117 517.88 504.992 517.882 504.866 517.885C504.739 517.889 504.611 517.894 504.481 517.901L504.481 516.27C504.672 516.291 504.833 516.304 504.963 516.311C505.093 516.318 505.233 516.322 505.383 516.322C506.074 516.322 506.641 516.212 507.086 515.993C507.865 515.611 508.254 514.927 508.254 513.943C508.254 513.211 507.995 512.647 507.475 512.251C506.956 511.854 506.351 511.656 505.66 511.656C504.43 511.656 503.579 512.066 503.107 512.886C502.847 513.338 502.7 513.98 502.666 514.814L500.841 514.814C500.841 513.72 501.06 512.791 501.497 512.025C502.249 510.658 503.572 509.974 505.465 509.974C506.963 509.974 508.121 510.308 508.942 510.974C509.762 511.641 510.172 512.606 510.172 513.871C510.172 514.773 509.929 515.505 509.444 516.065C509.143 516.414 508.754 516.687 508.275 516.885C509.047 517.097 509.651 517.506 510.085 518.111C510.519 518.716 510.736 519.456 510.736 520.331C510.736 521.732 510.275 522.874 509.352 523.756C508.429 524.637 507.12 525.078 505.424 525.078Z"/>
<path d="M518.59 519.48L518.59 512.825L513.884 519.48L518.59 519.48ZM518.621 524.678L518.621 521.09L512.182 521.09L512.182 519.285L518.908 509.954L520.467 509.954L520.467 519.48L522.63 519.48L522.63 521.09L520.467 521.09L520.467 524.678L518.621 524.678Z"/>
<path d="M530.27 519.48L530.27 512.825L525.563 519.48L530.27 519.48ZM530.3 524.678L530.3 521.09L523.861 521.09L523.861 519.285L530.588 509.954L532.146 509.954L532.146 519.48L534.31 519.48L534.31 521.09L532.146 521.09L532.146 524.678L530.3 524.678Z"/>
<path d="M535.663 524.678C535.732 523.414 535.993 522.313 536.448 521.377C536.902 520.44 537.789 519.589 539.108 518.823L541.077 517.685C541.959 517.173 542.578 516.735 542.933 516.373C543.494 515.805 543.774 515.156 543.774 514.425C543.774 513.57 543.518 512.892 543.005 512.389C542.492 511.887 541.809 511.635 540.954 511.635C539.69 511.635 538.815 512.114 538.329 513.071C538.069 513.584 537.926 514.295 537.899 515.204L536.022 515.204C536.043 513.926 536.278 512.883 536.73 512.076C537.529 510.655 538.941 509.944 540.964 509.944C542.646 509.944 543.875 510.398 544.651 511.307C545.427 512.217 545.815 513.228 545.815 514.343C545.815 515.518 545.401 516.523 544.574 517.357C544.095 517.843 543.237 518.43 542 519.121L540.595 519.9C539.925 520.269 539.399 520.621 539.016 520.956C538.333 521.551 537.902 522.211 537.724 522.935L545.743 522.935L545.743 524.678L535.663 524.678Z"/>
<path d="M552.398 516.147C553.211 516.147 553.847 515.92 554.305 515.465C554.763 515.011 554.992 514.469 554.992 513.84C554.992 513.293 554.773 512.791 554.336 512.333C553.898 511.875 553.232 511.646 552.336 511.646C551.447 511.646 550.805 511.875 550.408 512.333C550.012 512.791 549.814 513.327 549.814 513.943C549.814 514.633 550.07 515.173 550.583 515.563C551.095 515.952 551.7 516.147 552.398 516.147ZM552.51 523.417C553.365 523.417 554.074 523.187 554.638 522.725C555.202 522.264 555.484 521.575 555.484 520.659C555.484 519.709 555.193 518.988 554.612 518.495C554.031 518.003 553.286 517.757 552.377 517.757C551.495 517.757 550.776 518.008 550.219 518.511C549.661 519.013 549.383 519.709 549.383 520.597C549.383 521.363 549.638 522.024 550.147 522.582C550.656 523.139 551.444 523.417 552.51 523.417ZM549.885 516.855C549.373 516.636 548.973 516.38 548.686 516.086C548.146 515.539 547.876 514.828 547.876 513.953C547.876 512.859 548.272 511.919 549.065 511.133C549.858 510.347 550.983 509.954 552.439 509.954C553.847 509.954 554.951 510.325 555.751 511.066C556.55 511.808 556.95 512.675 556.95 513.666C556.95 514.582 556.718 515.323 556.253 515.891C555.993 516.212 555.59 516.527 555.043 516.834C555.651 517.114 556.13 517.436 556.479 517.798C557.128 518.482 557.453 519.37 557.453 520.464C557.453 521.756 557.019 522.852 556.15 523.75C555.282 524.649 554.055 525.099 552.469 525.099C551.041 525.099 549.832 524.711 548.845 523.935C547.857 523.159 547.363 522.033 547.363 520.556C547.363 519.688 547.575 518.938 547.999 518.306C548.422 517.673 549.051 517.19 549.885 516.855Z"/>
<path d="M564.077 516.147C564.89 516.147 565.526 515.92 565.984 515.465C566.442 515.011 566.671 514.469 566.671 513.84C566.671 513.293 566.452 512.791 566.015 512.333C565.577 511.875 564.911 511.646 564.015 511.646C563.127 511.646 562.484 511.875 562.088 512.333C561.691 512.791 561.493 513.327 561.493 513.943C561.493 514.633 561.749 515.173 562.262 515.563C562.775 515.952 563.379 516.147 564.077 516.147ZM564.19 523.417C565.044 523.417 565.753 523.187 566.317 522.725C566.881 522.264 567.163 521.575 567.163 520.659C567.163 519.709 566.873 518.988 566.292 518.495C565.711 518.003 564.965 517.757 564.056 517.757C563.174 517.757 562.455 518.008 561.898 518.511C561.341 519.013 561.062 519.709 561.062 520.597C561.062 521.363 561.317 522.024 561.826 522.582C562.335 523.139 563.123 523.417 564.19 523.417ZM561.565 516.855C561.052 516.636 560.652 516.38 560.365 516.086C559.825 515.539 559.555 514.828 559.555 513.953C559.555 512.859 559.951 511.919 560.744 511.133C561.537 510.347 562.662 509.954 564.118 509.954C565.526 509.954 566.63 510.325 567.43 511.066C568.23 511.808 568.629 512.675 568.629 513.666C568.629 514.582 568.397 515.323 567.932 515.891C567.672 516.212 567.269 516.527 566.722 516.834C567.331 517.114 567.809 517.436 568.158 517.798C568.807 518.482 569.132 519.37 569.132 520.464C569.132 521.756 568.698 522.852 567.83 523.75C566.962 524.649 565.734 525.099 564.149 525.099C562.72 525.099 561.512 524.711 560.524 523.935C559.536 523.159 559.042 522.033 559.042 520.556C559.042 519.688 559.254 518.938 559.678 518.306C560.102 517.673 560.731 517.19 561.565 516.855Z"/>
</g>
</g>
</svg>
