<?xml version="1.0" encoding="UTF-8" standalone="no"?>
<!DOCTYPE svg PUBLIC "-//W3C//DTD SVG 1.1//EN" "http://www.w3.org/Graphics/SVG/1.1/DTD/svg11.dtd">
<!-- Created with Vectornator (http://vectornator.io/) -->
<svg height="100%" stroke-miterlimit="10" style="fill-rule:nonzero;clip-rule:evenodd;stroke-linecap:round;stroke-linejoin:round;" version="1.1" viewBox="0 0 792 612" width="100%" xml:space="preserve" xmlns="http://www.w3.org/2000/svg" xmlns:xlink="http://www.w3.org/1999/xlink">
<defs/>
<g id="Layer-1">
<g opacity="1">
<path d="M34.6831 24.28C34.6831 286.972 34.6831 286.972 34.6831 549.665C36.0889 549.774 33.8947 540.917 34.0426 542.013C34.9456 548.703 33.816 565.155 33.816 571.889C382.475 572.022 387.454 571.177 736.113 571.311C736.113 297.795 736.113 297.795 736.113 24.28C385.398 24.28 385.398 24.28 34.6831 24.28Z" fill="#fbfdfc" fill-rule="nonzero" opacity="1" stroke="none"/>
<path d="M359.968 163.818C317.389 184.867 287.19 218.427 249.631 244.79C236.714 253.856 224.025 263.121 211.253 272.315C210.08 273.16 199.971 279.851 199.602 280.6C198.566 282.7 199.945 287.459 199.945 289.953C199.945 299.039 200.287 308.124 200.287 317.211C200.287 324.502 199.592 330.641 200.287 338.055C200.311 338.306 200.65 338.581 200.973 338.59C207.137 338.761 213.309 338.574 219.477 338.59C255.342 338.678 291.207 338.59 327.073 338.59C391.265 338.59 455.457 338.946 519.649 338.857C519.972 338.856 520.322 338.574 520.334 338.322C520.585 333.335 521.925 328.299 521.02 323.357C520.974 323.108 520.657 322.827 520.334 322.823C507.315 322.648 494.291 322.907 481.271 322.823C469.29 322.746 456.785 323.039 444.606 322.823C443.572 322.804 442.52 322.768 441.522 322.555C441.21 322.489 440.842 322.273 440.837 322.021C440.612 311.957 440.724 301.889 440.837 291.823C440.942 282.367 425.016 282.47 416.508 282.47C410.807 282.47 402.563 287.46 402.458 291.823C402.239 300.997 402.116 310.173 402.116 319.349C402.116 319.834 402.991 322.773 401.773 322.823C378.054 323.796 353.338 322.555 329.471 322.555C325.244 322.555 321.019 322.907 316.793 322.823C316.47 322.816 316.112 322.54 316.107 322.288C315.882 310.798 316.107 299.306 316.107 287.815C316.107 281.312 315.996 274.809 316.107 268.307C316.114 267.939 316.239 267.566 316.45 267.238C317.952 264.895 326.807 259.428 329.129 257.617C336.047 252.222 343.09 246.729 350.031 241.316C364.478 230.049 379.515 219.289 394.577 208.446C398.852 205.369 403.212 202.355 407.256 199.093C407.414 198.965 407.398 198.697 407.256 198.558C402.967 194.377 395.304 188.603 389.78 185.731C388.715 185.177 384.589 189.512 383.612 190.274C379.328 193.615 374.949 196.88 370.591 200.162C353.134 213.306 335.626 226.371 318.163 239.445C314.492 242.194 310.89 244.998 307.198 247.73C302.592 251.138 298.06 254.693 293.149 257.885C291.925 258.68 287.924 259.602 287.324 257.885C286.25 254.813 290.192 253.94 292.464 252.273C299.156 247.361 306.166 242.388 312.681 237.307C330.966 223.048 350 209.109 369.22 195.619C374.328 192.034 379.214 188.266 384.297 184.662C384.383 184.601 387.399 183.185 387.039 182.791C380.293 175.426 369.706 159.004 359.968 163.818Z" fill="#0a7bc5" fill-rule="nonzero" opacity="1" stroke="none"/>
<path d="M354.486 130.948C340.754 131.578 334.336 138.569 324.331 145.913C314.233 153.325 303.603 160.475 293.834 168.094C290.748 170.5 287.424 172.714 284.24 175.042C282.858 176.052 272.94 182.395 272.932 182.524C272.715 185.816 272.87 189.116 272.932 192.412C272.984 195.175 273.275 197.933 273.275 200.696C273.275 201.947 272.484 203.553 273.617 204.438C284.792 195.723 296.74 187.601 308.226 179.05C318.748 171.217 329.353 163.449 340.094 155.801C343.779 153.177 349.528 148.015 354.828 146.982C370.763 143.875 380.55 155.783 390.808 163.283C408.75 176.402 427.034 189.461 445.634 202.032C473.163 220.639 499.987 240.02 526.845 259.221C530.074 261.529 534.016 263.744 537.125 266.169C542.732 270.542 549.901 277.897 557.342 271.514C559.931 269.292 558.795 264.095 558.712 262.16C558.492 256.996 539.919 246.42 535.411 243.187C532.2 240.882 529.046 238.528 525.817 236.239C523.304 234.457 520.791 232.675 518.278 230.894C485.642 207.755 452.211 185.321 419.934 161.947C409.859 154.651 400.411 146.817 389.78 140.034C386.768 138.112 382.2 133.988 378.129 133.353C371.72 132.353 365.223 130.948 354.486 130.948Z" fill="#7babc6" fill-rule="nonzero" opacity="1" stroke="none"/>
<path d="M244.148 167.559C240.639 167.378 234.592 170.131 234.554 173.438C234.442 183.059 234.407 192.68 234.211 202.3C234.148 205.394 235.278 206.283 233.183 207.644C219.686 216.416 206.964 226.088 194.12 235.437C184.09 242.738 173.279 249.552 163.623 257.083C156.034 263.001 161.161 274.453 171.846 274.453C177.123 274.453 183.85 267.639 186.581 265.634C194.195 260.046 201.76 254.526 209.539 249.066C225.776 237.669 242.065 226.347 258.197 214.86C259.091 214.223 273.947 204.242 273.96 204.17C275.172 197.555 273.83 189.148 273.617 182.524C273.377 175.028 276.106 173.688 268.82 168.361C264.096 164.907 250.368 167.879 244.148 167.559Z" fill="#07074a" fill-rule="nonzero" opacity="1" stroke="none"/>
<path d="M279.443 381.614C272.866 386.743 267.891 393.448 262.309 399.252C258.272 403.45 254.873 407.586 251.002 411.812C247.289 415.865 241.321 420.432 240.036 425.441C238.614 430.988 247.558 432.088 252.03 429.182C262.964 422.076 270.147 409.347 278.415 400.321C281.192 397.288 291.585 390.131 290.065 387.761C292.115 386.163 294.969 383.49 297.261 382.149C298.297 381.543 298.78 382.568 300.345 381.347C293.223 375.793 285.844 370.573 278.757 365.046C275.329 362.372 272.839 358.213 268.135 357.296C261.768 356.055 257.512 359.182 257.512 363.977C257.512 364.856 258.543 365.572 259.225 366.115C264.711 370.477 270.133 374.889 275.673 379.209C277.58 380.697 277.792 380.757 279.443 381.614Z" fill="#0c4392" fill-rule="nonzero" opacity="1" stroke="none"/>
<path d="M300.002 381.08C298.559 381.952 298.245 381.103 297.261 381.614C294.793 382.898 291.317 385.794 289.38 387.494C288.399 388.354 294.212 392.038 294.52 392.304C295.875 393.473 297.203 394.664 298.632 395.778C310.543 405.067 322.715 414.293 334.611 423.57C338.514 426.614 344.965 431.61 349.346 435.596C350.709 436.836 353.209 440.227 355.514 440.406C360.225 440.774 370.951 437.217 366.136 432.389C360.16 426.397 352.432 421.167 345.576 415.821C340.276 411.687 334.421 407.923 329.129 403.795C319.547 396.322 310.573 388.589 300.688 381.347C300.501 381.211 300.204 380.958 300.002 381.08Z" fill="#0a7bc5" fill-rule="nonzero" opacity="1" stroke="none"/>
<path d="M386.353 183.059C383.171 184.299 381.065 186.771 378.472 188.671C373.72 192.152 368.647 195.531 364.08 199.093C346.557 212.759 327.494 225.22 309.939 238.911C304.368 243.256 298.381 247.391 292.806 251.738C290.64 253.428 285.035 254.633 286.638 257.885C289.572 263.834 304.181 250.35 306.856 248.264C310.454 245.458 314.15 242.728 317.821 239.98C323.765 235.53 329.693 231.066 335.639 226.618C343.101 221.036 350.49 215.396 357.912 209.782C368.103 202.075 380.212 194.924 389.095 186.266C386.872 184.244 386.568 185.129 387.381 183.86C386.867 183.46 386.867 183.46 386.353 183.059Z" fill="#daeef0" fill-rule="nonzero" opacity="1" stroke="none"/>
<path d="M376.073 233.032C374.19 233.055 370.659 232.632 370.591 234.101C370.261 241.222 370.368 248.355 370.591 255.479C370.599 255.731 370.953 256.008 371.276 256.014C380.183 256.188 389.101 256.271 398.004 256.014C398.488 256 399.014 255.59 399.032 255.212C399.362 248.001 399.255 240.779 399.032 233.566C399.024 233.314 398.669 233.039 398.346 233.032C390.925 232.859 383.497 232.942 376.073 233.032Z" fill="#28a4df" fill-rule="nonzero" opacity="1" stroke="none"/>
<path d="M448.375 233.032C446.591 233.074 445.999 233.231 445.977 234.635C445.867 241.583 445.522 248.531 445.634 255.479C445.638 255.731 445.996 256.007 446.319 256.014C454.997 256.187 463.687 256.271 472.362 256.014C472.846 256 473.372 255.59 473.39 255.212C473.72 248.091 473.612 240.958 473.39 233.833C473.334 232.043 468.832 233.324 466.536 233.299C460.482 233.232 454.427 232.889 448.375 233.032Z" fill="#28a4df" fill-rule="nonzero" opacity="1" stroke="none"/>
<path d="M296.576 379.209C296.918 378.942 296.918 378.942 297.261 378.675C298.64 379.213 305.361 371.204 306.513 369.856C311.989 363.45 330.57 350.104 319.877 342.598C313.708 338.268 306.497 349.121 304.114 352.219C300.294 357.184 295.656 362.342 291.093 366.917C289.885 368.128 286.981 370.048 286.981 371.727C286.981 373.303 289.637 374.108 291.093 375.201C292.897 376.556 294.748 377.873 296.576 379.209Z" fill="#12bcf2" fill-rule="nonzero" opacity="1" stroke="none"/>
<path d="M519.306 421.967C514.699 422.276 513.743 429.201 518.621 430.786C523.646 432.419 524.592 425.065 522.733 423.036C521.048 421.197 521.369 421.829 519.306 421.967Z" fill="#fbfdfc" fill-rule="nonzero" opacity="1" stroke="none"/>
</g>
<g fill="#737a76" opacity="1" stroke="none">
<path d="M189.425 448.494L189.425 454.236L198.189 454.236L198.189 448.494C198.189 447.674 198.374 447.058 198.743 446.648C199.112 446.238 199.597 446.033 200.199 446.033C200.809 446.033 201.304 446.236 201.682 446.641C202.06 447.047 202.25 447.664 202.25 448.494L202.25 464.285C202.25 465.114 202.058 465.734 201.675 466.144C201.292 466.554 200.8 466.76 200.199 466.76C199.588 466.76 199.1 466.552 198.736 466.137C198.371 465.723 198.189 465.105 198.189 464.285L198.189 457.545L189.425 457.545L189.425 464.285C189.425 465.114 189.234 465.734 188.851 466.144C188.468 466.554 187.976 466.76 187.375 466.76C186.764 466.76 186.276 466.552 185.912 466.137C185.547 465.723 185.365 465.105 185.365 464.285L185.365 448.494C185.365 447.674 185.545 447.058 185.905 446.648C186.265 446.238 186.755 446.033 187.375 446.033C187.985 446.033 188.48 446.236 188.858 446.641C189.236 447.047 189.425 447.664 189.425 448.494Z"/>
<path d="M220.324 459.172C220.324 460.284 220.151 461.309 219.804 462.248C219.458 463.187 218.957 463.993 218.3 464.668C217.644 465.342 216.86 465.859 215.949 466.22C215.037 466.58 214.012 466.76 212.873 466.76C211.742 466.76 210.726 466.577 209.824 466.213C208.921 465.848 208.14 465.326 207.479 464.647C206.818 463.968 206.317 463.166 205.975 462.241C205.633 461.316 205.462 460.293 205.462 459.172C205.462 458.041 205.636 457.007 205.982 456.068C206.328 455.129 206.825 454.327 207.472 453.662C208.119 452.997 208.903 452.484 209.824 452.124C210.744 451.764 211.761 451.584 212.873 451.584C214.003 451.584 215.028 451.766 215.949 452.131C216.869 452.495 217.658 453.015 218.314 453.689C218.97 454.364 219.469 455.166 219.811 456.095C220.153 457.025 220.324 458.051 220.324 459.172ZM216.578 459.172C216.578 457.65 216.243 456.465 215.573 455.617C214.903 454.769 214.003 454.345 212.873 454.345C212.143 454.345 211.501 454.535 210.945 454.913C210.389 455.291 209.96 455.849 209.66 456.588C209.359 457.326 209.209 458.187 209.209 459.172C209.209 460.147 209.357 460.999 209.653 461.728C209.949 462.457 210.373 463.016 210.924 463.403C211.476 463.79 212.125 463.984 212.873 463.984C214.003 463.984 214.903 463.558 215.573 462.706C216.243 461.854 216.578 460.676 216.578 459.172Z"/>
<path d="M235.677 459.445L235.677 464.408C235.677 465.192 235.5 465.78 235.144 466.172C234.789 466.564 234.319 466.76 233.736 466.76C233.171 466.76 232.713 466.564 232.362 466.172C232.011 465.78 231.835 465.192 231.835 464.408L231.835 458.461C231.835 457.522 231.804 456.793 231.74 456.273C231.676 455.754 231.503 455.328 231.22 454.995C230.938 454.662 230.491 454.496 229.88 454.496C228.659 454.496 227.855 454.915 227.467 455.754C227.08 456.592 226.886 457.795 226.886 459.363L226.886 464.408C226.886 465.183 226.711 465.768 226.36 466.165C226.009 466.561 225.546 466.76 224.972 466.76C224.407 466.76 223.945 466.561 223.584 466.165C223.224 465.768 223.044 465.183 223.044 464.408L223.044 453.73C223.044 453.028 223.206 452.495 223.53 452.131C223.853 451.766 224.279 451.584 224.808 451.584C225.319 451.584 225.745 451.755 226.086 452.096C226.428 452.438 226.599 452.91 226.599 453.511L226.599 453.867C227.246 453.092 227.939 452.523 228.677 452.158C229.416 451.793 230.236 451.611 231.138 451.611C232.077 451.611 232.884 451.798 233.558 452.172C234.233 452.545 234.789 453.11 235.226 453.867C235.855 453.101 236.529 452.534 237.25 452.165C237.97 451.796 238.767 451.611 239.642 451.611C240.663 451.611 241.542 451.812 242.281 452.213C243.019 452.614 243.57 453.188 243.935 453.935C244.254 454.61 244.414 455.672 244.414 457.121L244.414 464.408C244.414 465.192 244.236 465.78 243.88 466.172C243.525 466.564 243.056 466.76 242.472 466.76C241.907 466.76 241.445 466.561 241.084 466.165C240.724 465.768 240.544 465.183 240.544 464.408L240.544 458.133C240.544 457.331 240.51 456.688 240.442 456.205C240.374 455.722 240.189 455.316 239.888 454.988C239.587 454.66 239.132 454.496 238.521 454.496C238.029 454.496 237.562 454.642 237.12 454.933C236.678 455.225 236.334 455.617 236.087 456.109C235.814 456.738 235.677 457.85 235.677 459.445Z"/>
<path d="M258.455 460.088L251.154 460.088C251.163 460.935 251.334 461.683 251.667 462.33C251.999 462.977 252.441 463.465 252.993 463.793C253.544 464.121 254.153 464.285 254.818 464.285C255.264 464.285 255.672 464.233 256.042 464.128C256.411 464.023 256.768 463.859 257.115 463.636C257.461 463.412 257.78 463.173 258.072 462.918C258.363 462.663 258.742 462.316 259.207 461.879C259.398 461.715 259.671 461.633 260.027 461.633C260.41 461.633 260.72 461.737 260.957 461.947C261.194 462.157 261.312 462.453 261.312 462.836C261.312 463.173 261.18 463.567 260.916 464.018C260.651 464.47 260.252 464.902 259.719 465.317C259.186 465.732 258.516 466.076 257.709 466.349C256.903 466.623 255.975 466.76 254.927 466.76C252.53 466.76 250.666 466.076 249.335 464.709C248.005 463.342 247.339 461.487 247.339 459.144C247.339 458.041 247.503 457.018 247.832 456.075C248.16 455.132 248.638 454.323 249.267 453.648C249.896 452.974 250.671 452.456 251.591 452.096C252.512 451.736 253.533 451.556 254.654 451.556C256.112 451.556 257.363 451.864 258.407 452.479C259.45 453.095 260.232 453.89 260.751 454.865C261.271 455.84 261.531 456.834 261.531 457.845C261.531 458.784 261.262 459.393 260.724 459.671C260.186 459.949 259.43 460.088 258.455 460.088ZM251.154 457.969L257.921 457.969C257.83 456.692 257.486 455.738 256.889 455.104C256.292 454.471 255.506 454.154 254.531 454.154C253.601 454.154 252.838 454.475 252.241 455.118C251.644 455.761 251.281 456.711 251.154 457.969Z"/>
<path d="M277.39 457.845L275.968 457.845L275.968 464.285C275.968 465.133 275.781 465.757 275.408 466.158C275.034 466.559 274.546 466.76 273.945 466.76C273.298 466.76 272.796 466.55 272.441 466.131C272.085 465.711 271.908 465.096 271.908 464.285L271.908 448.863C271.908 447.988 272.104 447.355 272.496 446.963C272.888 446.571 273.521 446.375 274.396 446.375L281 446.375C281.911 446.375 282.69 446.414 283.337 446.491C283.985 446.568 284.568 446.726 285.087 446.963C285.716 447.227 286.272 447.605 286.755 448.097C287.238 448.59 287.605 449.162 287.856 449.813C288.107 450.465 288.232 451.155 288.232 451.885C288.232 453.379 287.81 454.573 286.967 455.467C286.124 456.36 284.846 456.993 283.132 457.367C283.852 457.75 284.541 458.315 285.197 459.062C285.853 459.81 286.439 460.605 286.954 461.448C287.469 462.291 287.87 463.052 288.157 463.731C288.444 464.41 288.587 464.877 288.587 465.133C288.587 465.397 288.503 465.659 288.334 465.919C288.166 466.178 287.936 466.384 287.644 466.534C287.352 466.684 287.015 466.76 286.632 466.76C286.177 466.76 285.794 466.652 285.484 466.438C285.174 466.224 284.907 465.953 284.684 465.625C284.461 465.297 284.158 464.814 283.775 464.176L282.148 461.469C281.565 460.475 281.043 459.719 280.583 459.199C280.122 458.679 279.655 458.324 279.181 458.133C278.707 457.941 278.11 457.845 277.39 457.845ZM279.714 449.424L275.968 449.424L275.968 454.933L279.605 454.933C280.58 454.933 281.401 454.849 282.066 454.68C282.731 454.512 283.239 454.225 283.59 453.819C283.941 453.414 284.117 452.855 284.117 452.144C284.117 451.588 283.975 451.098 283.693 450.675C283.41 450.251 283.018 449.934 282.517 449.724C282.043 449.524 281.109 449.424 279.714 449.424Z"/>
<path d="M301.535 460.088L294.234 460.088C294.243 460.935 294.414 461.683 294.747 462.33C295.079 462.977 295.521 463.465 296.073 463.793C296.624 464.121 297.233 464.285 297.898 464.285C298.345 464.285 298.752 464.233 299.122 464.128C299.491 464.023 299.848 463.859 300.195 463.636C300.541 463.412 300.86 463.173 301.152 462.918C301.444 462.663 301.822 462.316 302.287 461.879C302.478 461.715 302.751 461.633 303.107 461.633C303.49 461.633 303.8 461.737 304.037 461.947C304.274 462.157 304.392 462.453 304.392 462.836C304.392 463.173 304.26 463.567 303.996 464.018C303.731 464.47 303.333 464.902 302.799 465.317C302.266 465.732 301.596 466.076 300.79 466.349C299.983 466.623 299.056 466.76 298.007 466.76C295.61 466.76 293.746 466.076 292.416 464.709C291.085 463.342 290.419 461.487 290.419 459.144C290.419 458.041 290.584 457.018 290.912 456.075C291.24 455.132 291.718 454.323 292.347 453.648C292.976 452.974 293.751 452.456 294.671 452.096C295.592 451.736 296.613 451.556 297.734 451.556C299.192 451.556 300.443 451.864 301.487 452.479C302.53 453.095 303.312 453.89 303.832 454.865C304.351 455.84 304.611 456.834 304.611 457.845C304.611 458.784 304.342 459.393 303.804 459.671C303.266 459.949 302.51 460.088 301.535 460.088ZM294.234 457.969L301.001 457.969C300.91 456.692 300.566 455.738 299.969 455.104C299.372 454.471 298.586 454.154 297.611 454.154C296.681 454.154 295.918 454.475 295.321 455.118C294.724 455.761 294.362 456.711 294.234 457.969Z"/>
<path d="M310.832 453.676L310.832 454.127C311.533 453.261 312.263 452.625 313.019 452.22C313.776 451.814 314.632 451.611 315.589 451.611C316.738 451.611 317.795 451.907 318.761 452.5C319.727 453.092 320.491 453.958 321.051 455.097C321.612 456.237 321.892 457.586 321.892 459.144C321.892 460.293 321.73 461.348 321.407 462.309C321.083 463.271 320.639 464.078 320.074 464.729C319.509 465.381 318.841 465.882 318.071 466.233C317.301 466.584 316.473 466.76 315.589 466.76C314.523 466.76 313.627 466.545 312.903 466.117C312.178 465.689 311.488 465.06 310.832 464.23L310.832 469.836C310.832 471.476 310.235 472.297 309.041 472.297C308.339 472.297 307.874 472.085 307.646 471.661C307.418 471.237 307.304 470.62 307.304 469.808L307.304 453.703C307.304 452.992 307.459 452.461 307.769 452.11C308.079 451.759 308.503 451.584 309.041 451.584C309.569 451.584 310 451.764 310.333 452.124C310.665 452.484 310.832 453.001 310.832 453.676ZM318.146 459.103C318.146 458.119 317.996 457.274 317.695 456.567C317.394 455.861 316.977 455.318 316.444 454.94C315.911 454.562 315.32 454.373 314.673 454.373C313.643 454.373 312.775 454.778 312.069 455.59C311.362 456.401 311.009 457.595 311.009 459.172C311.009 460.657 311.36 461.813 312.062 462.637C312.764 463.462 313.634 463.875 314.673 463.875C315.293 463.875 315.867 463.695 316.396 463.335C316.925 462.975 317.348 462.435 317.667 461.715C317.987 460.995 318.146 460.124 318.146 459.103Z"/>
<path d="M334.32 464.654C333.417 465.356 332.545 465.882 331.702 466.233C330.859 466.584 329.913 466.76 328.865 466.76C327.908 466.76 327.067 466.57 326.342 466.192C325.618 465.814 325.059 465.301 324.667 464.654C324.276 464.007 324.08 463.305 324.08 462.549C324.08 461.528 324.403 460.657 325.05 459.937C325.697 459.217 326.586 458.734 327.716 458.488C327.953 458.433 328.541 458.31 329.48 458.119C330.419 457.928 331.223 457.752 331.893 457.593C332.563 457.433 333.29 457.239 334.074 457.011C334.028 456.027 333.83 455.305 333.479 454.845C333.128 454.384 332.401 454.154 331.298 454.154C330.35 454.154 329.637 454.286 329.159 454.551C328.68 454.815 328.27 455.211 327.928 455.74C327.586 456.269 327.345 456.617 327.204 456.786C327.062 456.955 326.759 457.039 326.294 457.039C325.875 457.039 325.513 456.904 325.208 456.636C324.902 456.367 324.75 456.023 324.75 455.603C324.75 454.947 324.982 454.309 325.447 453.689C325.912 453.069 326.636 452.559 327.621 452.158C328.605 451.757 329.831 451.556 331.298 451.556C332.939 451.556 334.229 451.75 335.167 452.137C336.106 452.525 336.769 453.138 337.157 453.976C337.544 454.815 337.738 455.927 337.738 457.312C337.738 458.187 337.736 458.93 337.731 459.541C337.726 460.151 337.72 460.831 337.71 461.578C337.71 462.28 337.827 463.011 338.059 463.772C338.292 464.533 338.408 465.023 338.408 465.242C338.408 465.625 338.228 465.973 337.868 466.288C337.508 466.602 337.1 466.76 336.644 466.76C336.261 466.76 335.883 466.58 335.509 466.22C335.136 465.859 334.739 465.338 334.32 464.654ZM334.074 459.254C333.527 459.454 332.732 459.666 331.688 459.889C330.644 460.113 329.922 460.277 329.521 460.382C329.12 460.486 328.737 460.692 328.373 460.997C328.008 461.302 327.826 461.728 327.826 462.275C327.826 462.84 328.04 463.321 328.468 463.718C328.897 464.114 329.457 464.312 330.15 464.312C330.888 464.312 331.57 464.15 332.194 463.827C332.818 463.503 333.276 463.086 333.568 462.576C333.905 462.011 334.074 461.081 334.074 459.787L334.074 459.254Z"/>
<path d="M345.257 453.703L345.257 464.49C345.257 465.237 345.08 465.803 344.724 466.185C344.369 466.568 343.917 466.76 343.371 466.76C342.824 466.76 342.379 466.564 342.038 466.172C341.696 465.78 341.525 465.219 341.525 464.49L341.525 453.812C341.525 453.074 341.696 452.518 342.038 452.144C342.379 451.771 342.824 451.584 343.371 451.584C343.917 451.584 344.369 451.771 344.724 452.144C345.08 452.518 345.257 453.038 345.257 453.703ZM343.412 449.847C342.892 449.847 342.448 449.688 342.079 449.369C341.709 449.05 341.525 448.599 341.525 448.015C341.525 447.487 341.714 447.052 342.092 446.71C342.471 446.368 342.91 446.197 343.412 446.197C343.895 446.197 344.323 446.352 344.697 446.662C345.07 446.972 345.257 447.423 345.257 448.015C345.257 448.59 345.075 449.039 344.71 449.362C344.346 449.686 343.913 449.847 343.412 449.847Z"/>
<path d="M352.818 461.373L352.818 464.49C352.818 465.247 352.64 465.814 352.285 466.192C351.929 466.57 351.478 466.76 350.931 466.76C350.393 466.76 349.951 466.568 349.605 466.185C349.259 465.803 349.085 465.237 349.085 464.49L349.085 454.099C349.085 452.422 349.692 451.584 350.904 451.584C351.524 451.584 351.97 451.78 352.244 452.172C352.517 452.564 352.667 453.142 352.695 453.908C353.141 453.142 353.599 452.564 354.069 452.172C354.538 451.78 355.165 451.584 355.949 451.584C356.733 451.584 357.494 451.78 358.232 452.172C358.97 452.564 359.339 453.083 359.339 453.73C359.339 454.186 359.182 454.562 358.868 454.858C358.553 455.154 358.214 455.303 357.849 455.303C357.712 455.303 357.382 455.218 356.858 455.05C356.334 454.881 355.871 454.797 355.47 454.797C354.923 454.797 354.477 454.94 354.13 455.227C353.784 455.514 353.515 455.941 353.324 456.506C353.132 457.071 353 457.743 352.927 458.522C352.854 459.302 352.818 460.252 352.818 461.373Z"/>
<path d="M377.81 464.654C376.908 465.356 376.035 465.882 375.192 466.233C374.349 466.584 373.403 466.76 372.355 466.76C371.398 466.76 370.557 466.57 369.833 466.192C369.108 465.814 368.55 465.301 368.158 464.654C367.766 464.007 367.57 463.305 367.57 462.549C367.57 461.528 367.893 460.657 368.541 459.937C369.188 459.217 370.076 458.734 371.207 458.488C371.444 458.433 372.031 458.31 372.97 458.119C373.909 457.928 374.713 457.752 375.383 457.593C376.053 457.433 376.78 457.239 377.564 457.011C377.518 456.027 377.32 455.305 376.969 454.845C376.618 454.384 375.891 454.154 374.789 454.154C373.841 454.154 373.127 454.286 372.649 454.551C372.17 454.815 371.76 455.211 371.418 455.74C371.077 456.269 370.835 456.617 370.694 456.786C370.553 456.955 370.25 457.039 369.785 457.039C369.365 457.039 369.003 456.904 368.698 456.636C368.392 456.367 368.24 456.023 368.24 455.603C368.24 454.947 368.472 454.309 368.937 453.689C369.402 453.069 370.126 452.559 371.111 452.158C372.095 451.757 373.321 451.556 374.789 451.556C376.429 451.556 377.719 451.75 378.658 452.137C379.597 452.525 380.26 453.138 380.647 453.976C381.034 454.815 381.228 455.927 381.228 457.312C381.228 458.187 381.226 458.93 381.221 459.541C381.217 460.151 381.21 460.831 381.201 461.578C381.201 462.28 381.317 463.011 381.549 463.772C381.782 464.533 381.898 465.023 381.898 465.242C381.898 465.625 381.718 465.973 381.358 466.288C380.998 466.602 380.59 466.76 380.134 466.76C379.751 466.76 379.373 466.58 379 466.22C378.626 465.859 378.229 465.338 377.81 464.654ZM377.564 459.254C377.017 459.454 376.222 459.666 375.178 459.889C374.135 460.113 373.412 460.277 373.011 460.382C372.61 460.486 372.227 460.692 371.863 460.997C371.498 461.302 371.316 461.728 371.316 462.275C371.316 462.84 371.53 463.321 371.959 463.718C372.387 464.114 372.947 464.312 373.64 464.312C374.378 464.312 375.06 464.15 375.684 463.827C376.308 463.503 376.766 463.086 377.058 462.576C377.395 462.011 377.564 461.081 377.564 459.787L377.564 459.254Z"/>
<path d="M388.406 453.648L388.406 454.099C389.062 453.234 389.78 452.598 390.559 452.192C391.338 451.787 392.234 451.584 393.246 451.584C394.23 451.584 395.11 451.798 395.884 452.226C396.659 452.655 397.238 453.261 397.621 454.045C397.867 454.5 398.026 454.993 398.099 455.521C398.172 456.05 398.209 456.724 398.209 457.545L398.209 464.49C398.209 465.237 398.038 465.803 397.696 466.185C397.354 466.568 396.91 466.76 396.363 466.76C395.807 466.76 395.356 466.564 395.009 466.172C394.663 465.78 394.49 465.219 394.49 464.49L394.49 458.269C394.49 457.039 394.319 456.098 393.977 455.446C393.635 454.794 392.954 454.469 391.933 454.469C391.268 454.469 390.662 454.667 390.115 455.063C389.568 455.46 389.167 456.004 388.912 456.697C388.729 457.253 388.638 458.292 388.638 459.814L388.638 464.49C388.638 465.247 388.463 465.814 388.112 466.192C387.761 466.57 387.307 466.76 386.751 466.76C386.214 466.76 385.772 466.564 385.425 466.172C385.079 465.78 384.906 465.219 384.906 464.49L384.906 453.703C384.906 452.992 385.061 452.461 385.371 452.11C385.681 451.759 386.104 451.584 386.642 451.584C386.97 451.584 387.266 451.661 387.531 451.816C387.795 451.971 388.007 452.204 388.167 452.513C388.326 452.823 388.406 453.202 388.406 453.648Z"/>
<path d="M412.154 464.627L412.154 464.258C411.653 464.832 411.158 465.299 410.67 465.659C410.183 466.019 409.654 466.292 409.084 466.479C408.515 466.666 407.893 466.76 407.218 466.76C406.325 466.76 405.498 466.57 404.737 466.192C403.976 465.814 403.317 465.274 402.761 464.572C402.205 463.87 401.784 463.045 401.497 462.097C401.209 461.15 401.066 460.124 401.066 459.021C401.066 456.688 401.636 454.87 402.775 453.566C403.914 452.263 405.414 451.611 407.273 451.611C408.348 451.611 409.255 451.796 409.994 452.165C410.732 452.534 411.452 453.101 412.154 453.867L412.154 448.357C412.154 447.592 412.306 447.013 412.612 446.621C412.917 446.229 413.352 446.033 413.917 446.033C414.483 446.033 414.918 446.213 415.223 446.573C415.528 446.933 415.681 447.464 415.681 448.166L415.681 464.627C415.681 465.338 415.517 465.871 415.189 466.226C414.861 466.582 414.437 466.76 413.917 466.76C413.407 466.76 412.986 466.575 412.653 466.206C412.32 465.837 412.154 465.31 412.154 464.627ZM404.812 459.144C404.812 460.156 404.969 461.017 405.284 461.728C405.598 462.439 406.029 462.975 406.576 463.335C407.123 463.695 407.72 463.875 408.367 463.875C409.023 463.875 409.622 463.704 410.165 463.362C410.707 463.02 411.14 462.496 411.463 461.79C411.787 461.083 411.949 460.202 411.949 459.144C411.949 458.151 411.787 457.296 411.463 456.581C411.14 455.865 410.702 455.318 410.151 454.94C409.599 454.562 408.996 454.373 408.339 454.373C407.656 454.373 407.045 454.567 406.507 454.954C405.97 455.341 405.553 455.897 405.256 456.622C404.96 457.346 404.812 458.187 404.812 459.144Z"/>
<path d="M426.851 464.285L426.851 448.494C426.851 447.674 427.038 447.058 427.412 446.648C427.785 446.238 428.268 446.033 428.861 446.033C429.472 446.033 429.966 446.236 430.344 446.641C430.723 447.047 430.912 447.664 430.912 448.494L430.912 464.285C430.912 465.114 430.723 465.734 430.344 466.144C429.966 466.554 429.472 466.76 428.861 466.76C428.278 466.76 427.797 466.552 427.418 466.137C427.04 465.723 426.851 465.105 426.851 464.285Z"/>
<path d="M447.605 459.445L447.605 464.408C447.605 465.192 447.427 465.78 447.072 466.172C446.716 466.564 446.247 466.76 445.664 466.76C445.098 466.76 444.64 466.564 444.29 466.172C443.939 465.78 443.763 465.192 443.763 464.408L443.763 458.461C443.763 457.522 443.731 456.793 443.667 456.273C443.604 455.754 443.431 455.328 443.148 454.995C442.865 454.662 442.419 454.496 441.808 454.496C440.587 454.496 439.782 454.915 439.395 455.754C439.008 456.592 438.814 457.795 438.814 459.363L438.814 464.408C438.814 465.183 438.639 465.768 438.288 466.165C437.937 466.561 437.474 466.76 436.9 466.76C436.335 466.76 435.872 466.561 435.512 466.165C435.152 465.768 434.972 465.183 434.972 464.408L434.972 453.73C434.972 453.028 435.134 452.495 435.458 452.131C435.781 451.766 436.207 451.584 436.736 451.584C437.246 451.584 437.672 451.755 438.014 452.096C438.356 452.438 438.527 452.91 438.527 453.511L438.527 453.867C439.174 453.092 439.867 452.523 440.605 452.158C441.343 451.793 442.164 451.611 443.066 451.611C444.005 451.611 444.811 451.798 445.486 452.172C446.16 452.545 446.716 453.11 447.154 453.867C447.783 453.101 448.457 452.534 449.177 452.165C449.897 451.796 450.695 451.611 451.57 451.611C452.591 451.611 453.47 451.812 454.209 452.213C454.947 452.614 455.498 453.188 455.863 453.935C456.182 454.61 456.341 455.672 456.341 457.121L456.341 464.408C456.341 465.192 456.164 465.78 455.808 466.172C455.453 466.564 454.983 466.76 454.4 466.76C453.835 466.76 453.372 466.561 453.012 466.165C452.652 465.768 452.472 465.183 452.472 464.408L452.472 458.133C452.472 457.331 452.438 456.688 452.37 456.205C452.301 455.722 452.117 455.316 451.816 454.988C451.515 454.66 451.059 454.496 450.449 454.496C449.957 454.496 449.489 454.642 449.047 454.933C448.605 455.225 448.261 455.617 448.015 456.109C447.742 456.738 447.605 457.85 447.605 459.445Z"/>
<path d="M463.41 453.676L463.41 454.127C464.112 453.261 464.841 452.625 465.597 452.22C466.354 451.814 467.21 451.611 468.167 451.611C469.316 451.611 470.373 451.907 471.339 452.5C472.306 453.092 473.069 453.958 473.629 455.097C474.19 456.237 474.47 457.586 474.47 459.144C474.47 460.293 474.308 461.348 473.985 462.309C473.661 463.271 473.217 464.078 472.652 464.729C472.087 465.381 471.419 465.882 470.649 466.233C469.879 466.584 469.052 466.76 468.167 466.76C467.101 466.76 466.206 466.545 465.481 466.117C464.756 465.689 464.066 465.06 463.41 464.23L463.41 469.836C463.41 471.476 462.813 472.297 461.619 472.297C460.917 472.297 460.452 472.085 460.224 471.661C459.996 471.237 459.882 470.62 459.882 469.808L459.882 453.703C459.882 452.992 460.037 452.461 460.347 452.11C460.657 451.759 461.081 451.584 461.619 451.584C462.147 451.584 462.578 451.764 462.911 452.124C463.243 452.484 463.41 453.001 463.41 453.676ZM470.724 459.103C470.724 458.119 470.574 457.274 470.273 456.567C469.972 455.861 469.555 455.318 469.022 454.94C468.489 454.562 467.899 454.373 467.251 454.373C466.222 454.373 465.353 454.778 464.647 455.59C463.941 456.401 463.587 457.595 463.587 459.172C463.587 460.657 463.938 461.813 464.64 462.637C465.342 463.462 466.212 463.875 467.251 463.875C467.871 463.875 468.445 463.695 468.974 463.335C469.503 462.975 469.927 462.435 470.246 461.715C470.565 460.995 470.724 460.124 470.724 459.103Z"/>
<path d="M481.169 461.373L481.169 464.49C481.169 465.247 480.992 465.814 480.636 466.192C480.281 466.57 479.83 466.76 479.283 466.76C478.745 466.76 478.303 466.568 477.957 466.185C477.61 465.803 477.437 465.237 477.437 464.49L477.437 454.099C477.437 452.422 478.043 451.584 479.255 451.584C479.875 451.584 480.322 451.78 480.595 452.172C480.869 452.564 481.019 453.142 481.046 453.908C481.493 453.142 481.951 452.564 482.42 452.172C482.89 451.78 483.516 451.584 484.3 451.584C485.084 451.584 485.845 451.78 486.584 452.172C487.322 452.564 487.691 453.083 487.691 453.73C487.691 454.186 487.534 454.562 487.219 454.858C486.905 455.154 486.565 455.303 486.201 455.303C486.064 455.303 485.734 455.218 485.209 455.05C484.685 454.881 484.223 454.797 483.822 454.797C483.275 454.797 482.828 454.94 482.482 455.227C482.136 455.514 481.867 455.941 481.675 456.506C481.484 457.071 481.352 457.743 481.279 458.522C481.206 459.302 481.169 460.252 481.169 461.373Z"/>
<path d="M502.634 459.172C502.634 460.284 502.461 461.309 502.115 462.248C501.768 463.187 501.267 463.993 500.611 464.668C499.955 465.342 499.171 465.859 498.259 466.22C497.348 466.58 496.322 466.76 495.183 466.76C494.053 466.76 493.037 466.577 492.134 466.213C491.232 465.848 490.45 465.326 489.79 464.647C489.129 463.968 488.627 463.166 488.286 462.241C487.944 461.316 487.773 460.293 487.773 459.172C487.773 458.041 487.946 457.007 488.292 456.068C488.639 455.129 489.136 454.327 489.783 453.662C490.43 452.997 491.214 452.484 492.134 452.124C493.055 451.764 494.071 451.584 495.183 451.584C496.313 451.584 497.339 451.766 498.259 452.131C499.18 452.495 499.968 453.015 500.625 453.689C501.281 454.364 501.78 455.166 502.122 456.095C502.463 457.025 502.634 458.051 502.634 459.172ZM498.888 459.172C498.888 457.65 498.553 456.465 497.883 455.617C497.213 454.769 496.313 454.345 495.183 454.345C494.454 454.345 493.811 454.535 493.255 454.913C492.699 455.291 492.271 455.849 491.97 456.588C491.669 457.326 491.519 458.187 491.519 459.172C491.519 460.147 491.667 460.999 491.963 461.728C492.26 462.457 492.683 463.016 493.235 463.403C493.786 463.79 494.436 463.984 495.183 463.984C496.313 463.984 497.213 463.558 497.883 462.706C498.553 461.854 498.888 460.676 498.888 459.172Z"/>
<path d="M507.843 453.908L510.865 462.385L514.119 453.539C514.374 452.828 514.625 452.324 514.871 452.028C515.117 451.732 515.49 451.584 515.992 451.584C516.466 451.584 516.869 451.743 517.202 452.062C517.534 452.381 517.701 452.75 517.701 453.17C517.701 453.334 517.671 453.525 517.612 453.744C517.553 453.963 517.484 454.168 517.407 454.359C517.329 454.551 517.24 454.769 517.14 455.015L513.558 463.902C513.458 464.157 513.328 464.481 513.168 464.873C513.009 465.265 512.831 465.6 512.635 465.878C512.439 466.156 512.198 466.372 511.911 466.527C511.624 466.682 511.275 466.76 510.865 466.76C510.336 466.76 509.915 466.639 509.6 466.397C509.286 466.156 509.053 465.891 508.903 465.604C508.752 465.317 508.5 464.75 508.144 463.902L504.589 455.111C504.507 454.892 504.423 454.674 504.336 454.455C504.25 454.236 504.177 454.013 504.118 453.785C504.058 453.557 504.029 453.361 504.029 453.197C504.029 452.942 504.106 452.689 504.261 452.438C504.416 452.188 504.63 451.983 504.904 451.823C505.177 451.664 505.473 451.584 505.792 451.584C506.412 451.584 506.838 451.761 507.071 452.117C507.303 452.472 507.561 453.069 507.843 453.908Z"/>
<path d="M530.429 460.088L523.128 460.088C523.138 460.935 523.308 461.683 523.641 462.33C523.974 462.977 524.416 463.465 524.967 463.793C525.519 464.121 526.127 464.285 526.792 464.285C527.239 464.285 527.647 464.233 528.016 464.128C528.385 464.023 528.743 463.859 529.089 463.636C529.436 463.412 529.755 463.173 530.046 462.918C530.338 462.663 530.716 462.316 531.181 461.879C531.373 461.715 531.646 461.633 532.001 461.633C532.384 461.633 532.694 461.737 532.931 461.947C533.168 462.157 533.287 462.453 533.287 462.836C533.287 463.173 533.154 463.567 532.89 464.018C532.626 464.47 532.227 464.902 531.694 465.317C531.161 465.732 530.491 466.076 529.684 466.349C528.877 466.623 527.95 466.76 526.902 466.76C524.505 466.76 522.641 466.076 521.31 464.709C519.979 463.342 519.314 461.487 519.314 459.144C519.314 458.041 519.478 457.018 519.806 456.075C520.134 455.132 520.613 454.323 521.242 453.648C521.871 452.974 522.645 452.456 523.566 452.096C524.487 451.736 525.507 451.556 526.628 451.556C528.087 451.556 529.338 451.864 530.381 452.479C531.425 453.095 532.207 453.89 532.726 454.865C533.246 455.84 533.505 456.834 533.505 457.845C533.505 458.784 533.237 459.393 532.699 459.671C532.161 459.949 531.404 460.088 530.429 460.088ZM523.128 457.969L529.896 457.969C529.805 456.692 529.461 455.738 528.864 455.104C528.267 454.471 527.481 454.154 526.505 454.154C525.576 454.154 524.812 454.475 524.215 455.118C523.618 455.761 523.256 456.711 523.128 457.969Z"/>
<path d="M549.064 459.445L549.064 464.408C549.064 465.192 548.886 465.78 548.531 466.172C548.175 466.564 547.706 466.76 547.123 466.76C546.557 466.76 546.099 466.564 545.749 466.172C545.398 465.78 545.222 465.192 545.222 464.408L545.222 458.461C545.222 457.522 545.19 456.793 545.126 456.273C545.063 455.754 544.889 455.328 544.607 454.995C544.324 454.662 543.878 454.496 543.267 454.496C542.046 454.496 541.241 454.915 540.854 455.754C540.467 456.592 540.273 457.795 540.273 459.363L540.273 464.408C540.273 465.183 540.098 465.768 539.747 466.165C539.396 466.561 538.933 466.76 538.359 466.76C537.794 466.76 537.331 466.561 536.971 466.165C536.611 465.768 536.431 465.183 536.431 464.408L536.431 453.73C536.431 453.028 536.593 452.495 536.917 452.131C537.24 451.766 537.666 451.584 538.195 451.584C538.705 451.584 539.131 451.755 539.473 452.096C539.815 452.438 539.986 452.91 539.986 453.511L539.986 453.867C540.633 453.092 541.326 452.523 542.064 452.158C542.802 451.793 543.623 451.611 544.525 451.611C545.464 451.611 546.27 451.798 546.945 452.172C547.619 452.545 548.175 453.11 548.613 453.867C549.242 453.101 549.916 452.534 550.636 452.165C551.356 451.796 552.154 451.611 553.029 451.611C554.05 451.611 554.929 451.812 555.667 452.213C556.406 452.614 556.957 453.188 557.322 453.935C557.641 454.61 557.8 455.672 557.8 457.121L557.8 464.408C557.8 465.192 557.623 465.78 557.267 466.172C556.912 466.564 556.442 466.76 555.859 466.76C555.294 466.76 554.831 466.561 554.471 466.165C554.111 465.768 553.931 465.183 553.931 464.408L553.931 458.133C553.931 457.331 553.897 456.688 553.829 456.205C553.76 455.722 553.576 455.316 553.275 454.988C552.974 454.66 552.518 454.496 551.908 454.496C551.416 454.496 550.948 454.642 550.506 454.933C550.064 455.225 549.72 455.617 549.474 456.109C549.201 456.738 549.064 457.85 549.064 459.445Z"/>
<path d="M571.841 460.088L564.541 460.088C564.55 460.935 564.721 461.683 565.053 462.33C565.386 462.977 565.828 463.465 566.379 463.793C566.931 464.121 567.539 464.285 568.205 464.285C568.651 464.285 569.059 464.233 569.428 464.128C569.797 464.023 570.155 463.859 570.501 463.636C570.848 463.412 571.167 463.173 571.459 462.918C571.75 462.663 572.128 462.316 572.593 461.879C572.785 461.715 573.058 461.633 573.414 461.633C573.796 461.633 574.106 461.737 574.343 461.947C574.58 462.157 574.699 462.453 574.699 462.836C574.699 463.173 574.567 463.567 574.302 464.018C574.038 464.47 573.639 464.902 573.106 465.317C572.573 465.732 571.903 466.076 571.096 466.349C570.29 466.623 569.362 466.76 568.314 466.76C565.917 466.76 564.053 466.076 562.722 464.709C561.391 463.342 560.726 461.487 560.726 459.144C560.726 458.041 560.89 457.018 561.218 456.075C561.546 455.132 562.025 454.323 562.654 453.648C563.283 452.974 564.057 452.456 564.978 452.096C565.899 451.736 566.919 451.556 568.041 451.556C569.499 451.556 570.75 451.864 571.793 452.479C572.837 453.095 573.619 453.89 574.138 454.865C574.658 455.84 574.917 456.834 574.917 457.845C574.917 458.784 574.649 459.393 574.111 459.671C573.573 459.949 572.817 460.088 571.841 460.088ZM564.541 457.969L571.308 457.969C571.217 456.692 570.873 455.738 570.276 455.104C569.679 454.471 568.893 454.154 567.917 454.154C566.988 454.154 566.224 454.475 565.627 455.118C565.03 455.761 564.668 456.711 564.541 457.969Z"/>
<path d="M581.453 453.648L581.453 454.099C582.109 453.234 582.827 452.598 583.606 452.192C584.385 451.787 585.281 451.584 586.292 451.584C587.277 451.584 588.156 451.798 588.931 452.226C589.706 452.655 590.285 453.261 590.667 454.045C590.914 454.5 591.073 454.993 591.146 455.521C591.219 456.05 591.255 456.724 591.255 457.545L591.255 464.49C591.255 465.237 591.084 465.803 590.743 466.185C590.401 466.568 589.957 466.76 589.41 466.76C588.854 466.76 588.403 466.564 588.056 466.172C587.71 465.78 587.537 465.219 587.537 464.49L587.537 458.269C587.537 457.039 587.366 456.098 587.024 455.446C586.682 454.794 586.001 454.469 584.98 454.469C584.315 454.469 583.709 454.667 583.162 455.063C582.615 455.46 582.214 456.004 581.959 456.697C581.776 457.253 581.685 458.292 581.685 459.814L581.685 464.49C581.685 465.247 581.51 465.814 581.159 466.192C580.808 466.57 580.354 466.76 579.798 466.76C579.261 466.76 578.819 466.564 578.472 466.172C578.126 465.78 577.953 465.219 577.953 464.49L577.953 453.703C577.953 452.992 578.108 452.461 578.417 452.11C578.727 451.759 579.151 451.584 579.689 451.584C580.017 451.584 580.313 451.661 580.578 451.816C580.842 451.971 581.054 452.204 581.213 452.513C581.373 452.823 581.453 453.202 581.453 453.648Z"/>
<path d="M595.179 451.912L595.589 451.912L595.589 449.67C595.589 449.068 595.605 448.596 595.637 448.255C595.669 447.913 595.758 447.619 595.904 447.373C596.05 447.118 596.259 446.91 596.533 446.751C596.806 446.591 597.112 446.511 597.449 446.511C597.923 446.511 598.351 446.689 598.734 447.045C598.989 447.282 599.151 447.571 599.219 447.913C599.288 448.255 599.322 448.74 599.322 449.369L599.322 451.912L600.689 451.912C601.218 451.912 601.621 452.037 601.899 452.288C602.177 452.539 602.316 452.86 602.316 453.252C602.316 453.753 602.118 454.104 601.721 454.304C601.325 454.505 600.757 454.605 600.019 454.605L599.322 454.605L599.322 461.469C599.322 462.052 599.342 462.501 599.383 462.815C599.424 463.13 599.534 463.385 599.711 463.581C599.889 463.777 600.179 463.875 600.58 463.875C600.798 463.875 601.095 463.836 601.468 463.759C601.842 463.681 602.134 463.642 602.343 463.642C602.644 463.642 602.915 463.763 603.157 464.005C603.398 464.246 603.519 464.545 603.519 464.9C603.519 465.502 603.191 465.962 602.535 466.281C601.878 466.6 600.935 466.76 599.705 466.76C598.538 466.76 597.654 466.564 597.052 466.172C596.451 465.78 596.056 465.237 595.87 464.545C595.683 463.852 595.589 462.927 595.589 461.769L595.589 454.605L595.097 454.605C594.559 454.605 594.149 454.478 593.867 454.222C593.584 453.967 593.443 453.644 593.443 453.252C593.443 452.86 593.591 452.539 593.887 452.288C594.183 452.037 594.614 451.912 595.179 451.912Z"/>
</g>
<g fill="#737a76" opacity="1" stroke="none">
<path d="M216.644 496.269L216.644 500.111C216.644 500.622 216.594 501.029 216.494 501.335C216.393 501.64 216.209 501.916 215.94 502.162C215.671 502.408 215.327 502.645 214.908 502.873C213.695 503.529 212.529 504.008 211.408 504.308C210.287 504.609 209.065 504.76 207.744 504.76C206.203 504.76 204.8 504.523 203.533 504.049C202.266 503.575 201.186 502.886 200.292 501.984C199.399 501.082 198.713 499.988 198.235 498.703C197.756 497.418 197.517 495.982 197.517 494.396C197.517 492.838 197.75 491.411 198.214 490.117C198.679 488.823 199.363 487.724 200.265 486.822C201.167 485.92 202.266 485.229 203.56 484.751C204.854 484.272 206.322 484.033 207.962 484.033C209.311 484.033 210.505 484.213 211.544 484.573C212.584 484.933 213.427 485.386 214.074 485.933C214.721 486.48 215.209 487.059 215.537 487.67C215.865 488.28 216.029 488.823 216.029 489.297C216.029 489.807 215.84 490.242 215.461 490.602C215.083 490.962 214.63 491.142 214.101 491.142C213.809 491.142 213.529 491.074 213.26 490.937C212.991 490.801 212.766 490.609 212.584 490.363C212.082 489.579 211.658 488.987 211.312 488.586C210.966 488.185 210.499 487.847 209.911 487.574C209.323 487.301 208.573 487.164 207.662 487.164C206.723 487.164 205.884 487.326 205.146 487.649C204.408 487.973 203.777 488.442 203.252 489.057C202.728 489.673 202.327 490.427 202.049 491.32C201.771 492.213 201.632 493.202 201.632 494.287C201.632 496.638 202.172 498.448 203.252 499.715C204.333 500.982 205.839 501.615 207.771 501.615C208.71 501.615 209.592 501.492 210.417 501.246C211.241 501 212.078 500.649 212.925 500.193L212.925 496.939L209.781 496.939C209.024 496.939 208.452 496.825 208.065 496.597C207.678 496.37 207.484 495.982 207.484 495.435C207.484 494.989 207.646 494.62 207.969 494.328C208.293 494.036 208.733 493.89 209.289 493.89L213.896 493.89C214.461 493.89 214.94 493.941 215.332 494.041C215.723 494.141 216.04 494.364 216.282 494.711C216.523 495.057 216.644 495.577 216.644 496.269Z"/>
<path d="M230.671 498.088L223.371 498.088C223.38 498.935 223.551 499.683 223.883 500.33C224.216 500.977 224.658 501.465 225.209 501.793C225.761 502.121 226.369 502.285 227.035 502.285C227.481 502.285 227.889 502.233 228.258 502.128C228.627 502.023 228.985 501.859 229.332 501.636C229.678 501.412 229.997 501.173 230.289 500.918C230.58 500.663 230.959 500.316 231.423 499.879C231.615 499.715 231.888 499.633 232.244 499.633C232.626 499.633 232.936 499.737 233.173 499.947C233.41 500.157 233.529 500.453 233.529 500.836C233.529 501.173 233.397 501.567 233.132 502.018C232.868 502.47 232.469 502.902 231.936 503.317C231.403 503.732 230.733 504.076 229.926 504.349C229.12 504.623 228.192 504.76 227.144 504.76C224.747 504.76 222.883 504.076 221.552 502.709C220.222 501.342 219.556 499.487 219.556 497.144C219.556 496.041 219.72 495.018 220.048 494.075C220.376 493.132 220.855 492.323 221.484 491.648C222.113 490.974 222.888 490.456 223.808 490.096C224.729 489.736 225.75 489.556 226.871 489.556C228.329 489.556 229.58 489.864 230.624 490.479C231.667 491.095 232.449 491.89 232.968 492.865C233.488 493.84 233.748 494.834 233.748 495.845C233.748 496.784 233.479 497.393 232.941 497.671C232.403 497.949 231.647 498.088 230.671 498.088ZM223.371 495.969L230.138 495.969C230.047 494.692 229.703 493.738 229.106 493.104C228.509 492.471 227.723 492.154 226.748 492.154C225.818 492.154 225.055 492.475 224.458 493.118C223.861 493.761 223.498 494.711 223.371 495.969Z"/>
<path d="M240.283 491.648L240.283 492.099C240.939 491.234 241.657 490.598 242.436 490.192C243.215 489.787 244.111 489.584 245.123 489.584C246.107 489.584 246.987 489.798 247.761 490.226C248.536 490.655 249.115 491.261 249.498 492.045C249.744 492.5 249.903 492.993 249.976 493.521C250.049 494.05 250.085 494.724 250.085 495.545L250.085 502.49C250.085 503.237 249.915 503.803 249.573 504.185C249.231 504.568 248.787 504.76 248.24 504.76C247.684 504.76 247.233 504.564 246.886 504.172C246.54 503.78 246.367 503.219 246.367 502.49L246.367 496.269C246.367 495.039 246.196 494.098 245.854 493.446C245.512 492.794 244.831 492.469 243.81 492.469C243.145 492.469 242.539 492.667 241.992 493.063C241.445 493.46 241.044 494.004 240.789 494.697C240.606 495.253 240.515 496.292 240.515 497.814L240.515 502.49C240.515 503.247 240.34 503.814 239.989 504.192C239.638 504.57 239.184 504.76 238.628 504.76C238.091 504.76 237.649 504.564 237.302 504.172C236.956 503.78 236.783 503.219 236.783 502.49L236.783 491.703C236.783 490.992 236.938 490.461 237.248 490.11C237.557 489.759 237.981 489.584 238.519 489.584C238.847 489.584 239.143 489.661 239.408 489.816C239.672 489.971 239.884 490.204 240.043 490.513C240.203 490.823 240.283 491.202 240.283 491.648Z"/>
<path d="M264.222 498.088L256.921 498.088C256.931 498.935 257.101 499.683 257.434 500.33C257.767 500.977 258.209 501.465 258.76 501.793C259.312 502.121 259.92 502.285 260.585 502.285C261.032 502.285 261.44 502.233 261.809 502.128C262.178 502.023 262.536 501.859 262.882 501.636C263.229 501.412 263.548 501.173 263.839 500.918C264.131 500.663 264.509 500.316 264.974 499.879C265.166 499.715 265.439 499.633 265.794 499.633C266.177 499.633 266.487 499.737 266.724 499.947C266.961 500.157 267.08 500.453 267.08 500.836C267.08 501.173 266.947 501.567 266.683 502.018C266.419 502.47 266.02 502.902 265.487 503.317C264.954 503.732 264.284 504.076 263.477 504.349C262.67 504.623 261.743 504.76 260.695 504.76C258.298 504.76 256.434 504.076 255.103 502.709C253.772 501.342 253.107 499.487 253.107 497.144C253.107 496.041 253.271 495.018 253.599 494.075C253.927 493.132 254.406 492.323 255.035 491.648C255.664 490.974 256.438 490.456 257.359 490.096C258.279 489.736 259.3 489.556 260.421 489.556C261.88 489.556 263.131 489.864 264.174 490.479C265.218 491.095 266 491.89 266.519 492.865C267.039 493.84 267.298 494.834 267.298 495.845C267.298 496.784 267.029 497.393 266.492 497.671C265.954 497.949 265.197 498.088 264.222 498.088ZM256.921 495.969L263.689 495.969C263.598 494.692 263.254 493.738 262.657 493.104C262.06 492.471 261.274 492.154 260.298 492.154C259.369 492.154 258.605 492.475 258.008 493.118C257.411 493.761 257.049 494.711 256.921 495.969Z"/>
<path d="M274.148 499.373L274.148 502.49C274.148 503.247 273.97 503.814 273.615 504.192C273.259 504.57 272.808 504.76 272.261 504.76C271.723 504.76 271.281 504.568 270.935 504.185C270.589 503.803 270.416 503.237 270.416 502.49L270.416 492.099C270.416 490.422 271.022 489.584 272.234 489.584C272.854 489.584 273.3 489.78 273.574 490.172C273.847 490.564 273.998 491.142 274.025 491.908C274.472 491.142 274.93 490.564 275.399 490.172C275.868 489.78 276.495 489.584 277.279 489.584C278.063 489.584 278.824 489.78 279.562 490.172C280.3 490.564 280.669 491.083 280.669 491.73C280.669 492.186 280.512 492.562 280.198 492.858C279.883 493.154 279.544 493.303 279.179 493.303C279.042 493.303 278.712 493.218 278.188 493.05C277.664 492.881 277.201 492.797 276.8 492.797C276.253 492.797 275.807 492.94 275.46 493.227C275.114 493.514 274.845 493.941 274.654 494.506C274.462 495.071 274.33 495.743 274.257 496.522C274.184 497.302 274.148 498.252 274.148 499.373Z"/>
<path d="M291.443 502.654C290.541 503.356 289.668 503.882 288.825 504.233C287.982 504.584 287.036 504.76 285.988 504.76C285.031 504.76 284.19 504.57 283.465 504.192C282.741 503.814 282.182 503.301 281.791 502.654C281.399 502.007 281.203 501.305 281.203 500.549C281.203 499.528 281.526 498.657 282.173 497.937C282.82 497.217 283.709 496.734 284.839 496.488C285.076 496.433 285.664 496.31 286.603 496.119C287.542 495.928 288.346 495.752 289.016 495.593C289.686 495.433 290.413 495.239 291.197 495.011C291.151 494.027 290.953 493.305 290.602 492.845C290.251 492.384 289.524 492.154 288.421 492.154C287.473 492.154 286.76 492.286 286.282 492.551C285.803 492.815 285.393 493.211 285.051 493.74C284.709 494.269 284.468 494.617 284.327 494.786C284.185 494.955 283.882 495.039 283.417 495.039C282.998 495.039 282.636 494.904 282.331 494.636C282.025 494.367 281.873 494.023 281.873 493.603C281.873 492.947 282.105 492.309 282.57 491.689C283.035 491.069 283.759 490.559 284.744 490.158C285.728 489.757 286.954 489.556 288.421 489.556C290.062 489.556 291.352 489.75 292.291 490.137C293.229 490.525 293.892 491.138 294.28 491.976C294.667 492.815 294.861 493.927 294.861 495.312C294.861 496.187 294.859 496.93 294.854 497.541C294.849 498.151 294.843 498.831 294.834 499.578C294.834 500.28 294.95 501.011 295.182 501.772C295.415 502.533 295.531 503.023 295.531 503.242C295.531 503.625 295.351 503.973 294.991 504.288C294.631 504.602 294.223 504.76 293.767 504.76C293.384 504.76 293.006 504.58 292.632 504.22C292.259 503.859 291.862 503.338 291.443 502.654ZM291.197 497.254C290.65 497.454 289.855 497.666 288.811 497.889C287.767 498.113 287.045 498.277 286.644 498.382C286.243 498.486 285.86 498.692 285.496 498.997C285.131 499.302 284.949 499.728 284.949 500.275C284.949 500.84 285.163 501.321 285.591 501.718C286.02 502.114 286.58 502.312 287.273 502.312C288.011 502.312 288.693 502.15 289.317 501.827C289.941 501.503 290.399 501.086 290.691 500.576C291.028 500.011 291.197 499.081 291.197 497.787L291.197 497.254Z"/>
<path d="M298.648 502.49L298.648 486.303C298.648 485.555 298.814 484.99 299.147 484.607C299.48 484.224 299.929 484.033 300.494 484.033C301.059 484.033 301.514 484.222 301.861 484.6C302.207 484.979 302.38 485.546 302.38 486.303L302.38 502.49C302.38 503.247 302.205 503.814 301.854 504.192C301.503 504.57 301.05 504.76 300.494 504.76C299.947 504.76 299.502 504.564 299.161 504.172C298.819 503.78 298.648 503.219 298.648 502.49Z"/>
<path d="M317.584 486.494L317.584 492.236L326.347 492.236L326.347 486.494C326.347 485.674 326.532 485.058 326.901 484.648C327.27 484.238 327.755 484.033 328.357 484.033C328.968 484.033 329.462 484.236 329.84 484.641C330.219 485.047 330.408 485.664 330.408 486.494L330.408 502.285C330.408 503.114 330.216 503.734 329.834 504.144C329.451 504.554 328.959 504.76 328.357 504.76C327.746 504.76 327.259 504.552 326.894 504.137C326.529 503.723 326.347 503.105 326.347 502.285L326.347 495.545L317.584 495.545L317.584 502.285C317.584 503.114 317.392 503.734 317.009 504.144C316.626 504.554 316.134 504.76 315.533 504.76C314.922 504.76 314.434 504.552 314.07 504.137C313.705 503.723 313.523 503.105 313.523 502.285L313.523 486.494C313.523 485.674 313.703 485.058 314.063 484.648C314.423 484.238 314.913 484.033 315.533 484.033C316.143 484.033 316.638 484.236 317.016 484.641C317.394 485.047 317.584 485.664 317.584 486.494Z"/>
<path d="M343.943 502.654C343.041 503.356 342.168 503.882 341.325 504.233C340.482 504.584 339.536 504.76 338.488 504.76C337.531 504.76 336.69 504.57 335.965 504.192C335.241 503.814 334.682 503.301 334.291 502.654C333.899 502.007 333.703 501.305 333.703 500.549C333.703 499.528 334.026 498.657 334.673 497.937C335.32 497.217 336.209 496.734 337.339 496.488C337.576 496.433 338.164 496.31 339.103 496.119C340.042 495.928 340.846 495.752 341.516 495.593C342.186 495.433 342.913 495.239 343.697 495.011C343.651 494.027 343.453 493.305 343.102 492.845C342.751 492.384 342.024 492.154 340.921 492.154C339.973 492.154 339.26 492.286 338.782 492.551C338.303 492.815 337.893 493.211 337.551 493.74C337.209 494.269 336.968 494.617 336.827 494.786C336.685 494.955 336.382 495.039 335.917 495.039C335.498 495.039 335.136 494.904 334.831 494.636C334.525 494.367 334.373 494.023 334.373 493.603C334.373 492.947 334.605 492.309 335.07 491.689C335.535 491.069 336.259 490.559 337.244 490.158C338.228 489.757 339.454 489.556 340.921 489.556C342.562 489.556 343.852 489.75 344.791 490.137C345.729 490.525 346.392 491.138 346.78 491.976C347.167 492.815 347.361 493.927 347.361 495.312C347.361 496.187 347.359 496.93 347.354 497.541C347.349 498.151 347.343 498.831 347.334 499.578C347.334 500.28 347.45 501.011 347.682 501.772C347.915 502.533 348.031 503.023 348.031 503.242C348.031 503.625 347.851 503.973 347.491 504.288C347.131 504.602 346.723 504.76 346.267 504.76C345.884 504.76 345.506 504.58 345.132 504.22C344.759 503.859 344.362 503.338 343.943 502.654ZM343.697 497.254C343.15 497.454 342.355 497.666 341.311 497.889C340.267 498.113 339.545 498.277 339.144 498.382C338.743 498.486 338.36 498.692 337.996 498.997C337.631 499.302 337.449 499.728 337.449 500.275C337.449 500.84 337.663 501.321 338.091 501.718C338.52 502.114 339.08 502.312 339.773 502.312C340.511 502.312 341.193 502.15 341.817 501.827C342.441 501.503 342.899 501.086 343.191 500.576C343.528 500.011 343.697 499.081 343.697 497.787L343.697 497.254Z"/>
<path d="M354.539 491.648L354.539 492.099C355.195 491.234 355.913 490.598 356.692 490.192C357.471 489.787 358.367 489.584 359.378 489.584C360.363 489.584 361.242 489.798 362.017 490.226C362.792 490.655 363.371 491.261 363.753 492.045C364 492.5 364.159 492.993 364.232 493.521C364.305 494.05 364.341 494.724 364.341 495.545L364.341 502.49C364.341 503.237 364.17 503.803 363.829 504.185C363.487 504.568 363.042 504.76 362.496 504.76C361.94 504.76 361.488 504.564 361.142 504.172C360.796 503.78 360.623 503.219 360.623 502.49L360.623 496.269C360.623 495.039 360.452 494.098 360.11 493.446C359.768 492.794 359.087 492.469 358.066 492.469C357.401 492.469 356.794 492.667 356.248 493.063C355.701 493.46 355.3 494.004 355.044 494.697C354.862 495.253 354.771 496.292 354.771 497.814L354.771 502.49C354.771 503.247 354.596 503.814 354.245 504.192C353.894 504.57 353.44 504.76 352.884 504.76C352.347 504.76 351.904 504.564 351.558 504.172C351.212 503.78 351.039 503.219 351.039 502.49L351.039 491.703C351.039 490.992 351.194 490.461 351.503 490.11C351.813 489.759 352.237 489.584 352.775 489.584C353.103 489.584 353.399 489.661 353.664 489.816C353.928 489.971 354.14 490.204 354.299 490.513C354.459 490.823 354.539 491.202 354.539 491.648Z"/>
<path d="M378.287 502.627L378.287 502.258C377.785 502.832 377.291 503.299 376.803 503.659C376.316 504.019 375.787 504.292 375.217 504.479C374.648 504.666 374.026 504.76 373.351 504.76C372.458 504.76 371.631 504.57 370.87 504.192C370.109 503.814 369.45 503.274 368.894 502.572C368.338 501.87 367.917 501.045 367.629 500.097C367.342 499.15 367.199 498.124 367.199 497.021C367.199 494.688 367.768 492.87 368.908 491.566C370.047 490.263 371.546 489.611 373.406 489.611C374.481 489.611 375.388 489.796 376.126 490.165C376.865 490.534 377.585 491.101 378.287 491.867L378.287 486.357C378.287 485.592 378.439 485.013 378.745 484.621C379.05 484.229 379.485 484.033 380.05 484.033C380.615 484.033 381.051 484.213 381.356 484.573C381.661 484.933 381.814 485.464 381.814 486.166L381.814 502.627C381.814 503.338 381.65 503.871 381.322 504.226C380.994 504.582 380.57 504.76 380.05 504.76C379.54 504.76 379.118 504.575 378.786 504.206C378.453 503.837 378.287 503.31 378.287 502.627ZM370.945 497.144C370.945 498.156 371.102 499.017 371.417 499.728C371.731 500.439 372.162 500.975 372.709 501.335C373.255 501.695 373.852 501.875 374.5 501.875C375.156 501.875 375.755 501.704 376.297 501.362C376.84 501.02 377.273 500.496 377.596 499.79C377.92 499.083 378.082 498.202 378.082 497.144C378.082 496.151 377.92 495.296 377.596 494.581C377.273 493.865 376.835 493.318 376.284 492.94C375.732 492.562 375.128 492.373 374.472 492.373C373.789 492.373 373.178 492.567 372.64 492.954C372.102 493.341 371.685 493.897 371.389 494.622C371.093 495.346 370.945 496.187 370.945 497.144Z"/>
<path d="M389.005 505.224L389.347 504.39L384.753 492.824C384.471 492.159 384.33 491.676 384.33 491.375C384.33 491.056 384.412 490.76 384.576 490.486C384.74 490.213 384.965 489.994 385.252 489.83C385.54 489.666 385.838 489.584 386.148 489.584C386.686 489.584 387.091 489.755 387.365 490.096C387.638 490.438 387.88 490.928 388.089 491.566L391.248 500.754L394.242 492.209C394.479 491.516 394.693 490.974 394.884 490.582C395.076 490.19 395.278 489.926 395.493 489.789C395.707 489.652 396.01 489.584 396.402 489.584C396.684 489.584 396.956 489.659 397.215 489.809C397.475 489.96 397.676 490.163 397.817 490.418C397.958 490.673 398.029 490.942 398.029 491.224C397.992 491.398 397.933 491.644 397.851 491.963C397.769 492.282 397.669 492.605 397.55 492.933L392.683 505.676C392.264 506.797 391.854 507.676 391.453 508.314C391.052 508.952 390.521 509.442 389.86 509.784C389.199 510.126 388.308 510.297 387.187 510.297C386.093 510.297 385.273 510.178 384.726 509.941C384.179 509.704 383.906 509.271 383.906 508.642C383.906 508.214 384.036 507.884 384.295 507.651C384.555 507.419 384.94 507.303 385.451 507.303C385.651 507.303 385.847 507.33 386.039 507.385C386.276 507.439 386.481 507.467 386.654 507.467C387.082 507.467 387.419 507.403 387.666 507.275C387.912 507.148 388.133 506.927 388.329 506.612C388.525 506.298 388.75 505.835 389.005 505.224Z"/>
<path d="M413.15 497.445L413.15 502.408C413.15 503.192 412.972 503.78 412.617 504.172C412.261 504.564 411.792 504.76 411.209 504.76C410.643 504.76 410.185 504.564 409.834 504.172C409.484 503.78 409.308 503.192 409.308 502.408L409.308 496.461C409.308 495.522 409.276 494.793 409.212 494.273C409.149 493.754 408.975 493.328 408.693 492.995C408.41 492.662 407.964 492.496 407.353 492.496C406.132 492.496 405.327 492.915 404.94 493.754C404.553 494.592 404.359 495.795 404.359 497.363L404.359 502.408C404.359 503.183 404.183 503.768 403.833 504.165C403.482 504.561 403.019 504.76 402.445 504.76C401.88 504.76 401.417 504.561 401.057 504.165C400.697 503.768 400.517 503.183 400.517 502.408L400.517 491.73C400.517 491.028 400.679 490.495 401.002 490.131C401.326 489.766 401.752 489.584 402.281 489.584C402.791 489.584 403.217 489.755 403.559 490.096C403.901 490.438 404.072 490.91 404.072 491.511L404.072 491.867C404.719 491.092 405.412 490.523 406.15 490.158C406.888 489.793 407.709 489.611 408.611 489.611C409.55 489.611 410.356 489.798 411.031 490.172C411.705 490.545 412.261 491.11 412.699 491.867C413.328 491.101 414.002 490.534 414.722 490.165C415.442 489.796 416.24 489.611 417.115 489.611C418.136 489.611 419.015 489.812 419.753 490.213C420.492 490.614 421.043 491.188 421.408 491.935C421.727 492.61 421.886 493.672 421.886 495.121L421.886 502.408C421.886 503.192 421.709 503.78 421.353 504.172C420.998 504.564 420.528 504.76 419.945 504.76C419.38 504.76 418.917 504.561 418.557 504.165C418.197 503.768 418.017 503.183 418.017 502.408L418.017 496.133C418.017 495.331 417.983 494.688 417.915 494.205C417.846 493.722 417.662 493.316 417.361 492.988C417.06 492.66 416.604 492.496 415.994 492.496C415.501 492.496 415.034 492.642 414.592 492.933C414.15 493.225 413.806 493.617 413.56 494.109C413.287 494.738 413.15 495.85 413.15 497.445Z"/>
<path d="M434.943 502.654C434.041 503.356 433.168 503.882 432.325 504.233C431.482 504.584 430.536 504.76 429.488 504.76C428.531 504.76 427.69 504.57 426.965 504.192C426.241 503.814 425.682 503.301 425.291 502.654C424.899 502.007 424.703 501.305 424.703 500.549C424.703 499.528 425.026 498.657 425.673 497.937C426.32 497.217 427.209 496.734 428.339 496.488C428.576 496.433 429.164 496.31 430.103 496.119C431.042 495.928 431.846 495.752 432.516 495.593C433.186 495.433 433.913 495.239 434.697 495.011C434.651 494.027 434.453 493.305 434.102 492.845C433.751 492.384 433.024 492.154 431.921 492.154C430.973 492.154 430.26 492.286 429.782 492.551C429.303 492.815 428.893 493.211 428.551 493.74C428.209 494.269 427.968 494.617 427.827 494.786C427.685 494.955 427.382 495.039 426.917 495.039C426.498 495.039 426.136 494.904 425.831 494.636C425.525 494.367 425.373 494.023 425.373 493.603C425.373 492.947 425.605 492.309 426.07 491.689C426.535 491.069 427.259 490.559 428.244 490.158C429.228 489.757 430.454 489.556 431.921 489.556C433.562 489.556 434.852 489.75 435.791 490.137C436.729 490.525 437.392 491.138 437.78 491.976C438.167 492.815 438.361 493.927 438.361 495.312C438.361 496.187 438.359 496.93 438.354 497.541C438.349 498.151 438.343 498.831 438.334 499.578C438.334 500.28 438.45 501.011 438.682 501.772C438.915 502.533 439.031 503.023 439.031 503.242C439.031 503.625 438.851 503.973 438.491 504.288C438.131 504.602 437.723 504.76 437.267 504.76C436.884 504.76 436.506 504.58 436.132 504.22C435.759 503.859 435.362 503.338 434.943 502.654ZM434.697 497.254C434.15 497.454 433.355 497.666 432.311 497.889C431.267 498.113 430.545 498.277 430.144 498.382C429.743 498.486 429.36 498.692 428.996 498.997C428.631 499.302 428.449 499.728 428.449 500.275C428.449 500.84 428.663 501.321 429.091 501.718C429.52 502.114 430.08 502.312 430.773 502.312C431.511 502.312 432.193 502.15 432.817 501.827C433.441 501.503 433.899 501.086 434.191 500.576C434.528 500.011 434.697 499.081 434.697 497.787L434.697 497.254Z"/>
<path d="M445.539 491.648L445.539 492.099C446.195 491.234 446.913 490.598 447.692 490.192C448.471 489.787 449.367 489.584 450.378 489.584C451.363 489.584 452.242 489.798 453.017 490.226C453.792 490.655 454.371 491.261 454.753 492.045C455 492.5 455.159 492.993 455.232 493.521C455.305 494.05 455.341 494.724 455.341 495.545L455.341 502.49C455.341 503.237 455.17 503.803 454.829 504.185C454.487 504.568 454.042 504.76 453.496 504.76C452.94 504.76 452.488 504.564 452.142 504.172C451.796 503.78 451.623 503.219 451.623 502.49L451.623 496.269C451.623 495.039 451.452 494.098 451.11 493.446C450.768 492.794 450.087 492.469 449.066 492.469C448.401 492.469 447.794 492.667 447.248 493.063C446.701 493.46 446.3 494.004 446.044 494.697C445.862 495.253 445.771 496.292 445.771 497.814L445.771 502.49C445.771 503.247 445.596 503.814 445.245 504.192C444.894 504.57 444.44 504.76 443.884 504.76C443.347 504.76 442.904 504.564 442.558 504.172C442.212 503.78 442.039 503.219 442.039 502.49L442.039 491.703C442.039 490.992 442.194 490.461 442.503 490.11C442.813 489.759 443.237 489.584 443.775 489.584C444.103 489.584 444.399 489.661 444.664 489.816C444.928 489.971 445.14 490.204 445.299 490.513C445.459 490.823 445.539 491.202 445.539 491.648Z"/>
<path d="M481.55 498.402C481.55 499.614 481.238 500.704 480.614 501.67C479.989 502.636 479.076 503.392 477.873 503.939C476.669 504.486 475.243 504.76 473.593 504.76C471.615 504.76 469.984 504.386 468.699 503.638C467.787 503.101 467.047 502.383 466.477 501.485C465.907 500.587 465.623 499.715 465.623 498.867C465.623 498.375 465.793 497.953 466.135 497.602C466.477 497.251 466.912 497.076 467.441 497.076C467.869 497.076 468.232 497.213 468.528 497.486C468.824 497.76 469.077 498.165 469.287 498.703C469.542 499.341 469.818 499.874 470.114 500.303C470.41 500.731 470.827 501.084 471.365 501.362C471.903 501.64 472.609 501.779 473.484 501.779C474.687 501.779 475.665 501.499 476.417 500.938C477.168 500.378 477.544 499.678 477.544 498.84C477.544 498.174 477.342 497.634 476.936 497.22C476.53 496.805 476.006 496.488 475.364 496.269C474.721 496.051 473.862 495.818 472.787 495.572C471.347 495.235 470.141 494.841 469.17 494.389C468.2 493.938 467.43 493.323 466.86 492.544C466.29 491.764 466.005 490.796 466.005 489.638C466.005 488.536 466.306 487.556 466.908 486.699C467.509 485.842 468.38 485.184 469.519 484.723C470.658 484.263 471.998 484.033 473.539 484.033C474.769 484.033 475.833 484.186 476.731 484.491C477.629 484.796 478.374 485.202 478.966 485.708C479.559 486.214 479.992 486.745 480.265 487.301C480.539 487.857 480.675 488.399 480.675 488.928C480.675 489.411 480.504 489.846 480.163 490.233C479.821 490.621 479.395 490.814 478.884 490.814C478.419 490.814 478.066 490.698 477.825 490.466C477.583 490.233 477.321 489.853 477.039 489.324C476.674 488.567 476.237 487.977 475.726 487.553C475.216 487.13 474.395 486.918 473.265 486.918C472.217 486.918 471.372 487.148 470.729 487.608C470.086 488.068 469.765 488.622 469.765 489.269C469.765 489.67 469.875 490.017 470.093 490.308C470.312 490.6 470.613 490.851 470.996 491.06C471.378 491.27 471.766 491.434 472.158 491.553C472.55 491.671 473.197 491.844 474.099 492.072C475.229 492.336 476.252 492.628 477.168 492.947C478.084 493.266 478.864 493.653 479.506 494.109C480.149 494.565 480.65 495.141 481.01 495.839C481.37 496.536 481.55 497.39 481.55 498.402Z"/>
<path d="M495.154 498.088L487.853 498.088C487.862 498.935 488.033 499.683 488.366 500.33C488.698 500.977 489.14 501.465 489.692 501.793C490.243 502.121 490.852 502.285 491.517 502.285C491.964 502.285 492.372 502.233 492.741 502.128C493.11 502.023 493.468 501.859 493.814 501.636C494.16 501.412 494.479 501.173 494.771 500.918C495.063 500.663 495.441 500.316 495.906 499.879C496.097 499.715 496.371 499.633 496.726 499.633C497.109 499.633 497.419 499.737 497.656 499.947C497.893 500.157 498.011 500.453 498.011 500.836C498.011 501.173 497.879 501.567 497.615 502.018C497.35 502.47 496.952 502.902 496.418 503.317C495.885 503.732 495.215 504.076 494.409 504.349C493.602 504.623 492.675 504.76 491.626 504.76C489.229 504.76 487.365 504.076 486.035 502.709C484.704 501.342 484.039 499.487 484.039 497.144C484.039 496.041 484.203 495.018 484.531 494.075C484.859 493.132 485.337 492.323 485.966 491.648C486.595 490.974 487.37 490.456 488.291 490.096C489.211 489.736 490.232 489.556 491.353 489.556C492.811 489.556 494.062 489.864 495.106 490.479C496.15 491.095 496.931 491.89 497.451 492.865C497.97 493.84 498.23 494.834 498.23 495.845C498.23 496.784 497.961 497.393 497.423 497.671C496.886 497.949 496.129 498.088 495.154 498.088ZM487.853 495.969L494.621 495.969C494.529 494.692 494.185 493.738 493.588 493.104C492.991 492.471 492.205 492.154 491.23 492.154C490.3 492.154 489.537 492.475 488.94 493.118C488.343 493.761 487.981 494.711 487.853 495.969Z"/>
<path d="M505.08 499.373L505.08 502.49C505.08 503.247 504.902 503.814 504.546 504.192C504.191 504.57 503.74 504.76 503.193 504.76C502.655 504.76 502.213 504.568 501.867 504.185C501.52 503.803 501.347 503.237 501.347 502.49L501.347 492.099C501.347 490.422 501.953 489.584 503.166 489.584C503.785 489.584 504.232 489.78 504.505 490.172C504.779 490.564 504.929 491.142 504.957 491.908C505.403 491.142 505.861 490.564 506.331 490.172C506.8 489.78 507.427 489.584 508.21 489.584C508.994 489.584 509.755 489.78 510.494 490.172C511.232 490.564 511.601 491.083 511.601 491.73C511.601 492.186 511.444 492.562 511.129 492.858C510.815 493.154 510.475 493.303 510.111 493.303C509.974 493.303 509.644 493.218 509.12 493.05C508.596 492.881 508.133 492.797 507.732 492.797C507.185 492.797 506.738 492.94 506.392 493.227C506.046 493.514 505.777 493.941 505.585 494.506C505.394 495.071 505.262 495.743 505.189 496.522C505.116 497.302 505.08 498.252 505.08 499.373Z"/>
<path d="M515.908 491.908L518.929 500.385L522.183 491.539C522.438 490.828 522.689 490.324 522.935 490.028C523.181 489.732 523.555 489.584 524.056 489.584C524.53 489.584 524.933 489.743 525.266 490.062C525.599 490.381 525.765 490.75 525.765 491.17C525.765 491.334 525.736 491.525 525.676 491.744C525.617 491.963 525.549 492.168 525.471 492.359C525.394 492.551 525.305 492.769 525.205 493.015L521.623 501.902C521.522 502.157 521.392 502.481 521.233 502.873C521.073 503.265 520.896 503.6 520.7 503.878C520.504 504.156 520.262 504.372 519.975 504.527C519.688 504.682 519.339 504.76 518.929 504.76C518.401 504.76 517.979 504.639 517.665 504.397C517.35 504.156 517.118 503.891 516.967 503.604C516.817 503.317 516.564 502.75 516.209 501.902L512.654 493.111C512.572 492.892 512.487 492.674 512.401 492.455C512.314 492.236 512.241 492.013 512.182 491.785C512.123 491.557 512.093 491.361 512.093 491.197C512.093 490.942 512.171 490.689 512.326 490.438C512.481 490.188 512.695 489.983 512.968 489.823C513.242 489.664 513.538 489.584 513.857 489.584C514.477 489.584 514.903 489.761 515.135 490.117C515.368 490.472 515.625 491.069 515.908 491.908Z"/>
<path d="M532.177 491.703L532.177 502.49C532.177 503.237 532 503.803 531.644 504.185C531.289 504.568 530.837 504.76 530.291 504.76C529.744 504.76 529.299 504.564 528.958 504.172C528.616 503.78 528.445 503.219 528.445 502.49L528.445 491.812C528.445 491.074 528.616 490.518 528.958 490.144C529.299 489.771 529.744 489.584 530.291 489.584C530.837 489.584 531.289 489.771 531.644 490.144C532 490.518 532.177 491.038 532.177 491.703ZM530.332 487.847C529.812 487.847 529.368 487.688 528.999 487.369C528.629 487.05 528.445 486.599 528.445 486.015C528.445 485.487 528.634 485.052 529.012 484.71C529.39 484.368 529.83 484.197 530.332 484.197C530.815 484.197 531.243 484.352 531.617 484.662C531.99 484.972 532.177 485.423 532.177 486.015C532.177 486.59 531.995 487.039 531.63 487.362C531.266 487.686 530.833 487.847 530.332 487.847Z"/>
<path d="M549.417 500.138C549.417 500.603 549.278 501.1 549 501.629C548.723 502.157 548.299 502.661 547.729 503.139C547.159 503.618 546.442 504.003 545.576 504.295C544.71 504.586 543.735 504.732 542.65 504.732C540.344 504.732 538.544 504.06 537.25 502.716C535.955 501.371 535.308 499.569 535.308 497.308C535.308 495.777 535.604 494.424 536.197 493.248C536.789 492.072 537.646 491.163 538.767 490.52C539.888 489.878 541.228 489.556 542.787 489.556C543.753 489.556 544.639 489.698 545.446 489.98C546.252 490.263 546.936 490.627 547.497 491.074C548.057 491.521 548.486 491.997 548.782 492.503C549.078 493.009 549.226 493.48 549.226 493.918C549.226 494.364 549.06 494.743 548.727 495.053C548.394 495.362 547.991 495.517 547.517 495.517C547.207 495.517 546.95 495.438 546.745 495.278C546.54 495.119 546.309 494.861 546.054 494.506C545.598 493.813 545.122 493.293 544.625 492.947C544.129 492.601 543.498 492.428 542.732 492.428C541.629 492.428 540.74 492.858 540.066 493.72C539.391 494.581 539.054 495.759 539.054 497.254C539.054 497.956 539.141 498.6 539.314 499.188C539.487 499.776 539.738 500.277 540.066 500.692C540.394 501.107 540.791 501.421 541.255 501.636C541.72 501.85 542.231 501.957 542.787 501.957C543.534 501.957 544.174 501.784 544.708 501.437C545.241 501.091 545.712 500.562 546.123 499.851C546.35 499.432 546.597 499.104 546.861 498.867C547.125 498.63 547.449 498.511 547.832 498.511C548.287 498.511 548.666 498.685 548.966 499.031C549.267 499.377 549.417 499.747 549.417 500.138Z"/>
<path d="M563.089 498.088L555.789 498.088C555.798 498.935 555.969 499.683 556.301 500.33C556.634 500.977 557.076 501.465 557.627 501.793C558.179 502.121 558.787 502.285 559.453 502.285C559.899 502.285 560.307 502.233 560.676 502.128C561.045 502.023 561.403 501.859 561.75 501.636C562.096 501.412 562.415 501.173 562.707 500.918C562.998 500.663 563.376 500.316 563.841 499.879C564.033 499.715 564.306 499.633 564.662 499.633C565.044 499.633 565.354 499.737 565.591 499.947C565.828 500.157 565.947 500.453 565.947 500.836C565.947 501.173 565.815 501.567 565.55 502.018C565.286 502.47 564.887 502.902 564.354 503.317C563.821 503.732 563.151 504.076 562.344 504.349C561.538 504.623 560.61 504.76 559.562 504.76C557.165 504.76 555.301 504.076 553.97 502.709C552.639 501.342 551.974 499.487 551.974 497.144C551.974 496.041 552.138 495.018 552.466 494.075C552.794 493.132 553.273 492.323 553.902 491.648C554.531 490.974 555.306 490.456 556.226 490.096C557.147 489.736 558.167 489.556 559.289 489.556C560.747 489.556 561.998 489.864 563.042 490.479C564.085 491.095 564.867 491.89 565.386 492.865C565.906 493.84 566.166 494.834 566.166 495.845C566.166 496.784 565.897 497.393 565.359 497.671C564.821 497.949 564.065 498.088 563.089 498.088ZM555.789 495.969L562.556 495.969C562.465 494.692 562.121 493.738 561.524 493.104C560.927 492.471 560.141 492.154 559.166 492.154C558.236 492.154 557.473 492.475 556.875 493.118C556.278 493.761 555.916 494.711 555.789 495.969Z"/>
<path d="M581.328 499.879C581.328 500.909 581.077 501.79 580.576 502.524C580.074 503.258 579.334 503.814 578.354 504.192C577.374 504.57 576.182 504.76 574.779 504.76C573.439 504.76 572.291 504.554 571.334 504.144C570.376 503.734 569.67 503.221 569.214 502.606C568.759 501.991 568.531 501.373 568.531 500.754C568.531 500.344 568.677 499.993 568.968 499.701C569.26 499.409 569.629 499.263 570.076 499.263C570.468 499.263 570.768 499.359 570.978 499.551C571.188 499.742 571.388 500.011 571.58 500.357C571.962 501.023 572.42 501.519 572.954 501.847C573.487 502.176 574.214 502.34 575.134 502.34C575.882 502.34 576.495 502.173 576.973 501.841C577.452 501.508 577.691 501.127 577.691 500.699C577.691 500.043 577.443 499.564 576.946 499.263C576.449 498.963 575.631 498.676 574.492 498.402C573.207 498.083 572.161 497.748 571.354 497.397C570.547 497.046 569.903 496.584 569.419 496.01C568.936 495.435 568.695 494.729 568.695 493.89C568.695 493.143 568.918 492.437 569.365 491.771C569.811 491.106 570.47 490.575 571.34 490.178C572.211 489.782 573.261 489.584 574.492 489.584C575.458 489.584 576.326 489.684 577.096 489.885C577.866 490.085 578.509 490.354 579.024 490.691C579.539 491.028 579.931 491.402 580.2 491.812C580.469 492.222 580.603 492.623 580.603 493.015C580.603 493.444 580.459 493.795 580.172 494.068C579.885 494.342 579.477 494.478 578.949 494.478C578.566 494.478 578.24 494.369 577.971 494.15C577.702 493.931 577.395 493.603 577.048 493.166C576.766 492.801 576.433 492.51 576.05 492.291C575.667 492.072 575.148 491.963 574.492 491.963C573.817 491.963 573.257 492.106 572.81 492.393C572.363 492.68 572.14 493.038 572.14 493.467C572.14 493.859 572.304 494.18 572.632 494.43C572.96 494.681 573.403 494.888 573.959 495.053C574.514 495.217 575.28 495.417 576.255 495.654C577.413 495.937 578.359 496.274 579.092 496.666C579.826 497.058 580.382 497.52 580.76 498.053C581.139 498.587 581.328 499.195 581.328 499.879Z"/>
</g>
<g fill="#122358" opacity="1" stroke="none">
<path d="M201.312 370.553L214.695 390.803L214.695 370.365C214.695 369.037 214.98 368.041 215.55 367.377C216.12 366.713 216.89 366.381 217.859 366.381C218.859 366.381 219.648 366.713 220.226 367.377C220.804 368.041 221.093 369.037 221.093 370.365L221.093 397.389C221.093 400.404 219.843 401.912 217.343 401.912C216.718 401.912 216.156 401.822 215.656 401.643C215.156 401.463 214.687 401.178 214.249 400.787C213.812 400.396 213.406 399.939 213.031 399.416C212.656 398.893 212.281 398.357 211.906 397.81L198.851 377.795L198.851 397.928C198.851 399.24 198.546 400.232 197.937 400.904C197.327 401.576 196.546 401.912 195.593 401.912C194.609 401.912 193.82 401.572 193.226 400.893C192.632 400.213 192.335 399.225 192.335 397.928L192.335 371.42C192.335 370.295 192.46 369.412 192.71 368.771C193.007 368.068 193.499 367.494 194.187 367.049C194.874 366.603 195.617 366.381 196.413 366.381C197.038 366.381 197.574 366.482 198.019 366.685C198.464 366.889 198.855 367.162 199.191 367.506C199.527 367.85 199.87 368.295 200.222 368.842C200.574 369.389 200.937 369.959 201.312 370.553Z"/>
<path d="M251.351 372.334L235.671 372.334L235.671 380.771L250.109 380.771C251.171 380.771 251.964 381.01 252.488 381.486C253.011 381.963 253.273 382.592 253.273 383.373C253.273 384.154 253.015 384.791 252.499 385.283C251.984 385.775 251.187 386.021 250.109 386.021L235.671 386.021L235.671 395.795L251.89 395.795C252.984 395.795 253.808 396.049 254.363 396.557C254.917 397.064 255.195 397.74 255.195 398.584C255.195 399.396 254.917 400.057 254.363 400.564C253.808 401.072 252.984 401.326 251.89 401.326L232.976 401.326C231.46 401.326 230.37 400.99 229.706 400.318C229.042 399.646 228.71 398.56 228.71 397.06L228.71 371.232C228.71 370.232 228.859 369.416 229.156 368.783C229.452 368.15 229.917 367.689 230.55 367.4C231.183 367.111 231.992 366.967 232.976 366.967L251.351 366.967C252.46 366.967 253.285 367.213 253.824 367.705C254.363 368.197 254.632 368.842 254.632 369.639C254.632 370.451 254.363 371.103 253.824 371.596C253.285 372.088 252.46 372.334 251.351 372.334Z"/>
</g>
<g fill="#122358" opacity="1" stroke="none">
<path d="M349.233 397.101L349.233 396.075C348.276 397.286 347.271 398.302 346.216 399.122C345.161 399.942 344.009 400.553 342.759 400.953C341.509 401.354 340.083 401.554 338.481 401.554C336.548 401.554 334.814 401.153 333.281 400.353C331.748 399.552 330.562 398.448 329.722 397.042C328.726 395.343 328.228 392.901 328.228 389.718L328.228 373.868C328.228 372.267 328.589 371.07 329.312 370.279C330.034 369.488 330.991 369.093 332.183 369.093C333.394 369.093 334.37 369.493 335.112 370.294C335.855 371.095 336.226 372.286 336.226 373.868L336.226 386.671C336.226 388.526 336.382 390.084 336.694 391.344C337.007 392.604 337.568 393.59 338.379 394.303C339.189 395.016 340.288 395.372 341.675 395.372C343.022 395.372 344.292 394.972 345.483 394.171C346.675 393.37 347.544 392.325 348.091 391.036C348.54 389.903 348.765 387.423 348.765 383.595L348.765 373.868C348.765 372.286 349.136 371.095 349.878 370.294C350.62 369.493 351.587 369.093 352.778 369.093C353.97 369.093 354.927 369.488 355.649 370.279C356.372 371.07 356.733 372.267 356.733 373.868L356.733 397.042C356.733 398.566 356.387 399.708 355.693 400.47C355 401.232 354.106 401.612 353.013 401.612C351.919 401.612 351.016 401.217 350.303 400.426C349.59 399.635 349.233 398.526 349.233 397.101Z"/>
<path d="M390.454 391.153C390.454 393.36 389.917 395.25 388.843 396.822C387.769 398.395 386.182 399.586 384.082 400.397C381.982 401.207 379.429 401.612 376.421 401.612C373.55 401.612 371.089 401.173 369.038 400.294C366.987 399.415 365.474 398.317 364.497 396.998C363.521 395.68 363.032 394.357 363.032 393.028C363.032 392.15 363.345 391.398 363.97 390.773C364.595 390.148 365.386 389.835 366.343 389.835C367.183 389.835 367.827 390.04 368.276 390.45C368.726 390.86 369.155 391.437 369.565 392.179C370.386 393.605 371.367 394.669 372.51 395.372C373.652 396.075 375.21 396.427 377.183 396.427C378.784 396.427 380.098 396.07 381.123 395.358C382.148 394.645 382.661 393.829 382.661 392.911C382.661 391.505 382.129 390.48 381.064 389.835C380 389.191 378.247 388.575 375.806 387.989C373.052 387.306 370.811 386.588 369.082 385.836C367.354 385.084 365.972 384.093 364.937 382.862C363.901 381.632 363.384 380.118 363.384 378.321C363.384 376.72 363.862 375.206 364.819 373.78C365.776 372.355 367.188 371.217 369.053 370.367C370.918 369.518 373.169 369.093 375.806 369.093C377.876 369.093 379.736 369.308 381.387 369.737C383.037 370.167 384.414 370.743 385.518 371.466C386.621 372.189 387.461 372.989 388.037 373.868C388.613 374.747 388.901 375.607 388.901 376.446C388.901 377.364 388.594 378.116 387.979 378.702C387.363 379.288 386.489 379.581 385.356 379.581C384.536 379.581 383.838 379.347 383.262 378.878C382.686 378.409 382.026 377.706 381.284 376.769C380.679 375.987 379.966 375.362 379.146 374.894C378.325 374.425 377.212 374.191 375.806 374.191C374.36 374.191 373.159 374.498 372.202 375.113C371.245 375.729 370.767 376.495 370.767 377.413C370.767 378.253 371.118 378.942 371.821 379.479C372.524 380.016 373.472 380.46 374.663 380.812C375.855 381.163 377.495 381.593 379.585 382.101C382.065 382.706 384.092 383.429 385.664 384.269C387.236 385.109 388.428 386.1 389.238 387.242C390.049 388.385 390.454 389.689 390.454 391.153Z"/>
</g>
<g fill="#000120" opacity="1" stroke="none">
<path d="M320.074 533.516C321.031 533.516 321.788 533.325 322.345 532.942C322.902 532.559 323.181 531.869 323.181 530.871C323.181 529.798 322.791 529.066 322.012 528.676C321.595 528.471 321.038 528.369 320.34 528.369L315.357 528.369L315.357 533.516L320.074 533.516ZM313.317 526.615L320.289 526.615C321.438 526.615 322.384 526.783 323.129 527.118C324.545 527.76 325.252 528.947 325.252 530.676C325.252 531.578 325.066 532.317 324.693 532.891C324.321 533.465 323.799 533.926 323.129 534.275C323.717 534.514 324.16 534.829 324.457 535.218C324.755 535.608 324.921 536.24 324.955 537.115L325.026 539.135C325.047 539.71 325.095 540.137 325.17 540.417C325.293 540.896 325.512 541.203 325.826 541.34L325.826 541.678L323.324 541.678C323.256 541.549 323.201 541.381 323.16 541.176C323.119 540.971 323.085 540.574 323.058 539.987L322.935 537.474C322.887 536.49 322.521 535.83 321.838 535.495C321.448 535.311 320.836 535.218 320.002 535.218L315.357 535.218L315.357 541.678L313.317 541.678L313.317 526.615Z"/>
<path d="M334.737 526.205C337.396 526.205 339.365 527.06 340.643 528.769C341.641 530.102 342.14 531.807 342.14 533.885C342.14 536.135 341.569 538.004 340.428 539.494C339.088 541.244 337.177 542.119 334.696 542.119C332.379 542.119 330.557 541.354 329.231 539.822C328.048 538.346 327.457 536.48 327.457 534.224C327.457 532.187 327.963 530.444 328.974 528.994C330.273 527.135 332.194 526.205 334.737 526.205ZM334.942 540.294C336.74 540.294 338.04 539.65 338.844 538.361C339.647 537.073 340.048 535.591 340.048 533.916C340.048 532.146 339.585 530.72 338.659 529.64C337.733 528.56 336.466 528.02 334.86 528.02C333.301 528.02 332.03 528.555 331.046 529.625C330.061 530.695 329.569 532.272 329.569 534.357C329.569 536.025 329.991 537.432 330.835 538.577C331.68 539.722 333.048 540.294 334.942 540.294Z"/>
<path d="M350.918 526.205C352.825 526.205 354.305 526.708 355.358 527.713C356.41 528.718 356.995 529.859 357.111 531.137L355.122 531.137C354.896 530.167 354.447 529.398 353.773 528.83C353.1 528.263 352.155 527.979 350.938 527.979C349.455 527.979 348.257 528.5 347.344 529.543C346.431 530.585 345.975 532.183 345.975 534.337C345.975 536.1 346.387 537.531 347.211 538.628C348.035 539.725 349.263 540.274 350.897 540.274C352.401 540.274 353.546 539.696 354.332 538.541C354.749 537.932 355.06 537.133 355.265 536.141L357.254 536.141C357.077 537.727 356.489 539.057 355.491 540.13C354.295 541.422 352.681 542.068 350.651 542.068C348.901 542.068 347.431 541.538 346.242 540.479C344.676 539.077 343.894 536.914 343.894 533.988C343.894 531.766 344.482 529.945 345.657 528.523C346.929 526.978 348.682 526.205 350.918 526.205Z"/>
<path d="M358.444 535.926L360.833 535.926L361.797 532.399L359.418 532.399L359.736 531.209L362.115 531.209L363.335 526.615L364.863 526.615L363.622 531.209L365.888 531.209L367.15 526.615L368.657 526.615L367.416 531.209L369.795 531.209L369.477 532.399L367.098 532.399L366.124 535.926L368.513 535.926L368.195 537.115L365.837 537.115L364.576 541.678L363.068 541.678L364.309 537.115L362.023 537.115L360.802 541.678L359.275 541.678L360.515 537.115L358.136 537.115L358.444 535.926ZM364.596 535.926L365.57 532.399L363.304 532.399L362.361 535.926L364.596 535.926Z"/>
<path d="M381.105 542.078C379.369 542.078 378.109 541.602 377.327 540.648C376.544 539.694 376.152 538.534 376.152 537.167L378.08 537.167C378.162 538.117 378.34 538.807 378.613 539.238C379.092 540.01 379.957 540.397 381.208 540.397C382.178 540.397 382.958 540.137 383.546 539.617C384.133 539.098 384.427 538.428 384.427 537.608C384.427 536.596 384.118 535.888 383.499 535.485C382.881 535.082 382.021 534.88 380.921 534.88C380.797 534.88 380.673 534.882 380.546 534.885C380.42 534.889 380.292 534.894 380.162 534.901L380.162 533.27C380.353 533.291 380.514 533.304 380.644 533.311C380.774 533.318 380.914 533.322 381.064 533.322C381.754 533.322 382.322 533.212 382.766 532.993C383.546 532.611 383.935 531.927 383.935 530.943C383.935 530.211 383.675 529.647 383.156 529.251C382.636 528.854 382.031 528.656 381.341 528.656C380.11 528.656 379.259 529.066 378.788 529.886C378.528 530.338 378.381 530.98 378.347 531.814L376.522 531.814C376.522 530.72 376.74 529.791 377.178 529.025C377.93 527.658 379.253 526.974 381.146 526.974C382.643 526.974 383.802 527.308 384.622 527.974C385.442 528.641 385.853 529.606 385.853 530.871C385.853 531.773 385.61 532.505 385.125 533.065C384.824 533.414 384.434 533.687 383.956 533.885C384.728 534.097 385.331 534.506 385.765 535.111C386.2 535.716 386.417 536.456 386.417 537.331C386.417 538.732 385.955 539.874 385.032 540.756C384.109 541.637 382.8 542.078 381.105 542.078Z"/>
<path d="M394.271 536.48L394.271 529.825L389.565 536.48L394.271 536.48ZM394.302 541.678L394.302 538.09L387.862 538.09L387.862 536.285L394.589 526.954L396.148 526.954L396.148 536.48L398.311 536.48L398.311 538.09L396.148 538.09L396.148 541.678L394.302 541.678Z"/>
<path d="M405.95 536.48L405.95 529.825L401.244 536.48L405.95 536.48ZM405.981 541.678L405.981 538.09L399.542 538.09L399.542 536.285L406.268 526.954L407.827 526.954L407.827 536.48L409.99 536.48L409.99 538.09L407.827 538.09L407.827 541.678L405.981 541.678Z"/>
<path d="M411.344 541.678C411.412 540.414 411.674 539.313 412.128 538.377C412.583 537.44 413.47 536.589 414.789 535.823L416.758 534.685C417.64 534.173 418.258 533.735 418.614 533.373C419.174 532.805 419.455 532.156 419.455 531.425C419.455 530.57 419.198 529.892 418.686 529.389C418.173 528.887 417.489 528.635 416.635 528.635C415.37 528.635 414.495 529.114 414.01 530.071C413.75 530.584 413.607 531.295 413.579 532.204L411.703 532.204C411.723 530.926 411.959 529.883 412.41 529.076C413.21 527.655 414.622 526.944 416.645 526.944C418.327 526.944 419.556 527.398 420.331 528.307C421.107 529.217 421.495 530.228 421.495 531.343C421.495 532.518 421.082 533.523 420.254 534.357C419.776 534.843 418.918 535.43 417.681 536.121L416.276 536.9C415.606 537.269 415.08 537.621 414.697 537.956C414.013 538.551 413.583 539.211 413.405 539.935L421.423 539.935L421.423 541.678L411.344 541.678Z"/>
<path d="M428.078 533.147C428.892 533.147 429.527 532.92 429.985 532.465C430.443 532.011 430.672 531.469 430.672 530.84C430.672 530.293 430.454 529.791 430.016 529.333C429.579 528.875 428.912 528.646 428.017 528.646C427.128 528.646 426.485 528.875 426.089 529.333C425.692 529.791 425.494 530.327 425.494 530.943C425.494 531.633 425.751 532.173 426.263 532.563C426.776 532.952 427.381 533.147 428.078 533.147ZM428.191 540.417C429.046 540.417 429.755 540.187 430.319 539.725C430.883 539.264 431.165 538.575 431.165 537.659C431.165 536.709 430.874 535.988 430.293 535.495C429.712 535.003 428.967 534.757 428.058 534.757C427.176 534.757 426.456 535.008 425.899 535.511C425.342 536.013 425.064 536.709 425.064 537.597C425.064 538.363 425.318 539.024 425.827 539.582C426.337 540.139 427.125 540.417 428.191 540.417ZM425.566 533.855C425.053 533.636 424.653 533.38 424.366 533.086C423.826 532.539 423.556 531.828 423.556 530.953C423.556 529.859 423.953 528.919 424.746 528.133C425.539 527.347 426.663 526.954 428.119 526.954C429.527 526.954 430.631 527.325 431.431 528.066C432.231 528.808 432.631 529.675 432.631 530.666C432.631 531.582 432.399 532.323 431.934 532.891C431.674 533.212 431.271 533.527 430.724 533.834C431.332 534.114 431.811 534.436 432.159 534.798C432.809 535.482 433.133 536.37 433.133 537.464C433.133 538.756 432.699 539.852 431.831 540.75C430.963 541.649 429.736 542.099 428.15 542.099C426.721 542.099 425.513 541.711 424.525 540.935C423.537 540.159 423.044 539.033 423.044 537.556C423.044 536.688 423.255 535.938 423.679 535.306C424.103 534.673 424.732 534.19 425.566 533.855Z"/>
<path d="M439.757 533.147C440.571 533.147 441.207 532.92 441.665 532.465C442.123 532.011 442.352 531.469 442.352 530.84C442.352 530.293 442.133 529.791 441.695 529.333C441.258 528.875 440.591 528.646 439.696 528.646C438.807 528.646 438.165 528.875 437.768 529.333C437.372 529.791 437.173 530.327 437.173 530.943C437.173 531.633 437.43 532.173 437.942 532.563C438.455 532.952 439.06 533.147 439.757 533.147ZM439.87 540.417C440.725 540.417 441.434 540.187 441.998 539.725C442.562 539.264 442.844 538.575 442.844 537.659C442.844 536.709 442.553 535.988 441.972 535.495C441.391 535.003 440.646 534.757 439.737 534.757C438.855 534.757 438.136 535.008 437.578 535.511C437.021 536.013 436.743 536.709 436.743 537.597C436.743 538.363 436.997 539.024 437.507 539.582C438.016 540.139 438.804 540.417 439.87 540.417ZM437.245 533.855C436.733 533.636 436.333 533.38 436.046 533.086C435.505 532.539 435.235 531.828 435.235 530.953C435.235 529.859 435.632 528.919 436.425 528.133C437.218 527.347 438.342 526.954 439.798 526.954C441.207 526.954 442.311 527.325 443.11 528.066C443.91 528.808 444.31 529.675 444.31 530.666C444.31 531.582 444.078 532.323 443.613 532.891C443.353 533.212 442.95 533.527 442.403 533.834C443.011 534.114 443.49 534.436 443.838 534.798C444.488 535.482 444.813 536.37 444.813 537.464C444.813 538.756 444.379 539.852 443.51 540.75C442.642 541.649 441.415 542.099 439.829 542.099C438.4 542.099 437.192 541.711 436.204 540.935C435.217 540.159 434.723 539.033 434.723 537.556C434.723 536.688 434.935 535.938 435.358 535.306C435.782 534.673 436.411 534.19 437.245 533.855Z"/>
</g>
</g>
</svg>
