<?xml version="1.0" encoding="UTF-8" standalone="no"?>
<!DOCTYPE svg PUBLIC "-//W3C//DTD SVG 1.1//EN" "http://www.w3.org/Graphics/SVG/1.1/DTD/svg11.dtd">
<!-- Created with Vectornator (http://vectornator.io/) -->
<svg height="100%" stroke-miterlimit="10" style="fill-rule:nonzero;clip-rule:evenodd;stroke-linecap:round;stroke-linejoin:round;" version="1.1" viewBox="0 0 792 612" width="100%" xml:space="preserve" xmlns="http://www.w3.org/2000/svg" xmlns:xlink="http://www.w3.org/1999/xlink">
<defs/>
<g id="Layer-1">
<g opacity="1">
<path d="M34.6831 24.28C34.6831 286.972 34.6831 286.972 34.6831 549.665C36.0889 549.774 33.8947 540.917 34.0426 542.013C34.9456 548.703 33.816 565.155 33.816 571.889C382.475 572.022 387.454 571.177 736.113 571.311C736.113 297.795 736.113 297.795 736.113 24.28C385.398 24.28 385.398 24.28 34.6831 24.28Z" fill="#fbfdfc" fill-rule="nonzero" opacity="1" stroke="none"/>
<path d="M359.968 163.818C317.389 184.867 287.19 218.427 249.631 244.79C236.714 253.856 224.025 263.121 211.253 272.315C210.08 273.16 199.971 279.851 199.602 280.6C198.566 282.7 199.945 287.459 199.945 289.953C199.945 299.039 200.287 308.124 200.287 317.211C200.287 324.502 199.592 330.641 200.287 338.055C200.311 338.306 200.65 338.581 200.973 338.59C207.137 338.761 213.309 338.574 219.477 338.59C255.342 338.678 291.207 338.59 327.073 338.59C391.265 338.59 455.457 338.946 519.649 338.857C519.972 338.856 520.322 338.574 520.334 338.322C520.585 333.335 521.925 328.299 521.02 323.357C520.974 323.108 520.657 322.827 520.334 322.823C507.315 322.648 494.291 322.907 481.271 322.823C469.29 322.746 456.785 323.039 444.606 322.823C443.572 322.804 442.52 322.768 441.522 322.555C441.21 322.489 440.842 322.273 440.837 322.021C440.612 311.957 440.724 301.889 440.837 291.823C440.942 282.367 425.016 282.47 416.508 282.47C410.807 282.47 402.563 287.46 402.458 291.823C402.239 300.997 402.116 310.173 402.116 319.349C402.116 319.834 402.991 322.773 401.773 322.823C378.054 323.796 353.338 322.555 329.471 322.555C325.244 322.555 321.019 322.907 316.793 322.823C316.47 322.816 316.112 322.54 316.107 322.288C315.882 310.798 316.107 299.306 316.107 287.815C316.107 281.312 315.996 274.809 316.107 268.307C316.114 267.939 316.239 267.566 316.45 267.238C317.952 264.895 326.807 259.428 329.129 257.617C336.047 252.222 343.09 246.729 350.031 241.316C364.478 230.049 379.515 219.289 394.577 208.446C398.852 205.369 403.212 202.355 407.256 199.093C407.414 198.965 407.398 198.697 407.256 198.558C402.967 194.377 395.304 188.603 389.78 185.731C388.715 185.177 384.589 189.512 383.612 190.274C379.328 193.615 374.949 196.88 370.591 200.162C353.134 213.306 335.626 226.371 318.163 239.445C314.492 242.194 310.89 244.998 307.198 247.73C302.592 251.138 298.06 254.693 293.149 257.885C291.925 258.68 287.924 259.602 287.324 257.885C286.25 254.813 290.192 253.94 292.464 252.273C299.156 247.361 306.166 242.388 312.681 237.307C330.966 223.048 350 209.109 369.22 195.619C374.328 192.034 379.214 188.266 384.297 184.662C384.383 184.601 387.399 183.185 387.039 182.791C380.293 175.426 369.706 159.004 359.968 163.818Z" fill="#0a7bc5" fill-rule="nonzero" opacity="1" stroke="none"/>
<path d="M354.486 130.948C340.754 131.578 334.336 138.569 324.331 145.913C314.233 153.325 303.603 160.475 293.834 168.094C290.748 170.5 287.424 172.714 284.24 175.042C282.858 176.052 272.94 182.395 272.932 182.524C272.715 185.816 272.87 189.116 272.932 192.412C272.984 195.175 273.275 197.933 273.275 200.696C273.275 201.947 272.484 203.553 273.617 204.438C284.792 195.723 296.74 187.601 308.226 179.05C318.748 171.217 329.353 163.449 340.094 155.801C343.779 153.177 349.528 148.015 354.828 146.982C370.763 143.875 380.55 155.783 390.808 163.283C408.75 176.402 427.034 189.461 445.634 202.032C473.163 220.639 499.987 240.02 526.845 259.221C530.074 261.529 534.016 263.744 537.125 266.169C542.732 270.542 549.901 277.897 557.342 271.514C559.931 269.292 558.795 264.095 558.712 262.16C558.492 256.996 539.919 246.42 535.411 243.187C532.2 240.882 529.046 238.528 525.817 236.239C523.304 234.457 520.791 232.675 518.278 230.894C485.642 207.755 452.211 185.321 419.934 161.947C409.859 154.651 400.411 146.817 389.78 140.034C386.768 138.112 382.2 133.988 378.129 133.353C371.72 132.353 365.223 130.948 354.486 130.948Z" fill="#7babc6" fill-rule="nonzero" opacity="1" stroke="none"/>
<path d="M244.148 167.559C240.639 167.378 234.592 170.131 234.554 173.438C234.442 183.059 234.407 192.68 234.211 202.3C234.148 205.394 235.278 206.283 233.183 207.644C219.686 216.416 206.964 226.088 194.12 235.437C184.09 242.738 173.279 249.552 163.623 257.083C156.034 263.001 161.161 274.453 171.846 274.453C177.123 274.453 183.85 267.639 186.581 265.634C194.195 260.046 201.76 254.526 209.539 249.066C225.776 237.669 242.065 226.347 258.197 214.86C259.091 214.223 273.947 204.242 273.96 204.17C275.172 197.555 273.83 189.148 273.617 182.524C273.377 175.028 276.106 173.688 268.82 168.361C264.096 164.907 250.368 167.879 244.148 167.559Z" fill="#07074a" fill-rule="nonzero" opacity="1" stroke="none"/>
<path d="M279.443 381.614C272.866 386.743 267.891 393.448 262.309 399.252C258.272 403.45 254.873 407.586 251.002 411.812C247.289 415.865 241.321 420.432 240.036 425.441C238.614 430.988 247.558 432.088 252.03 429.182C262.964 422.076 270.147 409.347 278.415 400.321C281.192 397.288 291.585 390.131 290.065 387.761C292.115 386.163 294.969 383.49 297.261 382.149C298.297 381.543 298.78 382.568 300.345 381.347C293.223 375.793 285.844 370.573 278.757 365.046C275.329 362.372 272.839 358.213 268.135 357.296C261.768 356.055 257.512 359.182 257.512 363.977C257.512 364.856 258.543 365.572 259.225 366.115C264.711 370.477 270.133 374.889 275.673 379.209C277.58 380.697 277.792 380.757 279.443 381.614Z" fill="#0c4392" fill-rule="nonzero" opacity="1" stroke="none"/>
<path d="M300.002 381.08C298.559 381.952 298.245 381.103 297.261 381.614C294.793 382.898 291.317 385.794 289.38 387.494C288.399 388.354 294.212 392.038 294.52 392.304C295.875 393.473 297.203 394.664 298.632 395.778C310.543 405.067 322.715 414.293 334.611 423.57C338.514 426.614 344.965 431.61 349.346 435.596C350.709 436.836 353.209 440.227 355.514 440.406C360.225 440.774 370.951 437.217 366.136 432.389C360.16 426.397 352.432 421.167 345.576 415.821C340.276 411.687 334.421 407.923 329.129 403.795C319.547 396.322 310.573 388.589 300.688 381.347C300.501 381.211 300.204 380.958 300.002 381.08Z" fill="#0a7bc5" fill-rule="nonzero" opacity="1" stroke="none"/>
<path d="M386.353 183.059C383.171 184.299 381.065 186.771 378.472 188.671C373.72 192.152 368.647 195.531 364.08 199.093C346.557 212.759 327.494 225.22 309.939 238.911C304.368 243.256 298.381 247.391 292.806 251.738C290.64 253.428 285.035 254.633 286.638 257.885C289.572 263.834 304.181 250.35 306.856 248.264C310.454 245.458 314.15 242.728 317.821 239.98C323.765 235.53 329.693 231.066 335.639 226.618C343.101 221.036 350.49 215.396 357.912 209.782C368.103 202.075 380.212 194.924 389.095 186.266C386.872 184.244 386.568 185.129 387.381 183.86C386.867 183.46 386.867 183.46 386.353 183.059Z" fill="#daeef0" fill-rule="nonzero" opacity="1" stroke="none"/>
<path d="M376.073 233.032C374.19 233.055 370.659 232.632 370.591 234.101C370.261 241.222 370.368 248.355 370.591 255.479C370.599 255.731 370.953 256.008 371.276 256.014C380.183 256.188 389.101 256.271 398.004 256.014C398.488 256 399.014 255.59 399.032 255.212C399.362 248.001 399.255 240.779 399.032 233.566C399.024 233.314 398.669 233.039 398.346 233.032C390.925 232.859 383.497 232.942 376.073 233.032Z" fill="#28a4df" fill-rule="nonzero" opacity="1" stroke="none"/>
<path d="M448.375 233.032C446.591 233.074 445.999 233.231 445.977 234.635C445.867 241.583 445.522 248.531 445.634 255.479C445.638 255.731 445.996 256.007 446.319 256.014C454.997 256.187 463.687 256.271 472.362 256.014C472.846 256 473.372 255.59 473.39 255.212C473.72 248.091 473.612 240.958 473.39 233.833C473.334 232.043 468.832 233.324 466.536 233.299C460.482 233.232 454.427 232.889 448.375 233.032Z" fill="#28a4df" fill-rule="nonzero" opacity="1" stroke="none"/>
<path d="M296.576 379.209C296.918 378.942 296.918 378.942 297.261 378.675C298.64 379.213 305.361 371.204 306.513 369.856C311.989 363.45 330.57 350.104 319.877 342.598C313.708 338.268 306.497 349.121 304.114 352.219C300.294 357.184 295.656 362.342 291.093 366.917C289.885 368.128 286.981 370.048 286.981 371.727C286.981 373.303 289.637 374.108 291.093 375.201C292.897 376.556 294.748 377.873 296.576 379.209Z" fill="#12bcf2" fill-rule="nonzero" opacity="1" stroke="none"/>
<path d="M519.306 421.967C514.699 422.276 513.743 429.201 518.621 430.786C523.646 432.419 524.592 425.065 522.733 423.036C521.048 421.197 521.369 421.829 519.306 421.967Z" fill="#fbfdfc" fill-rule="nonzero" opacity="1" stroke="none"/>
</g>
<g fill="#737a76" opacity="1" stroke="none">
<path d="M210.425 458.494L210.425 464.236L219.189 464.236L219.189 458.494C219.189 457.674 219.374 457.058 219.743 456.648C220.112 456.238 220.597 456.033 221.199 456.033C221.809 456.033 222.304 456.236 222.682 456.641C223.06 457.047 223.25 457.664 223.25 458.494L223.25 474.285C223.25 475.114 223.058 475.734 222.675 476.144C222.292 476.554 221.8 476.76 221.199 476.76C220.588 476.76 220.1 476.552 219.736 476.137C219.371 475.723 219.189 475.105 219.189 474.285L219.189 467.545L210.425 467.545L210.425 474.285C210.425 475.114 210.234 475.734 209.851 476.144C209.468 476.554 208.976 476.76 208.375 476.76C207.764 476.76 207.276 476.552 206.912 476.137C206.547 475.723 206.365 475.105 206.365 474.285L206.365 458.494C206.365 457.674 206.545 457.058 206.905 456.648C207.265 456.238 207.755 456.033 208.375 456.033C208.985 456.033 209.48 456.236 209.858 456.641C210.236 457.047 210.425 457.664 210.425 458.494Z"/>
<path d="M241.324 469.172C241.324 470.284 241.151 471.309 240.804 472.248C240.458 473.187 239.957 473.993 239.3 474.668C238.644 475.342 237.86 475.859 236.949 476.22C236.037 476.58 235.012 476.76 233.873 476.76C232.742 476.76 231.726 476.577 230.824 476.213C229.921 475.848 229.14 475.326 228.479 474.647C227.818 473.968 227.317 473.166 226.975 472.241C226.633 471.316 226.462 470.293 226.462 469.172C226.462 468.041 226.636 467.007 226.982 466.068C227.328 465.129 227.825 464.327 228.472 463.662C229.119 462.997 229.903 462.484 230.824 462.124C231.744 461.764 232.761 461.584 233.873 461.584C235.003 461.584 236.028 461.766 236.949 462.131C237.869 462.495 238.658 463.015 239.314 463.689C239.97 464.364 240.469 465.166 240.811 466.095C241.153 467.025 241.324 468.051 241.324 469.172ZM237.578 469.172C237.578 467.65 237.243 466.465 236.573 465.617C235.903 464.769 235.003 464.345 233.873 464.345C233.143 464.345 232.501 464.535 231.945 464.913C231.389 465.291 230.96 465.849 230.66 466.588C230.359 467.326 230.209 468.187 230.209 469.172C230.209 470.147 230.357 470.999 230.653 471.728C230.949 472.457 231.373 473.016 231.924 473.403C232.476 473.79 233.125 473.984 233.873 473.984C235.003 473.984 235.903 473.558 236.573 472.706C237.243 471.854 237.578 470.676 237.578 469.172Z"/>
<path d="M256.677 469.445L256.677 474.408C256.677 475.192 256.5 475.78 256.144 476.172C255.789 476.564 255.319 476.76 254.736 476.76C254.171 476.76 253.713 476.564 253.362 476.172C253.011 475.78 252.835 475.192 252.835 474.408L252.835 468.461C252.835 467.522 252.804 466.793 252.74 466.273C252.676 465.754 252.503 465.328 252.22 464.995C251.938 464.662 251.491 464.496 250.88 464.496C249.659 464.496 248.855 464.915 248.467 465.754C248.08 466.592 247.886 467.795 247.886 469.363L247.886 474.408C247.886 475.183 247.711 475.768 247.36 476.165C247.009 476.561 246.546 476.76 245.972 476.76C245.407 476.76 244.945 476.561 244.584 476.165C244.224 475.768 244.044 475.183 244.044 474.408L244.044 463.73C244.044 463.028 244.206 462.495 244.53 462.131C244.853 461.766 245.279 461.584 245.808 461.584C246.319 461.584 246.745 461.755 247.086 462.096C247.428 462.438 247.599 462.91 247.599 463.511L247.599 463.867C248.246 463.092 248.939 462.523 249.677 462.158C250.416 461.793 251.236 461.611 252.138 461.611C253.077 461.611 253.884 461.798 254.558 462.172C255.233 462.545 255.789 463.11 256.226 463.867C256.855 463.101 257.529 462.534 258.25 462.165C258.97 461.796 259.767 461.611 260.642 461.611C261.663 461.611 262.542 461.812 263.281 462.213C264.019 462.614 264.57 463.188 264.935 463.935C265.254 464.61 265.414 465.672 265.414 467.121L265.414 474.408C265.414 475.192 265.236 475.78 264.88 476.172C264.525 476.564 264.056 476.76 263.472 476.76C262.907 476.76 262.445 476.561 262.084 476.165C261.724 475.768 261.544 475.183 261.544 474.408L261.544 468.133C261.544 467.331 261.51 466.688 261.442 466.205C261.374 465.722 261.189 465.316 260.888 464.988C260.587 464.66 260.132 464.496 259.521 464.496C259.029 464.496 258.562 464.642 258.12 464.933C257.678 465.225 257.334 465.617 257.087 466.109C256.814 466.738 256.677 467.85 256.677 469.445Z"/>
<path d="M279.455 470.088L272.154 470.088C272.163 470.935 272.334 471.683 272.667 472.33C272.999 472.977 273.441 473.465 273.993 473.793C274.544 474.121 275.153 474.285 275.818 474.285C276.264 474.285 276.672 474.233 277.042 474.128C277.411 474.023 277.768 473.859 278.115 473.636C278.461 473.412 278.78 473.173 279.072 472.918C279.363 472.663 279.742 472.316 280.207 471.879C280.398 471.715 280.671 471.633 281.027 471.633C281.41 471.633 281.72 471.737 281.957 471.947C282.194 472.157 282.312 472.453 282.312 472.836C282.312 473.173 282.18 473.567 281.916 474.018C281.651 474.47 281.252 474.902 280.719 475.317C280.186 475.732 279.516 476.076 278.709 476.349C277.903 476.623 276.975 476.76 275.927 476.76C273.53 476.76 271.666 476.076 270.335 474.709C269.005 473.342 268.339 471.487 268.339 469.144C268.339 468.041 268.503 467.018 268.832 466.075C269.16 465.132 269.638 464.323 270.267 463.648C270.896 462.974 271.671 462.456 272.591 462.096C273.512 461.736 274.533 461.556 275.654 461.556C277.112 461.556 278.363 461.864 279.407 462.479C280.45 463.095 281.232 463.89 281.751 464.865C282.271 465.84 282.531 466.834 282.531 467.845C282.531 468.784 282.262 469.393 281.724 469.671C281.186 469.949 280.43 470.088 279.455 470.088ZM272.154 467.969L278.921 467.969C278.83 466.692 278.486 465.738 277.889 465.104C277.292 464.471 276.506 464.154 275.531 464.154C274.601 464.154 273.838 464.475 273.241 465.118C272.644 465.761 272.281 466.711 272.154 467.969Z"/>
<path d="M298.39 467.845L296.968 467.845L296.968 474.285C296.968 475.133 296.781 475.757 296.408 476.158C296.034 476.559 295.546 476.76 294.945 476.76C294.298 476.76 293.796 476.55 293.441 476.131C293.085 475.711 292.908 475.096 292.908 474.285L292.908 458.863C292.908 457.988 293.104 457.355 293.496 456.963C293.888 456.571 294.521 456.375 295.396 456.375L302 456.375C302.911 456.375 303.69 456.414 304.337 456.491C304.985 456.568 305.568 456.726 306.087 456.963C306.716 457.227 307.272 457.605 307.755 458.097C308.238 458.59 308.605 459.162 308.856 459.813C309.107 460.465 309.232 461.155 309.232 461.885C309.232 463.379 308.81 464.573 307.967 465.467C307.124 466.36 305.846 466.993 304.132 467.367C304.852 467.75 305.541 468.315 306.197 469.062C306.853 469.81 307.439 470.605 307.954 471.448C308.469 472.291 308.87 473.052 309.157 473.731C309.444 474.41 309.587 474.877 309.587 475.133C309.587 475.397 309.503 475.659 309.334 475.919C309.166 476.178 308.936 476.384 308.644 476.534C308.352 476.684 308.015 476.76 307.632 476.76C307.177 476.76 306.794 476.652 306.484 476.438C306.174 476.224 305.907 475.953 305.684 475.625C305.461 475.297 305.158 474.814 304.775 474.176L303.148 471.469C302.565 470.475 302.043 469.719 301.583 469.199C301.122 468.679 300.655 468.324 300.181 468.133C299.707 467.941 299.11 467.845 298.39 467.845ZM300.714 459.424L296.968 459.424L296.968 464.933L300.605 464.933C301.58 464.933 302.401 464.849 303.066 464.68C303.731 464.512 304.239 464.225 304.59 463.819C304.941 463.414 305.117 462.855 305.117 462.144C305.117 461.588 304.975 461.098 304.693 460.675C304.41 460.251 304.018 459.934 303.517 459.724C303.043 459.524 302.109 459.424 300.714 459.424Z"/>
<path d="M322.535 470.088L315.234 470.088C315.243 470.935 315.414 471.683 315.747 472.33C316.079 472.977 316.521 473.465 317.073 473.793C317.624 474.121 318.233 474.285 318.898 474.285C319.345 474.285 319.752 474.233 320.122 474.128C320.491 474.023 320.848 473.859 321.195 473.636C321.541 473.412 321.86 473.173 322.152 472.918C322.444 472.663 322.822 472.316 323.287 471.879C323.478 471.715 323.751 471.633 324.107 471.633C324.49 471.633 324.8 471.737 325.037 471.947C325.274 472.157 325.392 472.453 325.392 472.836C325.392 473.173 325.26 473.567 324.996 474.018C324.731 474.47 324.333 474.902 323.799 475.317C323.266 475.732 322.596 476.076 321.79 476.349C320.983 476.623 320.056 476.76 319.007 476.76C316.61 476.76 314.746 476.076 313.416 474.709C312.085 473.342 311.419 471.487 311.419 469.144C311.419 468.041 311.584 467.018 311.912 466.075C312.24 465.132 312.718 464.323 313.347 463.648C313.976 462.974 314.751 462.456 315.671 462.096C316.592 461.736 317.613 461.556 318.734 461.556C320.192 461.556 321.443 461.864 322.487 462.479C323.53 463.095 324.312 463.89 324.832 464.865C325.351 465.84 325.611 466.834 325.611 467.845C325.611 468.784 325.342 469.393 324.804 469.671C324.266 469.949 323.51 470.088 322.535 470.088ZM315.234 467.969L322.001 467.969C321.91 466.692 321.566 465.738 320.969 465.104C320.372 464.471 319.586 464.154 318.611 464.154C317.681 464.154 316.918 464.475 316.321 465.118C315.724 465.761 315.362 466.711 315.234 467.969Z"/>
<path d="M331.832 463.676L331.832 464.127C332.533 463.261 333.263 462.625 334.019 462.22C334.776 461.814 335.632 461.611 336.589 461.611C337.738 461.611 338.795 461.907 339.761 462.5C340.727 463.092 341.491 463.958 342.051 465.097C342.612 466.237 342.892 467.586 342.892 469.144C342.892 470.293 342.73 471.348 342.407 472.309C342.083 473.271 341.639 474.078 341.074 474.729C340.509 475.381 339.841 475.882 339.071 476.233C338.301 476.584 337.473 476.76 336.589 476.76C335.523 476.76 334.627 476.545 333.903 476.117C333.178 475.689 332.488 475.06 331.832 474.23L331.832 479.836C331.832 481.476 331.235 482.297 330.041 482.297C329.339 482.297 328.874 482.085 328.646 481.661C328.418 481.237 328.304 480.62 328.304 479.808L328.304 463.703C328.304 462.992 328.459 462.461 328.769 462.11C329.079 461.759 329.503 461.584 330.041 461.584C330.569 461.584 331 461.764 331.333 462.124C331.665 462.484 331.832 463.001 331.832 463.676ZM339.146 469.103C339.146 468.119 338.996 467.274 338.695 466.567C338.394 465.861 337.977 465.318 337.444 464.94C336.911 464.562 336.32 464.373 335.673 464.373C334.643 464.373 333.775 464.778 333.069 465.59C332.362 466.401 332.009 467.595 332.009 469.172C332.009 470.657 332.36 471.813 333.062 472.637C333.764 473.462 334.634 473.875 335.673 473.875C336.293 473.875 336.867 473.695 337.396 473.335C337.925 472.975 338.348 472.435 338.667 471.715C338.987 470.995 339.146 470.124 339.146 469.103Z"/>
<path d="M355.32 474.654C354.417 475.356 353.545 475.882 352.702 476.233C351.859 476.584 350.913 476.76 349.865 476.76C348.908 476.76 348.067 476.57 347.342 476.192C346.618 475.814 346.059 475.301 345.667 474.654C345.276 474.007 345.08 473.305 345.08 472.549C345.08 471.528 345.403 470.657 346.05 469.937C346.697 469.217 347.586 468.734 348.716 468.488C348.953 468.433 349.541 468.31 350.48 468.119C351.419 467.928 352.223 467.752 352.893 467.593C353.563 467.433 354.29 467.239 355.074 467.011C355.028 466.027 354.83 465.305 354.479 464.845C354.128 464.384 353.401 464.154 352.298 464.154C351.35 464.154 350.637 464.286 350.159 464.551C349.68 464.815 349.27 465.211 348.928 465.74C348.586 466.269 348.345 466.617 348.204 466.786C348.062 466.955 347.759 467.039 347.294 467.039C346.875 467.039 346.513 466.904 346.208 466.636C345.902 466.367 345.75 466.023 345.75 465.603C345.75 464.947 345.982 464.309 346.447 463.689C346.912 463.069 347.636 462.559 348.621 462.158C349.605 461.757 350.831 461.556 352.298 461.556C353.939 461.556 355.229 461.75 356.167 462.137C357.106 462.525 357.769 463.138 358.157 463.976C358.544 464.815 358.738 465.927 358.738 467.312C358.738 468.187 358.736 468.93 358.731 469.541C358.726 470.151 358.72 470.831 358.71 471.578C358.71 472.28 358.827 473.011 359.059 473.772C359.292 474.533 359.408 475.023 359.408 475.242C359.408 475.625 359.228 475.973 358.868 476.288C358.508 476.602 358.1 476.76 357.644 476.76C357.261 476.76 356.883 476.58 356.509 476.22C356.136 475.859 355.739 475.338 355.32 474.654ZM355.074 469.254C354.527 469.454 353.732 469.666 352.688 469.889C351.644 470.113 350.922 470.277 350.521 470.382C350.12 470.486 349.737 470.692 349.373 470.997C349.008 471.302 348.826 471.728 348.826 472.275C348.826 472.84 349.04 473.321 349.468 473.718C349.897 474.114 350.457 474.312 351.15 474.312C351.888 474.312 352.57 474.15 353.194 473.827C353.818 473.503 354.276 473.086 354.568 472.576C354.905 472.011 355.074 471.081 355.074 469.787L355.074 469.254Z"/>
<path d="M366.257 463.703L366.257 474.49C366.257 475.237 366.08 475.803 365.724 476.185C365.369 476.568 364.917 476.76 364.371 476.76C363.824 476.76 363.379 476.564 363.038 476.172C362.696 475.78 362.525 475.219 362.525 474.49L362.525 463.812C362.525 463.074 362.696 462.518 363.038 462.144C363.379 461.771 363.824 461.584 364.371 461.584C364.917 461.584 365.369 461.771 365.724 462.144C366.08 462.518 366.257 463.038 366.257 463.703ZM364.412 459.847C363.892 459.847 363.448 459.688 363.079 459.369C362.709 459.05 362.525 458.599 362.525 458.015C362.525 457.487 362.714 457.052 363.092 456.71C363.471 456.368 363.91 456.197 364.412 456.197C364.895 456.197 365.323 456.352 365.697 456.662C366.07 456.972 366.257 457.423 366.257 458.015C366.257 458.59 366.075 459.039 365.71 459.362C365.346 459.686 364.913 459.847 364.412 459.847Z"/>
<path d="M373.818 471.373L373.818 474.49C373.818 475.247 373.64 475.814 373.285 476.192C372.929 476.57 372.478 476.76 371.931 476.76C371.393 476.76 370.951 476.568 370.605 476.185C370.259 475.803 370.085 475.237 370.085 474.49L370.085 464.099C370.085 462.422 370.692 461.584 371.904 461.584C372.524 461.584 372.97 461.78 373.244 462.172C373.517 462.564 373.667 463.142 373.695 463.908C374.141 463.142 374.599 462.564 375.069 462.172C375.538 461.78 376.165 461.584 376.949 461.584C377.733 461.584 378.494 461.78 379.232 462.172C379.97 462.564 380.339 463.083 380.339 463.73C380.339 464.186 380.182 464.562 379.868 464.858C379.553 465.154 379.214 465.303 378.849 465.303C378.712 465.303 378.382 465.218 377.858 465.05C377.334 464.881 376.871 464.797 376.47 464.797C375.923 464.797 375.477 464.94 375.13 465.227C374.784 465.514 374.515 465.941 374.324 466.506C374.132 467.071 374 467.743 373.927 468.522C373.854 469.302 373.818 470.252 373.818 471.373Z"/>
<path d="M398.81 474.654C397.908 475.356 397.035 475.882 396.192 476.233C395.349 476.584 394.403 476.76 393.355 476.76C392.398 476.76 391.557 476.57 390.833 476.192C390.108 475.814 389.55 475.301 389.158 474.654C388.766 474.007 388.57 473.305 388.57 472.549C388.57 471.528 388.893 470.657 389.541 469.937C390.188 469.217 391.076 468.734 392.207 468.488C392.444 468.433 393.031 468.31 393.97 468.119C394.909 467.928 395.713 467.752 396.383 467.593C397.053 467.433 397.78 467.239 398.564 467.011C398.518 466.027 398.32 465.305 397.969 464.845C397.618 464.384 396.891 464.154 395.789 464.154C394.841 464.154 394.127 464.286 393.649 464.551C393.17 464.815 392.76 465.211 392.418 465.74C392.077 466.269 391.835 466.617 391.694 466.786C391.553 466.955 391.25 467.039 390.785 467.039C390.365 467.039 390.003 466.904 389.698 466.636C389.392 466.367 389.24 466.023 389.24 465.603C389.24 464.947 389.472 464.309 389.937 463.689C390.402 463.069 391.126 462.559 392.111 462.158C393.095 461.757 394.321 461.556 395.789 461.556C397.429 461.556 398.719 461.75 399.658 462.137C400.597 462.525 401.26 463.138 401.647 463.976C402.034 464.815 402.228 465.927 402.228 467.312C402.228 468.187 402.226 468.93 402.221 469.541C402.217 470.151 402.21 470.831 402.201 471.578C402.201 472.28 402.317 473.011 402.549 473.772C402.782 474.533 402.898 475.023 402.898 475.242C402.898 475.625 402.718 475.973 402.358 476.288C401.998 476.602 401.59 476.76 401.134 476.76C400.751 476.76 400.373 476.58 400 476.22C399.626 475.859 399.229 475.338 398.81 474.654ZM398.564 469.254C398.017 469.454 397.222 469.666 396.178 469.889C395.135 470.113 394.412 470.277 394.011 470.382C393.61 470.486 393.227 470.692 392.863 470.997C392.498 471.302 392.316 471.728 392.316 472.275C392.316 472.84 392.53 473.321 392.959 473.718C393.387 474.114 393.947 474.312 394.64 474.312C395.378 474.312 396.06 474.15 396.684 473.827C397.308 473.503 397.766 473.086 398.058 472.576C398.395 472.011 398.564 471.081 398.564 469.787L398.564 469.254Z"/>
<path d="M409.406 463.648L409.406 464.099C410.062 463.234 410.78 462.598 411.559 462.192C412.338 461.787 413.234 461.584 414.246 461.584C415.23 461.584 416.11 461.798 416.884 462.226C417.659 462.655 418.238 463.261 418.621 464.045C418.867 464.5 419.026 464.993 419.099 465.521C419.172 466.05 419.209 466.724 419.209 467.545L419.209 474.49C419.209 475.237 419.038 475.803 418.696 476.185C418.354 476.568 417.91 476.76 417.363 476.76C416.807 476.76 416.356 476.564 416.009 476.172C415.663 475.78 415.49 475.219 415.49 474.49L415.49 468.269C415.49 467.039 415.319 466.098 414.977 465.446C414.635 464.794 413.954 464.469 412.933 464.469C412.268 464.469 411.662 464.667 411.115 465.063C410.568 465.46 410.167 466.004 409.912 466.697C409.729 467.253 409.638 468.292 409.638 469.814L409.638 474.49C409.638 475.247 409.463 475.814 409.112 476.192C408.761 476.57 408.307 476.76 407.751 476.76C407.214 476.76 406.772 476.564 406.425 476.172C406.079 475.78 405.906 475.219 405.906 474.49L405.906 463.703C405.906 462.992 406.061 462.461 406.371 462.11C406.681 461.759 407.104 461.584 407.642 461.584C407.97 461.584 408.266 461.661 408.531 461.816C408.795 461.971 409.007 462.204 409.167 462.513C409.326 462.823 409.406 463.202 409.406 463.648Z"/>
<path d="M433.154 474.627L433.154 474.258C432.653 474.832 432.158 475.299 431.67 475.659C431.183 476.019 430.654 476.292 430.084 476.479C429.515 476.666 428.893 476.76 428.218 476.76C427.325 476.76 426.498 476.57 425.737 476.192C424.976 475.814 424.317 475.274 423.761 474.572C423.205 473.87 422.784 473.045 422.497 472.097C422.209 471.15 422.066 470.124 422.066 469.021C422.066 466.688 422.636 464.87 423.775 463.566C424.914 462.263 426.414 461.611 428.273 461.611C429.348 461.611 430.255 461.796 430.994 462.165C431.732 462.534 432.452 463.101 433.154 463.867L433.154 458.357C433.154 457.592 433.306 457.013 433.612 456.621C433.917 456.229 434.352 456.033 434.917 456.033C435.483 456.033 435.918 456.213 436.223 456.573C436.528 456.933 436.681 457.464 436.681 458.166L436.681 474.627C436.681 475.338 436.517 475.871 436.189 476.226C435.861 476.582 435.437 476.76 434.917 476.76C434.407 476.76 433.986 476.575 433.653 476.206C433.32 475.837 433.154 475.31 433.154 474.627ZM425.812 469.144C425.812 470.156 425.969 471.017 426.284 471.728C426.598 472.439 427.029 472.975 427.576 473.335C428.123 473.695 428.72 473.875 429.367 473.875C430.023 473.875 430.622 473.704 431.165 473.362C431.707 473.02 432.14 472.496 432.463 471.79C432.787 471.083 432.949 470.202 432.949 469.144C432.949 468.151 432.787 467.296 432.463 466.581C432.14 465.865 431.702 465.318 431.151 464.94C430.599 464.562 429.996 464.373 429.339 464.373C428.656 464.373 428.045 464.567 427.507 464.954C426.97 465.341 426.553 465.897 426.256 466.622C425.96 467.346 425.812 468.187 425.812 469.144Z"/>
<path d="M447.851 474.285L447.851 458.494C447.851 457.674 448.038 457.058 448.412 456.648C448.785 456.238 449.268 456.033 449.861 456.033C450.472 456.033 450.966 456.236 451.344 456.641C451.723 457.047 451.912 457.664 451.912 458.494L451.912 474.285C451.912 475.114 451.723 475.734 451.344 476.144C450.966 476.554 450.472 476.76 449.861 476.76C449.278 476.76 448.797 476.552 448.418 476.137C448.04 475.723 447.851 475.105 447.851 474.285Z"/>
<path d="M468.605 469.445L468.605 474.408C468.605 475.192 468.427 475.78 468.072 476.172C467.716 476.564 467.247 476.76 466.664 476.76C466.098 476.76 465.64 476.564 465.29 476.172C464.939 475.78 464.763 475.192 464.763 474.408L464.763 468.461C464.763 467.522 464.731 466.793 464.667 466.273C464.604 465.754 464.431 465.328 464.148 464.995C463.865 464.662 463.419 464.496 462.808 464.496C461.587 464.496 460.782 464.915 460.395 465.754C460.008 466.592 459.814 467.795 459.814 469.363L459.814 474.408C459.814 475.183 459.639 475.768 459.288 476.165C458.937 476.561 458.474 476.76 457.9 476.76C457.335 476.76 456.872 476.561 456.512 476.165C456.152 475.768 455.972 475.183 455.972 474.408L455.972 463.73C455.972 463.028 456.134 462.495 456.458 462.131C456.781 461.766 457.207 461.584 457.736 461.584C458.246 461.584 458.672 461.755 459.014 462.096C459.356 462.438 459.527 462.91 459.527 463.511L459.527 463.867C460.174 463.092 460.867 462.523 461.605 462.158C462.343 461.793 463.164 461.611 464.066 461.611C465.005 461.611 465.811 461.798 466.486 462.172C467.16 462.545 467.716 463.11 468.154 463.867C468.783 463.101 469.457 462.534 470.177 462.165C470.897 461.796 471.695 461.611 472.57 461.611C473.591 461.611 474.47 461.812 475.209 462.213C475.947 462.614 476.498 463.188 476.863 463.935C477.182 464.61 477.341 465.672 477.341 467.121L477.341 474.408C477.341 475.192 477.164 475.78 476.808 476.172C476.453 476.564 475.983 476.76 475.4 476.76C474.835 476.76 474.372 476.561 474.012 476.165C473.652 475.768 473.472 475.183 473.472 474.408L473.472 468.133C473.472 467.331 473.438 466.688 473.37 466.205C473.301 465.722 473.117 465.316 472.816 464.988C472.515 464.66 472.059 464.496 471.449 464.496C470.957 464.496 470.489 464.642 470.047 464.933C469.605 465.225 469.261 465.617 469.015 466.109C468.742 466.738 468.605 467.85 468.605 469.445Z"/>
<path d="M484.41 463.676L484.41 464.127C485.112 463.261 485.841 462.625 486.597 462.22C487.354 461.814 488.21 461.611 489.167 461.611C490.316 461.611 491.373 461.907 492.339 462.5C493.306 463.092 494.069 463.958 494.629 465.097C495.19 466.237 495.47 467.586 495.47 469.144C495.47 470.293 495.308 471.348 494.985 472.309C494.661 473.271 494.217 474.078 493.652 474.729C493.087 475.381 492.419 475.882 491.649 476.233C490.879 476.584 490.052 476.76 489.167 476.76C488.101 476.76 487.206 476.545 486.481 476.117C485.756 475.689 485.066 475.06 484.41 474.23L484.41 479.836C484.41 481.476 483.813 482.297 482.619 482.297C481.917 482.297 481.452 482.085 481.224 481.661C480.996 481.237 480.882 480.62 480.882 479.808L480.882 463.703C480.882 462.992 481.037 462.461 481.347 462.11C481.657 461.759 482.081 461.584 482.619 461.584C483.147 461.584 483.578 461.764 483.911 462.124C484.243 462.484 484.41 463.001 484.41 463.676ZM491.724 469.103C491.724 468.119 491.574 467.274 491.273 466.567C490.972 465.861 490.555 465.318 490.022 464.94C489.489 464.562 488.899 464.373 488.251 464.373C487.222 464.373 486.353 464.778 485.647 465.59C484.941 466.401 484.587 467.595 484.587 469.172C484.587 470.657 484.938 471.813 485.64 472.637C486.342 473.462 487.212 473.875 488.251 473.875C488.871 473.875 489.445 473.695 489.974 473.335C490.503 472.975 490.927 472.435 491.246 471.715C491.565 470.995 491.724 470.124 491.724 469.103Z"/>
<path d="M502.169 471.373L502.169 474.49C502.169 475.247 501.992 475.814 501.636 476.192C501.281 476.57 500.83 476.76 500.283 476.76C499.745 476.76 499.303 476.568 498.957 476.185C498.61 475.803 498.437 475.237 498.437 474.49L498.437 464.099C498.437 462.422 499.043 461.584 500.255 461.584C500.875 461.584 501.322 461.78 501.595 462.172C501.869 462.564 502.019 463.142 502.046 463.908C502.493 463.142 502.951 462.564 503.42 462.172C503.89 461.78 504.516 461.584 505.3 461.584C506.084 461.584 506.845 461.78 507.584 462.172C508.322 462.564 508.691 463.083 508.691 463.73C508.691 464.186 508.534 464.562 508.219 464.858C507.905 465.154 507.565 465.303 507.201 465.303C507.064 465.303 506.734 465.218 506.209 465.05C505.685 464.881 505.223 464.797 504.822 464.797C504.275 464.797 503.828 464.94 503.482 465.227C503.136 465.514 502.867 465.941 502.675 466.506C502.484 467.071 502.352 467.743 502.279 468.522C502.206 469.302 502.169 470.252 502.169 471.373Z"/>
<path d="M523.634 469.172C523.634 470.284 523.461 471.309 523.115 472.248C522.768 473.187 522.267 473.993 521.611 474.668C520.955 475.342 520.171 475.859 519.259 476.22C518.348 476.58 517.322 476.76 516.183 476.76C515.053 476.76 514.037 476.577 513.134 476.213C512.232 475.848 511.45 475.326 510.79 474.647C510.129 473.968 509.627 473.166 509.286 472.241C508.944 471.316 508.773 470.293 508.773 469.172C508.773 468.041 508.946 467.007 509.292 466.068C509.639 465.129 510.136 464.327 510.783 463.662C511.43 462.997 512.214 462.484 513.134 462.124C514.055 461.764 515.071 461.584 516.183 461.584C517.313 461.584 518.339 461.766 519.259 462.131C520.18 462.495 520.968 463.015 521.625 463.689C522.281 464.364 522.78 465.166 523.122 466.095C523.463 467.025 523.634 468.051 523.634 469.172ZM519.888 469.172C519.888 467.65 519.553 466.465 518.883 465.617C518.213 464.769 517.313 464.345 516.183 464.345C515.454 464.345 514.811 464.535 514.255 464.913C513.699 465.291 513.271 465.849 512.97 466.588C512.669 467.326 512.519 468.187 512.519 469.172C512.519 470.147 512.667 470.999 512.963 471.728C513.26 472.457 513.683 473.016 514.235 473.403C514.786 473.79 515.436 473.984 516.183 473.984C517.313 473.984 518.213 473.558 518.883 472.706C519.553 471.854 519.888 470.676 519.888 469.172Z"/>
<path d="M528.843 463.908L531.865 472.385L535.119 463.539C535.374 462.828 535.625 462.324 535.871 462.028C536.117 461.732 536.49 461.584 536.992 461.584C537.466 461.584 537.869 461.743 538.202 462.062C538.534 462.381 538.701 462.75 538.701 463.17C538.701 463.334 538.671 463.525 538.612 463.744C538.553 463.963 538.484 464.168 538.407 464.359C538.329 464.551 538.24 464.769 538.14 465.015L534.558 473.902C534.458 474.157 534.328 474.481 534.168 474.873C534.009 475.265 533.831 475.6 533.635 475.878C533.439 476.156 533.198 476.372 532.911 476.527C532.624 476.682 532.275 476.76 531.865 476.76C531.336 476.76 530.915 476.639 530.6 476.397C530.286 476.156 530.053 475.891 529.903 475.604C529.752 475.317 529.5 474.75 529.144 473.902L525.589 465.111C525.507 464.892 525.423 464.674 525.336 464.455C525.25 464.236 525.177 464.013 525.118 463.785C525.058 463.557 525.029 463.361 525.029 463.197C525.029 462.942 525.106 462.689 525.261 462.438C525.416 462.188 525.63 461.983 525.904 461.823C526.177 461.664 526.473 461.584 526.792 461.584C527.412 461.584 527.838 461.761 528.071 462.117C528.303 462.472 528.561 463.069 528.843 463.908Z"/>
<path d="M551.429 470.088L544.128 470.088C544.138 470.935 544.308 471.683 544.641 472.33C544.974 472.977 545.416 473.465 545.967 473.793C546.519 474.121 547.127 474.285 547.792 474.285C548.239 474.285 548.647 474.233 549.016 474.128C549.385 474.023 549.743 473.859 550.089 473.636C550.436 473.412 550.755 473.173 551.046 472.918C551.338 472.663 551.716 472.316 552.181 471.879C552.373 471.715 552.646 471.633 553.001 471.633C553.384 471.633 553.694 471.737 553.931 471.947C554.168 472.157 554.287 472.453 554.287 472.836C554.287 473.173 554.154 473.567 553.89 474.018C553.626 474.47 553.227 474.902 552.694 475.317C552.161 475.732 551.491 476.076 550.684 476.349C549.877 476.623 548.95 476.76 547.902 476.76C545.505 476.76 543.641 476.076 542.31 474.709C540.979 473.342 540.314 471.487 540.314 469.144C540.314 468.041 540.478 467.018 540.806 466.075C541.134 465.132 541.613 464.323 542.242 463.648C542.871 462.974 543.645 462.456 544.566 462.096C545.487 461.736 546.507 461.556 547.628 461.556C549.087 461.556 550.338 461.864 551.381 462.479C552.425 463.095 553.207 463.89 553.726 464.865C554.246 465.84 554.505 466.834 554.505 467.845C554.505 468.784 554.237 469.393 553.699 469.671C553.161 469.949 552.404 470.088 551.429 470.088ZM544.128 467.969L550.896 467.969C550.805 466.692 550.461 465.738 549.864 465.104C549.267 464.471 548.481 464.154 547.505 464.154C546.576 464.154 545.812 464.475 545.215 465.118C544.618 465.761 544.256 466.711 544.128 467.969Z"/>
<path d="M570.064 469.445L570.064 474.408C570.064 475.192 569.886 475.78 569.531 476.172C569.175 476.564 568.706 476.76 568.123 476.76C567.557 476.76 567.099 476.564 566.749 476.172C566.398 475.78 566.222 475.192 566.222 474.408L566.222 468.461C566.222 467.522 566.19 466.793 566.126 466.273C566.063 465.754 565.889 465.328 565.607 464.995C565.324 464.662 564.878 464.496 564.267 464.496C563.046 464.496 562.241 464.915 561.854 465.754C561.467 466.592 561.273 467.795 561.273 469.363L561.273 474.408C561.273 475.183 561.098 475.768 560.747 476.165C560.396 476.561 559.933 476.76 559.359 476.76C558.794 476.76 558.331 476.561 557.971 476.165C557.611 475.768 557.431 475.183 557.431 474.408L557.431 463.73C557.431 463.028 557.593 462.495 557.917 462.131C558.24 461.766 558.666 461.584 559.195 461.584C559.705 461.584 560.131 461.755 560.473 462.096C560.815 462.438 560.986 462.91 560.986 463.511L560.986 463.867C561.633 463.092 562.326 462.523 563.064 462.158C563.802 461.793 564.623 461.611 565.525 461.611C566.464 461.611 567.27 461.798 567.945 462.172C568.619 462.545 569.175 463.11 569.613 463.867C570.242 463.101 570.916 462.534 571.636 462.165C572.356 461.796 573.154 461.611 574.029 461.611C575.05 461.611 575.929 461.812 576.667 462.213C577.406 462.614 577.957 463.188 578.322 463.935C578.641 464.61 578.8 465.672 578.8 467.121L578.8 474.408C578.8 475.192 578.623 475.78 578.267 476.172C577.912 476.564 577.442 476.76 576.859 476.76C576.294 476.76 575.831 476.561 575.471 476.165C575.111 475.768 574.931 475.183 574.931 474.408L574.931 468.133C574.931 467.331 574.897 466.688 574.829 466.205C574.76 465.722 574.576 465.316 574.275 464.988C573.974 464.66 573.518 464.496 572.908 464.496C572.416 464.496 571.948 464.642 571.506 464.933C571.064 465.225 570.72 465.617 570.474 466.109C570.201 466.738 570.064 467.85 570.064 469.445Z"/>
<path d="M592.841 470.088L585.541 470.088C585.55 470.935 585.721 471.683 586.053 472.33C586.386 472.977 586.828 473.465 587.379 473.793C587.931 474.121 588.539 474.285 589.205 474.285C589.651 474.285 590.059 474.233 590.428 474.128C590.797 474.023 591.155 473.859 591.501 473.636C591.848 473.412 592.167 473.173 592.459 472.918C592.75 472.663 593.128 472.316 593.593 471.879C593.785 471.715 594.058 471.633 594.414 471.633C594.796 471.633 595.106 471.737 595.343 471.947C595.58 472.157 595.699 472.453 595.699 472.836C595.699 473.173 595.567 473.567 595.302 474.018C595.038 474.47 594.639 474.902 594.106 475.317C593.573 475.732 592.903 476.076 592.096 476.349C591.29 476.623 590.362 476.76 589.314 476.76C586.917 476.76 585.053 476.076 583.722 474.709C582.391 473.342 581.726 471.487 581.726 469.144C581.726 468.041 581.89 467.018 582.218 466.075C582.546 465.132 583.025 464.323 583.654 463.648C584.283 462.974 585.057 462.456 585.978 462.096C586.899 461.736 587.919 461.556 589.041 461.556C590.499 461.556 591.75 461.864 592.793 462.479C593.837 463.095 594.619 463.89 595.138 464.865C595.658 465.84 595.917 466.834 595.917 467.845C595.917 468.784 595.649 469.393 595.111 469.671C594.573 469.949 593.817 470.088 592.841 470.088ZM585.541 467.969L592.308 467.969C592.217 466.692 591.873 465.738 591.276 465.104C590.679 464.471 589.893 464.154 588.917 464.154C587.988 464.154 587.224 464.475 586.627 465.118C586.03 465.761 585.668 466.711 585.541 467.969Z"/>
<path d="M602.453 463.648L602.453 464.099C603.109 463.234 603.827 462.598 604.606 462.192C605.385 461.787 606.281 461.584 607.292 461.584C608.277 461.584 609.156 461.798 609.931 462.226C610.706 462.655 611.285 463.261 611.667 464.045C611.914 464.5 612.073 464.993 612.146 465.521C612.219 466.05 612.255 466.724 612.255 467.545L612.255 474.49C612.255 475.237 612.084 475.803 611.743 476.185C611.401 476.568 610.957 476.76 610.41 476.76C609.854 476.76 609.403 476.564 609.056 476.172C608.71 475.78 608.537 475.219 608.537 474.49L608.537 468.269C608.537 467.039 608.366 466.098 608.024 465.446C607.682 464.794 607.001 464.469 605.98 464.469C605.315 464.469 604.709 464.667 604.162 465.063C603.615 465.46 603.214 466.004 602.959 466.697C602.776 467.253 602.685 468.292 602.685 469.814L602.685 474.49C602.685 475.247 602.51 475.814 602.159 476.192C601.808 476.57 601.354 476.76 600.798 476.76C600.261 476.76 599.819 476.564 599.472 476.172C599.126 475.78 598.953 475.219 598.953 474.49L598.953 463.703C598.953 462.992 599.108 462.461 599.417 462.11C599.727 461.759 600.151 461.584 600.689 461.584C601.017 461.584 601.313 461.661 601.578 461.816C601.842 461.971 602.054 462.204 602.213 462.513C602.373 462.823 602.453 463.202 602.453 463.648Z"/>
<path d="M616.179 461.912L616.589 461.912L616.589 459.67C616.589 459.068 616.605 458.596 616.637 458.255C616.669 457.913 616.758 457.619 616.904 457.373C617.05 457.118 617.259 456.91 617.533 456.751C617.806 456.591 618.112 456.511 618.449 456.511C618.923 456.511 619.351 456.689 619.734 457.045C619.989 457.282 620.151 457.571 620.219 457.913C620.288 458.255 620.322 458.74 620.322 459.369L620.322 461.912L621.689 461.912C622.218 461.912 622.621 462.037 622.899 462.288C623.177 462.539 623.316 462.86 623.316 463.252C623.316 463.753 623.118 464.104 622.721 464.304C622.325 464.505 621.757 464.605 621.019 464.605L620.322 464.605L620.322 471.469C620.322 472.052 620.342 472.501 620.383 472.815C620.424 473.13 620.534 473.385 620.711 473.581C620.889 473.777 621.179 473.875 621.58 473.875C621.798 473.875 622.095 473.836 622.468 473.759C622.842 473.681 623.134 473.642 623.343 473.642C623.644 473.642 623.915 473.763 624.157 474.005C624.398 474.246 624.519 474.545 624.519 474.9C624.519 475.502 624.191 475.962 623.535 476.281C622.878 476.6 621.935 476.76 620.705 476.76C619.538 476.76 618.654 476.564 618.052 476.172C617.451 475.78 617.056 475.237 616.87 474.545C616.683 473.852 616.589 472.927 616.589 471.769L616.589 464.605L616.097 464.605C615.559 464.605 615.149 464.478 614.867 464.222C614.584 463.967 614.443 463.644 614.443 463.252C614.443 462.86 614.591 462.539 614.887 462.288C615.183 462.037 615.614 461.912 616.179 461.912Z"/>
</g>
<g fill="#122358" opacity="1" stroke="none">
<path d="M201.312 370.553L214.695 390.803L214.695 370.365C214.695 369.037 214.98 368.041 215.55 367.377C216.12 366.713 216.89 366.381 217.859 366.381C218.859 366.381 219.648 366.713 220.226 367.377C220.804 368.041 221.093 369.037 221.093 370.365L221.093 397.389C221.093 400.404 219.843 401.912 217.343 401.912C216.718 401.912 216.156 401.822 215.656 401.643C215.156 401.463 214.687 401.178 214.249 400.787C213.812 400.396 213.406 399.939 213.031 399.416C212.656 398.893 212.281 398.357 211.906 397.81L198.851 377.795L198.851 397.928C198.851 399.24 198.546 400.232 197.937 400.904C197.327 401.576 196.546 401.912 195.593 401.912C194.609 401.912 193.82 401.572 193.226 400.893C192.632 400.213 192.335 399.225 192.335 397.928L192.335 371.42C192.335 370.295 192.46 369.412 192.71 368.771C193.007 368.068 193.499 367.494 194.187 367.049C194.874 366.603 195.617 366.381 196.413 366.381C197.038 366.381 197.574 366.482 198.019 366.685C198.464 366.889 198.855 367.162 199.191 367.506C199.527 367.85 199.87 368.295 200.222 368.842C200.574 369.389 200.937 369.959 201.312 370.553Z"/>
<path d="M251.351 372.334L235.671 372.334L235.671 380.771L250.109 380.771C251.171 380.771 251.964 381.01 252.488 381.486C253.011 381.963 253.273 382.592 253.273 383.373C253.273 384.154 253.015 384.791 252.499 385.283C251.984 385.775 251.187 386.021 250.109 386.021L235.671 386.021L235.671 395.795L251.89 395.795C252.984 395.795 253.808 396.049 254.363 396.557C254.917 397.064 255.195 397.74 255.195 398.584C255.195 399.396 254.917 400.057 254.363 400.564C253.808 401.072 252.984 401.326 251.89 401.326L232.976 401.326C231.46 401.326 230.37 400.99 229.706 400.318C229.042 399.646 228.71 398.56 228.71 397.06L228.71 371.232C228.71 370.232 228.859 369.416 229.156 368.783C229.452 368.15 229.917 367.689 230.55 367.4C231.183 367.111 231.992 366.967 232.976 366.967L251.351 366.967C252.46 366.967 253.285 367.213 253.824 367.705C254.363 368.197 254.632 368.842 254.632 369.639C254.632 370.451 254.363 371.103 253.824 371.596C253.285 372.088 252.46 372.334 251.351 372.334Z"/>
</g>
<g fill="#122358" opacity="1" stroke="none">
<path d="M349.233 397.101L349.233 396.075C348.276 397.286 347.271 398.302 346.216 399.122C345.161 399.942 344.009 400.553 342.759 400.953C341.509 401.354 340.083 401.554 338.481 401.554C336.548 401.554 334.814 401.153 333.281 400.353C331.748 399.552 330.562 398.448 329.722 397.042C328.726 395.343 328.228 392.901 328.228 389.718L328.228 373.868C328.228 372.267 328.589 371.07 329.312 370.279C330.034 369.488 330.991 369.093 332.183 369.093C333.394 369.093 334.37 369.493 335.112 370.294C335.855 371.095 336.226 372.286 336.226 373.868L336.226 386.671C336.226 388.526 336.382 390.084 336.694 391.344C337.007 392.604 337.568 393.59 338.379 394.303C339.189 395.016 340.288 395.372 341.675 395.372C343.022 395.372 344.292 394.972 345.483 394.171C346.675 393.37 347.544 392.325 348.091 391.036C348.54 389.903 348.765 387.423 348.765 383.595L348.765 373.868C348.765 372.286 349.136 371.095 349.878 370.294C350.62 369.493 351.587 369.093 352.778 369.093C353.97 369.093 354.927 369.488 355.649 370.279C356.372 371.07 356.733 372.267 356.733 373.868L356.733 397.042C356.733 398.566 356.387 399.708 355.693 400.47C355 401.232 354.106 401.612 353.013 401.612C351.919 401.612 351.016 401.217 350.303 400.426C349.59 399.635 349.233 398.526 349.233 397.101Z"/>
<path d="M390.454 391.153C390.454 393.36 389.917 395.25 388.843 396.822C387.769 398.395 386.182 399.586 384.082 400.397C381.982 401.207 379.429 401.612 376.421 401.612C373.55 401.612 371.089 401.173 369.038 400.294C366.987 399.415 365.474 398.317 364.497 396.998C363.521 395.68 363.032 394.357 363.032 393.028C363.032 392.15 363.345 391.398 363.97 390.773C364.595 390.148 365.386 389.835 366.343 389.835C367.183 389.835 367.827 390.04 368.276 390.45C368.726 390.86 369.155 391.437 369.565 392.179C370.386 393.605 371.367 394.669 372.51 395.372C373.652 396.075 375.21 396.427 377.183 396.427C378.784 396.427 380.098 396.07 381.123 395.358C382.148 394.645 382.661 393.829 382.661 392.911C382.661 391.505 382.129 390.48 381.064 389.835C380 389.191 378.247 388.575 375.806 387.989C373.052 387.306 370.811 386.588 369.082 385.836C367.354 385.084 365.972 384.093 364.937 382.862C363.901 381.632 363.384 380.118 363.384 378.321C363.384 376.72 363.862 375.206 364.819 373.78C365.776 372.355 367.188 371.217 369.053 370.367C370.918 369.518 373.169 369.093 375.806 369.093C377.876 369.093 379.736 369.308 381.387 369.737C383.037 370.167 384.414 370.743 385.518 371.466C386.621 372.189 387.461 372.989 388.037 373.868C388.613 374.747 388.901 375.607 388.901 376.446C388.901 377.364 388.594 378.116 387.979 378.702C387.363 379.288 386.489 379.581 385.356 379.581C384.536 379.581 383.838 379.347 383.262 378.878C382.686 378.409 382.026 377.706 381.284 376.769C380.679 375.987 379.966 375.362 379.146 374.894C378.325 374.425 377.212 374.191 375.806 374.191C374.36 374.191 373.159 374.498 372.202 375.113C371.245 375.729 370.767 376.495 370.767 377.413C370.767 378.253 371.118 378.942 371.821 379.479C372.524 380.016 373.472 380.46 374.663 380.812C375.855 381.163 377.495 381.593 379.585 382.101C382.065 382.706 384.092 383.429 385.664 384.269C387.236 385.109 388.428 386.1 389.238 387.242C390.049 388.385 390.454 389.689 390.454 391.153Z"/>
</g>
<g fill="#000120" opacity="1" stroke="none">
<path d="M277.868 508.636L279.229 508.636L279.229 517.482L284.315 517.482L284.315 518.678L277.868 518.678L277.868 508.636Z"/>
<path d="M285.49 511.391L286.741 511.391L286.741 518.678L285.49 518.678L285.49 511.391ZM285.49 508.636L286.741 508.636L286.741 510.031L285.49 510.031L285.49 508.636Z"/>
<path d="M291.424 511.145C292.249 511.145 292.92 511.346 293.437 511.747C293.954 512.148 294.265 512.838 294.37 513.818L293.174 513.818C293.101 513.367 292.935 512.992 292.675 512.694C292.415 512.395 291.998 512.246 291.424 512.246C290.64 512.246 290.08 512.629 289.742 513.394C289.524 513.891 289.414 514.504 289.414 515.233C289.414 515.967 289.569 516.584 289.879 517.086C290.189 517.587 290.677 517.838 291.342 517.838C291.852 517.838 292.257 517.682 292.555 517.369C292.854 517.057 293.06 516.63 293.174 516.088L294.37 516.088C294.233 517.058 293.892 517.768 293.345 518.217C292.798 518.666 292.098 518.89 291.246 518.89C290.289 518.89 289.526 518.541 288.956 517.841C288.386 517.142 288.102 516.268 288.102 515.219C288.102 513.934 288.414 512.934 289.038 512.218C289.663 511.503 290.458 511.145 291.424 511.145Z"/>
<path d="M298.65 511.193C299.169 511.193 299.673 511.315 300.16 511.559C300.648 511.803 301.019 512.118 301.275 512.506C301.521 512.875 301.685 513.305 301.767 513.798C301.84 514.135 301.876 514.673 301.876 515.411L296.51 515.411C296.533 516.154 296.708 516.75 297.036 517.198C297.364 517.647 297.872 517.872 298.561 517.872C299.203 517.872 299.716 517.66 300.099 517.236C300.317 516.99 300.472 516.705 300.564 516.382L301.774 516.382C301.742 516.65 301.636 516.95 301.456 517.281C301.276 517.611 301.074 517.881 300.851 518.091C300.477 518.455 300.014 518.701 299.463 518.829C299.167 518.902 298.832 518.938 298.458 518.938C297.547 518.938 296.774 518.607 296.141 517.944C295.507 517.281 295.191 516.352 295.191 515.158C295.191 513.982 295.51 513.027 296.148 512.294C296.786 511.56 297.62 511.193 298.65 511.193ZM300.611 514.433C300.561 513.9 300.445 513.474 300.263 513.155C299.926 512.563 299.363 512.266 298.574 512.266C298.009 512.266 297.535 512.47 297.152 512.878C296.77 513.286 296.567 513.804 296.544 514.433L300.611 514.433Z"/>
<path d="M303.387 511.357L304.556 511.357L304.556 512.396C304.902 511.968 305.269 511.66 305.656 511.473C306.044 511.287 306.474 511.193 306.948 511.193C307.987 511.193 308.689 511.555 309.054 512.28C309.254 512.676 309.355 513.244 309.355 513.982L309.355 518.678L308.104 518.678L308.104 514.064C308.104 513.618 308.038 513.258 307.905 512.984C307.687 512.528 307.29 512.301 306.716 512.301C306.424 512.301 306.185 512.33 305.998 512.389C305.661 512.49 305.365 512.69 305.109 512.991C304.904 513.232 304.771 513.482 304.71 513.739C304.648 513.997 304.617 514.365 304.617 514.843L304.617 518.678L303.387 518.678L303.387 511.357Z"/>
<path d="M311.904 516.382C311.941 516.792 312.043 517.106 312.212 517.325C312.522 517.721 313.06 517.92 313.825 517.92C314.281 517.92 314.682 517.821 315.028 517.622C315.375 517.424 315.548 517.118 315.548 516.703C315.548 516.388 315.409 516.149 315.131 515.985C314.953 515.885 314.602 515.769 314.078 515.636L313.101 515.39C312.476 515.235 312.016 515.062 311.72 514.871C311.191 514.538 310.927 514.078 310.927 513.49C310.927 512.797 311.176 512.237 311.675 511.808C312.174 511.38 312.845 511.166 313.689 511.166C314.791 511.166 315.587 511.489 316.074 512.136C316.38 512.547 316.528 512.989 316.519 513.463L315.357 513.463C315.334 513.185 315.236 512.932 315.063 512.704C314.78 512.38 314.29 512.218 313.593 512.218C313.128 512.218 312.776 512.307 312.537 512.485C312.297 512.663 312.178 512.898 312.178 513.189C312.178 513.508 312.335 513.763 312.65 513.955C312.832 514.069 313.101 514.169 313.456 514.256L314.27 514.454C315.154 514.668 315.746 514.875 316.047 515.076C316.525 515.39 316.765 515.885 316.765 516.559C316.765 517.211 316.518 517.774 316.023 518.248C315.529 518.722 314.775 518.959 313.764 518.959C312.675 518.959 311.903 518.711 311.45 518.217C310.996 517.723 310.754 517.111 310.722 516.382L311.904 516.382Z"/>
<path d="M321.222 511.193C321.741 511.193 322.245 511.315 322.733 511.559C323.22 511.803 323.592 512.118 323.847 512.506C324.093 512.875 324.257 513.305 324.339 513.798C324.412 514.135 324.448 514.673 324.448 515.411L319.082 515.411C319.105 516.154 319.28 516.75 319.608 517.198C319.937 517.647 320.445 517.872 321.133 517.872C321.775 517.872 322.288 517.66 322.671 517.236C322.89 516.99 323.045 516.705 323.136 516.382L324.346 516.382C324.314 516.65 324.208 516.95 324.028 517.281C323.848 517.611 323.646 517.881 323.423 518.091C323.049 518.455 322.587 518.701 322.035 518.829C321.739 518.902 321.404 518.938 321.03 518.938C320.119 518.938 319.346 518.607 318.713 517.944C318.08 517.281 317.763 516.352 317.763 515.158C317.763 513.982 318.082 513.027 318.72 512.294C319.358 511.56 320.192 511.193 321.222 511.193ZM323.184 514.433C323.134 513.9 323.017 513.474 322.835 513.155C322.498 512.563 321.935 512.266 321.147 512.266C320.581 512.266 320.108 512.47 319.725 512.878C319.342 513.286 319.139 513.804 319.116 514.433L323.184 514.433Z"/>
<path d="M325.638 514.146L329.069 514.146L329.069 515.411L325.638 515.411L325.638 514.146Z"/>
<path d="M330.525 508.602L331.722 508.602L331.722 512.246C331.991 511.895 332.312 511.627 332.686 511.443C333.059 511.258 333.465 511.166 333.902 511.166C334.814 511.166 335.553 511.479 336.121 512.106C336.688 512.732 336.972 513.656 336.972 514.878C336.972 516.035 336.692 516.997 336.131 517.762C335.57 518.528 334.793 518.911 333.8 518.911C333.244 518.911 332.775 518.776 332.392 518.508C332.164 518.348 331.92 518.093 331.66 517.742L331.66 518.678L330.525 518.678L330.525 508.602ZM333.725 517.824C334.39 517.824 334.888 517.56 335.218 517.031C335.549 516.502 335.714 515.805 335.714 514.939C335.714 514.169 335.549 513.531 335.218 513.025C334.888 512.519 334.401 512.266 333.759 512.266C333.198 512.266 332.707 512.474 332.286 512.888C331.864 513.303 331.653 513.987 331.653 514.939C331.653 515.627 331.74 516.186 331.913 516.614C332.237 517.421 332.841 517.824 333.725 517.824Z"/>
<path d="M341.313 517.885C342.128 517.885 342.688 517.577 342.991 516.959C343.294 516.342 343.445 515.655 343.445 514.898C343.445 514.215 343.336 513.659 343.117 513.23C342.771 512.556 342.174 512.218 341.326 512.218C340.574 512.218 340.027 512.506 339.686 513.08C339.344 513.654 339.173 514.347 339.173 515.158C339.173 515.937 339.344 516.587 339.686 517.106C340.027 517.626 340.57 517.885 341.313 517.885ZM341.36 511.145C342.304 511.145 343.101 511.46 343.753 512.089C344.405 512.718 344.731 513.643 344.731 514.864C344.731 516.044 344.443 517.02 343.869 517.79C343.295 518.56 342.404 518.945 341.196 518.945C340.189 518.945 339.389 518.604 338.797 517.923C338.205 517.242 337.908 516.327 337.908 515.178C337.908 513.948 338.22 512.968 338.845 512.239C339.469 511.51 340.308 511.145 341.36 511.145Z"/>
<path d="M346.193 511.357L347.362 511.357L347.362 512.396C347.709 511.968 348.076 511.66 348.463 511.473C348.85 511.287 349.281 511.193 349.755 511.193C350.794 511.193 351.496 511.555 351.86 512.28C352.061 512.676 352.161 513.244 352.161 513.982L352.161 518.678L350.91 518.678L350.91 514.064C350.91 513.618 350.844 513.258 350.712 512.984C350.493 512.528 350.097 512.301 349.523 512.301C349.231 512.301 348.992 512.33 348.805 512.389C348.468 512.49 348.171 512.69 347.916 512.991C347.711 513.232 347.578 513.482 347.516 513.739C347.455 513.997 347.424 514.365 347.424 514.843L347.424 518.678L346.193 518.678L346.193 511.357Z"/>
<path d="M354.759 515.103C354.759 515.887 354.925 516.543 355.258 517.072C355.591 517.601 356.124 517.865 356.858 517.865C357.427 517.865 357.895 517.62 358.262 517.13C358.629 516.64 358.813 515.937 358.813 515.021C358.813 514.096 358.623 513.411 358.245 512.967C357.867 512.523 357.4 512.301 356.844 512.301C356.224 512.301 355.722 512.538 355.337 513.011C354.951 513.485 354.759 514.183 354.759 515.103ZM356.611 511.227C357.172 511.227 357.641 511.346 358.02 511.583C358.238 511.719 358.487 511.959 358.765 512.301L358.765 508.602L359.947 508.602L359.947 518.678L358.84 518.678L358.84 517.66C358.553 518.111 358.213 518.437 357.821 518.637C357.429 518.838 356.981 518.938 356.475 518.938C355.659 518.938 354.953 518.595 354.356 517.909C353.759 517.224 353.46 516.311 353.46 515.172C353.46 514.105 353.732 513.181 354.277 512.4C354.822 511.618 355.6 511.227 356.611 511.227Z"/>
<path d="M364.815 511.193C365.334 511.193 365.838 511.315 366.325 511.559C366.813 511.803 367.184 512.118 367.44 512.506C367.686 512.875 367.85 513.305 367.932 513.798C368.005 514.135 368.041 514.673 368.041 515.411L362.675 515.411C362.698 516.154 362.873 516.75 363.201 517.198C363.529 517.647 364.038 517.872 364.726 517.872C365.368 517.872 365.881 517.66 366.264 517.236C366.483 516.99 366.637 516.705 366.729 516.382L367.939 516.382C367.907 516.65 367.801 516.95 367.621 517.281C367.441 517.611 367.239 517.881 367.016 518.091C366.642 518.455 366.179 518.701 365.628 518.829C365.332 518.902 364.997 518.938 364.623 518.938C363.712 518.938 362.939 518.607 362.306 517.944C361.672 517.281 361.356 516.352 361.356 515.158C361.356 513.982 361.675 513.027 362.313 512.294C362.951 511.56 363.785 511.193 364.815 511.193ZM366.776 514.433C366.726 513.9 366.61 513.474 366.428 513.155C366.091 512.563 365.528 512.266 364.739 512.266C364.174 512.266 363.7 512.47 363.317 512.878C362.935 513.286 362.732 513.804 362.709 514.433L366.776 514.433Z"/>
<path d="M370.331 515.103C370.331 515.887 370.497 516.543 370.83 517.072C371.163 517.601 371.696 517.865 372.43 517.865C372.999 517.865 373.468 517.62 373.835 517.13C374.201 516.64 374.385 515.937 374.385 515.021C374.385 514.096 374.196 513.411 373.817 512.967C373.439 512.523 372.972 512.301 372.416 512.301C371.796 512.301 371.294 512.538 370.909 513.011C370.524 513.485 370.331 514.183 370.331 515.103ZM372.184 511.227C372.744 511.227 373.214 511.346 373.592 511.583C373.811 511.719 374.059 511.959 374.337 512.301L374.337 508.602L375.52 508.602L375.52 518.678L374.412 518.678L374.412 517.66C374.125 518.111 373.786 518.437 373.394 518.637C373.002 518.838 372.553 518.938 372.047 518.938C371.231 518.938 370.525 518.595 369.928 517.909C369.331 517.224 369.032 516.311 369.032 515.172C369.032 514.105 369.305 513.181 369.849 512.4C370.394 511.618 371.172 511.227 372.184 511.227Z"/>
<path d="M377.017 514.146L380.448 514.146L380.448 515.411L377.017 515.411L377.017 514.146Z"/>
<path d="M382 511.391L383.251 511.391L383.251 518.678L382 518.678L382 511.391ZM382 508.636L383.251 508.636L383.251 510.031L382 510.031L382 508.636Z"/>
<path d="M385.11 511.357L386.279 511.357L386.279 512.396C386.626 511.968 386.993 511.66 387.38 511.473C387.767 511.287 388.198 511.193 388.672 511.193C389.711 511.193 390.413 511.555 390.777 512.28C390.978 512.676 391.078 513.244 391.078 513.982L391.078 518.678L389.827 518.678L389.827 514.064C389.827 513.618 389.761 513.258 389.629 512.984C389.41 512.528 389.014 512.301 388.44 512.301C388.148 512.301 387.909 512.33 387.722 512.389C387.385 512.49 387.088 512.69 386.833 512.991C386.628 513.232 386.495 513.482 386.433 513.739C386.372 513.997 386.341 514.365 386.341 514.843L386.341 518.678L385.11 518.678L385.11 511.357Z"/>
<path d="M393.628 516.382C393.664 516.792 393.767 517.106 393.936 517.325C394.246 517.721 394.783 517.92 395.549 517.92C396.005 517.92 396.406 517.821 396.752 517.622C397.098 517.424 397.272 517.118 397.272 516.703C397.272 516.388 397.133 516.149 396.855 515.985C396.677 515.885 396.326 515.769 395.802 515.636L394.824 515.39C394.2 515.235 393.74 515.062 393.443 514.871C392.915 514.538 392.65 514.078 392.65 513.49C392.65 512.797 392.9 512.237 393.399 511.808C393.898 511.38 394.569 511.166 395.412 511.166C396.515 511.166 397.31 511.489 397.798 512.136C398.103 512.547 398.251 512.989 398.242 513.463L397.08 513.463C397.057 513.185 396.959 512.932 396.786 512.704C396.504 512.38 396.014 512.218 395.317 512.218C394.852 512.218 394.5 512.307 394.26 512.485C394.021 512.663 393.901 512.898 393.901 513.189C393.901 513.508 394.059 513.763 394.373 513.955C394.555 514.069 394.824 514.169 395.18 514.256L395.993 514.454C396.877 514.668 397.47 514.875 397.771 515.076C398.249 515.39 398.488 515.885 398.488 516.559C398.488 517.211 398.241 517.774 397.747 518.248C397.252 518.722 396.499 518.959 395.487 518.959C394.398 518.959 393.627 518.711 393.173 518.217C392.72 517.723 392.477 517.111 392.445 516.382L393.628 516.382Z"/>
<path d="M401.127 511.357L401.127 516.218C401.127 516.591 401.186 516.897 401.305 517.134C401.524 517.571 401.931 517.79 402.528 517.79C403.385 517.79 403.969 517.407 404.278 516.641C404.447 516.231 404.531 515.668 404.531 514.953L404.531 511.357L405.762 511.357L405.762 518.678L404.6 518.678L404.613 517.598C404.454 517.876 404.256 518.111 404.019 518.302C403.549 518.685 402.98 518.877 402.31 518.877C401.266 518.877 400.555 518.528 400.177 517.831C399.972 517.457 399.869 516.958 399.869 516.334L399.869 511.357L401.127 511.357Z"/>
<path d="M407.717 511.357L408.886 511.357L408.886 512.622C408.982 512.376 409.216 512.076 409.59 511.723C409.964 511.37 410.394 511.193 410.882 511.193C410.905 511.193 410.943 511.195 410.998 511.2C411.053 511.204 411.146 511.214 411.278 511.227L411.278 512.526C411.206 512.512 411.138 512.503 411.077 512.499C411.015 512.494 410.948 512.492 410.875 512.492C410.255 512.492 409.779 512.691 409.446 513.09C409.114 513.489 408.947 513.948 408.947 514.468L408.947 518.678L407.717 518.678L407.717 511.357Z"/>
<path d="M415.394 511.193C415.913 511.193 416.417 511.315 416.904 511.559C417.392 511.803 417.763 512.118 418.019 512.506C418.265 512.875 418.429 513.305 418.511 513.798C418.584 514.135 418.62 514.673 418.62 515.411L413.254 515.411C413.277 516.154 413.452 516.75 413.78 517.198C414.108 517.647 414.617 517.872 415.305 517.872C415.947 517.872 416.46 517.66 416.843 517.236C417.062 516.99 417.217 516.705 417.308 516.382L418.518 516.382C418.486 516.65 418.38 516.95 418.2 517.281C418.02 517.611 417.818 517.881 417.595 518.091C417.221 518.455 416.759 518.701 416.207 518.829C415.911 518.902 415.576 518.938 415.202 518.938C414.291 518.938 413.518 518.607 412.885 517.944C412.251 517.281 411.935 516.352 411.935 515.158C411.935 513.982 412.254 513.027 412.892 512.294C413.53 511.56 414.364 511.193 415.394 511.193ZM417.356 514.433C417.305 513.9 417.189 513.474 417.007 513.155C416.67 512.563 416.107 512.266 415.318 512.266C414.753 512.266 414.279 512.47 413.897 512.878C413.514 513.286 413.311 513.804 413.288 514.433L417.356 514.433Z"/>
<path d="M420.91 515.103C420.91 515.887 421.077 516.543 421.409 517.072C421.742 517.601 422.275 517.865 423.009 517.865C423.579 517.865 424.047 517.62 424.414 517.13C424.781 516.64 424.964 515.937 424.964 515.021C424.964 514.096 424.775 513.411 424.397 512.967C424.018 512.523 423.551 512.301 422.995 512.301C422.375 512.301 421.873 512.538 421.488 513.011C421.103 513.485 420.91 514.183 420.91 515.103ZM422.763 511.227C423.323 511.227 423.793 511.346 424.171 511.583C424.39 511.719 424.638 511.959 424.916 512.301L424.916 508.602L426.099 508.602L426.099 518.678L424.991 518.678L424.991 517.66C424.704 518.111 424.365 518.437 423.973 518.637C423.581 518.838 423.132 518.938 422.626 518.938C421.81 518.938 421.104 518.595 420.507 517.909C419.91 517.224 419.611 516.311 419.611 515.172C419.611 514.105 419.884 513.181 420.428 512.4C420.973 511.618 421.751 511.227 422.763 511.227Z"/>
<path d="M428.211 517.188L429.64 517.188L429.64 518.678L428.211 518.678L428.211 517.188Z"/>
<path d="M440.529 513.237C441.167 513.237 441.672 513.109 442.044 512.854C442.415 512.599 442.601 512.139 442.601 511.473C442.601 510.758 442.341 510.27 441.821 510.01C441.543 509.874 441.172 509.805 440.707 509.805L437.385 509.805L437.385 513.237L440.529 513.237ZM436.025 508.636L440.673 508.636C441.439 508.636 442.07 508.748 442.567 508.971C443.51 509.4 443.982 510.19 443.982 511.343C443.982 511.945 443.857 512.437 443.609 512.82C443.361 513.203 443.013 513.51 442.567 513.743C442.958 513.902 443.254 514.112 443.452 514.372C443.65 514.632 443.761 515.053 443.783 515.636L443.831 516.983C443.845 517.366 443.877 517.651 443.927 517.838C444.009 518.157 444.155 518.362 444.364 518.453L444.364 518.678L442.696 518.678C442.651 518.592 442.614 518.48 442.587 518.343C442.56 518.207 442.537 517.942 442.519 517.551L442.437 515.876C442.405 515.219 442.161 514.78 441.705 514.556C441.445 514.433 441.038 514.372 440.482 514.372L437.385 514.372L437.385 518.678L436.025 518.678L436.025 508.636Z"/>
<path d="M450.305 508.363C452.078 508.363 453.39 508.933 454.242 510.072C454.908 510.961 455.24 512.098 455.24 513.483C455.24 514.982 454.86 516.229 454.099 517.222C453.206 518.389 451.932 518.972 450.277 518.972C448.733 518.972 447.518 518.462 446.634 517.441C445.845 516.457 445.451 515.213 445.451 513.709C445.451 512.351 445.789 511.189 446.463 510.222C447.329 508.983 448.609 508.363 450.305 508.363ZM450.442 517.756C451.64 517.756 452.507 517.326 453.043 516.467C453.578 515.608 453.846 514.62 453.846 513.504C453.846 512.323 453.537 511.373 452.92 510.653C452.302 509.933 451.458 509.573 450.387 509.573C449.348 509.573 448.5 509.93 447.844 510.643C447.188 511.356 446.859 512.408 446.859 513.798C446.859 514.91 447.141 515.847 447.704 516.611C448.267 517.374 449.179 517.756 450.442 517.756Z"/>
<path d="M461.092 508.363C462.363 508.363 463.35 508.698 464.052 509.368C464.754 510.038 465.143 510.799 465.221 511.651L463.895 511.651C463.744 511.004 463.445 510.491 462.996 510.113C462.547 509.735 461.917 509.546 461.106 509.546C460.117 509.546 459.318 509.893 458.71 510.588C458.101 511.283 457.797 512.348 457.797 513.784C457.797 514.96 458.072 515.913 458.621 516.645C459.17 517.376 459.989 517.742 461.078 517.742C462.081 517.742 462.844 517.357 463.368 516.587C463.646 516.181 463.854 515.648 463.99 514.987L465.317 514.987C465.198 516.044 464.806 516.931 464.141 517.646C463.343 518.508 462.268 518.938 460.914 518.938C459.747 518.938 458.768 518.585 457.975 517.879C456.931 516.944 456.409 515.502 456.409 513.551C456.409 512.07 456.801 510.856 457.585 509.908C458.433 508.878 459.602 508.363 461.092 508.363Z"/>
<path d="M466.109 514.843L467.702 514.843L468.345 512.492L466.759 512.492L466.971 511.699L468.557 511.699L469.37 508.636L470.389 508.636L469.562 511.699L471.072 511.699L471.913 508.636L472.918 508.636L472.091 511.699L473.677 511.699L473.465 512.492L471.879 512.492L471.23 514.843L472.822 514.843L472.61 515.636L471.038 515.636L470.197 518.678L469.192 518.678L470.02 515.636L468.495 515.636L467.682 518.678L466.663 518.678L467.49 515.636L465.904 515.636L466.109 514.843ZM470.211 514.843L470.86 512.492L469.35 512.492L468.721 514.843L470.211 514.843Z"/>
<path d="M481.217 518.945C480.059 518.945 479.22 518.627 478.698 517.991C478.176 517.356 477.915 516.582 477.915 515.671L479.2 515.671C479.255 516.304 479.373 516.764 479.556 517.051C479.875 517.566 480.451 517.824 481.285 517.824C481.932 517.824 482.452 517.651 482.844 517.304C483.236 516.958 483.432 516.511 483.432 515.965C483.432 515.29 483.226 514.818 482.813 514.55C482.401 514.281 481.828 514.146 481.094 514.146C481.012 514.146 480.929 514.147 480.844 514.15C480.76 514.152 480.675 514.155 480.588 514.16L480.588 513.073C480.716 513.087 480.823 513.096 480.909 513.1C480.996 513.105 481.089 513.107 481.19 513.107C481.65 513.107 482.028 513.034 482.324 512.888C482.844 512.633 483.104 512.177 483.104 511.521C483.104 511.034 482.93 510.658 482.584 510.393C482.238 510.129 481.834 509.997 481.374 509.997C480.554 509.997 479.986 510.27 479.672 510.817C479.499 511.118 479.401 511.546 479.378 512.102L478.161 512.102C478.161 511.373 478.307 510.753 478.599 510.243C479.1 509.331 479.982 508.876 481.244 508.876C482.242 508.876 483.015 509.098 483.562 509.542C484.108 509.987 484.382 510.63 484.382 511.473C484.382 512.075 484.22 512.563 483.897 512.936C483.696 513.169 483.436 513.351 483.117 513.483C483.632 513.624 484.034 513.897 484.324 514.3C484.613 514.703 484.758 515.197 484.758 515.78C484.758 516.714 484.45 517.475 483.835 518.063C483.22 518.651 482.347 518.945 481.217 518.945Z"/>
<path d="M489.994 515.213L489.994 510.776L486.857 515.213L489.994 515.213ZM490.015 518.678L490.015 516.286L485.722 516.286L485.722 515.083L490.206 508.862L491.245 508.862L491.245 515.213L492.688 515.213L492.688 516.286L491.245 516.286L491.245 518.678L490.015 518.678Z"/>
<path d="M497.78 515.213L497.78 510.776L494.643 515.213L497.78 515.213ZM497.801 518.678L497.801 516.286L493.508 516.286L493.508 515.083L497.992 508.862L499.031 508.862L499.031 515.213L500.474 515.213L500.474 516.286L499.031 516.286L499.031 518.678L497.801 518.678Z"/>
<path d="M501.376 518.678C501.422 517.835 501.596 517.102 501.899 516.477C502.202 515.853 502.793 515.286 503.673 514.775L504.985 514.016C505.573 513.675 505.986 513.383 506.223 513.141C506.596 512.763 506.783 512.33 506.783 511.843C506.783 511.273 506.612 510.821 506.271 510.486C505.929 510.151 505.473 509.983 504.903 509.983C504.06 509.983 503.477 510.302 503.153 510.94C502.98 511.282 502.885 511.756 502.866 512.362L501.615 512.362C501.629 511.51 501.786 510.815 502.087 510.277C502.62 509.329 503.561 508.855 504.91 508.855C506.031 508.855 506.851 509.158 507.368 509.764C507.885 510.371 508.144 511.045 508.144 511.788C508.144 512.572 507.868 513.242 507.317 513.798C506.997 514.121 506.426 514.513 505.601 514.973L504.664 515.493C504.218 515.739 503.867 515.974 503.611 516.197C503.156 516.593 502.869 517.033 502.75 517.516L508.096 517.516L508.096 518.678L501.376 518.678Z"/>
<path d="M512.532 512.991C513.075 512.991 513.498 512.839 513.804 512.536C514.109 512.233 514.262 511.872 514.262 511.453C514.262 511.088 514.116 510.753 513.824 510.448C513.533 510.143 513.088 509.99 512.491 509.99C511.899 509.99 511.47 510.143 511.206 510.448C510.942 510.753 510.81 511.111 510.81 511.521C510.81 511.982 510.981 512.342 511.322 512.601C511.664 512.861 512.067 512.991 512.532 512.991ZM512.608 517.838C513.177 517.838 513.65 517.684 514.026 517.376C514.402 517.069 514.59 516.609 514.59 515.999C514.59 515.365 514.396 514.885 514.009 514.556C513.622 514.228 513.125 514.064 512.519 514.064C511.931 514.064 511.451 514.232 511.08 514.567C510.708 514.902 510.523 515.365 510.523 515.958C510.523 516.468 510.692 516.909 511.032 517.281C511.371 517.652 511.897 517.838 512.608 517.838ZM510.858 513.463C510.516 513.317 510.249 513.146 510.058 512.95C509.698 512.585 509.518 512.111 509.518 511.528C509.518 510.799 509.782 510.172 510.311 509.648C510.839 509.124 511.589 508.862 512.56 508.862C513.498 508.862 514.234 509.109 514.768 509.604C515.301 510.098 515.567 510.676 515.567 511.337C515.567 511.947 515.413 512.442 515.103 512.82C514.929 513.034 514.661 513.244 514.296 513.449C514.702 513.636 515.021 513.85 515.253 514.092C515.686 514.547 515.902 515.14 515.902 515.869C515.902 516.73 515.613 517.461 515.034 518.06C514.456 518.659 513.637 518.959 512.58 518.959C511.628 518.959 510.822 518.7 510.164 518.183C509.505 517.666 509.176 516.915 509.176 515.93C509.176 515.352 509.317 514.851 509.6 514.43C509.882 514.008 510.302 513.686 510.858 513.463Z"/>
<path d="M520.318 512.991C520.861 512.991 521.285 512.839 521.59 512.536C521.895 512.233 522.048 511.872 522.048 511.453C522.048 511.088 521.902 510.753 521.61 510.448C521.319 510.143 520.874 509.99 520.277 509.99C519.685 509.99 519.257 510.143 518.992 510.448C518.728 510.753 518.596 511.111 518.596 511.521C518.596 511.982 518.767 512.342 519.108 512.601C519.45 512.861 519.854 512.991 520.318 512.991ZM520.394 517.838C520.963 517.838 521.436 517.684 521.812 517.376C522.188 517.069 522.376 516.609 522.376 515.999C522.376 515.365 522.182 514.885 521.795 514.556C521.408 514.228 520.911 514.064 520.305 514.064C519.717 514.064 519.237 514.232 518.866 514.567C518.494 514.902 518.309 515.365 518.309 515.958C518.309 516.468 518.478 516.909 518.818 517.281C519.157 517.652 519.683 517.838 520.394 517.838ZM518.644 513.463C518.302 513.317 518.035 513.146 517.844 512.95C517.484 512.585 517.304 512.111 517.304 511.528C517.304 510.799 517.568 510.172 518.097 509.648C518.625 509.124 519.375 508.862 520.346 508.862C521.285 508.862 522.021 509.109 522.554 509.604C523.087 510.098 523.354 510.676 523.354 511.337C523.354 511.947 523.199 512.442 522.889 512.82C522.716 513.034 522.447 513.244 522.082 513.449C522.488 513.636 522.807 513.85 523.039 514.092C523.472 514.547 523.689 515.14 523.689 515.869C523.689 516.73 523.399 517.461 522.82 518.06C522.242 518.659 521.424 518.959 520.366 518.959C519.414 518.959 518.608 518.7 517.95 518.183C517.291 517.666 516.962 516.915 516.962 515.93C516.962 515.352 517.103 514.851 517.386 514.43C517.668 514.008 518.088 513.686 518.644 513.463Z"/>
</g>
</g>
</svg>
